<svg width="3422" height="241" viewBox="0 0 3422 241" fill="none" xmlns="http://www.w3.org/2000/svg">
<path d="M0 20C0 8.9543 8.9543 0 20 0H3402C3413.05 0 3422 8.95431 3422 20V241H0V20Z" fill="#8DD3BB"/>
<rect x="30" y="30" width="3362" height="181" rx="24" fill="#8DD3BB"/>
<path d="M77.9047 92.84H89.2647V151H77.9047V92.84ZM147.587 135.64C147.267 137.133 146.601 138.867 145.587 140.84C144.627 142.76 143.241 144.573 141.427 146.28C139.614 147.987 137.321 149.453 134.547 150.68C131.774 151.853 128.414 152.44 124.467 152.44C121.001 152.44 117.747 151.987 114.707 151.08C111.721 150.227 109.081 148.84 106.787 146.92C104.494 145 102.681 142.52 101.347 139.48C100.067 136.44 99.4272 132.76 99.4272 128.44C99.4272 125.613 99.9605 122.893 101.027 120.28C102.147 117.667 103.721 115.347 105.747 113.32C107.827 111.293 110.361 109.667 113.347 108.44C116.334 107.213 119.747 106.6 123.587 106.6C127.534 106.6 130.921 107.107 133.747 108.12C136.574 109.08 138.921 110.36 140.787 111.96C142.707 113.56 144.147 115.32 145.107 117.24C146.067 119.16 146.627 121.027 146.787 122.84H136.867C136.601 121.987 136.147 121.107 135.507 120.2C134.867 119.293 134.014 118.467 132.947 117.72C131.934 116.92 130.681 116.28 129.187 115.8C127.747 115.32 126.094 115.08 124.227 115.08C121.881 115.08 119.801 115.48 117.987 116.28C116.174 117.08 114.627 118.12 113.347 119.4C112.121 120.68 111.161 122.147 110.467 123.8C109.827 125.453 109.507 127.133 109.507 128.84C109.507 130.92 109.774 132.867 110.307 134.68C110.894 136.493 111.747 138.093 112.867 139.48C114.041 140.867 115.481 141.96 117.187 142.76C118.947 143.56 121.027 143.96 123.427 143.96C125.561 143.96 127.427 143.72 129.027 143.24C130.681 142.707 132.067 142.04 133.187 141.24C134.307 140.44 135.187 139.56 135.827 138.6C136.521 137.587 136.974 136.6 137.187 135.64H147.587ZM176.788 143.96C181.268 143.96 184.708 142.68 187.108 140.12C189.562 137.507 190.788 133.907 190.788 129.32C190.788 126.813 190.415 124.653 189.668 122.84C188.922 121.027 187.908 119.56 186.628 118.44C185.348 117.267 183.855 116.413 182.148 115.88C180.442 115.347 178.655 115.08 176.788 115.08C174.868 115.08 173.055 115.347 171.348 115.88C169.695 116.413 168.228 117.267 166.948 118.44C165.668 119.56 164.655 121.027 163.908 122.84C163.162 124.653 162.788 126.813 162.788 129.32C162.788 133.907 163.988 137.507 166.388 140.12C168.842 142.68 172.308 143.96 176.788 143.96ZM176.788 152.44C173.855 152.44 170.948 152.04 168.068 151.24C165.188 150.493 162.602 149.213 160.308 147.4C158.068 145.587 156.228 143.213 154.788 140.28C153.402 137.347 152.708 133.747 152.708 129.48C152.708 126.6 153.162 123.8 154.068 121.08C154.975 118.307 156.388 115.853 158.308 113.72C160.282 111.587 162.788 109.88 165.828 108.6C168.868 107.267 172.522 106.6 176.788 106.6C181.055 106.6 184.708 107.267 187.748 108.6C190.788 109.88 193.268 111.587 195.188 113.72C197.162 115.853 198.602 118.307 199.508 121.08C200.415 123.8 200.868 126.6 200.868 129.48C200.868 133.747 200.148 137.347 198.708 140.28C197.322 143.213 195.482 145.587 193.188 147.4C190.948 149.213 188.388 150.493 185.508 151.24C182.628 152.04 179.722 152.44 176.788 152.44ZM208.79 108.04H218.55V113.4C219.35 112.653 220.203 111.88 221.11 111.08C222.07 110.28 223.19 109.56 224.47 108.92C225.75 108.227 227.216 107.667 228.87 107.24C230.523 106.813 232.443 106.6 234.63 106.6C236.87 106.6 239.003 106.867 241.03 107.4C243.056 107.933 244.843 108.84 246.39 110.12C247.936 111.4 249.163 113.133 250.07 115.32C250.976 117.507 251.43 120.227 251.43 123.48V151H241.51V127.16C241.51 122.893 240.816 119.827 239.43 117.96C238.043 116.04 235.67 115.08 232.31 115.08C230.336 115.08 228.63 115.267 227.19 115.64C225.75 116.013 224.496 116.52 223.43 117.16C222.416 117.747 221.536 118.413 220.79 119.16C220.043 119.907 219.35 120.653 218.71 121.4V151H208.79V108.04ZM294.549 121.24C294.176 120.76 293.642 120.147 292.949 119.4C292.309 118.6 291.429 117.853 290.309 117.16C289.242 116.413 287.909 115.8 286.309 115.32C284.709 114.787 282.789 114.52 280.549 114.52C278.736 114.52 277.216 114.68 275.989 115C274.762 115.32 273.776 115.747 273.029 116.28C272.282 116.76 271.749 117.32 271.429 117.96C271.109 118.547 270.949 119.133 270.949 119.72C270.949 120.573 271.189 121.267 271.669 121.8C272.202 122.28 272.896 122.707 273.749 123.08C274.656 123.4 275.722 123.667 276.949 123.88C278.176 124.04 279.536 124.227 281.029 124.44C283.962 124.813 286.789 125.267 289.509 125.8C292.229 126.28 294.629 127.027 296.709 128.04C298.789 129 300.442 130.307 301.669 131.96C302.896 133.56 303.509 135.693 303.509 138.36C303.509 140.44 303.136 142.253 302.389 143.8C301.642 145.293 300.656 146.573 299.429 147.64C298.256 148.653 296.896 149.48 295.349 150.12C293.856 150.76 292.309 151.24 290.709 151.56C289.109 151.933 287.562 152.173 286.069 152.28C284.576 152.387 283.242 152.44 282.069 152.44C278.389 152.44 275.269 152.093 272.709 151.4C270.202 150.76 268.069 149.933 266.309 148.92C264.602 147.907 263.162 146.787 261.989 145.56C260.869 144.28 259.856 143.08 258.949 141.96L267.349 137.08C268.202 138.467 269.189 139.64 270.309 140.6C271.482 141.56 272.736 142.333 274.069 142.92C275.456 143.453 276.896 143.853 278.389 144.12C279.936 144.333 281.482 144.44 283.029 144.44C284.362 144.44 285.616 144.333 286.789 144.12C288.016 143.907 289.082 143.587 289.989 143.16C290.949 142.733 291.696 142.2 292.229 141.56C292.816 140.867 293.109 140.04 293.109 139.08C293.109 138.28 292.922 137.64 292.549 137.16C292.176 136.627 291.509 136.2 290.549 135.88C289.589 135.56 288.256 135.267 286.549 135C284.896 134.733 282.762 134.413 280.149 134.04C276.096 133.507 272.789 132.813 270.229 131.96C267.669 131.053 265.669 130.013 264.229 128.84C262.789 127.613 261.802 126.28 261.269 124.84C260.789 123.4 260.549 121.853 260.549 120.2C260.549 119.08 260.816 117.747 261.349 116.2C261.882 114.6 262.896 113.107 264.389 111.72C265.882 110.28 267.936 109.053 270.549 108.04C273.216 107.027 276.629 106.52 280.789 106.52C282.016 106.52 283.536 106.627 285.349 106.84C287.216 107.053 289.162 107.507 291.189 108.2C293.216 108.893 295.242 109.933 297.269 111.32C299.349 112.653 301.189 114.44 302.789 116.68L294.549 121.24Z" fill="#112211"/>
</svg>
