<svg width="108" height="64" viewBox="0 0 108 64" fill="none" xmlns="http://www.w3.org/2000/svg">
<g clip-path="url(#clip0_29_583)">
<path d="M32 24.5C33.0355 24.5 33.875 23.6605 33.875 22.625C33.875 21.5895 33.0355 20.75 32 20.75C30.9645 20.75 30.125 21.5895 30.125 22.625C30.125 23.6605 30.9645 24.5 32 24.5Z" stroke="black" stroke-width="1.5" stroke-linejoin="round"/>
<path d="M29.5735 32.8644C29.7095 32.0178 29.7704 31.1994 29.5501 30.6336C29.3626 30.147 28.9548 29.8747 28.4626 29.6891L24.1253 28.2856C23.5628 28.0981 23.0373 27.7841 23.0003 27.1634C22.9534 26.3666 23.6565 25.8509 24.3596 26.0384C24.3596 26.0384 28.4846 27.4981 32.0003 27.4981C35.5159 27.4981 39.594 26.045 39.594 26.045C40.4378 25.8106 41.0003 26.4669 41.0003 27.1602C41.0003 27.8262 40.4846 28.0606 39.8753 28.2823L35.7503 29.7781C35.3753 29.9187 34.7659 30.2 34.5315 30.6303C34.2503 31.1342 34.2971 32.0145 34.4331 32.8611L34.7096 34.25L36.4632 41.9328C36.5945 42.5492 36.1679 43.1253 35.5539 43.2331C34.9398 43.3409 34.4378 42.9219 34.2559 42.3256L32.4953 36.8914C32.4106 36.6308 32.3356 36.3672 32.2703 36.1006L32.0003 35L31.7518 36.0148C31.6731 36.3383 31.5825 36.6583 31.48 36.9748L29.7503 42.3209C29.5628 42.9233 29.0706 43.3405 28.4565 43.2331C27.8425 43.1258 27.4065 42.5023 27.5443 41.9328L29.297 34.2533L29.5735 32.8644Z" stroke="black" stroke-width="1.5" stroke-linejoin="round"/>
</g>
<g clip-path="url(#clip1_29_583)">
<path d="M76 25.25C75.4808 25.25 74.9733 25.096 74.5416 24.8076C74.11 24.5192 73.7735 24.1092 73.5748 23.6295C73.3761 23.1499 73.3242 22.6221 73.4254 22.1129C73.5267 21.6037 73.7767 21.136 74.1438 20.7688C74.511 20.4017 74.9787 20.1517 75.4879 20.0504C75.9971 19.9492 76.5249 20.0011 77.0045 20.1998C77.4842 20.3985 77.8942 20.735 78.1826 21.1666C78.471 21.5983 78.625 22.1058 78.625 22.625C78.6243 23.321 78.3475 23.9882 77.8553 24.4803C77.3632 24.9725 76.696 25.2493 76 25.25Z" fill="black"/>
<path d="M84.2495 25.2874L84.2284 25.2931L84.2087 25.2992C84.1619 25.3123 84.115 25.3263 84.0681 25.3409C83.1958 25.5968 78.962 26.7902 75.9794 26.7902C73.2077 26.7902 69.3569 25.759 68.125 25.4088C68.0024 25.3614 67.8772 25.3211 67.75 25.2879C66.8594 25.0535 66.25 25.9582 66.25 26.7851C66.25 27.604 66.9859 27.994 67.7289 28.2738V28.287L72.1923 29.681C72.6484 29.8559 72.7703 30.0345 72.8298 30.1892C73.0234 30.6856 72.8688 31.6685 72.8139 32.0117L72.542 34.121L71.0331 42.3799C71.0284 42.4024 71.0242 42.4254 71.0205 42.4488L71.0097 42.5084C70.9009 43.2654 71.4569 43.9999 72.5097 43.9999C73.4284 43.9999 73.8339 43.3657 74.0097 42.5027C74.1855 41.6398 75.3222 35.1167 75.9784 35.1167C76.6347 35.1167 77.9866 42.5027 77.9866 42.5027C78.1623 43.3657 78.5678 43.9999 79.4866 43.9999C80.5422 43.9999 81.0981 43.2621 80.9866 42.5027C80.977 42.4389 80.9651 42.3754 80.9509 42.3124L79.4214 34.122L79.15 32.0126C78.9536 30.784 79.1116 30.3781 79.165 30.2829C79.1664 30.2807 79.1677 30.2783 79.1687 30.2759C79.2194 30.1821 79.45 29.9721 79.9881 29.7701L84.1731 28.3071C84.1988 28.3003 84.2242 28.2921 84.2491 28.2827C84.9991 28.0015 85.7491 27.6124 85.7491 26.786C85.7491 25.9596 85.1402 25.0535 84.2495 25.2874Z" fill="black"/>
</g>
<rect x="0.5" y="0.5" width="107" height="63" rx="4.5" stroke="#9747FF" stroke-dasharray="10 5"/>
<defs>
<clipPath id="clip0_29_583">
<rect width="24" height="24" fill="white" transform="translate(20 20)"/>
</clipPath>
<clipPath id="clip1_29_583">
<rect width="24" height="24" fill="white" transform="translate(64 20)"/>
</clipPath>
</defs>
</svg>
