<svg width="108" height="64" viewBox="0 0 108 64" fill="none" xmlns="http://www.w3.org/2000/svg">
<!-- <path d="M39.112 30.5C38.9526 30.5 38.4187 30.5047 38.2682 30.5141L35.2261 30.5938C35.2102 30.5947 35.1945 30.5913 35.1805 30.5838C35.1665 30.5764 35.1549 30.5652 35.1468 30.5516L29.0728 23.1669C29.0359 23.1181 28.9889 23.0779 28.935 23.0491C28.8811 23.0203 28.8216 23.0035 28.7606 23H27.5001L30.922 30.5469C30.9302 30.5642 30.9337 30.5833 30.9322 30.6023C30.9308 30.6214 30.9244 30.6397 30.9137 30.6555C30.903 30.6714 30.8884 30.6842 30.8713 30.6926C30.8542 30.7011 30.8351 30.705 30.8161 30.7039L25.1118 30.7883C25.0525 30.7901 24.9935 30.7779 24.9398 30.7526C24.886 30.7274 24.839 30.6898 24.8025 30.643L23.0681 28.5336C22.9275 28.3508 22.664 28.2523 22.4348 28.2523H21.5507C21.4903 28.2523 21.4992 28.3091 21.5156 28.3662L22.4456 31.7141C22.5159 31.8934 22.5159 32.0926 22.4456 32.2719L21.5147 35.6094C21.487 35.7008 21.4903 35.75 21.5976 35.75H22.4376C22.8192 35.75 22.8712 35.7003 23.0662 35.4547L24.8334 33.3125C24.8702 33.266 24.9173 33.2287 24.971 33.2035C25.0247 33.1783 25.0835 33.1659 25.1428 33.1672L30.7997 33.2938C30.8202 33.2942 30.8404 33.2997 30.8584 33.3097C30.8764 33.3198 30.8917 33.334 30.9029 33.3513C30.9141 33.3686 30.921 33.3884 30.9228 33.4089C30.9247 33.4294 30.9215 33.4501 30.9136 33.4691L27.5001 41H28.7489C28.8098 40.9964 28.8692 40.9797 28.923 40.951C28.9768 40.9223 29.0238 40.8822 29.0606 40.8336L35.1473 33.4531C35.1656 33.425 35.2411 33.4109 35.2734 33.4109L38.2687 33.4906C38.4234 33.5 38.9526 33.5047 39.1125 33.5047C41.1876 33.5047 42.5001 32.9342 42.5001 32C42.5001 31.0658 41.1932 30.5 39.112 30.5Z" stroke="black" stroke-width="1.5" stroke-linecap="round" stroke-linejoin="round"/> -->
<path d="M72.7473 41.75H71.4995C71.3741 41.75 71.2508 41.7185 71.1407 41.6585C71.0306 41.5984 70.9373 41.5118 70.8694 41.4064C70.8015 41.301 70.761 41.1803 70.7518 41.0552C70.7426 40.9302 70.7648 40.8048 70.8165 40.6906L73.8381 34.0227L69.3011 33.9219L67.6464 35.9267C67.3309 36.3233 67.0792 36.5 66.437 36.5H65.597C65.464 36.5043 65.332 36.4764 65.212 36.4188C65.0921 36.3612 64.9878 36.2755 64.908 36.1691C64.7964 36.0186 64.6867 35.7636 64.7936 35.3998L65.7226 32.0717C65.7297 32.0469 65.7381 32.022 65.7475 31.9977C65.748 31.9953 65.748 31.9929 65.7475 31.9906C65.7378 31.9663 65.7295 31.9414 65.7226 31.9161L64.7926 28.5669C64.6919 28.2102 64.802 27.9608 64.9126 27.8141C64.9869 27.7155 65.0833 27.6357 65.194 27.5812C65.3047 27.5266 65.4267 27.4988 65.5501 27.5H66.437C66.9165 27.5 67.382 27.7152 67.6558 28.0625L69.2762 30.0336L73.8381 29.9661L70.8175 23.3098C70.7657 23.1957 70.7433 23.0704 70.7525 22.9453C70.7616 22.8203 70.802 22.6996 70.8698 22.5941C70.9376 22.4887 71.0308 22.402 71.1408 22.3419C71.2508 22.2817 71.3742 22.2502 71.4995 22.25H72.7609C72.9369 22.2535 73.1098 22.2967 73.2669 22.3762C73.4239 22.4557 73.561 22.5696 73.668 22.7094L79.5297 29.8344L82.2376 29.7631C82.4359 29.7523 82.9853 29.7486 83.1123 29.7486C85.7026 29.75 87.2495 30.5909 87.2495 32C87.2495 32.4434 87.0723 33.2656 85.8869 33.7887C85.187 34.0981 84.2533 34.2547 83.1114 34.2547C82.9858 34.2547 82.4378 34.2509 82.2367 34.2402L79.5292 34.168L73.653 41.293C73.5459 41.4321 73.4089 41.5454 73.2522 41.6246C73.0954 41.7037 72.9229 41.7465 72.7473 41.75Z" fill="black"/>
<!-- <rect x="0.5" y="0.5" width="107" height="63" rx="4.5" stroke="#9747FF" stroke-dasharray="10 5"/> -->
</svg>
