<svg width="108" height="64" viewBox="0 0 108 64" fill="none" xmlns="http://www.w3.org/2000/svg">
<path d="M39.5029 32.75C39.5029 31.2666 39.0631 29.8166 38.239 28.5832C37.4148 27.3499 36.2435 26.3886 34.8731 25.8209C33.5026 25.2532 31.9946 25.1047 30.5398 25.3941C29.0849 25.6835 27.7485 26.3978 26.6996 27.4467C25.6507 28.4956 24.9364 29.832 24.647 31.2868C24.3577 32.7417 24.5062 34.2497 25.0738 35.6201C25.6415 36.9906 26.6028 38.1619 27.8362 38.986C29.0695 39.8101 30.5196 40.25 32.0029 40.25C33.9921 40.25 35.8997 39.4598 37.3062 38.0533C38.7128 36.6468 39.5029 34.7391 39.5029 32.75ZM26.6615 24.2755C26.268 23.9387 25.7677 23.7525 25.2497 23.75L25.1189 23.7538C23.9212 23.8259 22.9997 24.875 23.0029 26.1406C23.0029 26.7598 23.2214 27.0486 23.5129 27.417C23.531 27.4407 23.5539 27.4603 23.5801 27.4746C23.6062 27.4889 23.6351 27.4976 23.6648 27.5H23.7061C23.7293 27.4996 23.7521 27.4938 23.7728 27.4832C23.7934 27.4725 23.8113 27.4573 23.8251 27.4386L26.6737 24.6406C26.698 24.616 26.717 24.5867 26.7295 24.5544C26.742 24.5222 26.7478 24.4877 26.7464 24.4531C26.7452 24.4193 26.7371 24.386 26.7225 24.3555C26.7079 24.3249 26.6871 24.2977 26.6615 24.2755V24.2755ZM37.3378 24.2755C37.7314 23.9387 38.2317 23.7525 38.7497 23.75L38.8804 23.7538C40.0781 23.8259 40.9997 24.875 40.9964 26.1406C40.9964 26.7598 40.7779 27.0486 40.4864 27.417C40.4682 27.4406 40.4453 27.4601 40.4192 27.4744C40.393 27.4886 40.3642 27.4971 40.3345 27.4995H40.2933C40.27 27.4991 40.2472 27.4934 40.2266 27.4827C40.2059 27.4721 40.188 27.4568 40.1742 27.4381L37.3256 24.6406C37.3013 24.616 37.2823 24.5867 37.2698 24.5544C37.2573 24.5222 37.2515 24.4877 37.2529 24.4531C37.2541 24.4193 37.2623 24.386 37.2769 24.3555C37.2915 24.3249 37.3122 24.2977 37.3378 24.2755V24.2755Z" stroke="black" stroke-width="1.5" stroke-miterlimit="10"/>
<path d="M32.0029 27.5V32.75H28.2529M39.5029 40.25L37.6279 38.375M24.5029 40.25L26.3779 38.375" stroke="black" stroke-width="1.5" stroke-linecap="round" stroke-linejoin="round"/>
<path d="M71.1992 25.1778C71.2977 25.0803 71.375 24.9634 71.4261 24.8346C71.4773 24.7057 71.5011 24.5676 71.4962 24.4291C71.4913 24.2905 71.4578 24.1545 71.3977 24.0295C71.3376 23.9046 71.2523 23.7935 71.1472 23.7031C70.6179 23.2514 69.9455 23.0023 69.2497 23L69.0964 23.0042H69.0739C67.4872 23.1008 66.2497 24.4789 66.2529 26.1406C66.2529 27.0312 66.6279 27.5028 66.9242 27.8802C67.0073 27.9857 67.1115 28.0727 67.2302 28.1356C67.3488 28.1986 67.4793 28.2361 67.6132 28.2458C67.6254 28.2458 67.6461 28.2481 67.707 28.2481C67.8275 28.2479 67.9467 28.2234 68.0575 28.1759C68.1682 28.1285 68.2683 28.0591 68.3515 27.972L71.1992 25.1778ZM82.9273 23.0052L82.774 23.0005H82.7497C82.0532 23.0023 81.38 23.2515 80.8503 23.7036C80.7453 23.7939 80.6601 23.905 80.6001 24.0299C80.5401 24.1547 80.5066 24.2906 80.5017 24.4291C80.4968 24.5675 80.5206 24.7055 80.5717 24.8342C80.6227 24.963 80.6999 25.0798 80.7982 25.1773L83.6468 27.9734C83.7303 28.0609 83.8306 28.1304 83.9417 28.178C84.0528 28.2255 84.1724 28.25 84.2932 28.25C84.3532 28.25 84.3739 28.25 84.387 28.2477C84.5209 28.2379 84.6513 28.2003 84.7698 28.1374C84.8884 28.0744 84.9925 27.9875 85.0756 27.882C85.3737 27.5047 85.745 27.0345 85.7468 26.1425C85.7497 24.4789 84.5122 23.1008 82.9273 23.0052Z" fill="black"/>
<path d="M76.0036 24.5C71.4567 24.5 67.7536 28.2008 67.7536 32.75C67.752 34.6788 68.4292 36.5467 69.6666 38.0262L67.9735 39.7198C67.9022 39.7891 67.8453 39.8719 67.8063 39.9633C67.7673 40.0547 67.7468 40.153 67.7461 40.2524C67.7454 40.3518 67.7645 40.4504 67.8022 40.5424C67.8399 40.6344 67.8956 40.7179 67.9659 40.7882C68.0362 40.8585 68.1198 40.9141 68.2118 40.9518C68.3038 40.9895 68.4023 41.0085 68.5017 41.0077C68.6012 41.007 68.6994 40.9865 68.7908 40.9474C68.8823 40.9083 68.965 40.8515 69.0342 40.7802L70.7274 39.087C72.2078 40.323 74.0751 41 76.0036 41C77.9321 41 79.7995 40.323 81.2799 39.087L82.9735 40.7802C83.0427 40.8515 83.1254 40.9083 83.2168 40.9474C83.3083 40.9865 83.4065 41.007 83.5059 41.0077C83.6054 41.0085 83.7039 40.9895 83.7959 40.9518C83.8879 40.9141 83.9715 40.8585 84.0418 40.7882C84.1121 40.7179 84.1678 40.6344 84.2055 40.5424C84.2432 40.4504 84.2623 40.3518 84.2616 40.2524C84.2609 40.153 84.2404 40.0547 84.2014 39.9633C84.1623 39.8719 84.1055 39.7891 84.0342 39.7198L82.3406 38.0262C83.5782 36.5468 84.2555 34.6788 84.2536 32.75C84.2536 28.2031 80.5528 24.5 76.0036 24.5ZM76.7536 32.75C76.7536 32.9489 76.6746 33.1397 76.5339 33.2803C76.3933 33.421 76.2025 33.5 76.0036 33.5H72.2536C72.0547 33.5 71.8639 33.421 71.7233 33.2803C71.5826 33.1397 71.5036 32.9489 71.5036 32.75C71.5036 32.5511 71.5826 32.3603 71.7233 32.2197C71.8639 32.079 72.0547 32 72.2536 32H75.2536V27.5C75.2536 27.3011 75.3326 27.1103 75.4733 26.9697C75.6139 26.829 75.8047 26.75 76.0036 26.75C76.2025 26.75 76.3933 26.829 76.5339 26.9697C76.6746 27.1103 76.7536 27.3011 76.7536 27.5V32.75Z" fill="black"/>
<rect x="0.5" y="0.5" width="107" height="63" rx="4.5" stroke="#9747FF" stroke-dasharray="10 5"/>
</svg>
