<svg width="108" height="64" viewBox="0 0 108 64" fill="none" xmlns="http://www.w3.org/2000/svg">
<path d="M39.6467 28.25H24.3533C23.6059 28.25 23 28.8559 23 29.6033V38.8967C23 39.6441 23.6059 40.25 24.3533 40.25H39.6467C40.3941 40.25 41 39.6441 41 38.8967V29.6033C41 28.8559 40.3941 28.25 39.6467 28.25Z" stroke="black" stroke-width="1.5" stroke-linejoin="round"/>
<path d="M26.75 23.75H37.25H26.75ZM25.25 26H38.75H25.25Z" fill="black"/>
<path d="M26.75 23.75H37.25M25.25 26H38.75" stroke="black" stroke-width="1.5" stroke-miterlimit="10" stroke-linecap="round"/>
<path d="M81.25 24.5H70.75C70.5511 24.5 70.3603 24.421 70.2197 24.2803C70.079 24.1397 70 23.9489 70 23.75C70 23.5511 70.079 23.3603 70.2197 23.2197C70.3603 23.079 70.5511 23 70.75 23H81.25C81.4489 23 81.6397 23.079 81.7803 23.2197C81.921 23.3603 82 23.5511 82 23.75C82 23.9489 81.921 24.1397 81.7803 24.2803C81.6397 24.421 81.4489 24.5 81.25 24.5ZM82.75 26.75H69.25C69.0511 26.75 68.8603 26.671 68.7197 26.5303C68.579 26.3897 68.5 26.1989 68.5 26C68.5 25.8011 68.579 25.6103 68.7197 25.4697C68.8603 25.329 69.0511 25.25 69.25 25.25H82.75C82.9489 25.25 83.1397 25.329 83.2803 25.4697C83.421 25.6103 83.5 25.8011 83.5 26C83.5 26.1989 83.421 26.3897 83.2803 26.5303C83.1397 26.671 82.9489 26.75 82.75 26.75ZM83.6467 41H68.3533C67.7956 40.9994 67.261 40.7776 66.8667 40.3833C66.4724 39.989 66.2506 39.4544 66.25 38.8967V29.6033C66.2506 29.0456 66.4724 28.511 66.8667 28.1167C67.261 27.7224 67.7956 27.5006 68.3533 27.5H83.6467C84.2044 27.5006 84.739 27.7224 85.1333 28.1167C85.5276 28.511 85.7494 29.0456 85.75 29.6033V38.8967C85.7494 39.4544 85.5276 39.989 85.1333 40.3833C84.739 40.7776 84.2044 40.9994 83.6467 41Z" fill="black"/>
<rect x="0.5" y="0.5" width="107" height="63" rx="4.5" stroke="#9747FF" stroke-dasharray="10 5"/>
</svg>
