<svg width="108" height="64" viewBox="0 0 108 64" fill="none" xmlns="http://www.w3.org/2000/svg">
<path d="M41 32C41 27.0312 36.9688 23 32 23C27.0312 23 23 27.0312 23 32C23 36.9688 27.0312 41 32 41C36.9688 41 41 36.9688 41 32Z" stroke="black" stroke-width="1.5" stroke-miterlimit="10"/>
<path d="M31.7307 27.7836L31.9998 33.5L32.2684 27.7836C32.2701 27.747 32.2642 27.7105 32.2513 27.6763C32.2384 27.6421 32.2186 27.6109 32.1932 27.5845C32.1678 27.5582 32.1373 27.5374 32.1036 27.5232C32.0698 27.5091 32.0336 27.502 31.997 27.5023V27.5023C31.9609 27.5027 31.9251 27.5103 31.892 27.5247C31.8589 27.5392 31.829 27.5602 31.8041 27.5864C31.7793 27.6127 31.76 27.6436 31.7474 27.6775C31.7348 27.7114 31.7291 27.7475 31.7307 27.7836V27.7836Z" stroke="black" stroke-width="1.5" stroke-linecap="round" stroke-linejoin="round"/>
<path d="M32 37.2457C31.8146 37.2457 31.6333 37.1907 31.4792 37.0877C31.325 36.9847 31.2048 36.8383 31.1339 36.667C31.0629 36.4957 31.0443 36.3072 31.0805 36.1253C31.1167 35.9435 31.206 35.7764 31.3371 35.6453C31.4682 35.5142 31.6352 35.4249 31.8171 35.3887C31.999 35.3526 32.1875 35.3711 32.3588 35.4421C32.5301 35.513 32.6765 35.6332 32.7795 35.7874C32.8825 35.9416 32.9375 36.1228 32.9375 36.3082C32.9375 36.5569 32.8387 36.7953 32.6629 36.9711C32.4871 37.147 32.2486 37.2457 32 37.2457Z" fill="black"/>
<path d="M76 22.25C70.6239 22.25 66.25 26.6239 66.25 32C66.25 37.3761 70.6239 41.75 76 41.75C81.3761 41.75 85.75 37.3761 85.75 32C85.75 26.6239 81.3761 22.25 76 22.25ZM76 37.2458C75.8146 37.2458 75.6333 37.1908 75.4792 37.0878C75.325 36.9848 75.2048 36.8384 75.1339 36.667C75.0629 36.4957 75.0443 36.3072 75.0805 36.1254C75.1167 35.9435 75.206 35.7765 75.3371 35.6454C75.4682 35.5143 75.6352 35.425 75.8171 35.3888C75.999 35.3526 76.1875 35.3712 76.3588 35.4421C76.5301 35.5131 76.6765 35.6333 76.7795 35.7874C76.8825 35.9416 76.9375 36.1229 76.9375 36.3083C76.9375 36.5569 76.8387 36.7954 76.6629 36.9712C76.4871 37.147 76.2486 37.2458 76 37.2458ZM77.0181 27.8169L76.7491 33.5356C76.7491 33.7345 76.67 33.9253 76.5294 34.066C76.3887 34.2066 76.198 34.2856 75.9991 34.2856C75.8001 34.2856 75.6094 34.2066 75.4687 34.066C75.3281 33.9253 75.2491 33.7345 75.2491 33.5356L74.98 27.8197V27.8173C74.9741 27.68 74.9961 27.5428 75.0446 27.4142C75.0931 27.2855 75.1671 27.168 75.2622 27.0687C75.3574 26.9694 75.4716 26.8904 75.5981 26.8364C75.7245 26.7824 75.8606 26.7546 75.9981 26.7546C76.1356 26.7546 76.2717 26.7824 76.3982 26.8364C76.5246 26.8904 76.6389 26.9694 76.734 27.0687C76.8291 27.168 76.9032 27.2855 76.9517 27.4142C77.0002 27.5428 77.0221 27.68 77.0162 27.8173L77.0181 27.8169Z" fill="black"/>
<rect x="0.5" y="0.5" width="107" height="63" rx="4.5" stroke="#9747FF" stroke-dasharray="10 5"/>
</svg>
