<svg width="108" height="64" viewBox="0 0 108 64" fill="none" xmlns="http://www.w3.org/2000/svg">
<path d="M26.75 24.875C26.75 23.8395 25.9105 23 24.875 23C23.8395 23 23 23.8395 23 24.875C23 25.9105 23.8395 26.75 24.875 26.75C25.9105 26.75 26.75 25.9105 26.75 24.875Z" stroke="black" stroke-width="1.5" stroke-miterlimit="10"/>
<path d="M33.875 24.875C33.875 23.8395 33.0355 23 32 23C30.9645 23 30.125 23.8395 30.125 24.875C30.125 25.9105 30.9645 26.75 32 26.75C33.0355 26.75 33.875 25.9105 33.875 24.875Z" stroke="black" stroke-width="1.5" stroke-miterlimit="10"/>
<path d="M41 24.875C41 23.8395 40.1605 23 39.125 23C38.0895 23 37.25 23.8395 37.25 24.875C37.25 25.9105 38.0895 26.75 39.125 26.75C40.1605 26.75 41 25.9105 41 24.875Z" stroke="black" stroke-width="1.5" stroke-miterlimit="10"/>
<path d="M26.75 32C26.75 30.9645 25.9105 30.125 24.875 30.125C23.8395 30.125 23 30.9645 23 32C23 33.0355 23.8395 33.875 24.875 33.875C25.9105 33.875 26.75 33.0355 26.75 32Z" stroke="black" stroke-width="1.5" stroke-miterlimit="10"/>
<path d="M33.875 32C33.875 30.9645 33.0355 30.125 32 30.125C30.9645 30.125 30.125 30.9645 30.125 32C30.125 33.0355 30.9645 33.875 32 33.875C33.0355 33.875 33.875 33.0355 33.875 32Z" stroke="black" stroke-width="1.5" stroke-miterlimit="10"/>
<path d="M41 32C41 30.9645 40.1605 30.125 39.125 30.125C38.0895 30.125 37.25 30.9645 37.25 32C37.25 33.0355 38.0895 33.875 39.125 33.875C40.1605 33.875 41 33.0355 41 32Z" stroke="black" stroke-width="1.5" stroke-miterlimit="10"/>
<path d="M26.75 39.125C26.75 38.0895 25.9105 37.25 24.875 37.25C23.8395 37.25 23 38.0895 23 39.125C23 40.1605 23.8395 41 24.875 41C25.9105 41 26.75 40.1605 26.75 39.125Z" stroke="black" stroke-width="1.5" stroke-miterlimit="10"/>
<path d="M33.875 39.125C33.875 38.0895 33.0355 37.25 32 37.25C30.9645 37.25 30.125 38.0895 30.125 39.125C30.125 40.1605 30.9645 41 32 41C33.0355 41 33.875 40.1605 33.875 39.125Z" stroke="black" stroke-width="1.5" stroke-miterlimit="10"/>
<path d="M41 39.125C41 38.0895 40.1605 37.25 39.125 37.25C38.0895 37.25 37.25 38.0895 37.25 39.125C37.25 40.1605 38.0895 41 39.125 41C40.1605 41 41 40.1605 41 39.125Z" stroke="black" stroke-width="1.5" stroke-miterlimit="10"/>
<path d="M68.875 27.5C68.3558 27.5 67.8483 27.346 67.4166 27.0576C66.985 26.7692 66.6485 26.3592 66.4498 25.8795C66.2511 25.3999 66.1992 24.8721 66.3004 24.3629C66.4017 23.8537 66.6517 23.386 67.0188 23.0188C67.386 22.6517 67.8537 22.4017 68.3629 22.3004C68.8721 22.1992 69.3999 22.2511 69.8795 22.4498C70.3592 22.6485 70.7692 22.985 71.0576 23.4166C71.346 23.8483 71.5 24.3558 71.5 24.875C71.4993 25.571 71.2225 26.2382 70.7303 26.7303C70.2382 27.2225 69.571 27.4993 68.875 27.5ZM76 27.5C75.4808 27.5 74.9733 27.346 74.5416 27.0576C74.11 26.7692 73.7735 26.3592 73.5748 25.8795C73.3761 25.3999 73.3242 24.8721 73.4254 24.3629C73.5267 23.8537 73.7767 23.386 74.1438 23.0188C74.511 22.6517 74.9787 22.4017 75.4879 22.3004C75.9971 22.1992 76.5249 22.2511 77.0045 22.4498C77.4842 22.6485 77.8942 22.985 78.1826 23.4166C78.471 23.8483 78.625 24.3558 78.625 24.875C78.6243 25.571 78.3475 26.2382 77.8553 26.7303C77.3632 27.2225 76.696 27.4993 76 27.5ZM83.125 27.5C82.6058 27.5 82.0983 27.346 81.6666 27.0576C81.235 26.7692 80.8985 26.3592 80.6998 25.8795C80.5011 25.3999 80.4492 24.8721 80.5504 24.3629C80.6517 23.8537 80.9017 23.386 81.2688 23.0188C81.636 22.6517 82.1037 22.4017 82.6129 22.3004C83.1221 22.1992 83.6499 22.2511 84.1295 22.4498C84.6092 22.6485 85.0192 22.985 85.3076 23.4166C85.596 23.8483 85.75 24.3558 85.75 24.875C85.7493 25.571 85.4725 26.2382 84.9803 26.7303C84.4882 27.2225 83.821 27.4993 83.125 27.5ZM68.875 34.625C68.3558 34.625 67.8483 34.471 67.4166 34.1826C66.985 33.8942 66.6485 33.4842 66.4498 33.0045C66.2511 32.5249 66.1992 31.9971 66.3004 31.4879C66.4017 30.9787 66.6517 30.511 67.0188 30.1438C67.386 29.7767 67.8537 29.5267 68.3629 29.4254C68.8721 29.3242 69.3999 29.3761 69.8795 29.5748C70.3592 29.7735 70.7692 30.11 71.0576 30.5416C71.346 30.9733 71.5 31.4808 71.5 32C71.4993 32.696 71.2225 33.3632 70.7303 33.8553C70.2382 34.3475 69.571 34.6243 68.875 34.625ZM76 34.625C75.4808 34.625 74.9733 34.471 74.5416 34.1826C74.11 33.8942 73.7735 33.4842 73.5748 33.0045C73.3761 32.5249 73.3242 31.9971 73.4254 31.4879C73.5267 30.9787 73.7767 30.511 74.1438 30.1438C74.511 29.7767 74.9787 29.5267 75.4879 29.4254C75.9971 29.3242 76.5249 29.3761 77.0045 29.5748C77.4842 29.7735 77.8942 30.11 78.1826 30.5416C78.471 30.9733 78.625 31.4808 78.625 32C78.6243 32.696 78.3475 33.3632 77.8553 33.8553C77.3632 34.3475 76.696 34.6243 76 34.625ZM83.125 34.625C82.6058 34.625 82.0983 34.471 81.6666 34.1826C81.235 33.8942 80.8985 33.4842 80.6998 33.0045C80.5011 32.5249 80.4492 31.9971 80.5504 31.4879C80.6517 30.9787 80.9017 30.511 81.2688 30.1438C81.636 29.7767 82.1037 29.5267 82.6129 29.4254C83.1221 29.3242 83.6499 29.3761 84.1295 29.5748C84.6092 29.7735 85.0192 30.11 85.3076 30.5416C85.596 30.9733 85.75 31.4808 85.75 32C85.7493 32.696 85.4725 33.3632 84.9803 33.8553C84.4882 34.3475 83.821 34.6243 83.125 34.625ZM68.875 41.75C68.3558 41.75 67.8483 41.596 67.4166 41.3076C66.985 41.0192 66.6485 40.6092 66.4498 40.1295C66.2511 39.6499 66.1992 39.1221 66.3004 38.6129C66.4017 38.1037 66.6517 37.636 67.0188 37.2688C67.386 36.9017 67.8537 36.6517 68.3629 36.5504C68.8721 36.4492 69.3999 36.5011 69.8795 36.6998C70.3592 36.8985 70.7692 37.235 71.0576 37.6666C71.346 38.0983 71.5 38.6058 71.5 39.125C71.4993 39.821 71.2225 40.4882 70.7303 40.9803C70.2382 41.4725 69.571 41.7493 68.875 41.75ZM76 41.75C75.4808 41.75 74.9733 41.596 74.5416 41.3076C74.11 41.0192 73.7735 40.6092 73.5748 40.1295C73.3761 39.6499 73.3242 39.1221 73.4254 38.6129C73.5267 38.1037 73.7767 37.636 74.1438 37.2688C74.511 36.9017 74.9787 36.6517 75.4879 36.5504C75.9971 36.4492 76.5249 36.5011 77.0045 36.6998C77.4842 36.8985 77.8942 37.235 78.1826 37.6666C78.471 38.0983 78.625 38.6058 78.625 39.125C78.6243 39.821 78.3475 40.4882 77.8553 40.9803C77.3632 41.4725 76.696 41.7493 76 41.75ZM83.125 41.75C82.6058 41.75 82.0983 41.596 81.6666 41.3076C81.235 41.0192 80.8985 40.6092 80.6998 40.1295C80.5011 39.6499 80.4492 39.1221 80.5504 38.6129C80.6517 38.1037 80.9017 37.636 81.2688 37.2688C81.636 36.9017 82.1037 36.6517 82.6129 36.5504C83.1221 36.4492 83.6499 36.5011 84.1295 36.6998C84.6092 36.8985 85.0192 37.235 85.3076 37.6666C85.596 38.0983 85.75 38.6058 85.75 39.125C85.7493 39.821 85.4725 40.4882 84.9803 40.9803C84.4882 41.4725 83.821 41.7493 83.125 41.75Z" fill="black"/>
<rect x="0.5" y="0.5" width="107" height="63" rx="4.5" stroke="#9747FF" stroke-dasharray="10 5"/>
</svg>
