<svg width="108" height="64" viewBox="0 0 108 64" fill="none" xmlns="http://www.w3.org/2000/svg">
<path d="M23.75 27.125V39.125C23.7515 39.6218 23.9495 40.0979 24.3008 40.4492C24.6521 40.8005 25.1282 40.9985 25.625 41H38.375C38.8718 40.9985 39.3479 40.8005 39.6992 40.4492C40.0505 40.0979 40.2485 39.6218 40.25 39.125V27.125" stroke="black" stroke-width="1.5" stroke-linecap="round" stroke-linejoin="round"/>
<path d="M40.4375 23H23.5625C22.8376 23 22.25 23.5876 22.25 24.3125V25.4375C22.25 26.1624 22.8376 26.75 23.5625 26.75H40.4375C41.1624 26.75 41.75 26.1624 41.75 25.4375V24.3125C41.75 23.5876 41.1624 23 40.4375 23Z" stroke="black" stroke-width="1.5" stroke-linejoin="round"/>
<path d="M35 34.25L32 37.25L29 34.25M32 36.2136V30.5" stroke="black" stroke-width="1.5" stroke-linecap="round" stroke-linejoin="round"/>
<path d="M67 27.6875V39.125C67 39.8212 67.2766 40.4889 67.7688 40.9812C68.2611 41.4734 68.9288 41.75 69.625 41.75H82.375C83.0712 41.75 83.7389 41.4734 84.2312 40.9812C84.7234 40.4889 85 39.8212 85 39.125V27.6875C85 27.6378 84.9802 27.5901 84.9451 27.5549C84.9099 27.5198 84.8622 27.5 84.8125 27.5H67.1875C67.1378 27.5 67.0901 27.5198 67.0549 27.5549C67.0198 27.5901 67 27.6378 67 27.6875ZM79.5156 34.7952L76.5302 37.7802C76.3895 37.9207 76.1988 37.9997 76 37.9997C75.8012 37.9997 75.6105 37.9207 75.4698 37.7802L72.4844 34.7952C72.1989 34.5097 72.1727 34.0452 72.4445 33.7461C72.5128 33.6709 72.5956 33.6104 72.6879 33.5681C72.7803 33.5259 72.8802 33.5029 72.9817 33.5004C73.0832 33.498 73.1842 33.5161 73.2785 33.5539C73.3727 33.5916 73.4584 33.648 73.5302 33.7198L75.25 35.4392V30.5211C75.25 30.1175 75.5603 29.7711 75.9639 29.7509C76.0653 29.7461 76.1667 29.7618 76.2618 29.7972C76.3569 29.8327 76.4439 29.8871 76.5174 29.9571C76.5909 30.0271 76.6494 30.1114 76.6894 30.2047C76.7294 30.298 76.75 30.3985 76.75 30.5V35.4392L78.4698 33.7198C78.5416 33.648 78.6273 33.5916 78.7215 33.5539C78.8158 33.5161 78.9168 33.498 79.0183 33.5004C79.1198 33.5029 79.2197 33.5259 79.3121 33.5681C79.4044 33.6104 79.4872 33.6709 79.5555 33.7461C79.8273 34.0447 79.8011 34.5097 79.5156 34.7952Z" fill="black"/>
<path d="M85 22.25H67C66.1716 22.25 65.5 22.9216 65.5 23.75V24.5C65.5 25.3284 66.1716 26 67 26H85C85.8284 26 86.5 25.3284 86.5 24.5V23.75C86.5 22.9216 85.8284 22.25 85 22.25Z" fill="black"/>
<rect x="0.5" y="0.5" width="107" height="63" rx="4.5" stroke="#9747FF" stroke-dasharray="10 5"/>
</svg>
