<svg width="108" height="64" viewBox="0 0 108 64" fill="none" xmlns="http://www.w3.org/2000/svg">
<path d="M32.5113 35.3628V33.6134C29.8361 33.6134 28.5499 34.2448 27.4216 35.4265C27.1685 35.6914 26.7185 35.4884 26.7517 35.1251C27.0072 32.2446 28.3521 29.6365 32.5113 29.6365V27.8871C32.512 27.8115 32.5347 27.7376 32.5767 27.6746C32.6187 27.6116 32.6781 27.5622 32.7476 27.5324C32.8172 27.5026 32.894 27.4936 32.9685 27.5067C33.0431 27.5197 33.1122 27.5542 33.1675 27.6059L37.1289 31.3437C37.1671 31.3796 37.1975 31.423 37.2183 31.4711C37.2391 31.5193 37.2498 31.5711 37.2498 31.6236C37.2498 31.676 37.2391 31.7278 37.2183 31.776C37.1975 31.8241 37.1671 31.8675 37.1289 31.9034L33.1717 35.6426C33.1167 35.6956 33.0473 35.7313 32.9722 35.7451C32.897 35.759 32.8195 35.7505 32.7491 35.7207C32.6788 35.6909 32.6187 35.6411 32.5764 35.5775C32.5342 35.5138 32.5115 35.4392 32.5113 35.3628Z" fill="black"/>
<path d="M23 32C23 36.9688 27.0312 41 32 41C36.9688 41 41 36.9688 41 32C41 27.0312 36.9688 23 32 23C27.0312 23 23 27.0312 23 32Z" stroke="black" stroke-width="1.5" stroke-miterlimit="10"/>
<path d="M66.25 32C66.25 37.3845 70.6155 41.75 76 41.75C81.3845 41.75 85.75 37.3845 85.75 32C85.75 26.6155 81.3845 22.25 76 22.25C70.6155 22.25 66.25 26.6155 66.25 32ZM70.75 35.1252C71.0055 32.2447 72.3503 29.6366 76.5095 29.6366V27.8872C76.5103 27.8115 76.533 27.7377 76.5749 27.6747C76.6169 27.6117 76.6763 27.5622 76.7459 27.5324C76.8155 27.5026 76.8922 27.4937 76.9668 27.5067C77.0413 27.5198 77.1105 27.5543 77.1658 27.6059L81.1291 31.3438C81.1672 31.3797 81.1976 31.4231 81.2184 31.4712C81.2392 31.5193 81.2499 31.5712 81.2499 31.6236C81.2499 31.676 81.2392 31.7279 81.2184 31.776C81.1976 31.8241 81.1672 31.8675 81.1291 31.9034L77.1719 35.6427C77.1166 35.6943 77.0474 35.7288 76.9729 35.7419C76.8983 35.7549 76.8216 35.746 76.752 35.7162C76.6824 35.6863 76.623 35.6369 76.581 35.5739C76.5391 35.5109 76.5163 35.4371 76.5156 35.3614V33.6134C73.8405 33.6134 72.5542 34.2448 71.4259 35.4266C71.1686 35.6914 70.7195 35.4884 70.75 35.1252Z" fill="black"/>
<rect x="0.5" y="0.5" width="107" height="63" rx="4.5" stroke="#9747FF" stroke-dasharray="10 5"/>
</svg>
