<svg width="108" height="64" viewBox="0 0 108 64" fill="none" xmlns="http://www.w3.org/2000/svg">
<path d="M28.25 32.3103L32 36.0312L35.75 32.3103M32 35.5142V27.9688" stroke="black" stroke-width="1.5" stroke-linecap="round" stroke-linejoin="round"/>
<path d="M32 23C27.0312 23 23 27.0312 23 32C23 36.9688 27.0312 41 32 41C36.9688 41 41 36.9688 41 32C41 27.0312 36.9688 23 32 23Z" stroke="black" stroke-width="1.5" stroke-miterlimit="10"/>
<path d="M76 41.75C81.3845 41.75 85.75 37.3845 85.75 32C85.75 26.6155 81.3845 22.25 76 22.25C70.6155 22.25 66.25 26.6155 66.25 32C66.25 37.3845 70.6155 41.75 76 41.75ZM71.7175 31.782C71.7869 31.7121 71.8693 31.6565 71.9602 31.6184C72.051 31.5804 72.1485 31.5606 72.247 31.5602C72.3455 31.5598 72.4431 31.5788 72.5343 31.6162C72.6255 31.6535 72.7084 31.7084 72.7783 31.7778L75.25 34.2303V27.9688C75.25 27.7698 75.329 27.5791 75.4697 27.4384C75.6103 27.2978 75.8011 27.2188 76 27.2188C76.1989 27.2188 76.3897 27.2978 76.5303 27.4384C76.671 27.5791 76.75 27.7698 76.75 27.9688V34.2303L79.2217 31.7778C79.3631 31.6377 79.5543 31.5595 79.7533 31.5604C79.9523 31.5612 80.1429 31.6411 80.283 31.7825C80.4231 31.9239 80.5013 32.1151 80.5004 32.3141C80.4995 32.5131 80.4196 32.7036 80.2783 32.8438L76.5283 36.5652C76.3878 36.7046 76.1979 36.7828 76 36.7828C75.8021 36.7828 75.6122 36.7046 75.4717 36.5652L71.7217 32.8438C71.6516 32.7744 71.5959 32.6918 71.5578 32.6009C71.5196 32.51 71.4998 32.4124 71.4994 32.3138C71.499 32.2151 71.5181 32.1174 71.5555 32.0262C71.5929 31.9349 71.648 31.852 71.7175 31.782Z" fill="black"/>
<rect x="0.5" y="0.5" width="107" height="63" rx="4.5" stroke="#9747FF" stroke-dasharray="10 5"/>
</svg>
