<svg width="108" height="64" viewBox="0 0 108 64" fill="none" xmlns="http://www.w3.org/2000/svg">
<path d="M32.3103 35.75L36.0312 32L32.3103 28.25M35.5142 32H27.9688" stroke="black" stroke-width="1.5" stroke-linecap="round" stroke-linejoin="round"/>
<path d="M32 41C36.9688 41 41 36.9688 41 32C41 27.0312 36.9688 23 32 23C27.0312 23 23 27.0312 23 32C23 36.9688 27.0312 41 32 41Z" stroke="black" stroke-width="1.5" stroke-miterlimit="10"/>
<path d="M85.75 32C85.75 26.6155 81.3845 22.25 76 22.25C70.6155 22.25 66.25 26.6155 66.25 32C66.25 37.3845 70.6155 41.75 76 41.75C81.3845 41.75 85.75 37.3845 85.75 32ZM75.782 36.2825C75.7121 36.2131 75.6565 36.1307 75.6184 36.0398C75.5804 35.949 75.5606 35.8515 75.5602 35.753C75.5598 35.6545 75.5788 35.5569 75.6162 35.4657C75.6535 35.3745 75.7084 35.2916 75.7778 35.2217L78.2303 32.75H71.9688C71.7698 32.75 71.5791 32.671 71.4384 32.5303C71.2978 32.3897 71.2188 32.1989 71.2188 32C71.2188 31.8011 71.2978 31.6103 71.4384 31.4697C71.5791 31.329 71.7698 31.25 71.9688 31.25H78.2303L75.7778 28.7783C75.7084 28.7083 75.6535 28.6253 75.6162 28.5341C75.5789 28.4429 75.5599 28.3452 75.5604 28.2467C75.5608 28.1481 75.5806 28.0506 75.6188 27.9598C75.6569 27.8689 75.7125 27.7864 75.7825 27.717C75.8525 27.6477 75.9355 27.5927 76.0267 27.5554C76.1179 27.5181 76.2155 27.4991 76.3141 27.4996C76.5131 27.5005 76.7036 27.5804 76.8438 27.7217L80.5652 31.4717C80.7046 31.6122 80.7828 31.8021 80.7828 32C80.7828 32.1979 80.7046 32.3878 80.5652 32.5283L76.8438 36.2783C76.7744 36.3484 76.6918 36.4041 76.6009 36.4422C76.51 36.4804 76.4124 36.5002 76.3138 36.5006C76.2151 36.501 76.1174 36.4819 76.0262 36.4445C75.9349 36.4071 75.852 36.352 75.782 36.2825Z" fill="black"/>
<rect x="0.5" y="0.5" width="107" height="63" rx="4.5" stroke="#9747FF" stroke-dasharray="10 5"/>
</svg>
