<svg width="108" height="64" viewBox="0 0 108 64" fill="none" xmlns="http://www.w3.org/2000/svg">
<path d="M31.4885 35.3628V33.6134C34.1637 33.6134 35.4499 34.2448 36.5782 35.4265C36.8313 35.6914 37.2813 35.4884 37.2481 35.1251C36.9926 32.2446 35.6478 29.6365 31.4885 29.6365V27.8871C31.4882 27.811 31.4657 27.7366 31.4236 27.6731C31.3815 27.6097 31.3217 27.5599 31.2517 27.53C31.1817 27.5001 31.1044 27.4913 31.0295 27.5048C30.9545 27.5183 30.8852 27.5534 30.8299 27.6059L26.8709 31.3437C26.8327 31.3796 26.8023 31.423 26.7815 31.4711C26.7607 31.5193 26.75 31.5711 26.75 31.6235C26.75 31.676 26.7607 31.7278 26.7815 31.776C26.8023 31.8241 26.8327 31.8675 26.8709 31.9034L30.8281 35.6426C30.8831 35.6956 30.9525 35.7313 31.0276 35.7451C31.1028 35.759 31.1803 35.7505 31.2507 35.7207C31.321 35.6909 31.3811 35.6411 31.4234 35.5775C31.4657 35.5138 31.4883 35.4392 31.4885 35.3628Z" fill="black"/>
<path d="M32 23C27.0312 23 23 27.0312 23 32C23 36.9688 27.0312 41 32 41C36.9688 41 41 36.9688 41 32C41 27.0312 36.9688 23 32 23Z" stroke="black" stroke-width="1.5" stroke-miterlimit="10"/>
<path d="M76 22.25C70.6155 22.25 66.25 26.6155 66.25 32C66.25 37.3845 70.6155 41.75 76 41.75C81.3845 41.75 85.75 37.3845 85.75 32C85.75 26.6155 81.3845 22.25 76 22.25ZM80.5783 35.4266C79.45 34.2448 78.1637 33.6134 75.4886 33.6134V35.3628C75.4883 35.439 75.4657 35.5134 75.4236 35.5768C75.3815 35.6403 75.3218 35.6901 75.2518 35.72C75.1817 35.7499 75.1045 35.7586 75.0295 35.7451C74.9546 35.7316 74.8852 35.6965 74.83 35.6441L70.8709 31.9062C70.8328 31.8703 70.8024 31.8269 70.7816 31.7788C70.7608 31.7307 70.7501 31.6788 70.7501 31.6264C70.7501 31.574 70.7608 31.5221 70.7816 31.474C70.8024 31.4259 70.8328 31.3825 70.8709 31.3466L74.8281 27.6073C74.8833 27.5549 74.9527 27.5198 75.0276 27.5063C75.1026 27.4928 75.1799 27.5015 75.2499 27.5314C75.3199 27.5614 75.3797 27.6111 75.4218 27.6746C75.4638 27.738 75.4864 27.8124 75.4867 27.8886V29.638C79.6459 29.638 80.9908 32.2461 81.2463 35.1266C81.2805 35.4884 80.8314 35.6914 80.5783 35.4266Z" fill="black"/>
<rect x="0.5" y="0.5" width="107" height="63" rx="4.5" stroke="#9747FF" stroke-dasharray="10 5"/>
</svg>
