<svg width="108" height="64" viewBox="0 0 108 64" fill="none" xmlns="http://www.w3.org/2000/svg">
<path d="M23 32C23 27.0312 27.0312 23 32 23C36.9688 23 41 27.0313 41 32C41 36.9688 36.9687 41 32 41C27.0312 41 23 36.9688 23 32Z" stroke="black" stroke-width="1.5" stroke-miterlimit="10"/>
<path d="M36.5 33.875L32 29.375L27.5 33.875" stroke="black" stroke-width="1.5" stroke-linecap="round" stroke-linejoin="round"/>
<path d="M66.25 32C66.25 26.6155 70.6155 22.25 76 22.25C81.3845 22.25 85.75 26.6155 85.75 32C85.75 37.3845 81.3845 41.75 76 41.75C70.6155 41.75 66.25 37.3845 66.25 32ZM79.9698 33.6552C80.0388 33.7277 80.1216 33.7858 80.2133 33.8258C80.305 33.8659 80.4039 33.8872 80.504 33.8885C80.6041 33.8898 80.7034 33.871 80.7961 33.8333C80.8889 33.7956 80.9731 33.7397 81.0439 33.6689C81.1147 33.5981 81.1706 33.5139 81.2083 33.4211C81.246 33.3284 81.2648 33.2291 81.2635 33.129C81.2622 33.0289 81.2409 32.93 81.2008 32.8383C81.1608 32.7466 81.1027 32.6638 81.0302 32.5948L76.5302 28.0948C76.3895 27.9543 76.1988 27.8753 76 27.8753C75.8012 27.8753 75.6105 27.9543 75.4698 28.0948L70.9698 32.5948C70.8351 32.7366 70.7611 32.9255 70.7636 33.121C70.7661 33.3166 70.8449 33.5035 70.9832 33.6418C71.1215 33.7801 71.3084 33.8589 71.504 33.8614C71.6995 33.8639 71.8884 33.7899 72.0302 33.6552L76 29.6858L79.9698 33.6552Z" fill="black"/>
<rect x="0.5" y="0.5" width="107" height="63" rx="4.5" stroke="#9747FF" stroke-dasharray="10 5"/>
</svg>
