<svg width="108" height="64" viewBox="0 0 108 64" fill="none" xmlns="http://www.w3.org/2000/svg">
<path d="M28.25 31.6897L32 27.9688L35.75 31.6897M32 28.4858V36.0312" stroke="black" stroke-width="1.5" stroke-linecap="round" stroke-linejoin="round"/>
<path d="M41 32C41 27.0312 36.9688 23 32 23C27.0312 23 23 27.0312 23 32C23 36.9688 27.0312 41 32 41C36.9688 41 41 36.9688 41 32Z" stroke="black" stroke-width="1.5" stroke-miterlimit="10"/>
<path d="M76 22.25C70.6155 22.25 66.25 26.6155 66.25 32C66.25 37.3845 70.6155 41.75 76 41.75C81.3845 41.75 85.75 37.3845 85.75 32C85.75 26.6155 81.3845 22.25 76 22.25ZM80.2825 32.218C80.2131 32.2879 80.1307 32.3435 80.0398 32.3816C79.949 32.4196 79.8515 32.4394 79.753 32.4398C79.6545 32.4402 79.5569 32.4212 79.4657 32.3838C79.3745 32.3465 79.2916 32.2916 79.2217 32.2222L76.75 29.7697V36.0312C76.75 36.2302 76.671 36.4209 76.5303 36.5616C76.3897 36.7022 76.1989 36.7812 76 36.7812C75.8011 36.7812 75.6103 36.7022 75.4697 36.5616C75.329 36.4209 75.25 36.2302 75.25 36.0312V29.7697L72.7783 32.2222C72.7083 32.2916 72.6253 32.3465 72.5341 32.3838C72.4429 32.4211 72.3452 32.4401 72.2467 32.4396C72.1481 32.4392 72.0506 32.4194 71.9598 32.3812C71.8689 32.3431 71.7864 32.2875 71.717 32.2175C71.6477 32.1475 71.5927 32.0645 71.5554 31.9733C71.5181 31.8821 71.4991 31.7845 71.4996 31.6859C71.5 31.5874 71.5199 31.4899 71.558 31.399C71.5961 31.3081 71.6517 31.2256 71.7217 31.1562L75.4717 27.4348C75.6122 27.2954 75.8021 27.2172 76 27.2172C76.1979 27.2172 76.3878 27.2954 76.5283 27.4348L80.2783 31.1562C80.3484 31.2256 80.4041 31.3082 80.4422 31.3991C80.4804 31.49 80.5002 31.5876 80.5006 31.6862C80.501 31.7849 80.4819 31.8826 80.4445 31.9738C80.4071 32.0651 80.352 32.148 80.2825 32.218Z" fill="black"/>
<rect x="0.5" y="0.5" width="107" height="63" rx="4.5" stroke="#9747FF" stroke-dasharray="10 5"/>
</svg>
