<svg width="108" height="64" viewBox="0 0 108 64" fill="none" xmlns="http://www.w3.org/2000/svg">
<path d="M31.6897 35.75L27.9688 32L31.6897 28.25M28.4858 32H36.0312" stroke="black" stroke-width="1.5" stroke-linecap="round" stroke-linejoin="round"/>
<path d="M41 32C41 27.0312 36.9688 23 32 23C27.0312 23 23 27.0312 23 32C23 36.9688 27.0312 41 32 41C36.9688 41 41 36.9688 41 32Z" stroke="black" stroke-width="1.5" stroke-miterlimit="10"/>
<path d="M66.25 32C66.25 37.3845 70.6155 41.75 76 41.75C81.3845 41.75 85.75 37.3845 85.75 32C85.75 26.6155 81.3845 22.25 76 22.25C70.6155 22.25 66.25 26.6155 66.25 32ZM76.218 27.7175C76.2879 27.7869 76.3435 27.8693 76.3816 27.9602C76.4196 28.051 76.4394 28.1485 76.4398 28.247C76.4402 28.3455 76.4212 28.4431 76.3838 28.5343C76.3465 28.6255 76.2916 28.7084 76.2222 28.7783L73.7697 31.25H80.0312C80.2302 31.25 80.4209 31.329 80.5616 31.4697C80.7022 31.6103 80.7812 31.8011 80.7812 32C80.7812 32.1989 80.7022 32.3897 80.5616 32.5303C80.4209 32.671 80.2302 32.75 80.0312 32.75H73.7697L76.2222 35.2217C76.2916 35.2917 76.3465 35.3747 76.3838 35.4659C76.4211 35.5571 76.4401 35.6548 76.4396 35.7533C76.4392 35.8519 76.4194 35.9494 76.3812 36.0402C76.3431 36.1311 76.2875 36.2136 76.2175 36.283C76.1475 36.3523 76.0645 36.4073 75.9733 36.4446C75.8821 36.4819 75.7845 36.5009 75.6859 36.5004C75.5874 36.5 75.4899 36.4801 75.399 36.442C75.3081 36.4039 75.2256 36.3483 75.1562 36.2783L71.4348 32.5283C71.2954 32.3878 71.2172 32.1979 71.2172 32C71.2172 31.8021 71.2954 31.6122 71.4348 31.4717L75.1562 27.7217C75.2256 27.6516 75.3082 27.5959 75.3991 27.5578C75.49 27.5196 75.5876 27.4998 75.6862 27.4994C75.7849 27.499 75.8826 27.5181 75.9738 27.5555C76.0651 27.5929 76.148 27.648 76.218 27.7175Z" fill="black"/>
<rect x="0.5" y="0.5" width="107" height="63" rx="4.5" stroke="#9747FF" stroke-dasharray="10 5"/>
</svg>
