<svg width="108" height="64" viewBox="0 0 108 64" fill="none" xmlns="http://www.w3.org/2000/svg">
<path d="M23 32C23 36.9688 27.0312 41 32 41C36.9688 41 41 36.9687 41 32C41 27.0312 36.9687 23 32 23C27.0312 23 23 27.0312 23 32Z" stroke="black" stroke-width="1.5" stroke-miterlimit="10"/>
<path d="M36.5 30.125L32 34.625L27.5 30.125" stroke="black" stroke-width="1.5" stroke-linecap="round" stroke-linejoin="round"/>
<path d="M66.25 32C66.25 37.3845 70.6155 41.75 76 41.75C81.3845 41.75 85.75 37.3845 85.75 32C85.75 26.6155 81.3845 22.25 76 22.25C70.6155 22.25 66.25 26.6155 66.25 32ZM79.9698 30.3448C80.0388 30.2723 80.1216 30.2142 80.2133 30.1742C80.305 30.1341 80.4039 30.1128 80.504 30.1115C80.6041 30.1102 80.7034 30.129 80.7961 30.1667C80.8889 30.2044 80.9731 30.2603 81.0439 30.3311C81.1147 30.4019 81.1706 30.4861 81.2083 30.5789C81.246 30.6716 81.2648 30.7709 81.2635 30.871C81.2622 30.9711 81.2409 31.07 81.2008 31.1617C81.1608 31.2534 81.1027 31.3362 81.0302 31.4052L76.5302 35.9052C76.3895 36.0457 76.1988 36.1247 76 36.1247C75.8012 36.1247 75.6105 36.0457 75.4698 35.9052L70.9698 31.4052C70.8351 31.2634 70.7611 31.0745 70.7636 30.879C70.7661 30.6834 70.8449 30.4965 70.9832 30.3582C71.1215 30.2199 71.3084 30.1411 71.504 30.1386C71.6995 30.1361 71.8884 30.2101 72.0302 30.3448L76 34.3142L79.9698 30.3448Z" fill="black"/>
<rect x="0.5" y="0.5" width="107" height="63" rx="4.5" stroke="#9747FF" stroke-dasharray="10 5"/>
</svg>
