<svg width="368" height="465" viewBox="0 0 368 465" fill="none" xmlns="http://www.w3.org/2000/svg">
<rect width="368" height="465" rx="8" fill="white"/>
<path d="M81.5 122.25L75.5 117L81.5 111.75M90.5 122.25L96.5 117L90.5 111.75" stroke="black" stroke-width="1.5" stroke-linecap="round" stroke-linejoin="round"/>
<path d="M51.25 107.25L56.5 112.5L51.25 117.75M55.697 112.5H41.5M46.75 126.75L41.5 121.5L46.75 116.25M42.3438 121.5H56.5" stroke="black" stroke-width="1.5" stroke-linecap="round" stroke-linejoin="round"/>
<path d="M207.091 76.5937L199.444 83.1459C199.321 83.2515 199.222 83.3825 199.155 83.53C199.087 83.6774 199.052 83.8377 199.052 84C199.052 84.1622 199.087 84.3226 199.155 84.47C199.222 84.6174 199.321 84.7484 199.444 84.854L207.091 91.4062C207.821 92.0315 208.948 91.5131 208.948 90.5522V77.4459C208.948 76.485 207.821 75.9665 207.091 76.5937Z" fill="black"/>
<path d="M236.593 80.9091L243.146 88.5553C243.251 88.6785 243.382 88.7774 243.53 88.8452C243.677 88.913 243.837 88.9481 244 88.9481C244.162 88.9481 244.322 88.913 244.47 88.8452C244.617 88.7774 244.748 88.6785 244.854 88.5553L251.406 80.9091C252.031 80.1792 251.513 79.0519 250.552 79.0519H237.446C236.485 79.0519 235.966 80.1792 236.593 80.9091Z" fill="black"/>
<path d="M280.909 91.4062L288.555 84.854C288.678 84.7484 288.777 84.6174 288.845 84.47C288.913 84.3226 288.948 84.1622 288.948 84C288.948 83.8377 288.913 83.6774 288.845 83.5299C288.777 83.3825 288.678 83.2515 288.555 83.1459L280.909 76.5937C280.179 75.9684 279.052 76.4868 279.052 77.4478V90.554C279.052 91.515 280.179 92.0334 280.909 91.4062Z" fill="black"/>
<path d="M331.407 87.091L324.855 79.4447C324.749 79.3216 324.618 79.2227 324.47 79.1549C324.323 79.0871 324.163 79.052 324 79.052C323.838 79.052 323.678 79.0871 323.53 79.1549C323.383 79.2227 323.252 79.3216 323.146 79.4447L316.594 87.091C315.969 87.8208 316.487 88.9482 317.448 88.9482H330.555C331.515 88.9482 332.034 87.8208 331.407 87.091Z" fill="black"/>
<path d="M157.25 44.5625L164 51.3125L170.75 44.5625M164 50.375V36.6875" stroke="black" stroke-width="1.5" stroke-linecap="round" stroke-linejoin="round"/>
<path d="M117.25 43.4375L124 36.6875L130.75 43.4375M124 37.625V51.3125" stroke="black" stroke-width="1.5" stroke-linecap="round" stroke-linejoin="round"/>
<path d="M84.5625 37.25L91.3125 44L84.5625 50.75M90.375 44H76.6875" stroke="black" stroke-width="1.5" stroke-linecap="round" stroke-linejoin="round"/>
<path d="M43.4375 50.75L36.6875 44L43.4375 37.25M37.625 44H51.3125" stroke="black" stroke-width="1.5" stroke-linecap="round" stroke-linejoin="round"/>
<path d="M79.6251 89.1708H89.171V79.6248M88.5081 88.5078L78.8296 78.8293" stroke="black" stroke-width="1.5" stroke-linecap="round" stroke-linejoin="round"/>
<path d="M118.83 88.3753V78.8293H128.376M119.493 79.4922L129.171 89.1708" stroke="black" stroke-width="1.5" stroke-linecap="round" stroke-linejoin="round"/>
<path d="M159.625 78.8292H169.171V88.3752M168.508 79.4922L158.83 89.1707" stroke="black" stroke-width="1.5" stroke-linecap="round" stroke-linejoin="round"/>
<path d="M48.3756 89.1707H38.8296V79.6247M39.4925 88.5078L49.171 78.8292" stroke="black" stroke-width="1.5" stroke-linecap="round" stroke-linejoin="round"/>
<path d="M317.25 41L324 47.75L330.75 41" stroke="black" stroke-width="1.5" stroke-linecap="round" stroke-linejoin="round"/>
<path d="M277.25 47.75L284 41L290.75 47.75" stroke="black" stroke-width="1.5" stroke-linecap="round" stroke-linejoin="round"/>
<path d="M241 37.25L247.75 44L241 50.75" stroke="black" stroke-width="1.5" stroke-linecap="round" stroke-linejoin="round"/>
<path d="M207.75 50.75L201 44L207.75 37.25" stroke="black" stroke-width="1.5" stroke-linecap="round" stroke-linejoin="round"/>
</svg>
