<svg width="108" height="64" viewBox="0 0 108 64" fill="none" xmlns="http://www.w3.org/2000/svg">
<path d="M26.3372 38.2878C26.4638 38.4329 26.62 38.5492 26.7953 38.6289C26.9706 38.7086 27.1609 38.7499 27.3534 38.75H38.8969C39.2553 38.7484 39.5986 38.6053 39.852 38.3519C40.1055 38.0984 40.2486 37.7551 40.2502 37.3967V26.6033C40.2486 26.2449 40.1055 25.9016 39.852 25.6481C39.5986 25.3947 39.2553 25.2516 38.8969 25.25H27.3534C27.1611 25.2502 26.9709 25.2914 26.7957 25.371C26.6206 25.4505 26.4644 25.5665 26.3377 25.7112L22.1719 32L26.3372 38.2864V38.2878Z" stroke="black" stroke-width="1.5" stroke-linejoin="round"/>
<path d="M35.7817 29.0154L29.6875 35.1096M35.7817 35.1096L29.6875 29.0154M35.7817 29.0154L29.6875 35.1096M35.7817 35.1096L29.6875 29.0154" stroke="black" stroke-width="1.5" stroke-linecap="round" stroke-linejoin="round"/>
<path d="M82.8967 24.5H71.3532C71.0544 24.5004 70.759 24.5644 70.4868 24.6878C70.2145 24.8112 69.9717 24.9912 69.7745 25.2158C69.7403 25.2547 69.7103 25.2972 69.685 25.3423L65.5 31.6133C65.4297 31.73 65.3926 31.8637 65.3926 32C65.3926 32.1363 65.4297 32.27 65.5 32.3867L69.6789 38.6478C69.7052 38.6961 69.7366 38.7413 69.7726 38.7828C69.9698 39.0078 70.2127 39.1881 70.4851 39.3118C70.7575 39.4355 71.0532 39.4996 71.3523 39.5H82.8967C83.4543 39.4994 83.9889 39.2776 84.3832 38.8833C84.7775 38.489 84.9993 37.9544 85 37.3967V26.6033C84.9993 26.0456 84.7775 25.511 84.3832 25.1167C83.9889 24.7224 83.4543 24.5006 82.8967 24.5ZM80.3125 34.5781C80.3838 34.6474 80.4406 34.7302 80.4796 34.8216C80.5186 34.913 80.5391 35.0113 80.5398 35.1107C80.5405 35.2101 80.5214 35.3087 80.4837 35.4007C80.446 35.4926 80.3903 35.5762 80.32 35.6465C80.2497 35.7168 80.1661 35.7724 80.0742 35.8101C79.9822 35.8477 79.8836 35.8668 79.7842 35.866C79.6848 35.8653 79.5865 35.8448 79.4951 35.8057C79.4037 35.7666 79.3209 35.7098 79.2517 35.6384L76.7345 33.125L74.2187 35.6398C74.0779 35.7806 73.887 35.8597 73.6879 35.8597C73.4887 35.8597 73.2978 35.7806 73.157 35.6398C73.0162 35.4991 72.9371 35.3081 72.9371 35.109C72.9371 34.9099 73.0162 34.7189 73.157 34.5781L75.6718 32.0623L73.1551 29.5456C73.0144 29.4046 72.9355 29.2134 72.9357 29.0142C72.9359 28.8149 73.0153 28.6239 73.1563 28.4832C73.2973 28.3425 73.4885 28.2635 73.6877 28.2638C73.887 28.264 74.078 28.3433 74.2187 28.4844L76.7354 31.0016L79.2512 28.4844C79.3919 28.3436 79.5828 28.2646 79.7818 28.2646C79.9809 28.2646 80.1717 28.3436 80.3125 28.4844C80.4532 28.6251 80.5323 28.816 80.5323 29.015C80.5323 29.214 80.4532 29.4049 80.3125 29.5456L77.7953 32.0623L80.3125 34.5781Z" fill="black"/>
<rect x="0.5" y="0.5" width="107" height="63" rx="4.5" stroke="#9747FF" stroke-dasharray="10 5"/>
</svg>
