<svg width="108" height="64" viewBox="0 0 108 64" fill="none" xmlns="http://www.w3.org/2000/svg">
<path d="M27.5 28.25V26.75C27.5 25.5565 27.9741 24.4119 28.818 23.568C29.6619 22.7241 30.8065 22.25 32 22.25V22.25C33.1935 22.25 34.3381 22.7241 35.182 23.568C36.0259 24.4119 36.5 25.5565 36.5 26.75V28.25M23.75 28.25C23.5511 28.25 23.3603 28.329 23.2197 28.4697C23.079 28.6103 23 28.8011 23 29V39.125C23 40.5425 24.2075 41.75 25.625 41.75H38.375C39.7925 41.75 41 40.6011 41 39.1836V29C41 28.8011 40.921 28.6103 40.7803 28.4697C40.6397 28.329 40.4489 28.25 40.25 28.25H23.75Z" stroke="black" stroke-width="1.5" stroke-linecap="round" stroke-linejoin="round"/>
<path d="M85.3117 27.9406C85.1727 27.8006 85.0073 27.6896 84.825 27.6139C84.6428 27.5383 84.4473 27.4996 84.25 27.5H81.25V26.75C81.25 25.3576 80.6969 24.0223 79.7123 23.0377C78.7277 22.0531 77.3924 21.5 76 21.5C74.6076 21.5 73.2723 22.0531 72.2877 23.0377C71.3031 24.0223 70.75 25.3576 70.75 26.75V27.5H67.75C67.3522 27.5 66.9706 27.658 66.6893 27.9393C66.408 28.2206 66.25 28.6022 66.25 29V39.125C66.25 40.9531 67.7969 42.5 69.625 42.5H82.375C83.2593 42.5003 84.1086 42.1545 84.7413 41.5367C85.0596 41.233 85.3132 40.8679 85.4865 40.4634C85.6599 40.059 85.7495 39.6236 85.75 39.1836V29C85.7506 28.8032 85.7122 28.6083 85.637 28.4264C85.5617 28.2446 85.4512 28.0795 85.3117 27.9406ZM72.25 26.75C72.25 25.7554 72.6451 24.8016 73.3483 24.0983C74.0516 23.3951 75.0054 23 76 23C76.9946 23 77.9484 23.3951 78.6517 24.0983C79.3549 24.8016 79.75 25.7554 79.75 26.75V27.5H72.25V26.75Z" fill="black"/>
<rect x="0.5" y="0.5" width="107" height="63" rx="4.5" stroke="#9747FF" stroke-dasharray="10 5"/>
</svg>
