<svg width="108" height="64" viewBox="0 0 108 64" fill="none" xmlns="http://www.w3.org/2000/svg">
<path d="M32 41.75C37.3848 41.75 41.75 37.3848 41.75 32C41.75 26.6152 37.3848 22.25 32 22.25C26.6152 22.25 22.25 26.6152 22.25 32C22.25 37.3848 26.6152 41.75 32 41.75Z" stroke="black" stroke-width="1.5" stroke-linecap="round" stroke-linejoin="round"/>
<path d="M41.6293 32.7238C41.3907 32.7411 41.2431 32.75 40.9998 32.75C35.6148 32.75 31.2498 28.385 31.2498 23C31.2498 22.7483 31.2592 22.5927 31.2779 22.3438M22.3271 31.2762C22.3271 31.2762 22.7579 31.25 22.9998 31.25C28.3848 31.25 32.7498 35.615 32.7498 41C32.7498 41.2522 32.7212 41.6562 32.7212 41.6562" stroke="black" stroke-width="1.5" stroke-linecap="round" stroke-linejoin="round"/>
<path d="M85 32C85.5026 32 86.0044 31.9579 86.5 31.8744C86.4674 29.133 85.3639 26.5132 83.4254 24.5746C81.4868 22.6361 78.867 21.5326 76.1256 21.5C76.0421 21.9956 76 22.4974 76 23C76 27.9627 80.0373 32 85 32ZM75.8758 42.5C75.9198 42.2342 75.9531 41.9656 75.9738 41.6947C75.9911 41.4659 76 41.2325 76 41.0014C76 36.0387 71.9627 32.0014 67 32.0014C66.4974 32.0014 65.9956 32.0435 65.5 32.127C65.533 34.8684 66.6368 37.4881 68.5756 39.4264C70.5144 41.3646 73.1344 42.4678 75.8758 42.5Z" fill="black"/>
<path d="M77.5755 30.4245C76.5974 29.4518 75.8219 28.2948 75.294 27.0203C74.7661 25.7459 74.4962 24.3794 74.5 23C74.5 22.5297 74.5313 22.0599 74.5938 21.5938C72.3154 21.9023 70.2012 22.9498 68.5755 24.5755C66.9498 26.2012 65.9023 28.3154 65.5938 30.5938C66.0599 30.5313 66.5297 30.5 67 30.5C68.3794 30.4962 69.7459 30.7661 71.0203 31.294C72.2948 31.8219 73.4518 32.5974 74.4245 33.5755C75.4026 34.5482 76.1781 35.7052 76.706 36.9797C77.2339 38.2541 77.5038 39.6206 77.5 41C77.5 41.2691 77.4897 41.5405 77.4695 41.8072C77.4539 42.0078 77.4327 42.2077 77.4058 42.4067C79.6842 42.0981 81.7985 41.0506 83.4243 39.4248C85.0501 37.799 86.0976 35.6847 86.4062 33.4062C85.9401 33.4687 85.4703 33.5 85 33.5C83.6206 33.5038 82.2541 33.2339 80.9797 32.706C79.7052 32.1781 78.5482 31.4026 77.5755 30.4245Z" fill="black"/>
<rect x="0.5" y="0.5" width="107" height="63" rx="4.5" stroke="#9747FF" stroke-dasharray="10 5"/>
</svg>
