<svg width="108" height="64" viewBox="0 0 108 64" fill="none" xmlns="http://www.w3.org/2000/svg">
<path d="M25.8125 30.25H23.9375C23.4197 30.25 23 30.6697 23 31.1875V38.3125C23 38.8303 23.4197 39.25 23.9375 39.25H25.8125C26.3303 39.25 26.75 38.8303 26.75 38.3125V31.1875C26.75 30.6697 26.3303 30.25 25.8125 30.25Z" stroke="black" stroke-width="1.5" stroke-linecap="round" stroke-linejoin="round"/>
<path d="M32.5625 28H30.6875C30.1697 28 29.75 28.4197 29.75 28.9375V38.3125C29.75 38.8303 30.1697 39.25 30.6875 39.25H32.5625C33.0803 39.25 33.5 38.8303 33.5 38.3125V28.9375C33.5 28.4197 33.0803 28 32.5625 28Z" stroke="black" stroke-width="1.5" stroke-linecap="round" stroke-linejoin="round"/>
<path d="M39.2949 25H37.4199C36.9022 25 36.4824 25.4197 36.4824 25.9375V38.3125C36.4824 38.8303 36.9022 39.25 37.4199 39.25H39.2949C39.8127 39.25 40.2324 38.8303 40.2324 38.3125V25.9375C40.2324 25.4197 39.8127 25 39.2949 25Z" stroke="black" stroke-width="1.5" stroke-linecap="round" stroke-linejoin="round"/>
<path d="M70.5625 39.75H68.6875C68.2399 39.75 67.8107 39.5722 67.4943 39.2557C67.1778 38.9393 67 38.5101 67 38.0625V30.9375C67 30.4899 67.1778 30.0607 67.4943 29.7443C67.8107 29.4278 68.2399 29.25 68.6875 29.25H70.5625C71.0101 29.25 71.4393 29.4278 71.7557 29.7443C72.0722 30.0607 72.25 30.4899 72.25 30.9375V38.0625C72.25 38.5101 72.0722 38.9393 71.7557 39.2557C71.4393 39.5722 71.0101 39.75 70.5625 39.75ZM77.3125 39.75H75.4375C74.9899 39.75 74.5607 39.5722 74.2443 39.2557C73.9278 38.9393 73.75 38.5101 73.75 38.0625V28.6875C73.75 28.2399 73.9278 27.8107 74.2443 27.4943C74.5607 27.1778 74.9899 27 75.4375 27H77.3125C77.7601 27 78.1893 27.1778 78.5057 27.4943C78.8222 27.8107 79 28.2399 79 28.6875V38.0625C79 38.5101 78.8222 38.9393 78.5057 39.2557C78.1893 39.5722 77.7601 39.75 77.3125 39.75ZM84.0456 39.75H82.1706C81.7231 39.75 81.2938 39.5722 80.9774 39.2557C80.6609 38.9393 80.4831 38.5101 80.4831 38.0625V25.6875C80.4831 25.2399 80.6609 24.8107 80.9774 24.4943C81.2938 24.1778 81.7231 24 82.1706 24H84.0456C84.4932 24 84.9224 24.1778 85.2389 24.4943C85.5553 24.8107 85.7331 25.2399 85.7331 25.6875V38.0625C85.7331 38.5101 85.5553 38.9393 85.2389 39.2557C84.9224 39.5722 84.4932 39.75 84.0456 39.75Z" fill="black"/>
<rect x="0.5" y="0.5" width="107" height="63" rx="4.5" stroke="#9747FF" stroke-dasharray="10 5"/>
</svg>
