<svg width="108" height="64" viewBox="0 0 108 64" fill="none" xmlns="http://www.w3.org/2000/svg">
<path d="M23.2063 29C22.9542 28.9997 22.7123 29.0991 22.5332 29.2765C22.354 29.4538 22.2523 29.6948 22.2501 29.9469C22.249 30.0342 22.2617 30.1212 22.2876 30.2047L24.711 38.75C24.8233 39.1492 25.0634 39.5005 25.3944 39.7503C25.7254 40 26.1291 40.1344 26.5438 40.1328H37.4563C37.8718 40.1332 38.2761 39.9985 38.6084 39.7491C38.9406 39.4997 39.1828 39.149 39.2985 38.75L41.7219 30.2047L41.7501 29.9469C41.7478 29.6948 41.6461 29.4538 41.467 29.2765C41.2878 29.0991 41.0459 28.9997 40.7938 29H23.2063ZM32.2682 36.5033C31.8786 36.5013 31.4983 36.384 31.1753 36.1662C30.8523 35.9483 30.601 35.6396 30.4533 35.2791C30.3055 34.9186 30.2679 34.5224 30.3451 34.1405C30.4223 33.7586 30.6109 33.4082 30.8871 33.1334C31.1632 32.8586 31.5146 32.6717 31.8969 32.5964C32.2792 32.5211 32.6752 32.5607 33.0349 32.7103C33.3947 32.8598 33.7021 33.1126 33.9184 33.4367C34.1346 33.7608 34.2501 34.1416 34.2501 34.5313C34.2476 35.0552 34.0377 35.5569 33.6662 35.9264C33.2948 36.296 32.7921 36.5034 32.2682 36.5033V36.5033Z" stroke="black" stroke-width="1.5" stroke-linejoin="round"/>
<path d="M27.5 29L32 23L36.5 29" stroke="black" stroke-width="1.5" stroke-linejoin="round"/>
<path d="M83.8802 29H80.8751L76.6001 23.3C76.5302 23.2069 76.4396 23.1313 76.3355 23.0792C76.2313 23.0271 76.1165 23 76.0001 23C75.8836 23 75.7688 23.0271 75.6647 23.0792C75.5605 23.1313 75.4699 23.2069 75.4001 23.3L71.1251 29H68.1199C67.7156 28.9994 67.3276 29.1591 67.041 29.4442C66.7543 29.7292 66.5925 30.1164 66.5908 30.5206C66.59 30.6635 66.6107 30.8058 66.6523 30.9425L68.8212 38.5897C68.9622 39.0881 69.2621 39.5268 69.6754 39.8391C70.0886 40.1514 70.5926 40.3202 71.1105 40.3198H80.8896C81.4076 40.3182 81.9112 40.1491 82.3252 39.8377C82.7392 39.5263 83.0413 39.0893 83.1865 38.592L85.3582 30.9345C85.3682 30.8983 85.3754 30.8613 85.3798 30.8239L85.4046 30.5928C85.4074 30.5687 85.4088 30.5444 85.4088 30.5202C85.4071 30.1161 85.2452 29.7291 84.9587 29.4442C84.6721 29.1592 84.2843 28.9995 83.8802 29ZM76.0001 25.0002L79.0001 29H73.0001L76.0001 25.0002ZM76.0001 36.4845C75.6509 36.4829 75.3101 36.3778 75.0206 36.1826C74.7311 35.9874 74.5059 35.7108 74.3734 35.3878C74.241 35.0647 74.2072 34.7097 74.2763 34.3674C74.3454 34.0252 74.5144 33.7111 74.7619 33.4648C75.0094 33.2185 75.3243 33.051 75.6668 32.9835C76.0094 32.916 76.3643 32.9515 76.6867 33.0855C77.0091 33.2195 77.2846 33.446 77.4784 33.7364C77.6723 34.0269 77.7757 34.3682 77.7757 34.7173C77.7731 35.1865 77.5849 35.6356 77.2521 35.9664C76.9194 36.2972 76.4692 36.4828 76.0001 36.4827V36.4845Z" fill="black"/>
<rect x="0.5" y="0.5" width="107" height="63" rx="4.5" stroke="#9747FF" stroke-dasharray="10 5"/>
</svg>
