<svg width="108" height="64" viewBox="0 0 108 64" fill="none" xmlns="http://www.w3.org/2000/svg">
<path d="M36.5 29.375V40.625C36.4985 41.1218 36.3005 41.5979 35.9492 41.9492C35.5979 42.3005 35.1218 42.4985 34.625 42.5H26.375C25.8782 42.4985 25.4021 42.3005 25.0508 41.9492C24.6995 41.5979 24.5015 41.1218 24.5 40.625V30.5" stroke="black" stroke-width="1.5" stroke-linecap="round" stroke-linejoin="round"/>
<path d="M36.5 30.5H38.375C39.0706 30.502 39.7371 30.7792 40.229 31.271C40.7208 31.7629 40.998 32.4294 41 33.125V36.875C40.998 37.5706 40.7208 38.2371 40.229 38.729C39.7371 39.2208 39.0706 39.498 38.375 39.5H36.5" stroke="black" stroke-width="1.5" stroke-miterlimit="10" stroke-linecap="round"/>
<path d="M30.5 32V39.5M33.5 32V39.5M27.5 32V39.5M35 25.25C35.5967 25.25 36.169 25.4871 36.591 25.909C37.0129 26.331 37.25 26.9033 37.25 27.5C37.25 28.0967 37.0129 28.669 36.591 29.091C36.169 29.5129 35.5967 29.75 35 29.75C34.3789 29.75 33.6261 29.4073 33.2188 29H27.5C27.125 30.0312 26.2344 30.5 25.25 30.5C24.6533 30.5 24.081 30.2629 23.659 29.841C23.2371 29.419 23 28.8467 23 28.25C23 27.6533 23.2371 27.081 23.659 26.659C24.081 26.2371 24.6533 26 25.25 26C25.6888 26.0184 26.1125 26.1651 26.4688 26.4219" stroke="black" stroke-width="1.5" stroke-linecap="round" stroke-linejoin="round"/>
<path d="M24.3063 26.2077C24.1225 26.0255 23.9783 25.8073 23.8829 25.5667C23.7876 25.3261 23.743 25.0683 23.7521 24.8097C23.7613 24.551 23.8238 24.2971 23.9359 24.0638C24.048 23.8305 24.2071 23.6229 24.4033 23.4542C24.5996 23.2854 24.8286 23.1591 25.076 23.0832C25.3235 23.0073 25.5839 22.9834 25.841 23.0131C26.0981 23.0428 26.3463 23.1253 26.5699 23.2556C26.7935 23.3859 26.9878 23.5611 27.1404 23.7702C27.1404 23.7702 27.5004 24.2656 27.5004 24.5M26.8362 23.0333C27.6513 22.1042 28.7927 21.5 30.1254 21.5C32.5807 21.5 34.5316 23.5081 34.5316 25.963C34.5318 26.2428 34.5056 26.522 34.4533 26.7969" stroke="black" stroke-width="1.5" stroke-miterlimit="10" stroke-linecap="round"/>
<path d="M82.3748 29.75H81.2498V29.481C81.628 29.0533 81.8761 28.5265 81.965 27.9626C82.0539 27.3986 81.9799 26.821 81.7517 26.2977C81.5234 25.7745 81.1504 25.3273 80.6766 25.0088C80.2028 24.6903 79.6479 24.5138 79.0772 24.5C78.8379 23.6647 78.3933 22.9026 77.7839 22.2833C77.3076 21.7959 76.7384 21.409 76.1098 21.1456C75.4813 20.8822 74.8063 20.7477 74.1248 20.75C72.7228 20.75 71.4164 21.3257 70.4217 22.3757C69.9335 22.2201 69.4105 22.2108 68.917 22.349C68.4236 22.4871 67.9815 22.7666 67.645 23.1531C67.3086 23.5395 67.0926 24.016 67.0236 24.5237C66.9547 25.0314 67.0359 25.5482 67.2572 26.0103C66.9021 26.3255 66.627 26.7205 66.4546 27.1629C66.2821 27.6052 66.2173 28.0822 66.2654 28.5545C66.3135 29.0268 66.4732 29.4809 66.7313 29.8794C66.9894 30.2779 67.3385 30.6094 67.7498 30.8464V40.625C67.7506 41.321 68.0274 41.9882 68.5195 42.4804C69.0116 42.9725 69.6789 43.2493 70.3748 43.25H78.6248C79.3208 43.2493 79.988 42.9725 80.4802 42.4804C80.9723 41.9882 81.2491 41.321 81.2498 40.625V40.25H82.3748C83.2696 40.249 84.1275 39.8931 84.7602 39.2604C85.3929 38.6277 85.7488 37.7698 85.7498 36.875V33.125C85.7488 32.2302 85.3929 31.3724 84.7602 30.7396C84.1275 30.1069 83.2696 29.751 82.3748 29.75ZM72.2498 39.5C72.2498 39.6989 72.1708 39.8897 72.0301 40.0304C71.8895 40.171 71.6987 40.25 71.4998 40.25C71.3009 40.25 71.1101 40.171 70.9695 40.0304C70.8288 39.8897 70.7498 39.6989 70.7498 39.5V32C70.7498 31.8011 70.8288 31.6104 70.9695 31.4697C71.1101 31.329 71.3009 31.25 71.4998 31.25C71.6987 31.25 71.8895 31.329 72.0301 31.4697C72.1708 31.6104 72.2498 31.8011 72.2498 32V39.5ZM75.2498 39.5C75.2498 39.6989 75.1708 39.8897 75.0302 40.0304C74.8895 40.171 74.6987 40.25 74.4998 40.25C74.3009 40.25 74.1101 40.171 73.9695 40.0304C73.8288 39.8897 73.7498 39.6989 73.7498 39.5V32C73.7498 31.8011 73.8288 31.6104 73.9695 31.4697C74.1101 31.329 74.3009 31.25 74.4998 31.25C74.6987 31.25 74.8895 31.329 75.0302 31.4697C75.1708 31.6104 75.2498 31.8011 75.2498 32V39.5ZM78.2498 39.5C78.2498 39.6989 78.1708 39.8897 78.0302 40.0304C77.8895 40.171 77.6987 40.25 77.4998 40.25C77.3009 40.25 77.1101 40.171 76.9695 40.0304C76.8288 39.8897 76.7498 39.6989 76.7498 39.5V32C76.7498 31.8011 76.8288 31.6104 76.9695 31.4697C77.1101 31.329 77.3009 31.25 77.4998 31.25C77.6987 31.25 77.8895 31.329 78.0302 31.4697C78.1708 31.6104 78.2498 31.8011 78.2498 32V39.5ZM78.9998 29C78.6094 29 78.0365 28.7572 77.7487 28.4699C77.6081 28.3292 77.4174 28.2501 77.2186 28.25H71.4998C71.3462 28.2504 71.1963 28.2979 71.0706 28.3862C70.9448 28.4745 70.8492 28.5992 70.7967 28.7436C70.4765 29.6192 69.6904 29.75 69.2498 29.75C68.852 29.75 68.4705 29.592 68.1892 29.3107C67.9079 29.0294 67.7498 28.6479 67.7498 28.25C67.7498 27.8522 67.9079 27.4707 68.1892 27.1894C68.4705 26.9081 68.852 26.75 69.2498 26.75C69.254 26.75 69.6773 26.766 70.0186 27.0219C70.0974 27.081 70.187 27.124 70.2824 27.1484C70.3778 27.1729 70.4771 27.1783 70.5746 27.1644C70.6721 27.1504 70.7659 27.1174 70.8507 27.0673C70.9354 27.0171 71.0095 26.9507 71.0686 26.8719C71.1277 26.7931 71.1707 26.7035 71.1951 26.608C71.2195 26.5126 71.225 26.4133 71.211 26.3158C71.1971 26.2183 71.1641 26.1245 71.1139 26.0398C71.0637 25.955 70.9974 25.881 70.9186 25.8219C70.4326 25.4675 69.851 25.2682 69.2498 25.25C69.029 25.2502 68.8089 25.2748 68.5936 25.3236C68.5192 25.1525 68.4885 24.9655 68.5043 24.7795C68.5202 24.5936 68.582 24.4145 68.6843 24.2584C68.7866 24.1023 68.9261 23.9741 69.0903 23.8853C69.2545 23.7966 69.4382 23.7501 69.6248 23.75C69.802 23.7492 69.9768 23.7906 70.1348 23.8708C70.2928 23.951 70.4294 24.0677 70.5333 24.2113C70.6178 24.3279 70.6917 24.4518 70.754 24.5816C70.7744 24.7727 70.8673 24.9488 71.0137 25.0733C71.1601 25.1979 71.3487 25.2615 71.5407 25.2511C71.7326 25.2406 71.9132 25.1568 72.0451 25.0171C72.1771 24.8773 72.2504 24.6922 72.2498 24.5C72.2498 24.1827 72.0806 23.7889 71.7454 23.3282C71.7239 23.2986 71.6986 23.2696 71.6775 23.241C72.3619 22.5988 73.2173 22.25 74.1248 22.25C74.6071 22.2486 75.0848 22.3441 75.5295 22.5307C75.9742 22.7174 76.3769 22.9914 76.7137 23.3366C77.135 23.7688 77.446 24.2962 77.6204 24.874C77.7949 25.4518 77.8276 26.0631 77.7159 26.6563C77.6975 26.753 77.6983 26.8525 77.7183 26.9489C77.7384 27.0454 77.7772 27.137 77.8326 27.2184C77.888 27.2998 77.9589 27.3696 78.0413 27.4236C78.1237 27.4776 78.2159 27.5149 78.3126 27.5333C78.359 27.542 78.4061 27.5464 78.4533 27.5464C78.6276 27.5463 78.7965 27.4853 78.9308 27.3741C79.0651 27.2629 79.1565 27.1083 79.1892 26.9371C79.2463 26.6369 79.277 26.3323 79.2811 26.0267C79.6477 26.0969 79.975 26.3012 80.199 26.5998C80.423 26.8983 80.5277 27.2697 80.4925 27.6413C80.4574 28.0129 80.285 28.358 80.0089 28.6093C79.7329 28.8606 79.3731 28.9999 78.9998 29ZM84.2498 36.875C84.2498 37.3723 84.0523 37.8492 83.7006 38.2009C83.349 38.5525 82.8721 38.75 82.3748 38.75H81.2498V31.25H82.3748C82.8721 31.25 83.349 31.4476 83.7006 31.7992C84.0523 32.1508 84.2498 32.6277 84.2498 33.125V36.875Z" fill="black"/>
<rect x="0.5" y="0.5" width="107" height="63" rx="4.5" stroke="#9747FF" stroke-dasharray="10 5"/>
</svg>
