<svg width="108" height="64" viewBox="0 0 108 64" fill="none" xmlns="http://www.w3.org/2000/svg">
<path d="M40.25 26.75L38.9061 39.6753C38.8631 40.0403 38.6877 40.3767 38.4131 40.6209C38.1385 40.8651 37.7839 41 37.4164 41H26.5841C26.2166 41 25.8619 40.8651 25.5873 40.6209C25.3127 40.3767 25.1373 40.0403 25.0944 39.6753L23.75 26.75" stroke="black" stroke-width="1.5" stroke-linecap="round" stroke-linejoin="round"/>
<path d="M41.75 23H22.25C21.8358 23 21.5 23.3358 21.5 23.75V26C21.5 26.4142 21.8358 26.75 22.25 26.75H41.75C42.1642 26.75 42.5 26.4142 42.5 26V23.75C42.5 23.3358 42.1642 23 41.75 23Z" stroke="black" stroke-width="1.5" stroke-linecap="round" stroke-linejoin="round"/>
<path d="M34.625 31.25L29.375 36.5M34.625 36.5L29.375 31.25" stroke="black" stroke-width="1.5" stroke-linecap="round" stroke-linejoin="round"/>
<path d="M85 22.25H67C66.1716 22.25 65.5 22.9216 65.5 23.75V24.5C65.5 25.3284 66.1716 26 67 26H85C85.8284 26 86.5 25.3284 86.5 24.5V23.75C86.5 22.9216 85.8284 22.25 85 22.25Z" fill="black"/>
<path d="M67.4903 27.5C67.4376 27.4997 67.3854 27.5105 67.3372 27.5318C67.289 27.553 67.2458 27.5842 67.2104 27.6232C67.175 27.6623 67.1482 27.7083 67.1319 27.7584C67.1155 27.8085 67.1098 27.8615 67.1153 27.9139L68.3486 39.7527C68.3483 39.7561 68.3483 39.7595 68.3486 39.763C68.413 40.3105 68.6763 40.8154 69.0884 41.1817C69.5005 41.548 70.0327 41.7502 70.5841 41.75H81.4164C81.9676 41.75 82.4996 41.5477 82.9115 41.1814C83.3234 40.8151 83.5865 40.3104 83.6509 39.763V39.7531L84.8823 27.9139C84.8878 27.8615 84.8822 27.8085 84.8658 27.7584C84.8494 27.7083 84.8226 27.6623 84.7873 27.6232C84.7519 27.5842 84.7087 27.553 84.6604 27.5318C84.6122 27.5105 84.56 27.4997 84.5073 27.5H67.4903ZM79.1556 35.9698C79.2269 36.0391 79.2837 36.1219 79.3228 36.2133C79.3618 36.3048 79.3823 36.403 79.383 36.5024C79.3837 36.6019 79.3646 36.7004 79.3269 36.7924C79.2891 36.8844 79.2335 36.9679 79.1632 37.0382C79.0929 37.1085 79.0093 37.1641 78.9173 37.2018C78.8253 37.2395 78.7267 37.2585 78.6273 37.2577C78.5279 37.257 78.4296 37.2365 78.3382 37.1974C78.2468 37.1583 78.1641 37.1015 78.0948 37.0302L76.0005 34.9358L73.9056 37.0302C73.7643 37.1675 73.5747 37.2436 73.3777 37.2422C73.1807 37.2408 72.9921 37.162 72.8528 37.0227C72.7134 36.8834 72.6345 36.6949 72.633 36.4979C72.6315 36.3009 72.7076 36.1112 72.8448 35.9698L74.9397 33.875L72.8448 31.7802C72.7076 31.6388 72.6315 31.4491 72.633 31.2521C72.6345 31.0551 72.7134 30.8666 72.8528 30.7273C72.9921 30.588 73.1807 30.5092 73.3777 30.5078C73.5747 30.5064 73.7643 30.5826 73.9056 30.7198L76.0005 32.8142L78.0948 30.7198C78.2361 30.5826 78.4258 30.5064 78.6228 30.5078C78.8198 30.5092 79.0084 30.588 79.1477 30.7273C79.287 30.8666 79.366 31.0551 79.3675 31.2521C79.3689 31.4491 79.2928 31.6388 79.1556 31.7802L77.0608 33.875L79.1556 35.9698Z" fill="black"/>
<rect x="0.5" y="0.5" width="107" height="63" rx="4.5" stroke="#9747FF" stroke-dasharray="10 5"/>
</svg>
