<svg width="108" height="64" viewBox="0 0 108 64" fill="none" xmlns="http://www.w3.org/2000/svg">
<path d="M36.5 22.25H27.5C26.9033 22.25 26.331 22.4871 25.909 22.909C25.4871 23.331 25.25 23.9033 25.25 24.5V41.75L32 35.75L38.75 41.75V24.5C38.75 23.9033 38.5129 23.331 38.091 22.909C37.669 22.4871 37.0967 22.25 36.5 22.25Z" stroke="black" stroke-width="1.5" stroke-linecap="round" stroke-linejoin="round"/>
<path d="M82.75 42.5C82.5666 42.5005 82.3893 42.4338 82.2517 42.3125L76 36.7536L69.7483 42.3125C69.6401 42.4087 69.5064 42.4715 69.3633 42.4933C69.2202 42.5152 69.0738 42.4952 68.9419 42.4357C68.8099 42.3763 68.698 42.2799 68.6196 42.1582C68.5411 42.0365 68.4996 41.8948 68.5 41.75V24.5C68.5009 23.7046 68.8172 22.9421 69.3796 22.3796C69.9421 21.8172 70.7046 21.5009 71.5 21.5H80.5C81.2954 21.5009 82.0579 21.8172 82.6204 22.3796C83.1828 22.9421 83.4991 23.7046 83.5 24.5V41.75C83.5 41.9489 83.421 42.1397 83.2803 42.2803C83.1397 42.421 82.9489 42.5 82.75 42.5Z" fill="black"/>
<rect x="0.5" y="0.5" width="107" height="63" rx="4.5" stroke="#9747FF" stroke-dasharray="10 5"/>
</svg>
