<svg width="108" height="64" viewBox="0 0 108 64" fill="none" xmlns="http://www.w3.org/2000/svg">
<path d="M32 27.5V41M32 27.5C32.75 24.5394 35.5827 23.0277 41.75 23C41.8486 22.9996 41.9463 23.0188 42.0375 23.0563C42.1286 23.0939 42.2114 23.1491 42.2812 23.2188C42.3509 23.2886 42.4061 23.3714 42.4437 23.4626C42.4812 23.5537 42.5004 23.6514 42.5 23.75V37.25C42.5 37.4489 42.421 37.6397 42.2803 37.7803C42.1397 37.921 41.9489 38 41.75 38C35.75 38 33.432 39.2098 32 41C30.5764 39.2188 28.25 38 22.25 38C21.7869 38 21.5 37.6227 21.5 37.1595V23.75C21.4996 23.6514 21.5188 23.5537 21.5563 23.4626C21.5939 23.3714 21.6491 23.2886 21.7188 23.2188C21.7886 23.1491 21.8714 23.0939 21.9626 23.0563C22.0537 23.0188 22.1514 22.9996 22.25 23C28.4173 23.0277 31.25 24.5394 32 27.5Z" stroke="black" stroke-width="1.5" stroke-linecap="round" stroke-linejoin="round"/>
<path d="M73.48 23.4688C71.7864 22.6602 69.4192 22.2641 66.25 22.25C65.9511 22.246 65.6581 22.3331 65.41 22.4999C65.2064 22.6375 65.0397 22.8231 64.9246 23.0403C64.8095 23.2575 64.7496 23.4996 64.75 23.7454V37.1563C64.75 38.0629 65.395 38.7468 66.25 38.7468C69.5814 38.7468 72.9231 39.058 74.9247 40.9499C74.9521 40.9759 74.9865 40.9933 75.0237 40.9999C75.0608 41.0065 75.0991 41.002 75.1338 40.987C75.1685 40.972 75.1979 40.9472 75.2186 40.9156C75.2393 40.884 75.2502 40.847 75.25 40.8093V25.0072C75.2501 24.9006 75.2273 24.7952 75.1831 24.6982C75.139 24.6011 75.0745 24.5147 74.9941 24.4447C74.5356 24.0528 74.0263 23.7245 73.48 23.4688ZM86.59 22.4985C86.3418 22.3322 86.0488 22.2455 85.75 22.25C82.5808 22.2641 80.2136 22.6583 78.52 23.4688C77.9737 23.724 77.4643 24.0517 77.0055 24.4429C76.9252 24.513 76.8609 24.5994 76.8168 24.6965C76.7728 24.7935 76.75 24.8988 76.75 25.0054V40.8083C76.75 40.8446 76.7607 40.8801 76.7807 40.9103C76.8008 40.9406 76.8293 40.9642 76.8628 40.9783C76.8962 40.9923 76.9331 40.9962 76.9687 40.9894C77.0044 40.9826 77.0372 40.9654 77.0631 40.9401C78.2664 39.7447 80.3781 38.7454 85.7519 38.7458C86.1497 38.7458 86.5312 38.5878 86.8125 38.3065C87.0938 38.0252 87.2519 37.6437 87.2519 37.2458V23.7458C87.2524 23.4996 87.1923 23.2569 87.0769 23.0394C86.9615 22.8219 86.7942 22.6361 86.59 22.4985Z" fill="black"/>
<rect x="0.5" y="0.5" width="107" height="63" rx="4.5" stroke="#9747FF" stroke-dasharray="10 5"/>
</svg>
