<svg width="108" height="64" viewBox="0 0 108 64" fill="none" xmlns="http://www.w3.org/2000/svg">
<path d="M40.25 26H23.75C22.5074 26 21.5 27.0074 21.5 28.25V38.75C21.5 39.9926 22.5074 41 23.75 41H40.25C41.4926 41 42.5 39.9926 42.5 38.75V28.25C42.5 27.0074 41.4926 26 40.25 26Z" stroke="black" stroke-width="1.5" stroke-linejoin="round"/>
<path d="M26.75 26V24.5C26.75 24.1022 26.908 23.7206 27.1893 23.4393C27.4706 23.158 27.8522 23 28.25 23H35.75C36.1478 23 36.5294 23.158 36.8107 23.4393C37.092 23.7206 37.25 24.1022 37.25 24.5V26M42.5 31.25H21.5M35 31.25V32.375C35 32.4745 34.9605 32.5698 34.8902 32.6402C34.8198 32.7105 34.7245 32.75 34.625 32.75H29.375C29.2755 32.75 29.1802 32.7105 29.1098 32.6402C29.0395 32.5698 29 32.4745 29 32.375V31.25" stroke="black" stroke-width="1.5" stroke-linecap="round" stroke-linejoin="round"/>
<path d="M87.25 28.25C87.2491 27.4546 86.9328 26.6921 86.3704 26.1296C85.8079 25.5672 85.0454 25.2509 84.25 25.25H82V24.5C81.9994 23.9035 81.7621 23.3315 81.3403 22.9097C80.9185 22.4879 80.3465 22.2506 79.75 22.25H72.25C71.6535 22.2506 71.0815 22.4879 70.6597 22.9097C70.2379 23.3315 70.0006 23.9035 70 24.5V25.25H67.75C66.9546 25.2509 66.1921 25.5672 65.6296 26.1296C65.0672 26.6921 64.7509 27.4546 64.75 28.25V30.5H87.25V28.25ZM80.5 25.25H71.5V24.5C71.5 24.3011 71.579 24.1103 71.7197 23.9697C71.8603 23.829 72.0511 23.75 72.25 23.75H79.75C79.9489 23.75 80.1397 23.829 80.2803 23.9697C80.421 24.1103 80.5 24.3011 80.5 24.5V25.25ZM79.75 32.375C79.75 32.6734 79.6315 32.9595 79.4205 33.1705C79.2095 33.3815 78.9234 33.5 78.625 33.5H73.375C73.0766 33.5 72.7905 33.3815 72.5795 33.1705C72.3685 32.9595 72.25 32.6734 72.25 32.375V32.1875C72.25 32.1378 72.2302 32.0901 72.1951 32.0549C72.1599 32.0198 72.1122 32 72.0625 32H64.75V38.75C64.75 39.5456 65.0661 40.3087 65.6287 40.8713C66.1913 41.4339 66.9544 41.75 67.75 41.75H84.25C85.0456 41.75 85.8087 41.4339 86.3713 40.8713C86.9339 40.3087 87.25 39.5456 87.25 38.75V32H79.9375C79.8878 32 79.8401 32.0198 79.8049 32.0549C79.7698 32.0901 79.75 32.1378 79.75 32.1875V32.375Z" fill="black"/>
<rect x="0.5" y="0.5" width="107" height="63" rx="4.5" stroke="#9747FF" stroke-dasharray="10 5"/>
</svg>
