<svg width="108" height="64" viewBox="0 0 108 64" fill="none" xmlns="http://www.w3.org/2000/svg">
<path d="M37.3438 37.7188C38.698 38.8213 39.5 39.8783 39.5 41.75M26.6562 37.7188C25.302 38.8213 24.5 39.8778 24.5 41.75M38 29.75C39.3542 28.6475 39.5 27.1217 39.5 25.25M26 29.6562C24.6458 28.5537 24.5 27.1222 24.5 25.25M41.75 33.5061H38M26 33.5061H22.25M32 29V41" stroke="black" stroke-width="1.5" stroke-linecap="round" stroke-linejoin="round"/>
<path d="M32 41C28.7 41 26 38.3 26 35V30.4967C26 27.4465 28.7 25.9967 32 25.9967C35.3 25.9967 38 27.1967 38 30.4967V35C38 38.3 35.3 41 32 41Z" stroke="black" stroke-width="1.5" stroke-linecap="round" stroke-linejoin="round"/>
<path d="M28.4108 26.7275C28.317 26.4922 28.2626 26.2431 28.25 25.9902C28.2526 24.999 28.6475 24.0492 29.3483 23.3483C30.0492 22.6475 30.999 22.2526 31.9902 22.25H32.0098C33.001 22.2526 33.9508 22.6475 34.6517 23.3483C35.3525 24.0492 35.7474 24.999 35.75 25.9902C35.7409 26.2204 35.6914 26.4473 35.6038 26.6605" stroke="black" stroke-width="1.5" stroke-linecap="round" stroke-linejoin="round"/>
<path d="M85.7288 32.7561H82.7499V30.4967C82.7499 30.3617 82.7457 30.2294 82.7373 30.0997C84.1234 28.7928 84.249 27.0702 84.2499 25.2716C84.2499 24.868 83.9387 24.5216 83.5351 24.5023C83.4339 24.4976 83.3328 24.5134 83.2378 24.5488C83.1429 24.5842 83.0561 24.6385 82.9827 24.7084C82.9094 24.7783 82.8509 24.8623 82.8109 24.9554C82.7709 25.0484 82.7501 25.1487 82.7499 25.25C82.7499 26.5625 82.6627 27.507 82.2859 28.2425C81.3849 26.3136 79.2024 25.2467 75.9999 25.2467C74.1343 25.2467 72.5223 25.6747 71.3392 26.4838C70.6407 26.9614 70.111 27.5577 69.7595 28.2519C69.3437 27.5305 69.2499 26.6094 69.2499 25.2716C69.2499 24.868 68.9406 24.5216 68.5374 24.5009C68.4359 24.4959 68.3344 24.5115 68.2391 24.5468C68.1438 24.5822 68.0567 24.6365 67.983 24.7066C67.9094 24.7766 67.8507 24.8609 67.8107 24.9543C67.7706 25.0478 67.7499 25.1484 67.7499 25.25C67.7499 27.0139 67.8723 28.7061 69.2706 30.0139C69.2571 30.172 69.2502 30.333 69.2499 30.4967V32.7561H66.271C65.8674 32.7561 65.521 33.0664 65.5009 33.47C65.496 33.5715 65.5118 33.6729 65.5473 33.7681C65.5828 33.8633 65.6372 33.9503 65.7074 34.0238C65.7775 34.0973 65.8618 34.1558 65.9553 34.1958C66.0487 34.2357 66.1493 34.2562 66.2509 34.2561H69.2509V35C69.2502 35.8624 69.4155 36.7168 69.7379 37.5167C68.5346 38.5925 67.7584 39.7813 67.7499 41.7191C67.7499 42.1288 68.0602 42.4831 68.4699 42.4995C68.5709 42.5036 68.6716 42.4872 68.7661 42.4513C68.8605 42.4155 68.9467 42.3609 69.0196 42.2909C69.0924 42.2209 69.1504 42.1369 69.19 42.044C69.2296 41.951 69.2499 41.851 69.2499 41.75C69.2499 40.4534 69.6765 39.6542 70.4767 38.8756C71.3994 40.189 72.7589 41.1317 74.3124 41.5353C74.4233 41.5639 74.5392 41.5668 74.6513 41.5437C74.7634 41.5206 74.8687 41.4722 74.9592 41.4021C75.0497 41.332 75.1229 41.2421 75.1733 41.1394C75.2237 41.0366 75.2499 40.9237 75.2499 40.8092V29.0211C75.2499 28.6175 75.5602 28.2711 75.9638 28.2509C76.0652 28.2461 76.1666 28.2618 76.2617 28.2972C76.3569 28.3327 76.4438 28.3871 76.5173 28.4571C76.5908 28.5271 76.6493 28.6114 76.6893 28.7047C76.7293 28.798 76.7499 28.8985 76.7499 29V40.8092C76.7499 40.9237 76.7762 41.0366 76.8266 41.1394C76.877 41.2421 76.9502 41.332 77.0407 41.4021C77.1312 41.4722 77.2365 41.5206 77.3486 41.5437C77.4607 41.5668 77.5766 41.5639 77.6874 41.5353C79.2408 41.1315 80.6001 40.1889 81.5227 38.8756C82.3196 39.6509 82.7457 40.4469 82.7495 41.7327C82.7478 41.9266 82.82 42.1139 82.9515 42.2564C83.083 42.399 83.2638 42.4861 83.4573 42.5C83.5593 42.5058 83.6614 42.4907 83.7574 42.4556C83.8534 42.4206 83.9412 42.3662 84.0154 42.296C84.0896 42.2258 84.1487 42.1411 84.189 42.0472C84.2294 41.9533 84.2501 41.8522 84.2499 41.75C84.2499 39.7963 83.4718 38.5986 82.2629 37.5167C82.5853 36.7168 82.7506 35.8624 82.7499 35V34.2561H85.7499C85.8515 34.2562 85.9521 34.2357 86.0455 34.1958C86.139 34.1558 86.2233 34.0973 86.2934 34.0238C86.3636 33.9503 86.418 33.8633 86.4535 33.7681C86.489 33.6729 86.5048 33.5715 86.4999 33.47C86.4802 33.0664 86.1324 32.7561 85.7288 32.7561Z" fill="black"/>
<path d="M79.0655 24.875L79.0805 24.8792C79.7166 25.0573 80.2557 24.3847 79.9336 23.8081C79.5444 23.1089 78.9756 22.5263 78.2858 22.1205C77.5961 21.7147 76.8104 21.5005 76.0102 21.5H75.9905C75.1822 21.5005 74.389 21.7191 73.6944 22.1327C72.9999 22.5462 72.4298 23.1394 72.0441 23.8498C71.7235 24.4395 72.285 25.1155 72.9272 24.9214C73.8511 24.6402 74.8861 24.4967 76.0003 24.4967C77.1296 24.4967 78.1608 24.6242 79.0655 24.875Z" fill="black"/>
<rect x="0.5" y="0.5" width="107" height="63" rx="4.5" stroke="#9747FF" stroke-dasharray="10 5"/>
</svg>
