<svg width="108" height="64" viewBox="0 0 108 64" fill="none" xmlns="http://www.w3.org/2000/svg">
<path d="M34.25 38V36.875C34.25 35.5157 35.7285 34.2299 36.6875 33.3125C38.0394 32.0202 38.75 30.2839 38.75 28.25C38.75 24.5 35.7627 21.5 32 21.5C31.1129 21.4976 30.2341 21.6705 29.414 22.0088C28.5939 22.3471 27.8488 22.8442 27.2215 23.4715C26.5942 24.0988 26.0971 24.8439 25.7588 25.664C25.4205 26.4841 25.2476 27.3629 25.25 28.25C25.25 30.2113 25.9911 32.0652 27.3125 33.3125C28.2664 34.213 29.75 35.5016 29.75 36.875V38M30.5 42.5H33.5M29.75 40.25H34.25M32 38V32" stroke="black" stroke-width="1.5" stroke-linecap="round" stroke-linejoin="round"/>
<path d="M33.7812 31.25C33.7812 31.25 32.773 32 32 32C31.227 32 30.2188 31.25 30.2188 31.25" stroke="black" stroke-width="1.5" stroke-linecap="round" stroke-linejoin="round"/>
<path d="M77.5 41.75H74.5C74.3011 41.75 74.1103 41.829 73.9697 41.9697C73.829 42.1103 73.75 42.3011 73.75 42.5C73.75 42.6989 73.829 42.8897 73.9697 43.0304C74.1103 43.171 74.3011 43.25 74.5 43.25H77.5C77.6989 43.25 77.8897 43.171 78.0304 43.0304C78.171 42.8897 78.25 42.6989 78.25 42.5C78.25 42.3011 78.171 42.1103 78.0304 41.9697C77.8897 41.829 77.6989 41.75 77.5 41.75ZM78.25 39.5H73.75C73.5511 39.5 73.3603 39.579 73.2197 39.7197C73.079 39.8603 73 40.0511 73 40.25C73 40.4489 73.079 40.6397 73.2197 40.7804C73.3603 40.921 73.5511 41 73.75 41H78.25C78.4489 41 78.6397 40.921 78.7804 40.7804C78.921 40.6397 79 40.4489 79 40.25C79 40.0511 78.921 39.8603 78.7804 39.7197C78.6397 39.579 78.4489 39.5 78.25 39.5ZM81.3166 22.9386C79.9071 21.5272 78.0189 20.75 76 20.75C75.0144 20.7477 74.0381 20.9401 73.1271 21.3161C72.2161 21.6922 71.3884 22.2446 70.6915 22.9415C69.9946 23.6384 69.4422 24.4661 69.0661 25.3771C68.6901 26.2881 68.4977 27.2644 68.5 28.25C68.5 30.4353 69.3377 32.4796 70.7969 33.8581L71.0013 34.0499C71.8455 34.8392 73 35.9206 73 36.875V38C73 38.1989 73.079 38.3897 73.2197 38.5304C73.3603 38.671 73.5511 38.75 73.75 38.75H74.875C74.9745 38.75 75.0699 38.7105 75.1402 38.6402C75.2105 38.5699 75.25 38.4745 75.25 38.375V32.8822C75.25 32.8064 75.2271 32.7323 75.1841 32.6698C75.1412 32.6073 75.0803 32.5593 75.0096 32.5321C74.5765 32.3554 74.165 32.1297 73.7833 31.8594C73.6975 31.8046 73.6238 31.7329 73.5666 31.6488C73.5094 31.5646 73.4699 31.4696 73.4506 31.3697C73.4313 31.2697 73.4325 31.1669 73.4542 31.0675C73.4759 30.968 73.5176 30.874 73.5768 30.7912C73.6359 30.7084 73.7113 30.6385 73.7984 30.5858C73.8855 30.533 73.9823 30.4986 74.0832 30.4845C74.184 30.4704 74.2866 30.477 74.3848 30.5038C74.4829 30.5307 74.5746 30.5772 74.6542 30.6406C75.0011 30.8863 75.6691 31.25 76 31.25C76.331 31.25 76.9989 30.8853 77.3467 30.6406C77.5087 30.5388 77.7034 30.5027 77.8911 30.5398C78.0788 30.5768 78.2452 30.6841 78.3563 30.8398C78.4675 30.9955 78.5149 31.1878 78.489 31.3773C78.463 31.5669 78.3656 31.7393 78.2167 31.8594C77.8349 32.1292 77.4235 32.3544 76.9905 32.5306C76.9197 32.5579 76.8588 32.6059 76.8159 32.6684C76.773 32.7309 76.75 32.805 76.75 32.8808V38.375C76.75 38.4745 76.7895 38.5699 76.8599 38.6402C76.9302 38.7105 77.0256 38.75 77.125 38.75H78.25C78.4489 38.75 78.6397 38.671 78.7804 38.5304C78.921 38.3897 79 38.1989 79 38V36.875C79 35.9431 80.1419 34.8627 80.9758 34.0733L81.206 33.8549C82.7069 32.4219 83.5 30.4817 83.5 28.25C83.505 27.2644 83.3146 26.2875 82.9398 25.3758C82.5651 24.4642 82.0133 23.6358 81.3166 22.9386Z" fill="black"/>
<rect x="0.5" y="0.5" width="107" height="63" rx="4.5" stroke="#9747FF" stroke-dasharray="10 5"/>
</svg>
