<svg width="108" height="64" viewBox="0 0 108 64" fill="none" xmlns="http://www.w3.org/2000/svg">
<path d="M37.25 23.75H40.25C40.4489 23.75 40.6397 23.829 40.7803 23.9697C40.921 24.1103 41 24.3011 41 24.5V26.0938C41 26.6656 40.7728 27.2141 40.3684 27.6184C39.9641 28.0228 39.4156 28.25 38.8438 28.25H37.25M23 39.5H38.75M24.5 23.75H37.25V32.75C37.25 33.2425 37.153 33.7301 36.9645 34.1851C36.7761 34.64 36.4999 35.0534 36.1517 35.4017C35.8034 35.7499 35.39 36.0261 34.9351 36.2145C34.4801 36.403 33.9925 36.5 33.5 36.5H28.25C27.2554 36.5 26.3016 36.1049 25.5983 35.4017C24.8951 34.6984 24.5 33.7446 24.5 32.75V23.75Z" stroke="black" stroke-width="1.5" stroke-linecap="round" stroke-linejoin="round"/>
<path d="M84.25 23H68.5C68.3011 23 68.1103 23.079 67.9697 23.2197C67.829 23.3603 67.75 23.5511 67.75 23.75V32.75C67.7514 33.9431 68.2259 35.0869 69.0695 35.9305C69.9131 36.7741 71.0569 37.2486 72.25 37.25H77.5C78.6931 37.2486 79.8369 36.7741 80.6805 35.9305C81.5241 35.0869 81.9986 33.9431 82 32.75V29H82.8438C83.6143 28.9991 84.353 28.6927 84.8978 28.1478C85.4427 27.603 85.7491 26.8643 85.75 26.0938V24.5C85.75 24.1022 85.592 23.7206 85.3107 23.4393C85.0294 23.158 84.6478 23 84.25 23ZM84.25 26.0938C84.25 26.4667 84.1018 26.8244 83.8381 27.0881C83.5744 27.3518 83.2167 27.5 82.8438 27.5H82V24.5H84.25V26.0938ZM82.75 38.75H67C66.8011 38.75 66.6103 38.829 66.4697 38.9697C66.329 39.1103 66.25 39.3011 66.25 39.5C66.25 39.6989 66.329 39.8897 66.4697 40.0303C66.6103 40.171 66.8011 40.25 67 40.25H82.75C82.9489 40.25 83.1397 40.171 83.2803 40.0303C83.421 39.8897 83.5 39.6989 83.5 39.5C83.5 39.3011 83.421 39.1103 83.2803 38.9697C83.1397 38.829 82.9489 38.75 82.75 38.75Z" fill="black"/>
<rect x="0.5" y="0.5" width="107" height="63" rx="4.5" stroke="#9747FF" stroke-dasharray="10 5"/>
</svg>
