<svg width="108" height="64" viewBox="0 0 108 64" fill="none" xmlns="http://www.w3.org/2000/svg">
<path d="M39.5 23.75H24.5C23.2574 23.75 22.25 24.7574 22.25 26V39.5C22.25 40.7426 23.2574 41.75 24.5 41.75H39.5C40.7426 41.75 41.75 40.7426 41.75 39.5V26C41.75 24.7574 40.7426 23.75 39.5 23.75Z" stroke="black" stroke-width="1.5" stroke-linejoin="round"/>
<path d="M33.875 32C34.4963 32 35 31.4963 35 30.875C35 30.2537 34.4963 29.75 33.875 29.75C33.2537 29.75 32.75 30.2537 32.75 30.875C32.75 31.4963 33.2537 32 33.875 32Z" fill="black"/>
<path d="M37.625 32C38.2463 32 38.75 31.4963 38.75 30.875C38.75 30.2537 38.2463 29.75 37.625 29.75C37.0037 29.75 36.5 30.2537 36.5 30.875C36.5 31.4963 37.0037 32 37.625 32Z" fill="black"/>
<path d="M33.875 35.75C34.4963 35.75 35 35.2463 35 34.625C35 34.0037 34.4963 33.5 33.875 33.5C33.2537 33.5 32.75 34.0037 32.75 34.625C32.75 35.2463 33.2537 35.75 33.875 35.75Z" fill="black"/>
<path d="M37.625 35.75C38.2463 35.75 38.75 35.2463 38.75 34.625C38.75 34.0037 38.2463 33.5 37.625 33.5C37.0037 33.5 36.5 34.0037 36.5 34.625C36.5 35.2463 37.0037 35.75 37.625 35.75Z" fill="black"/>
<path d="M26.375 35.75C26.9963 35.75 27.5 35.2463 27.5 34.625C27.5 34.0037 26.9963 33.5 26.375 33.5C25.7537 33.5 25.25 34.0037 25.25 34.625C25.25 35.2463 25.7537 35.75 26.375 35.75Z" fill="black"/>
<path d="M30.125 35.75C30.7463 35.75 31.25 35.2463 31.25 34.625C31.25 34.0037 30.7463 33.5 30.125 33.5C29.5037 33.5 29 34.0037 29 34.625C29 35.2463 29.5037 35.75 30.125 35.75Z" fill="black"/>
<path d="M26.375 39.5C26.9963 39.5 27.5 38.9963 27.5 38.375C27.5 37.7537 26.9963 37.25 26.375 37.25C25.7537 37.25 25.25 37.7537 25.25 38.375C25.25 38.9963 25.7537 39.5 26.375 39.5Z" fill="black"/>
<path d="M30.125 39.5C30.7463 39.5 31.25 38.9963 31.25 38.375C31.25 37.7537 30.7463 37.25 30.125 37.25C29.5037 37.25 29 37.7537 29 38.375C29 38.9963 29.5037 39.5 30.125 39.5Z" fill="black"/>
<path d="M33.875 39.5C34.4963 39.5 35 38.9963 35 38.375C35 37.7537 34.4963 37.25 33.875 37.25C33.2537 37.25 32.75 37.7537 32.75 38.375C32.75 38.9963 33.2537 39.5 33.875 39.5Z" fill="black"/>
<path d="M26 22.25V23.75M38 22.25V23.75" stroke="black" stroke-width="1.5" stroke-linecap="round" stroke-linejoin="round"/>
<path d="M41.75 27.5H22.25" stroke="black" stroke-width="1.5" stroke-linejoin="round"/>
<path d="M85 26.8572C85 26.1752 84.7291 25.5212 84.2468 25.0389C83.7646 24.5567 83.1106 24.2858 82.4286 24.2858H81.7857V23.661C81.7857 23.3151 81.5197 23.0181 81.1738 23.0009C81.0869 22.9967 81 23.0102 80.9185 23.0406C80.8369 23.0709 80.7624 23.1175 80.6994 23.1776C80.6364 23.2376 80.5862 23.3098 80.552 23.3898C80.5177 23.4698 80.5 23.5559 80.5 23.6429V24.2858H71.5V23.661C71.5 23.3151 71.234 23.0181 70.8881 23.0009C70.8012 22.9967 70.7143 23.0102 70.6327 23.0406C70.5512 23.0709 70.4767 23.1175 70.4137 23.1776C70.3507 23.2376 70.3005 23.3098 70.2662 23.3898C70.232 23.4698 70.2143 23.5559 70.2143 23.6429V24.2858H69.5714C68.8894 24.2858 68.2354 24.5567 67.7532 25.0389C67.2709 25.5212 67 26.1752 67 26.8572V27.3393C67 27.382 67.0169 27.4229 67.0471 27.453C67.0772 27.4831 67.1181 27.5001 67.1607 27.5001H84.8393C84.8819 27.5001 84.9228 27.4831 84.9529 27.453C84.9831 27.4229 85 27.382 85 27.3393V26.8572ZM67 38.4286C67 39.1106 67.2709 39.7647 67.7532 40.2469C68.2354 40.7291 68.8894 41.0001 69.5714 41.0001H82.4286C83.1106 41.0001 83.7646 40.7291 84.2468 40.2469C84.7291 39.7647 85 39.1106 85 38.4286V28.9063C85 28.8743 84.9873 28.8437 84.9647 28.8211C84.9421 28.7985 84.9114 28.7858 84.8795 28.7858H67.1205C67.0886 28.7858 67.0579 28.7985 67.0353 28.8211C67.0127 28.8437 67 28.8743 67 28.9063V38.4286ZM80.8214 30.0715C81.0121 30.0715 81.1986 30.128 81.3572 30.234C81.5157 30.34 81.6393 30.4906 81.7123 30.6668C81.7853 30.843 81.8044 31.0368 81.7672 31.2239C81.73 31.411 81.6381 31.5828 81.5033 31.7176C81.3684 31.8525 81.1966 31.9443 81.0096 31.9815C80.8225 32.0187 80.6286 31.9996 80.4524 31.9267C80.2762 31.8537 80.1256 31.7301 80.0197 31.5715C79.9137 31.4129 79.8571 31.2265 79.8571 31.0358C79.8571 30.78 79.9587 30.5348 80.1396 30.3539C80.3204 30.1731 80.5657 30.0715 80.8214 30.0715ZM80.8214 33.2858C81.0121 33.2858 81.1986 33.3423 81.3572 33.4483C81.5157 33.5542 81.6393 33.7048 81.7123 33.881C81.7853 34.0572 81.8044 34.2511 81.7672 34.4382C81.73 34.6252 81.6381 34.7971 81.5033 34.9319C81.3684 35.0668 81.1966 35.1586 81.0096 35.1958C80.8225 35.233 80.6286 35.2139 80.4524 35.1409C80.2762 35.068 80.1256 34.9444 80.0197 34.7858C79.9137 34.6272 79.8571 34.4408 79.8571 34.2501C79.8571 33.9943 79.9587 33.749 80.1396 33.5682C80.3204 33.3874 80.5657 33.2858 80.8214 33.2858ZM77.6071 30.0715C77.7979 30.0715 77.9843 30.128 78.1429 30.234C78.3014 30.34 78.425 30.4906 78.498 30.6668C78.571 30.843 78.5901 31.0368 78.5529 31.2239C78.5157 31.411 78.4239 31.5828 78.289 31.7176C78.1541 31.8525 77.9823 31.9443 77.7953 31.9815C77.6082 32.0187 77.4143 31.9996 77.2381 31.9267C77.0619 31.8537 76.9113 31.7301 76.8054 31.5715C76.6994 31.4129 76.6429 31.2265 76.6429 31.0358C76.6429 30.78 76.7445 30.5348 76.9253 30.3539C77.1061 30.1731 77.3514 30.0715 77.6071 30.0715ZM77.6071 33.2858C77.7979 33.2858 77.9843 33.3423 78.1429 33.4483C78.3014 33.5542 78.425 33.7048 78.498 33.881C78.571 34.0572 78.5901 34.2511 78.5529 34.4382C78.5157 34.6252 78.4239 34.7971 78.289 34.9319C78.1541 35.0668 77.9823 35.1586 77.7953 35.1958C77.6082 35.233 77.4143 35.2139 77.2381 35.1409C77.0619 35.068 76.9113 34.9444 76.8054 34.7858C76.6994 34.6272 76.6429 34.4408 76.6429 34.2501C76.6429 33.9943 76.7445 33.749 76.9253 33.5682C77.1061 33.3874 77.3514 33.2858 77.6071 33.2858ZM77.6071 36.5001C77.7979 36.5001 77.9843 36.5566 78.1429 36.6626C78.3014 36.7685 78.425 36.9191 78.498 37.0953C78.571 37.2715 78.5901 37.4654 78.5529 37.6525C78.5157 37.8395 78.4239 38.0113 78.289 38.1462C78.1541 38.2811 77.9823 38.3729 77.7953 38.4101C77.6082 38.4473 77.4143 38.4282 77.2381 38.3552C77.0619 38.2822 76.9113 38.1587 76.8054 38.0001C76.6994 37.8415 76.6429 37.6551 76.6429 37.4643C76.6429 37.2086 76.7445 36.9633 76.9253 36.7825C77.1061 36.6017 77.3514 36.5001 77.6071 36.5001ZM74.3929 33.2858C74.5836 33.2858 74.77 33.3423 74.9286 33.4483C75.0872 33.5542 75.2108 33.7048 75.2837 33.881C75.3567 34.0572 75.3758 34.2511 75.3386 34.4382C75.3014 34.6252 75.2096 34.7971 75.0747 34.9319C74.9399 35.0668 74.768 35.1586 74.581 35.1958C74.3939 35.233 74.2 35.2139 74.0238 35.1409C73.8476 35.068 73.697 34.9444 73.5911 34.7858C73.4851 34.6272 73.4286 34.4408 73.4286 34.2501C73.4286 33.9943 73.5302 33.749 73.711 33.5682C73.8918 33.3874 74.1371 33.2858 74.3929 33.2858ZM74.3929 36.5001C74.5836 36.5001 74.77 36.5566 74.9286 36.6626C75.0872 36.7685 75.2108 36.9191 75.2837 37.0953C75.3567 37.2715 75.3758 37.4654 75.3386 37.6525C75.3014 37.8395 75.2096 38.0113 75.0747 38.1462C74.9399 38.2811 74.768 38.3729 74.581 38.4101C74.3939 38.4473 74.2 38.4282 74.0238 38.3552C73.8476 38.2822 73.697 38.1587 73.5911 38.0001C73.4851 37.8415 73.4286 37.6551 73.4286 37.4643C73.4286 37.2086 73.5302 36.9633 73.711 36.7825C73.8918 36.6017 74.1371 36.5001 74.3929 36.5001ZM71.1786 33.2858C71.3693 33.2858 71.5557 33.3423 71.7143 33.4483C71.8729 33.5542 71.9965 33.7048 72.0695 33.881C72.1424 34.0572 72.1615 34.2511 72.1243 34.4382C72.0871 34.6252 71.9953 34.7971 71.8604 34.9319C71.7256 35.0668 71.5537 35.1586 71.3667 35.1958C71.1796 35.233 70.9858 35.2139 70.8096 35.1409C70.6334 35.068 70.4828 34.9444 70.3768 34.7858C70.2708 34.6272 70.2143 34.4408 70.2143 34.2501C70.2143 33.9943 70.3159 33.749 70.4967 33.5682C70.6776 33.3874 70.9228 33.2858 71.1786 33.2858ZM71.1786 36.5001C71.3693 36.5001 71.5557 36.5566 71.7143 36.6626C71.8729 36.7685 71.9965 36.9191 72.0695 37.0953C72.1424 37.2715 72.1615 37.4654 72.1243 37.6525C72.0871 37.8395 71.9953 38.0113 71.8604 38.1462C71.7256 38.2811 71.5537 38.3729 71.3667 38.4101C71.1796 38.4473 70.9858 38.4282 70.8096 38.3552C70.6334 38.2822 70.4828 38.1587 70.3768 38.0001C70.2708 37.8415 70.2143 37.6551 70.2143 37.4643C70.2143 37.2086 70.3159 36.9633 70.4967 36.7825C70.6776 36.6017 70.9228 36.5001 71.1786 36.5001Z" fill="black"/>
<rect x="0.5" y="0.5" width="107" height="63" rx="4.5" stroke="#9747FF" stroke-dasharray="10 5"/>
</svg>
