<svg width="108" height="64" viewBox="0 0 108 64" fill="none" xmlns="http://www.w3.org/2000/svg">
<path d="M38.3284 42.5001C37.4134 42.5001 36.1281 42.1691 34.2034 41.0938C31.8629 39.7813 30.0526 38.5696 27.7248 36.2479C25.4804 34.0049 24.3882 32.5527 22.8597 29.7711C21.1328 26.6305 21.4272 24.9843 21.7562 24.2807C22.1481 23.4397 22.7265 22.9368 23.4742 22.4376C23.8988 22.1593 24.3483 21.9208 24.8167 21.7251C24.8636 21.7049 24.9072 21.6857 24.9461 21.6683C25.1781 21.5638 25.5297 21.4058 25.975 21.5746C26.2722 21.6861 26.5375 21.9144 26.9528 22.3246C27.8045 23.1646 28.9684 25.0354 29.3978 25.9541C29.6861 26.5733 29.8768 26.9821 29.8773 27.4405C29.8773 27.9772 29.6073 28.3911 29.2797 28.8379C29.2182 28.9218 29.1573 29.0019 29.0982 29.0797C28.7415 29.5485 28.6632 29.684 28.7148 29.9258C28.8193 30.4119 29.5989 31.859 30.88 33.1372C32.1611 34.4155 33.5664 35.1458 34.0543 35.2499C34.3065 35.3038 34.4448 35.2222 34.9286 34.8529C34.9979 34.7999 35.0692 34.7451 35.1437 34.6902C35.6434 34.3185 36.0381 34.0555 36.5622 34.0555H36.565C37.0211 34.0555 37.4115 34.2533 38.0584 34.5796C38.9022 35.0052 40.8292 36.1541 41.6743 37.0068C42.0854 37.4211 42.3147 37.6855 42.4267 37.9822C42.5954 38.429 42.4365 38.7791 42.3329 39.0135C42.3156 39.0524 42.2964 39.0951 42.2762 39.1424C42.0789 39.61 41.839 40.0585 41.5595 40.4821C41.0612 41.2274 40.5564 41.8044 39.7136 42.1968C39.2808 42.4015 38.8071 42.5052 38.3284 42.5001Z" fill="black"/>
<path d="M85.1409 37.5312C84.3965 36.7812 82.5937 35.6867 81.719 35.2456C80.58 34.6718 80.4862 34.6249 79.5909 35.2901C78.9937 35.734 78.5967 36.1306 77.8978 35.9815C77.1989 35.8324 75.6801 34.992 74.3503 33.6663C73.0204 32.3407 72.1312 30.7779 71.9817 30.0813C71.8321 29.3848 72.2353 28.9924 72.675 28.3938C73.2946 27.5501 73.2478 27.4095 72.7181 26.2704C72.3051 25.3845 71.1787 23.5985 70.4259 22.8579C69.6206 22.0624 69.6206 22.2031 69.1017 22.4187C68.6792 22.5964 68.2739 22.8125 67.8909 23.0642C67.1409 23.5624 66.7246 23.9763 66.4335 24.5984C66.1425 25.2204 66.0117 26.6787 67.515 29.4096C69.0182 32.1406 70.0729 33.537 72.2559 35.7138C74.4389 37.8907 76.1175 39.0612 78.5714 40.4374C81.607 42.1376 82.7714 41.8062 83.3953 41.5156C84.0192 41.2249 84.435 40.8124 84.9342 40.0624C85.1865 39.68 85.403 39.2752 85.5811 38.8531C85.7971 38.336 85.9378 38.336 85.1409 37.5312Z" stroke="black" stroke-width="1.5" stroke-miterlimit="10"/>
<rect x="0.5" y="0.5" width="107" height="63" rx="4.5" stroke="#9747FF" stroke-dasharray="10 5"/>
</svg>
