<svg width="108" height="64" viewBox="0 0 108 64" fill="none" xmlns="http://www.w3.org/2000/svg">
<path d="M36.4316 26.9694L35.1838 24.9978C34.9208 24.6913 34.5603 24.5 34.1562 24.5H29.8438C29.4397 24.5 29.0792 24.6913 28.8163 24.9978L27.5684 26.9694C27.3055 27.2764 26.9666 27.5 26.5625 27.5H23.75C23.3522 27.5 22.9706 27.658 22.6893 27.9393C22.408 28.2206 22.25 28.6022 22.25 29V38C22.25 38.3978 22.408 38.7794 22.6893 39.0607C22.9706 39.342 23.3522 39.5 23.75 39.5H40.25C40.6478 39.5 41.0294 39.342 41.3107 39.0607C41.592 38.7794 41.75 38.3978 41.75 38V29C41.75 28.6022 41.592 28.2206 41.3107 27.9393C41.0294 27.658 40.6478 27.5 40.25 27.5H37.4844C37.0789 27.5 36.6945 27.2764 36.4316 26.9694Z" stroke="black" stroke-width="1.5" stroke-linecap="round" stroke-linejoin="round"/>
<path d="M25.8125 27.4062V26.375H24.6875V27.4062M35.7388 33.3697V32.7458C35.7384 32.0343 35.5357 31.3376 35.1543 30.737C34.7728 30.1364 34.2284 29.6567 33.5845 29.3539C32.9406 29.0512 32.2239 28.9378 31.5181 29.0271C30.8122 29.1164 30.1463 29.4047 29.5981 29.8583M28.25 32.1303V32.7542C28.2505 33.4642 28.4526 34.1595 28.8327 34.7592C29.2129 35.3589 29.7554 35.8383 30.3973 36.1417C31.0392 36.4452 31.7541 36.5602 32.4588 36.4733C33.1634 36.3865 33.829 36.1013 34.378 35.6511" stroke="black" stroke-width="1.5" stroke-linecap="round" stroke-linejoin="round"/>
<path d="M29.1875 32.75L28.25 31.8125L27.3125 32.75M36.6875 32.75L35.75 33.6875L34.8125 32.75" stroke="black" stroke-width="1.5" stroke-linecap="round" stroke-linejoin="round"/>
<path d="M84.25 26.75H81.4844C81.3438 26.75 81.1694 26.6591 81.0334 26.5156L79.8175 24.5966C79.7983 24.5661 79.7768 24.5371 79.7533 24.5098C79.3333 24.02 78.7656 23.75 78.1562 23.75H73.8438C73.2344 23.75 72.6667 24.02 72.2467 24.5098C72.2232 24.5371 72.2017 24.5661 72.1825 24.5966L70.9666 26.5184C70.8625 26.6319 70.7162 26.7528 70.5625 26.7528V26.3778C70.5625 26.1789 70.4835 25.9881 70.3428 25.8475C70.2022 25.7068 70.0114 25.6278 69.8125 25.6278H68.6875C68.4886 25.6278 68.2978 25.7068 68.1572 25.8475C68.0165 25.9881 67.9375 26.1789 67.9375 26.3778V26.7528H67.75C67.1535 26.7534 66.5815 26.9907 66.1597 27.4125C65.7379 27.8343 65.5006 28.4063 65.5 29.0028V38C65.5006 38.5965 65.7379 39.1685 66.1597 39.5903C66.5815 40.0121 67.1535 40.2494 67.75 40.25H84.25C84.8465 40.2494 85.4185 40.0121 85.8403 39.5903C86.2621 39.1685 86.4994 38.5965 86.5 38V29C86.4994 28.4035 86.2621 27.8315 85.8403 27.4097C85.4185 26.9879 84.8465 26.7506 84.25 26.75ZM78.8519 36.2328C78.2391 36.7339 77.505 37.0646 76.7236 37.1915C75.9423 37.3185 75.1413 37.2372 74.4014 36.9559C73.6614 36.6746 73.0087 36.2032 72.5091 35.5892C72.0094 34.9752 71.6804 34.2404 71.5553 33.4587C71.3952 33.5131 71.2214 33.5117 71.0621 33.4549C70.9029 33.398 70.7675 33.289 70.678 33.1455C70.5885 33.0021 70.5501 32.8326 70.569 32.6645C70.588 32.4965 70.6631 32.3398 70.7823 32.2198L71.7198 31.2823C71.8605 31.1418 72.0512 31.0628 72.25 31.0628C72.4488 31.0628 72.6395 31.1418 72.7802 31.2823L73.7177 32.2198C73.8225 32.3247 73.8939 32.4583 73.9228 32.6038C73.9517 32.7492 73.9368 32.9 73.8801 33.037C73.8233 33.174 73.7273 33.2911 73.604 33.3735C73.4807 33.4559 73.3358 33.4999 73.1875 33.5C73.1561 33.4996 73.1248 33.4974 73.0938 33.4934C73.2192 33.9822 73.4659 34.4315 73.8109 34.7998C74.1559 35.1681 74.5882 35.4436 75.0677 35.6007C75.5473 35.7578 76.0588 35.7915 76.5548 35.6987C77.0509 35.6059 77.5156 35.3897 77.9059 35.0698C77.9822 35.0071 78.0702 34.9601 78.1647 34.9315C78.2592 34.9028 78.3585 34.8931 78.4568 34.903C78.555 34.9128 78.6504 34.9419 78.7374 34.9887C78.8244 35.0355 78.9013 35.099 78.9637 35.1756C79.026 35.2521 79.0727 35.3403 79.1009 35.4349C79.1291 35.5296 79.1384 35.6289 79.1281 35.7271C79.1179 35.8254 79.0883 35.9206 79.0411 36.0074C78.994 36.0942 78.9301 36.1708 78.8533 36.2328H78.8519ZM81.2177 33.2797L80.2802 34.2172C80.1395 34.3577 79.9488 34.4367 79.75 34.4367C79.5512 34.4367 79.3605 34.3577 79.2198 34.2172L78.2823 33.2797C78.1727 33.1697 78.0999 33.0284 78.074 32.8753C78.0481 32.7222 78.0703 32.5648 78.1376 32.4249C78.205 32.285 78.3141 32.1694 78.4499 32.0941C78.5857 32.0189 78.7416 31.9876 78.8959 32.0047C78.7706 31.515 78.5236 31.065 78.1779 30.6963C77.8322 30.3276 77.3989 30.0523 76.9183 29.8958C76.4377 29.7393 75.9253 29.7069 75.4288 29.8013C74.9323 29.8958 74.4677 30.1142 74.0781 30.4362C74.0028 30.5029 73.9148 30.5537 73.8195 30.5857C73.7241 30.6176 73.6233 30.6301 73.523 30.6223C73.4227 30.6145 73.3251 30.5866 73.2358 30.5403C73.1465 30.494 73.0674 30.4302 73.0033 30.3527C72.9392 30.2752 72.8913 30.1856 72.8625 30.0893C72.8337 29.9929 72.8246 29.8917 72.8357 29.7917C72.8468 29.6918 72.8779 29.5951 72.9272 29.5074C72.9764 29.4197 73.0428 29.3428 73.1223 29.2812C73.7342 28.7753 74.4691 28.4402 75.2523 28.3101C76.0355 28.1799 76.8392 28.2593 77.5819 28.5402C78.3245 28.821 78.9796 29.2934 79.4807 29.9093C79.9817 30.5251 80.3109 31.2626 80.4348 32.0469C80.595 31.9898 80.7699 31.9888 80.9307 32.0442C81.0915 32.0995 81.2288 32.2079 81.3199 32.3515C81.411 32.4951 81.4506 32.6654 81.4322 32.8345C81.4138 33.0036 81.3385 33.1614 81.2186 33.282L81.2177 33.2797Z" fill="black"/>
<rect x="0.5" y="0.5" width="107" height="63" rx="4.5" stroke="#9747FF" stroke-dasharray="10 5"/>
</svg>
