<svg width="108" height="64" viewBox="0 0 108 64" fill="none" xmlns="http://www.w3.org/2000/svg">
<path d="M36.4316 26.9694L35.1838 24.9978C34.9208 24.6913 34.5603 24.5 34.1562 24.5H29.8438C29.4397 24.5 29.0792 24.6913 28.8163 24.9978L27.5684 26.9694C27.3055 27.2764 26.9666 27.5 26.5625 27.5H23.75C23.3522 27.5 22.9706 27.658 22.6893 27.9393C22.408 28.2206 22.25 28.6022 22.25 29V38C22.25 38.3978 22.408 38.7794 22.6893 39.0607C22.9706 39.342 23.3522 39.5 23.75 39.5H40.25C40.6478 39.5 41.0294 39.342 41.3107 39.0607C41.592 38.7794 41.75 38.3978 41.75 38V29C41.75 28.6022 41.592 28.2206 41.3107 27.9393C41.0294 27.658 40.6478 27.5 40.25 27.5H37.4844C37.0789 27.5 36.6945 27.2764 36.4316 26.9694Z" stroke="black" stroke-width="1.5" stroke-linecap="round" stroke-linejoin="round"/>
<path d="M32 36.5C34.0711 36.5 35.75 34.8211 35.75 32.75C35.75 30.6789 34.0711 29 32 29C29.9289 29 28.25 30.6789 28.25 32.75C28.25 34.8211 29.9289 36.5 32 36.5Z" stroke="black" stroke-width="1.5" stroke-miterlimit="10"/>
<path d="M25.8125 27.4062V26.375H24.6875V27.4062" stroke="black" stroke-width="1.5" stroke-linecap="round" stroke-linejoin="round"/>
<path d="M76 35.75C77.6569 35.75 79 34.4069 79 32.75C79 31.0931 77.6569 29.75 76 29.75C74.3431 29.75 73 31.0931 73 32.75C73 34.4069 74.3431 35.75 76 35.75Z" fill="black"/>
<path d="M84.25 26.75H81.4844C81.3438 26.75 81.1694 26.6591 81.0334 26.5156L79.8175 24.5966C79.7983 24.5661 79.7768 24.5371 79.7533 24.5098C79.3333 24.02 78.7656 23.75 78.1562 23.75H73.8438C73.2344 23.75 72.6667 24.02 72.2467 24.5098C72.2232 24.5371 72.2017 24.5661 72.1825 24.5966L70.9666 26.5184C70.8625 26.6319 70.7162 26.7528 70.5625 26.7528V26.3778C70.5625 26.1789 70.4835 25.9881 70.3428 25.8475C70.2022 25.7068 70.0114 25.6278 69.8125 25.6278H68.6875C68.4886 25.6278 68.2978 25.7068 68.1572 25.8475C68.0165 25.9881 67.9375 26.1789 67.9375 26.3778V26.7528H67.75C67.1535 26.7534 66.5815 26.9907 66.1597 27.4125C65.7379 27.8343 65.5006 28.4063 65.5 29.0028V38C65.5006 38.5965 65.7379 39.1685 66.1597 39.5903C66.5815 40.0121 67.1535 40.2494 67.75 40.25H84.25C84.8465 40.2494 85.4185 40.0121 85.8403 39.5903C86.2621 39.1685 86.4994 38.5965 86.5 38V29C86.4994 28.4035 86.2621 27.8315 85.8403 27.4097C85.4185 26.9879 84.8465 26.7506 84.25 26.75ZM76 37.25C75.11 37.25 74.24 36.9861 73.4999 36.4916C72.7599 35.9971 72.1831 35.2943 71.8425 34.4721C71.5019 33.6498 71.4128 32.745 71.5865 31.8721C71.7601 30.9992 72.1887 30.1974 72.818 29.568C73.4474 28.9387 74.2492 28.5101 75.1221 28.3365C75.995 28.1628 76.8998 28.2519 77.7221 28.5925C78.5443 28.9331 79.2471 29.5099 79.7416 30.2499C80.2361 30.99 80.5 31.86 80.5 32.75C80.4986 33.9431 80.0241 35.0869 79.1805 35.9305C78.3369 36.7741 77.1931 37.2486 76 37.25Z" fill="black"/>
<rect x="0.5" y="0.5" width="107" height="63" rx="4.5" stroke="#9747FF" stroke-dasharray="10 5"/>
</svg>
