<svg width="108" height="64" viewBox="0 0 108 64" fill="none" xmlns="http://www.w3.org/2000/svg">
<path d="M39.125 24.5H24.875C23.4253 24.5 22.25 25.6753 22.25 27.125V36.875C22.25 38.3247 23.4253 39.5 24.875 39.5H39.125C40.5747 39.5 41.75 38.3247 41.75 36.875V27.125C41.75 25.6753 40.5747 24.5 39.125 24.5Z" stroke="black" stroke-width="1.5" stroke-linecap="round" stroke-linejoin="round"/>
<path d="M22.25 29H41.75M26 34.0625H28.25V35H26V34.0625Z" stroke="black" stroke-width="2.8125" stroke-linejoin="round"/>
<path d="M65.5 37.625C65.5 38.3212 65.7766 38.9889 66.2688 39.4812C66.7611 39.9734 67.4288 40.25 68.125 40.25H83.875C84.5712 40.25 85.2389 39.9734 85.7312 39.4812C86.2234 38.9889 86.5 38.3212 86.5 37.625V30.4062H65.5V37.625ZM68.5938 34.0625C68.5938 33.6895 68.7419 33.3319 69.0056 33.0681C69.2694 32.8044 69.627 32.6562 70 32.6562H72.25C72.623 32.6562 72.9806 32.8044 73.2444 33.0681C73.5081 33.3319 73.6562 33.6895 73.6562 34.0625V35C73.6562 35.373 73.5081 35.7306 73.2444 35.9944C72.9806 36.2581 72.623 36.4062 72.25 36.4062H70C69.627 36.4062 69.2694 36.2581 69.0056 35.9944C68.7419 35.7306 68.5938 35.373 68.5938 35V34.0625ZM83.875 23.75H68.125C67.4288 23.75 66.7611 24.0266 66.2688 24.5188C65.7766 25.0111 65.5 25.6788 65.5 26.375V27.5938H86.5V26.375C86.5 25.6788 86.2234 25.0111 85.7312 24.5188C85.2389 24.0266 84.5712 23.75 83.875 23.75Z" fill="black"/>
<rect x="0.5" y="0.5" width="107" height="63" rx="4.5" stroke="#9747FF" stroke-dasharray="10 5"/>
</svg>
