<svg width="108" height="64" viewBox="0 0 108 64" fill="none" xmlns="http://www.w3.org/2000/svg">
<path d="M28.25 40.25C28.6642 40.25 29 39.9142 29 39.5C29 39.0858 28.6642 38.75 28.25 38.75C27.8358 38.75 27.5 39.0858 27.5 39.5C27.5 39.9142 27.8358 40.25 28.25 40.25Z" stroke="black" stroke-width="1.5" stroke-linecap="round" stroke-linejoin="round"/>
<path d="M38.75 40.25C39.1642 40.25 39.5 39.9142 39.5 39.5C39.5 39.0858 39.1642 38.75 38.75 38.75C38.3358 38.75 38 39.0858 38 39.5C38 39.9142 38.3358 40.25 38.75 40.25Z" stroke="black" stroke-width="1.5" stroke-linecap="round" stroke-linejoin="round"/>
<path d="M22.25 23.75H25.25L27.5 36.5H39.5" stroke="black" stroke-width="1.5" stroke-linecap="round" stroke-linejoin="round"/>
<path d="M27.5 33.5H39.1925C39.2792 33.5001 39.3633 33.4701 39.4304 33.4151C39.4975 33.3601 39.5434 33.2836 39.5605 33.1986L40.9105 26.4486C40.9214 26.3942 40.92 26.338 40.9066 26.2841C40.8931 26.2303 40.8679 26.1801 40.8327 26.1372C40.7975 26.0943 40.7532 26.0597 40.703 26.036C40.6528 26.0122 40.598 26 40.5425 26H26" stroke="black" stroke-width="1.5" stroke-linecap="round" stroke-linejoin="round"/>
<path d="M72.25 41C73.0784 41 73.75 40.3284 73.75 39.5C73.75 38.6716 73.0784 38 72.25 38C71.4216 38 70.75 38.6716 70.75 39.5C70.75 40.3284 71.4216 41 72.25 41Z" fill="black"/>
<path d="M82.75 41C83.5784 41 84.25 40.3284 84.25 39.5C84.25 38.6716 83.5784 38 82.75 38C81.9216 38 81.25 38.6716 81.25 39.5C81.25 40.3284 81.9216 41 82.75 41Z" fill="black"/>
<path d="M85.4125 25.6616C85.3071 25.5327 85.1744 25.4289 85.0239 25.3577C84.8734 25.2865 84.709 25.2497 84.5425 25.25H70.2761L69.9887 23.6197C69.9581 23.446 69.8673 23.2887 69.7322 23.1754C69.5971 23.0621 69.4263 23 69.25 23H66.25C66.0511 23 65.8603 23.079 65.7197 23.2197C65.579 23.3603 65.5 23.5511 65.5 23.75C65.5 23.9489 65.579 24.1397 65.7197 24.2803C65.8603 24.421 66.0511 24.5 66.25 24.5H68.6209L70.7613 36.6303C70.7919 36.804 70.8827 36.9613 71.0178 37.0746C71.1529 37.1879 71.3237 37.25 71.5 37.25H83.5C83.6989 37.25 83.8897 37.171 84.0303 37.0303C84.171 36.8897 84.25 36.6989 84.25 36.5C84.25 36.3011 84.171 36.1103 84.0303 35.9697C83.8897 35.829 83.6989 35.75 83.5 35.75H72.1291L71.8647 34.25H83.1925C83.4526 34.2497 83.7046 34.1595 83.9058 33.9947C84.1071 33.8299 84.2452 33.6007 84.2969 33.3458L85.6469 26.5958C85.6794 26.4324 85.6753 26.2639 85.6347 26.1023C85.5942 25.9408 85.5183 25.7902 85.4125 25.6616Z" fill="black"/>
<rect x="0.5" y="0.5" width="107" height="63" rx="4.5" stroke="#9747FF" stroke-dasharray="10 5"/>
</svg>
