<svg width="108" height="64" viewBox="0 0 108 64" fill="none" xmlns="http://www.w3.org/2000/svg">
<path d="M22.25 35.75H41.75C42.1642 35.75 42.5 35.4142 42.5 35V24.5C42.5 24.0858 42.1642 23.75 41.75 23.75H22.25C21.8358 23.75 21.5 24.0858 21.5 24.5V35C21.5 35.4142 21.8358 35.75 22.25 35.75Z" stroke="black" stroke-width="1.5" stroke-linejoin="round"/>
<path d="M23 38H41M24.5 40.25H39.5" stroke="black" stroke-width="1.5" stroke-linecap="round" stroke-linejoin="round"/>
<path d="M32 33.5C34.0711 33.5 35.75 31.8211 35.75 29.75C35.75 27.6789 34.0711 26 32 26C29.9289 26 28.25 27.6789 28.25 29.75C28.25 31.8211 29.9289 33.5 32 33.5Z" stroke="black" stroke-width="1.5" stroke-linecap="round" stroke-linejoin="round"/>
<path d="M42.5 27.5C41.5054 27.5 40.5516 27.1049 39.8483 26.4017C39.1451 25.6984 38.75 24.7446 38.75 23.75M21.5 27.5C21.9925 27.5 22.4801 27.403 22.9351 27.2145C23.39 27.0261 23.8034 26.7499 24.1517 26.4017C24.4999 26.0534 24.7761 25.64 24.9645 25.1851C25.153 24.7301 25.25 24.2425 25.25 23.75M42.5 32C41.5054 32 40.5516 32.3951 39.8483 33.0983C39.1451 33.8016 38.75 34.7554 38.75 35.75M21.5 32C21.9925 32 22.4801 32.097 22.9351 32.2855C23.39 32.4739 23.8034 32.7501 24.1517 33.0983C24.4999 33.4466 24.7761 33.86 24.9645 34.3149C25.153 34.7699 25.25 35.2575 25.25 35.75" stroke="black" stroke-width="1.5" stroke-linecap="round" stroke-linejoin="round"/>
<path d="M85 38.75H67C66.8011 38.75 66.6103 38.671 66.4697 38.5303C66.329 38.3897 66.25 38.1989 66.25 38C66.25 37.8011 66.329 37.6103 66.4697 37.4697C66.6103 37.329 66.8011 37.25 67 37.25H85C85.1989 37.25 85.3897 37.329 85.5303 37.4697C85.671 37.6103 85.75 37.8011 85.75 38C85.75 38.1989 85.671 38.3897 85.5303 38.5303C85.3897 38.671 85.1989 38.75 85 38.75ZM83.5 41H68.5C68.3011 41 68.1103 40.921 67.9697 40.7803C67.829 40.6397 67.75 40.4489 67.75 40.25C67.75 40.0511 67.829 39.8603 67.9697 39.7197C68.1103 39.579 68.3011 39.5 68.5 39.5H83.5C83.6989 39.5 83.8897 39.579 84.0303 39.7197C84.171 39.8603 84.25 40.0511 84.25 40.25C84.25 40.4489 84.171 40.6397 84.0303 40.7803C83.8897 40.921 83.6989 41 83.5 41ZM65.5 32.75H64.75V35C64.75 35.3978 64.908 35.7794 65.1893 36.0607C65.4706 36.342 65.8522 36.5 66.25 36.5H68.5V35.75C68.4991 34.9546 68.1828 34.1921 67.6204 33.6296C67.0579 33.0672 66.2954 32.7509 65.5 32.75Z" fill="black"/>
<path d="M86.5 31.25H87.25V28.25H86.5C85.3069 28.2486 84.1631 27.7741 83.3195 26.9305C82.4759 26.0869 82.0014 24.9431 82 23.75V23H70V23.75C69.9986 24.9431 69.5241 26.0869 68.6805 26.9305C67.8369 27.7741 66.6931 28.2486 65.5 28.25H64.75V31.25H65.5C66.6931 31.2514 67.8369 31.7259 68.6805 32.5695C69.5241 33.4131 69.9986 34.5569 70 35.75V36.5H82V35.75C82.0014 34.5569 82.4759 33.4131 83.3195 32.5695C84.1631 31.7259 85.3069 31.2514 86.5 31.25ZM76 34.25C75.11 34.25 74.24 33.9861 73.4999 33.4916C72.7599 32.9971 72.1831 32.2943 71.8425 31.4721C71.5019 30.6498 71.4128 29.745 71.5865 28.8721C71.7601 27.9992 72.1887 27.1974 72.818 26.568C73.4474 25.9387 74.2492 25.5101 75.1221 25.3365C75.995 25.1628 76.8998 25.2519 77.7221 25.5925C78.5443 25.9331 79.2471 26.5099 79.7416 27.2499C80.2361 27.99 80.5 28.86 80.5 29.75C80.4986 30.9431 80.0241 32.0869 79.1805 32.9305C78.3369 33.7741 77.1931 34.2486 76 34.25Z" fill="black"/>
<path d="M76 32.75C77.6569 32.75 79 31.4069 79 29.75C79 28.0931 77.6569 26.75 76 26.75C74.3431 26.75 73 28.0931 73 29.75C73 31.4069 74.3431 32.75 76 32.75Z" fill="black"/>
<path d="M83.5 35.75V36.5H85.75C86.1478 36.5 86.5294 36.342 86.8107 36.0607C87.092 35.7794 87.25 35.3978 87.25 35V32.75H86.5C85.7046 32.7509 84.9421 33.0672 84.3796 33.6296C83.8172 34.1921 83.5009 34.9546 83.5 35.75ZM86.5 26.75H87.25V24.5C87.25 24.1022 87.092 23.7206 86.8107 23.4393C86.5294 23.158 86.1478 23 85.75 23H83.5V23.75C83.5009 24.5454 83.8172 25.3079 84.3796 25.8704C84.9421 26.4328 85.7046 26.7491 86.5 26.75ZM68.5 23.75V23H66.25C65.8522 23 65.4706 23.158 65.1893 23.4393C64.908 23.7206 64.75 24.1022 64.75 24.5V26.75H65.5C66.2954 26.7491 67.0579 26.4328 67.6204 25.8704C68.1828 25.3079 68.4991 24.5454 68.5 23.75Z" fill="black"/>
<rect x="0.5" y="0.5" width="107" height="63" rx="4.5" stroke="#9747FF" stroke-dasharray="10 5"/>
</svg>
