<svg width="108" height="64" viewBox="0 0 108 64" fill="none" xmlns="http://www.w3.org/2000/svg">
<path d="M39.125 23H24.875C24.1794 23.002 23.5129 23.2792 23.021 23.771C22.5292 24.2629 22.252 24.9294 22.25 25.625V34.625C22.252 35.3206 22.5292 35.9871 23.021 36.479C23.5129 36.9708 24.1794 37.248 24.875 37.25H26.75V41L31.1431 37.3372C31.2106 37.2808 31.2957 37.25 31.3836 37.25H39.125C39.8206 37.248 40.4871 36.9708 40.979 36.479C41.4708 35.9871 41.748 35.3206 41.75 34.625V25.625C41.748 24.9294 41.4708 24.2629 40.979 23.771C40.4871 23.2792 39.8206 23.002 39.125 23V23Z" stroke="black" stroke-width="1.5" stroke-linejoin="round"/>
<path d="M27.5 31.625C28.3284 31.625 29 30.9534 29 30.125C29 29.2966 28.3284 28.625 27.5 28.625C26.6716 28.625 26 29.2966 26 30.125C26 30.9534 26.6716 31.625 27.5 31.625Z" fill="black"/>
<path d="M32 31.625C32.8284 31.625 33.5 30.9534 33.5 30.125C33.5 29.2966 32.8284 28.625 32 28.625C31.1716 28.625 30.5 29.2966 30.5 30.125C30.5 30.9534 31.1716 31.625 32 31.625Z" fill="black"/>
<path d="M36.5 31.625C37.3284 31.625 38 30.9534 38 30.125C38 29.2966 37.3284 28.625 36.5 28.625C35.6716 28.625 35 29.2966 35 30.125C35 30.9534 35.6716 31.625 36.5 31.625Z" fill="black"/>
<path d="M83.125 22.25H68.875C67.9802 22.251 67.1223 22.6069 66.4896 23.2396C65.8569 23.8723 65.501 24.7302 65.5 25.625V34.625C65.501 35.5198 65.8569 36.3777 66.4896 37.0104C67.1223 37.6431 67.9802 37.999 68.875 38H70V41C70 41.1426 70.0406 41.2823 70.1171 41.4026C70.1936 41.5229 70.3028 41.619 70.432 41.6794C70.5611 41.7399 70.7048 41.7623 70.8463 41.744C70.9877 41.7257 71.121 41.6674 71.2305 41.5761L75.5191 38H83.125C84.0198 37.999 84.8777 37.6431 85.5104 37.0104C86.1431 36.3777 86.499 35.5198 86.5 34.625V25.625C86.499 24.7302 86.1431 23.8723 85.5104 23.2396C84.8777 22.6069 84.0198 22.251 83.125 22.25ZM71.5 31.625C71.2033 31.625 70.9133 31.537 70.6666 31.3722C70.42 31.2074 70.2277 30.9731 70.1142 30.699C70.0006 30.4249 69.9709 30.1233 70.0288 29.8324C70.0867 29.5414 70.2296 29.2741 70.4393 29.0643C70.6491 28.8546 70.9164 28.7117 71.2074 28.6538C71.4983 28.5959 71.7999 28.6256 72.074 28.7392C72.3481 28.8527 72.5824 29.045 72.7472 29.2916C72.912 29.5383 73 29.8283 73 30.125C73 30.5228 72.842 30.9044 72.5607 31.1857C72.2794 31.467 71.8978 31.625 71.5 31.625ZM76 31.625C75.7033 31.625 75.4133 31.537 75.1666 31.3722C74.92 31.2074 74.7277 30.9731 74.6142 30.699C74.5006 30.4249 74.4709 30.1233 74.5288 29.8324C74.5867 29.5414 74.7296 29.2741 74.9393 29.0643C75.1491 28.8546 75.4164 28.7117 75.7074 28.6538C75.9983 28.5959 76.2999 28.6256 76.574 28.7392C76.8481 28.8527 77.0824 29.045 77.2472 29.2916C77.412 29.5383 77.5 29.8283 77.5 30.125C77.5 30.5228 77.342 30.9044 77.0607 31.1857C76.7794 31.467 76.3978 31.625 76 31.625ZM80.5 31.625C80.2033 31.625 79.9133 31.537 79.6666 31.3722C79.42 31.2074 79.2277 30.9731 79.1142 30.699C79.0006 30.4249 78.9709 30.1233 79.0288 29.8324C79.0867 29.5414 79.2296 29.2741 79.4393 29.0643C79.6491 28.8546 79.9164 28.7117 80.2074 28.6538C80.4983 28.5959 80.7999 28.6256 81.074 28.7392C81.3481 28.8527 81.5824 29.045 81.7472 29.2916C81.912 29.5383 82 29.8283 82 30.125C82 30.5228 81.842 30.9044 81.5607 31.1857C81.2794 31.467 80.8978 31.625 80.5 31.625Z" fill="black"/>
<rect x="0.5" y="0.5" width="107" height="63" rx="4.5" stroke="#9747FF" stroke-dasharray="10 5"/>
</svg>
