<svg width="108" height="64" viewBox="0 0 108 64" fill="none" xmlns="http://www.w3.org/2000/svg">
<path d="M24.1007 37.8125C24.1569 37.6072 24.0336 37.3217 23.916 37.1159C23.8795 37.0545 23.8398 36.995 23.7969 36.9378C22.7878 35.4075 22.25 33.6147 22.25 31.7816C22.2332 26.5198 26.5963 22.25 31.9916 22.25C36.6969 22.25 40.6251 25.5097 41.5424 29.8367C41.6801 30.4782 41.7497 31.1325 41.7501 31.7886C41.7501 37.0578 37.5552 41.3947 32.1599 41.3947C31.3016 41.3947 30.1443 41.1791 29.5129 41.0023C28.8815 40.8256 28.251 40.5913 28.0883 40.5284C27.9218 40.4645 27.745 40.4316 27.5666 40.4314C27.3721 40.4307 27.1795 40.4695 27.0004 40.5453L23.8204 41.6928C23.7509 41.7228 23.6772 41.7421 23.6019 41.75C23.5424 41.7498 23.4834 41.7378 23.4286 41.7147C23.3737 41.6916 23.3239 41.6579 23.2821 41.6154C23.2404 41.573 23.2074 41.5226 23.1853 41.4674C23.1631 41.4121 23.1521 41.353 23.1529 41.2934C23.1568 41.2412 23.1662 41.1895 23.181 41.1392L24.1007 37.8125Z" stroke="black" stroke-width="1.5" stroke-miterlimit="10" stroke-linecap="round"/>
<path d="M27.5 33.5C28.3284 33.5 29 32.8284 29 32C29 31.1716 28.3284 30.5 27.5 30.5C26.6716 30.5 26 31.1716 26 32C26 32.8284 26.6716 33.5 27.5 33.5Z" fill="black"/>
<path d="M32 33.5C32.8284 33.5 33.5 32.8284 33.5 32C33.5 31.1716 32.8284 30.5 32 30.5C31.1716 30.5 30.5 31.1716 30.5 32C30.5 32.8284 31.1716 33.5 32 33.5Z" fill="black"/>
<path d="M36.5 33.5C37.3284 33.5 38 32.8284 38 32C38 31.1716 37.3284 30.5 36.5 30.5C35.6716 30.5 35 31.1716 35 32C35 32.8284 35.6716 33.5 36.5 33.5Z" fill="black"/>
<path d="M82.6563 23.8363C80.7648 22.3228 78.4141 21.4988 75.9916 21.5C73.136 21.5 70.4688 22.6002 68.4747 24.598C66.5477 26.5311 65.4916 29.0834 65.5001 31.783C65.5001 33.7622 66.0812 35.6978 67.1711 37.3498L67.1801 37.3625C67.1932 37.3817 67.2068 37.4009 67.2204 37.4197C67.234 37.4384 67.2508 37.4628 67.2546 37.4689L67.2649 37.4877C67.3179 37.5814 67.3586 37.6958 67.3226 37.8111L66.4591 40.9358C66.4246 41.052 66.4057 41.1723 66.4029 41.2934C66.4022 41.6123 66.5281 41.9183 66.7528 42.1445C66.9774 42.3707 67.2826 42.4985 67.6015 42.5C67.7699 42.4944 67.9359 42.4581 68.0913 42.3927L71.2549 41.2508L71.2947 41.2353C71.3808 41.1992 71.4733 41.1808 71.5666 41.1814C71.6527 41.1816 71.738 41.1975 71.8183 41.2283C71.8943 41.2578 72.5838 41.5217 73.3113 41.7252C73.916 41.8939 75.1741 42.147 76.1599 42.147C78.956 42.147 81.5669 41.0642 83.5113 39.0973C85.4388 37.1455 86.5 34.5509 86.5 31.7886C86.5003 31.0795 86.4252 30.3724 86.276 29.6792C85.7913 27.4002 84.506 25.3245 82.6563 23.8363ZM71.5001 33.5C71.2034 33.5 70.9134 33.412 70.6667 33.2472C70.42 33.0824 70.2278 32.8481 70.1142 32.574C70.0007 32.2999 69.971 31.9983 70.0289 31.7074C70.0868 31.4164 70.2296 31.1491 70.4394 30.9393C70.6492 30.7296 70.9164 30.5867 71.2074 30.5288C71.4984 30.4709 71.8 30.5007 72.0741 30.6142C72.3482 30.7277 72.5824 30.92 72.7473 31.1666C72.9121 31.4133 73.0001 31.7033 73.0001 32C73.0001 32.3978 72.842 32.7794 72.5607 33.0607C72.2794 33.342 71.8979 33.5 71.5001 33.5ZM76 33.5C75.7034 33.5 75.4134 33.412 75.1667 33.2472C74.92 33.0824 74.7278 32.8481 74.6142 32.574C74.5007 32.2999 74.471 31.9983 74.5289 31.7074C74.5868 31.4164 74.7296 31.1491 74.9394 30.9393C75.1492 30.7296 75.4164 30.5867 75.7074 30.5288C75.9984 30.4709 76.3 30.5007 76.5741 30.6142C76.8482 30.7277 77.0824 30.92 77.2473 31.1666C77.4121 31.4133 77.5 31.7033 77.5 32C77.5 32.3978 77.342 32.7794 77.0607 33.0607C76.7794 33.342 76.3979 33.5 76 33.5ZM80.5 33.5C80.2034 33.5 79.9134 33.412 79.6667 33.2472C79.42 33.0824 79.2278 32.8481 79.1142 32.574C79.0007 32.2999 78.971 31.9983 79.0289 31.7074C79.0868 31.4164 79.2296 31.1491 79.4394 30.9393C79.6492 30.7296 79.9164 30.5867 80.2074 30.5288C80.4984 30.4709 80.8 30.5007 81.0741 30.6142C81.3482 30.7277 81.5824 30.92 81.7473 31.1666C81.9121 31.4133 82 31.7033 82 32C82 32.3978 81.842 32.7794 81.5607 33.0607C81.2794 33.342 80.8979 33.5 80.5 33.5Z" fill="black"/>
<rect x="0.5" y="0.5" width="107" height="63" rx="4.5" stroke="#9747FF" stroke-dasharray="10 5"/>
</svg>
