<svg width="108" height="64" viewBox="0 0 108 64" fill="none" xmlns="http://www.w3.org/2000/svg">
<path d="M41 32C41 27.0312 36.9688 23 32 23C27.0312 23 23 27.0312 23 32C23 36.9688 27.0312 41 32 41C36.9688 41 41 36.9688 41 32Z" stroke="black" stroke-width="1.5" stroke-miterlimit="10"/>
<path d="M37.25 29L32.0061 35L29.7584 32.75M28.9977 35L26.75 32.75M34.3302 29L31.9138 31.7656" stroke="black" stroke-width="1.5" stroke-linecap="round" stroke-linejoin="round"/>
<path d="M76.1359 22.2501C70.6524 22.176 66.1759 26.6526 66.2499 32.136C66.3231 37.3949 70.6051 41.6769 75.864 41.7501C81.3484 41.8251 85.824 37.3485 85.749 31.8651C85.6768 26.6052 81.3948 22.3232 76.1359 22.2501ZM75.3488 31.2721L77.7652 28.5065C77.8962 28.3567 78.0812 28.265 78.2797 28.2516C78.4782 28.2383 78.6739 28.3043 78.8237 28.4352C78.9735 28.5661 79.0652 28.7512 79.0785 28.9497C79.0919 29.1482 79.0258 29.3438 78.8949 29.4936L76.4785 32.2593C76.4137 32.3334 76.3349 32.3941 76.2466 32.4379C76.1584 32.4816 76.0623 32.5075 75.9641 32.5141C75.8658 32.5207 75.7671 32.5079 75.6738 32.4764C75.5805 32.4449 75.4943 32.3953 75.4201 32.3305C75.3459 32.2657 75.2852 32.1869 75.2415 32.0986C75.1978 32.0104 75.1719 31.9143 75.1653 31.8161C75.1586 31.7178 75.1714 31.6191 75.2029 31.5258C75.2344 31.4325 75.284 31.3463 75.3488 31.2721ZM73.5273 35.5307C73.3866 35.6712 73.1959 35.7502 72.9971 35.7502C72.7983 35.7502 72.6076 35.6712 72.467 35.5307L70.2193 33.2807C70.1497 33.211 70.0945 33.1283 70.0568 33.0373C70.0192 32.9462 69.9998 32.8487 69.9998 32.7502C69.9999 32.6517 70.0193 32.5542 70.0571 32.4632C70.0948 32.3722 70.1501 32.2895 70.2198 32.2199C70.2895 32.1503 70.3722 32.0951 70.4632 32.0574C70.5542 32.0197 70.6518 32.0004 70.7503 32.0004C70.8488 32.0005 70.9463 32.0199 71.0373 32.0577C71.1283 32.0954 71.2109 32.1507 71.2806 32.2204L73.5306 34.4704C73.6707 34.6114 73.749 34.8024 73.7484 35.0012C73.7478 35.2 73.6683 35.3905 73.5273 35.5307ZM81.8148 29.4936L76.5704 35.4936C76.5028 35.5711 76.4201 35.6338 76.3273 35.6779C76.2345 35.722 76.1336 35.7466 76.0309 35.7501H76.0056C75.907 35.7501 75.8094 35.7307 75.7184 35.6929C75.6273 35.6552 75.5446 35.5999 75.4749 35.5302L73.2277 33.2802C73.0871 33.1395 73.0082 32.9487 73.0083 32.7497C73.0084 32.5508 73.0875 32.36 73.2282 32.2194C73.3689 32.0788 73.5598 31.9999 73.7587 32C73.9576 32.0001 74.1484 32.0792 74.289 32.2199L75.6859 33.6182C75.7222 33.6545 75.7656 33.683 75.8133 33.7018C75.8611 33.7207 75.9123 33.7296 75.9636 33.7278C76.0149 33.7261 76.0654 33.7139 76.1118 33.6919C76.1582 33.6699 76.1996 33.6386 76.2334 33.5999L80.6865 28.5065C80.8174 28.3567 81.0025 28.265 81.201 28.2516C81.3994 28.2383 81.5951 28.3043 81.7449 28.4352C81.8947 28.5661 81.9864 28.7512 81.9998 28.9497C82.0131 29.1482 81.9471 29.3438 81.8162 29.4936H81.8148Z" fill="black"/>
<rect x="0.5" y="0.5" width="107" height="63" rx="4.5" stroke="#9747FF" stroke-dasharray="10 5"/>
</svg>
