<svg width="108" height="64" viewBox="0 0 108 64" fill="none" xmlns="http://www.w3.org/2000/svg">
<path d="M41 32C41 27.0312 36.9688 23 32 23C27.0312 23 23 27.0312 23 32C23 36.9688 27.0312 41 32 41C36.9688 41 41 36.9688 41 32Z" stroke="black" stroke-width="1.5" stroke-miterlimit="10"/>
<path d="M36.5 28.25L30.2 35.75L27.5 32.75" stroke="black" stroke-width="1.5" stroke-linecap="round" stroke-linejoin="round"/>
<path d="M76 22.25C70.6239 22.25 66.25 26.6239 66.25 32C66.25 37.3761 70.6239 41.75 76 41.75C81.3761 41.75 85.75 37.3761 85.75 32C85.75 26.6239 81.3761 22.25 76 22.25ZM81.0742 28.7323L74.7742 36.2323C74.7051 36.3147 74.6191 36.3812 74.5221 36.4273C74.425 36.4735 74.3192 36.4983 74.2117 36.5H74.1991C74.0939 36.5 73.99 36.4778 73.894 36.435C73.798 36.3922 73.712 36.3297 73.6417 36.2516L70.9417 33.2516C70.8731 33.1788 70.8198 33.0931 70.7848 32.9995C70.7499 32.9059 70.734 32.8062 70.738 32.7063C70.7421 32.6064 70.7662 32.5084 70.8087 32.4179C70.8512 32.3275 70.9114 32.2464 70.9857 32.1796C71.06 32.1127 71.1469 32.0614 71.2414 32.0286C71.3358 31.9958 71.4358 31.9822 71.5356 31.9886C71.6353 31.995 71.7328 32.0213 71.8222 32.0659C71.9117 32.1106 71.9913 32.1726 72.0564 32.2484L74.1794 34.6072L79.9258 27.7677C80.0547 27.6186 80.237 27.5263 80.4335 27.5107C80.6299 27.495 80.8246 27.5573 80.9754 27.684C81.1263 27.8107 81.2212 27.9918 81.2397 28.1879C81.2582 28.3841 81.1988 28.5797 81.0742 28.7323Z" fill="black"/>
<rect x="0.5" y="0.5" width="107" height="63" rx="4.5" stroke="#9747FF" stroke-dasharray="10 5"/>
</svg>
