<svg width="108" height="64" viewBox="0 0 108 64" fill="none" xmlns="http://www.w3.org/2000/svg">
<path d="M35.75 23H37.25C37.8467 23 38.419 23.2371 38.841 23.659C39.2629 24.081 39.5 24.6533 39.5 25.25V40.25C39.5 40.8467 39.2629 41.419 38.841 41.841C38.419 42.2629 37.8467 42.5 37.25 42.5H26.75C26.1533 42.5 25.581 42.2629 25.159 41.841C24.7371 41.419 24.5 40.8467 24.5 40.25V25.25C24.5 24.6533 24.7371 24.081 25.159 23.659C25.581 23.2371 26.1533 23 26.75 23H28.25" stroke="black" stroke-width="1.5" stroke-linejoin="round"/>
<path d="M34.5252 21.5H29.4748C28.7984 21.5 28.25 22.0484 28.25 22.7248V23.2752C28.25 23.9516 28.7984 24.5 29.4748 24.5H34.5252C35.2016 24.5 35.75 23.9516 35.75 23.2752V22.7248C35.75 22.0484 35.2016 21.5 34.5252 21.5Z" stroke="black" stroke-width="1.5" stroke-linejoin="round"/>
<path d="M81.25 22.25H80.7152C80.6398 22.2499 80.5663 22.2272 80.5041 22.1847C80.4419 22.1422 80.3939 22.082 80.3664 22.0119C80.2223 21.6406 79.9694 21.3214 79.6409 21.0963C79.3123 20.8711 78.9235 20.7504 78.5252 20.75H73.4748C73.0765 20.7504 72.6877 20.8711 72.3591 21.0963C72.0306 21.3214 71.7777 21.6406 71.6336 22.0119C71.6061 22.082 71.5581 22.1422 71.4959 22.1847C71.4337 22.2272 71.3602 22.2499 71.2848 22.25H70.75C69.9544 22.25 69.1913 22.5661 68.6287 23.1287C68.0661 23.6913 67.75 24.4544 67.75 25.25V40.25C67.75 41.0456 68.0661 41.8087 68.6287 42.3713C69.1913 42.9339 69.9544 43.25 70.75 43.25H81.25C82.0456 43.25 82.8087 42.9339 83.3713 42.3713C83.9339 41.8087 84.25 41.0456 84.25 40.25V25.25C84.25 24.4544 83.9339 23.6913 83.3713 23.1287C82.8087 22.5661 82.0456 22.25 81.25 22.25ZM78.9939 25.25H73.0061C72.8072 25.25 72.6164 25.171 72.4758 25.0303C72.3351 24.8897 72.2561 24.6989 72.2561 24.5C72.2561 24.3011 72.3351 24.1103 72.4758 23.9697C72.6164 23.829 72.8072 23.75 73.0061 23.75H78.9939C79.1928 23.75 79.3836 23.829 79.5242 23.9697C79.6649 24.1103 79.7439 24.3011 79.7439 24.5C79.7439 24.6989 79.6649 24.8897 79.5242 25.0303C79.3836 25.171 79.1928 25.25 78.9939 25.25Z" fill="black"/>
<rect x="0.5" y="0.5" width="107" height="63" rx="4.5" stroke="#9747FF" stroke-dasharray="10 5"/>
</svg>
