<svg width="108" height="64" viewBox="0 0 108 64" fill="none" xmlns="http://www.w3.org/2000/svg">
<path d="M24.6959 31.3058C24.8528 31.2823 24.9982 31.2094 25.1108 31.0977C25.2235 30.986 25.2977 30.8414 25.3227 30.6847C25.9344 26.8245 28.7347 24.5 32 24.5C35.0323 24.5 37.0527 26.4856 37.8556 28.5781C37.9029 28.7023 37.9821 28.8118 38.0852 28.8956C38.1883 28.9794 38.3117 29.0345 38.443 29.0553C41.0638 29.4716 43.25 31.213 43.25 34.25C43.25 37.3438 40.7188 39.5 37.625 39.5H25.4375C22.8594 39.5 20.75 38.2138 20.75 35.375C20.75 32.8236 22.8073 31.587 24.6959 31.3058Z" stroke="black" stroke-width="1.5" stroke-linejoin="round"/>
<path d="M81.625 40.25H69.4375C67.9202 40.25 66.6142 39.8482 65.6598 39.0889C64.5738 38.224 64 36.9401 64 35.375C64 32.6764 65.9687 31.129 68.1044 30.6523C68.2449 30.6203 68.3731 30.5485 68.4739 30.4455C68.5746 30.3425 68.6436 30.2127 68.6725 30.0715C69.0325 28.3521 69.8186 26.877 70.9778 25.759C72.327 24.4619 74.1284 23.7413 76 23.75C77.6641 23.75 79.1987 24.2979 80.4381 25.3343C81.2853 26.0489 81.9593 26.9465 82.4092 27.9593C82.4576 28.0681 82.5312 28.1637 82.6239 28.2384C82.7165 28.313 82.8257 28.3646 82.9422 28.3887C84.2078 28.6517 85.3361 29.201 86.185 29.9754C87.3723 31.0568 88 32.5353 88 34.25C88 35.9375 87.3259 37.4787 86.102 38.5901C84.9231 39.6607 83.3331 40.25 81.625 40.25Z" fill="black"/>
<rect x="0.5" y="0.5" width="107" height="63" rx="4.5" stroke="#9747FF" stroke-dasharray="10 5"/>
</svg>
