<svg width="108" height="64" viewBox="0 0 108 64" fill="none" xmlns="http://www.w3.org/2000/svg">
<path d="M39.5 23H24.5C23.7046 23.0009 22.9421 23.3172 22.3796 23.8796C21.8172 24.4421 21.5009 25.2046 21.5 26V38C21.5009 38.7954 21.8172 39.5579 22.3796 40.1204C22.9421 40.6828 23.7046 40.9991 24.5 41H39.5C40.2954 40.9991 41.0579 40.6828 41.6204 40.1204C42.1828 39.5579 42.4991 38.7954 42.5 38V26C42.4991 25.2046 42.1828 24.4421 41.6204 23.8796C41.0579 23.3172 40.2954 23.0009 39.5 23ZM35.75 26C36.195 26 36.63 26.132 37 26.3792C37.37 26.6264 37.6584 26.9778 37.8287 27.389C37.999 27.8001 38.0436 28.2525 37.9568 28.689C37.87 29.1254 37.6557 29.5263 37.341 29.841C37.0263 30.1557 36.6254 30.37 36.189 30.4568C35.7525 30.5436 35.3001 30.499 34.889 30.3287C34.4778 30.1584 34.1264 29.87 33.8792 29.5C33.632 29.13 33.5 28.695 33.5 28.25C33.5006 27.6535 33.7379 27.0815 34.1597 26.6597C34.5815 26.2379 35.1535 26.0006 35.75 26ZM24.5 39.5C24.1022 39.5 23.7206 39.342 23.4393 39.0607C23.158 38.7794 23 38.3978 23 38V34.8298L27.4456 30.8783C27.8746 30.4979 28.4324 30.2953 29.0055 30.3119C29.5785 30.3284 30.1237 30.5628 30.53 30.9673L33.5745 34.0053L28.0798 39.5H24.5ZM41 38C41 38.3978 40.842 38.7794 40.5607 39.0607C40.2794 39.342 39.8978 39.5 39.5 39.5H30.2014L35.893 33.8084C36.2959 33.4657 36.8073 33.277 37.3363 33.2756C37.8653 33.2742 38.3776 33.4603 38.7823 33.8009L41 35.6488V38Z" fill="black"/>
<path d="M83.5 23.75H68.5C67.2574 23.75 66.25 24.7574 66.25 26V38C66.25 39.2426 67.2574 40.25 68.5 40.25H83.5C84.7426 40.25 85.75 39.2426 85.75 38V26C85.75 24.7574 84.7426 23.75 83.5 23.75Z" stroke="black" stroke-width="1.5" stroke-linejoin="round"/>
<path d="M79.75 29.75C80.5784 29.75 81.25 29.0784 81.25 28.25C81.25 27.4216 80.5784 26.75 79.75 26.75C78.9216 26.75 78.25 27.4216 78.25 28.25C78.25 29.0784 78.9216 29.75 79.75 29.75Z" stroke="black" stroke-width="1.5" stroke-miterlimit="10"/>
<path d="M78.25 35.7401L74.0003 31.4984C73.7299 31.2281 73.3664 31.0712 72.9842 31.0599C72.602 31.0485 72.2299 31.1836 71.9439 31.4375L66.25 36.5M74.5 40.25L80.2816 34.4684C80.546 34.2035 80.8999 34.047 81.2738 34.0296C81.6477 34.0123 82.0145 34.1354 82.3023 34.3747L85.75 37.25" stroke="black" stroke-width="1.5" stroke-linecap="round" stroke-linejoin="round"/>
<rect x="0.5" y="0.5" width="107" height="63" rx="4.5" stroke="#9747FF" stroke-dasharray="10 5"/>
</svg>
