<svg width="108" height="64" viewBox="0 0 108 64" fill="none" xmlns="http://www.w3.org/2000/svg">
<path d="M42.6471 31.5022C41.6528 27.0074 40.1566 24.6083 37.9371 23.953C37.4705 23.8162 36.9865 23.7478 36.5003 23.7501C35.8577 23.7501 35.298 23.9066 34.706 24.0726C33.9925 24.2727 33.1821 24.5001 32.0003 24.5001C30.8186 24.5001 30.0077 24.2732 29.2928 24.073C28.7003 23.9066 28.1411 23.7501 27.5003 23.7501C26.9976 23.7483 26.497 23.8165 26.013 23.9526C23.8052 24.6051 22.3099 27.0032 21.3011 31.4994C20.2164 36.3379 20.7503 39.3927 22.7983 40.1015C23.079 40.2004 23.3744 40.2514 23.6721 40.2524C25.075 40.2524 26.2 39.0838 26.9688 38.1271C27.8374 37.0443 28.8541 36.4949 32.0003 36.4949C34.8105 36.4949 35.9735 36.876 36.978 38.1271C37.6094 38.9136 38.2061 39.464 38.8014 39.8104C39.5932 40.2707 40.3844 40.3729 41.1527 40.109C42.363 39.696 43.0567 38.6043 43.2152 36.8633C43.3357 35.5283 43.15 33.7747 42.6471 31.5022ZM29.7503 31.2501H28.2503V32.7501C28.2503 32.949 28.1713 33.1397 28.0307 33.2804C27.89 33.421 27.6993 33.5001 27.5003 33.5001C27.3014 33.5001 27.1107 33.421 26.97 33.2804C26.8294 33.1397 26.7503 32.949 26.7503 32.7501V31.2501H25.2503C25.0514 31.2501 24.8607 31.171 24.72 31.0304C24.5794 30.8897 24.5003 30.699 24.5003 30.5001C24.5003 30.3011 24.5794 30.1104 24.72 29.9697C24.8607 29.8291 25.0514 29.7501 25.2503 29.7501H26.7503V28.2501C26.7503 28.0511 26.8294 27.8604 26.97 27.7197C27.1107 27.5791 27.3014 27.5001 27.5003 27.5001C27.6993 27.5001 27.89 27.5791 28.0307 27.7197C28.1713 27.8604 28.2503 28.0511 28.2503 28.2501V29.7501H29.7503C29.9493 29.7501 30.14 29.8291 30.2807 29.9697C30.4213 30.1104 30.5003 30.3011 30.5003 30.5001C30.5003 30.699 30.4213 30.8897 30.2807 31.0304C30.14 31.171 29.9493 31.2501 29.7503 31.2501ZM33.6878 31.4376C33.5024 31.4376 33.3212 31.3826 33.167 31.2796C33.0128 31.1765 32.8927 31.0301 32.8217 30.8588C32.7507 30.6875 32.7322 30.499 32.7684 30.3172C32.8045 30.1353 32.8938 29.9683 33.0249 29.8371C33.156 29.706 33.3231 29.6167 33.5049 29.5806C33.6868 29.5444 33.8753 29.563 34.0466 29.6339C34.2179 29.7049 34.3643 29.825 34.4673 29.9792C34.5704 30.1334 34.6253 30.3146 34.6253 30.5001C34.6253 30.7487 34.5266 30.9872 34.3508 31.163C34.1749 31.3388 33.9365 31.4376 33.6878 31.4376ZM35.7503 33.5001C35.5648 33.5001 35.3835 33.445 35.2293 33.3419C35.075 33.2388 34.9549 33.0922 34.884 32.9208C34.8131 32.7493 34.7947 32.5607 34.831 32.3788C34.8674 32.1969 34.9569 32.0298 35.0883 31.8988C35.2196 31.7678 35.3869 31.6787 35.5689 31.6428C35.7509 31.6069 35.9395 31.6258 36.1107 31.6971C36.282 31.7684 36.4283 31.8889 36.531 32.0434C36.6337 32.1979 36.6883 32.3794 36.6878 32.5649C36.6872 32.8131 36.5882 33.051 36.4124 33.2263C36.2367 33.4016 35.9986 33.5001 35.7503 33.5001ZM35.7503 29.3751C35.5649 29.3751 35.3837 29.3201 35.2295 29.2171C35.0753 29.114 34.9552 28.9676 34.8842 28.7963C34.8132 28.625 34.7947 28.4365 34.8309 28.2547C34.867 28.0728 34.9563 27.9058 35.0874 27.7746C35.2185 27.6435 35.3856 27.5542 35.5674 27.5181C35.7493 27.4819 35.9378 27.5005 36.1091 27.5714C36.2804 27.6424 36.4268 27.7625 36.5298 27.9167C36.6329 28.0709 36.6878 28.2521 36.6878 28.4376C36.6878 28.6862 36.5891 28.9247 36.4133 29.1005C36.2374 29.2763 35.999 29.3751 35.7503 29.3751ZM37.8128 31.4376C37.6274 31.4376 37.4462 31.3826 37.292 31.2796C37.1378 31.1765 37.0177 31.0301 36.9467 30.8588C36.8757 30.6875 36.8572 30.499 36.8934 30.3172C36.9295 30.1353 37.0188 29.9683 37.1499 29.8371C37.281 29.706 37.4481 29.6167 37.6299 29.5806C37.8118 29.5444 38.0003 29.563 38.1716 29.6339C38.3429 29.7049 38.4893 29.825 38.5923 29.9792C38.6954 30.1334 38.7503 30.3146 38.7503 30.5001C38.7503 30.7487 38.6516 30.9872 38.4758 31.163C38.2999 31.3388 38.0615 31.4376 37.8128 31.4376Z" fill="black"/>
<path d="M85.9142 31.664C85.0517 27.7649 83.7725 25.2777 81.7222 24.6716C81.3251 24.5558 80.9134 24.498 80.4997 24.5001C79.2392 24.5001 78.2446 25.2501 75.9997 25.2501C73.7549 25.2501 72.7583 24.5001 71.4997 24.5001C71.0688 24.4978 70.6397 24.5556 70.2247 24.6716C68.1716 25.2777 66.9032 27.7672 66.0308 31.664C65.1402 35.6441 65.3014 38.789 67.0424 39.3927C68.2611 39.8146 69.351 38.9423 70.3832 37.6583C71.555 36.1958 72.9983 35.7458 75.9997 35.7458C79.0011 35.7458 80.3882 36.1958 81.5619 37.6583C82.5932 38.9432 83.7233 39.8048 84.9097 39.4002C86.8325 38.7435 86.8053 35.691 85.9142 31.664Z" stroke="black" stroke-width="1.5" stroke-miterlimit="10"/>
<path d="M77.6875 31.4375C78.2053 31.4375 78.625 31.0178 78.625 30.5C78.625 29.9822 78.2053 29.5625 77.6875 29.5625C77.1697 29.5625 76.75 29.9822 76.75 30.5C76.75 31.0178 77.1697 31.4375 77.6875 31.4375Z" fill="black"/>
<path d="M79.75 33.5C79.5645 33.5 79.3831 33.445 79.2289 33.3418C79.0747 33.2387 78.9545 33.0922 78.8836 32.9207C78.8128 32.7493 78.7943 32.5607 78.8307 32.3787C78.8671 32.1968 78.9566 32.0298 79.0879 31.8988C79.2193 31.7677 79.3865 31.6786 79.5685 31.6427C79.7506 31.6068 79.9391 31.6257 80.1104 31.697C80.2817 31.7684 80.4279 31.8889 80.5306 32.0434C80.6334 32.1978 80.688 32.3793 80.6875 32.5648C80.6869 32.8131 80.5878 33.0509 80.4121 33.2262C80.2363 33.4016 79.9982 33.5 79.75 33.5Z" fill="black"/>
<path d="M79.75 29.375C80.2678 29.375 80.6875 28.9553 80.6875 28.4375C80.6875 27.9197 80.2678 27.5 79.75 27.5C79.2322 27.5 78.8125 27.9197 78.8125 28.4375C78.8125 28.9553 79.2322 29.375 79.75 29.375Z" fill="black"/>
<path d="M81.8125 31.4375C82.3303 31.4375 82.75 31.0178 82.75 30.5C82.75 29.9822 82.3303 29.5625 81.8125 29.5625C81.2947 29.5625 80.875 29.9822 80.875 30.5C80.875 31.0178 81.2947 31.4375 81.8125 31.4375Z" fill="black"/>
<path d="M71.5 28.25V32.75M73.75 30.5H69.25" stroke="black" stroke-width="1.5" stroke-linecap="round" stroke-linejoin="round"/>
<rect x="0.5" y="0.5" width="107" height="63" rx="4.5" stroke="#9747FF" stroke-dasharray="10 5"/>
</svg>
