<svg width="108" height="64" viewBox="0 0 108 64" fill="none" xmlns="http://www.w3.org/2000/svg">
<path d="M38.1875 41C37.3346 41 36.5008 40.7471 35.7916 40.2733C35.0824 39.7994 34.5297 39.1259 34.2033 38.3379C33.8769 37.5499 33.7915 36.6828 33.9579 35.8462C34.1243 35.0097 34.535 34.2413 35.1381 33.6381C35.7412 33.035 36.5096 32.6243 37.3462 32.4579C38.1827 32.2915 39.0498 32.3769 39.8378 32.7033C40.6258 33.0297 41.2994 33.5825 41.7732 34.2917C42.2471 35.0008 42.5 35.8346 42.5 36.6875C42.4988 37.8309 42.044 38.9271 41.2355 39.7356C40.427 40.5441 39.3309 40.9988 38.1875 41ZM38.1875 33.875C37.6312 33.875 37.0875 34.04 36.625 34.349C36.1624 34.6581 35.802 35.0973 35.5891 35.6112C35.3762 36.1252 35.3205 36.6907 35.429 37.2362C35.5376 37.7818 35.8054 38.283 36.1988 38.6763C36.5921 39.0696 37.0932 39.3375 37.6388 39.446C38.1844 39.5545 38.7499 39.4988 39.2638 39.286C39.7777 39.0731 40.217 38.7126 40.526 38.2501C40.8351 37.7876 41 37.2438 41 36.6875C40.9991 35.9419 40.7025 35.227 40.1753 34.6998C39.648 34.1725 38.9332 33.8759 38.1875 33.875ZM25.8125 41C24.9596 41 24.1258 40.7471 23.4166 40.2733C22.7074 39.7994 22.1547 39.1259 21.8283 38.3379C21.5019 37.5499 21.4165 36.6828 21.5829 35.8462C21.7493 35.0097 22.16 34.2413 22.7631 33.6381C23.3662 33.035 24.1346 32.6243 24.9712 32.4579C25.8077 32.2915 26.6748 32.3769 27.4628 32.7033C28.2508 33.0297 28.9244 33.5825 29.3982 34.2917C29.8721 35.0008 30.125 35.8346 30.125 36.6875C30.1238 37.8309 29.669 38.9271 28.8605 39.7356C28.052 40.5441 26.9559 40.9988 25.8125 41ZM25.8125 33.875C25.2562 33.875 24.7125 34.04 24.25 34.349C23.7874 34.6581 23.427 35.0973 23.2141 35.6112C23.0012 36.1252 22.9455 36.6907 23.054 37.2362C23.1626 37.7818 23.4304 38.283 23.8238 38.6763C24.2171 39.0696 24.7182 39.3375 25.2638 39.446C25.8094 39.5545 26.3749 39.4988 26.8888 39.286C27.4027 39.0731 27.842 38.7126 28.151 38.2501C28.4601 37.7876 28.625 37.2438 28.625 36.6875C28.6241 35.9419 28.3275 35.227 27.8003 34.6998C27.273 34.1725 26.5582 33.8759 25.8125 33.875ZM35 26C35.1976 26.0007 35.3933 25.9622 35.5759 25.8868C35.7585 25.8114 35.9244 25.7005 36.0639 25.5606C36.2033 25.4207 36.3137 25.2545 36.3886 25.0716C36.4634 24.8888 36.5013 24.6929 36.5 24.4954C36.5022 24.2988 36.4652 24.1037 36.3911 23.9216C36.317 23.7395 36.2074 23.574 36.0686 23.4348C35.9298 23.2956 35.7646 23.1854 35.5828 23.1108C35.4009 23.0361 35.206 22.9985 35.0094 23C34.8124 22.9994 34.6172 23.0376 34.435 23.1124C34.2528 23.1872 34.0871 23.2972 33.9473 23.4361C33.8076 23.5749 33.6966 23.7399 33.6207 23.9217C33.5447 24.1034 33.5053 24.2984 33.5047 24.4954C33.5041 24.6923 33.5423 24.8875 33.6171 25.0697C33.6919 25.252 33.8019 25.4177 33.9407 25.5574C34.0796 25.6971 34.2446 25.8081 34.4263 25.8841C34.6081 25.96 34.803 25.9994 35 26Z" fill="black"/>
<path d="M37.2289 29H35.1777C35.144 29 35.111 28.991 35.082 28.9738C35.0531 28.9567 35.0293 28.9321 35.0131 28.9025L33.5253 26.1758C33.4205 25.9732 33.2694 25.7981 33.0843 25.6647C32.8993 25.5313 32.6854 25.4433 32.46 25.408C32.2346 25.3726 32.004 25.3908 31.787 25.4611C31.5699 25.5313 31.3725 25.6518 31.2106 25.8125L27.9359 29.1125C27.6608 29.3933 27.5047 29.7695 27.5 30.1625C27.5 30.9782 28.0906 31.2688 28.3672 31.4328C29.7031 32.2025 30.6439 32.7655 31.16 33.0782C31.1874 33.0949 31.2101 33.1183 31.2259 33.1463C31.2416 33.1743 31.2499 33.2059 31.25 33.238V36.478C31.25 36.8816 31.5603 37.228 31.9639 37.2482C32.0652 37.253 32.1665 37.2373 32.2616 37.2019C32.3567 37.1666 32.4436 37.1123 32.517 37.0423C32.5905 36.9724 32.6491 36.8883 32.6891 36.7951C32.7291 36.7018 32.7499 36.6015 32.75 36.5V32.4688C32.7501 32.3497 32.7218 32.2324 32.6675 32.1264C32.6132 32.0204 32.5345 31.9289 32.4378 31.8594L30.7034 30.6121C30.6817 30.5965 30.6635 30.5764 30.6501 30.5532C30.6367 30.53 30.6285 30.5043 30.6259 30.4776C30.6233 30.451 30.6265 30.4241 30.6352 30.3988C30.6439 30.3734 30.6579 30.3503 30.6762 30.3308L32.645 28.2313C32.6652 28.2097 32.6902 28.1932 32.718 28.1831C32.7458 28.173 32.7755 28.1696 32.8049 28.1732C32.8342 28.1768 32.8623 28.1873 32.8868 28.2038C32.9113 28.2204 32.9316 28.2425 32.9459 28.2683L33.9688 30.1143C34.0338 30.2313 34.1289 30.3288 34.2443 30.3966C34.3597 30.4644 34.4911 30.5001 34.625 30.5H37.25C37.3516 30.5002 37.4522 30.4796 37.5456 30.4397C37.639 30.3998 37.7234 30.3413 37.7935 30.2678C37.8636 30.1942 37.9181 30.1072 37.9536 30.012C37.9891 29.9168 38.0049 29.8154 38 29.7139C37.9803 29.3103 37.6325 29 37.2289 29Z" fill="black"/>
<path d="M82.1875 33.5C81.4829 33.5 80.7941 33.7089 80.2083 34.1004C79.6224 34.4918 79.1658 35.0482 78.8962 35.6992C78.6265 36.3502 78.556 37.0665 78.6935 37.7575C78.8309 38.4486 79.1702 39.0833 79.6684 39.5816C80.1667 40.0798 80.8014 40.4191 81.4925 40.5565C82.1835 40.694 82.8999 40.6235 83.5508 40.3538C84.2018 40.0842 84.7582 39.6276 85.1496 39.0417C85.5411 38.4559 85.75 37.7671 85.75 37.0625C85.747 36.1186 85.3707 35.2142 84.7033 34.5467C84.0358 33.8793 83.1314 33.503 82.1875 33.5V33.5ZM69.8125 33.5C69.1079 33.5 68.4191 33.7089 67.8333 34.1004C67.2474 34.4918 66.7908 35.0482 66.5212 35.6992C66.2515 36.3502 66.181 37.0665 66.3185 37.7575C66.4559 38.4486 66.7952 39.0833 67.2934 39.5816C67.7917 40.0798 68.4264 40.4191 69.1175 40.5565C69.8085 40.694 70.5248 40.6235 71.1758 40.3538C71.8268 40.0842 72.3832 39.6276 72.7746 39.0417C73.1661 38.4559 73.375 37.7671 73.375 37.0625C73.372 36.1186 72.9957 35.2142 72.3283 34.5467C71.6608 33.8793 70.7564 33.503 69.8125 33.5Z" stroke="black" stroke-width="1.5" stroke-miterlimit="10"/>
<path d="M76 36.875V32.8438L73 30.875L76.75 26.75L78.625 30.125H81.25" stroke="black" stroke-width="1.5" stroke-linecap="round" stroke-linejoin="round"/>
<path d="M79.0002 26.375C79.1978 26.3757 79.3935 26.3372 79.5761 26.2618C79.7587 26.1864 79.9246 26.0755 80.0641 25.9356C80.2035 25.7957 80.3139 25.6295 80.3888 25.4466C80.4636 25.2638 80.5015 25.0679 80.5002 24.8704C80.5024 24.6738 80.4654 24.4787 80.3913 24.2966C80.3172 24.1145 80.2076 23.949 80.0688 23.8098C79.93 23.6706 79.7648 23.5604 79.583 23.4858C79.4011 23.4111 79.2062 23.3735 79.0096 23.375C78.8126 23.3744 78.6174 23.4126 78.4352 23.4874C78.253 23.5622 78.0873 23.6722 77.9475 23.8111C77.6654 24.0915 77.5061 24.4725 77.5049 24.8704C77.5036 25.2682 77.6605 25.6502 77.9409 25.9324C78.2213 26.2146 78.6024 26.3738 79.0002 26.375Z" fill="black"/>
<rect x="0.5" y="0.5" width="107" height="63" rx="4.5" stroke="#9747FF" stroke-dasharray="10 5"/>
</svg>
