<svg width="108" height="64" viewBox="0 0 108 64" fill="none" xmlns="http://www.w3.org/2000/svg">
<path d="M39.1247 24.5H31.8174C31.5954 24.5007 31.3783 24.4355 31.1935 24.3125L29.8903 23.4411C29.4588 23.1525 28.9512 22.999 28.4321 23H24.8747C24.1787 23.0007 23.5115 23.2776 23.0194 23.7697C22.5273 24.2618 22.2505 24.929 22.2497 25.625V26.75H41.7497C41.7497 25.3025 40.5722 24.5 39.1247 24.5ZM39.863 41H24.1364C23.4477 40.9992 22.7868 40.7278 22.2963 40.2442C21.8059 39.7605 21.5252 39.1035 21.5147 38.4149L20.7582 30.6927V30.6795C20.7334 30.37 20.7729 30.0587 20.8743 29.7653C20.9757 29.4718 21.1368 29.2025 21.3473 28.9743C21.5579 28.7461 21.8134 28.5639 22.0977 28.4393C22.3821 28.3146 22.6892 28.2502 22.9997 28.25H41.0044C41.3148 28.2503 41.6218 28.3148 41.9061 28.4395C42.1904 28.5642 42.4457 28.7464 42.6562 28.9746C42.8666 29.2028 43.0276 29.4721 43.1289 29.7655C43.2303 30.0589 43.2698 30.3701 43.245 30.6795V30.6927L42.4847 38.4149C42.4743 39.1035 42.1935 39.7605 41.7031 40.2442C41.2126 40.7278 40.5518 40.9992 39.863 41Z" fill="black"/>
<path d="M23 29V25.625C23 25.1277 23.1975 24.6508 23.5492 24.2992C23.9008 23.9475 24.3777 23.75 24.875 23.75H28.4323C28.8026 23.75 29.1645 23.8596 29.4725 24.065L30.7775 24.935C31.0855 25.1404 31.4474 25.25 31.8177 25.25H39.125C39.6223 25.25 40.0992 25.4475 40.4508 25.7992C40.8025 26.1508 41 26.6277 41 27.125V29" stroke="black" stroke-width="1.5" stroke-linecap="round" stroke-linejoin="round"/>
<path d="M42.4954 30.6195L41.7351 38.375C41.7351 38.8717 41.538 39.3481 41.1871 39.6997C40.8361 40.0512 40.3601 40.2491 39.8634 40.25H24.1368C23.6401 40.2491 23.164 40.0512 22.8131 39.6997C22.4622 39.3481 22.2651 38.8717 22.2651 38.375L21.5048 30.6195C21.4883 30.4131 21.5147 30.2055 21.5823 30.0098C21.65 29.8141 21.7575 29.6346 21.8979 29.4824C22.0384 29.3303 22.2088 29.2089 22.3985 29.1259C22.5882 29.0428 22.793 29 23.0001 29H41.0048C41.2114 29.0006 41.4157 29.044 41.6049 29.1273C41.794 29.2106 41.9639 29.3321 42.1038 29.4842C42.2438 29.6362 42.3508 29.8156 42.4182 30.011C42.4856 30.2063 42.5119 30.4135 42.4954 30.6195V30.6195Z" stroke="black" stroke-width="1.5" stroke-linecap="round" stroke-linejoin="round"/>
<rect x="0.5" y="0.5" width="107" height="63" rx="4.5" stroke="#9747FF" stroke-dasharray="10 5"/>
</svg>
