<svg width="108" height="64" viewBox="0 0 108 64" fill="none" xmlns="http://www.w3.org/2000/svg">
<path d="M39.5001 42.1784C39.5001 42.1208 39.4846 42.0643 39.4551 42.0148C39.4257 41.9653 39.3834 41.9247 39.3328 41.8972C38.0639 41.2152 36.9065 40.1713 36.3975 39.6472C36.3218 39.5679 36.2209 39.5174 36.1121 39.5045C36.0033 39.4916 35.8933 39.517 35.8012 39.5764C33.442 41.0961 30.5695 41.097 28.2098 39.5788C28.1169 39.5188 28.0059 39.4932 27.8961 39.5066C27.7863 39.5199 27.6847 39.5713 27.6089 39.6519C27.104 40.1806 25.9594 41.2128 24.6825 41.8902C24.6317 41.9157 24.5883 41.9537 24.5564 42.0007C24.5245 42.0478 24.5051 42.1021 24.5001 42.1588C24.4963 42.2069 24.5036 42.2553 24.5215 42.3003C24.5394 42.3452 24.5674 42.3854 24.6032 42.4177C24.6391 42.4501 24.6819 42.4738 24.7284 42.4871C24.7749 42.5003 24.8238 42.5026 24.8714 42.4939C25.8487 42.298 26.7933 41.8527 27.6933 41.3769C27.751 41.3465 27.8152 41.3304 27.8804 41.3299C27.9457 41.3294 28.0101 41.3445 28.0683 41.3741C29.2868 41.9936 30.6344 42.3165 32.0013 42.3165C33.3682 42.3165 34.7159 41.9936 35.9344 41.3741C35.9932 41.3442 36.0583 41.3289 36.1243 41.3294C36.1903 41.3299 36.2552 41.3462 36.3136 41.3769C37.2089 41.8456 38.152 42.2952 39.1261 42.4925C39.1721 42.5014 39.2195 42.4998 39.2649 42.4881C39.3103 42.4763 39.3525 42.4545 39.3884 42.4244C39.4243 42.3943 39.453 42.3565 39.4725 42.3139C39.492 42.2713 39.5018 42.2248 39.5011 42.178L39.5001 42.1784ZM42.3459 31.5739C42.1823 31.1806 41.835 30.8759 41.3662 30.7137L40.2501 30.2694V26.375C40.2501 25.5794 39.9341 24.8163 39.3715 24.2537C38.8088 23.6911 38.0458 23.375 37.2501 23.375H35.7501V23C35.7501 22.5027 35.5526 22.0258 35.201 21.6742C34.8493 21.3225 34.3724 21.125 33.8751 21.125H30.1251C29.6279 21.125 29.1509 21.3225 28.7993 21.6742C28.4477 22.0258 28.2501 22.5027 28.2501 23V23.375H26.7501C25.9545 23.375 25.1914 23.6911 24.6288 24.2537C24.0662 24.8163 23.7501 25.5794 23.7501 26.375V30.2727L22.6448 30.7128C22.1789 30.8675 21.8184 31.1816 21.6534 31.5772C21.5386 31.8533 21.4073 32.2803 21.5925 32.8175L21.5972 32.8316L23.7844 38.4303C23.8649 38.636 24.0059 38.8125 24.1887 38.9365C24.3716 39.0605 24.5877 39.1262 24.8086 39.125C24.832 39.125 24.8554 39.125 24.8803 39.1227C26.3484 39.0289 27.5053 38.3131 28.2834 37.6409C29.3948 38.6005 30.7022 39.125 32.0001 39.125C33.2981 39.125 34.5984 38.6 35.7098 37.6391C36.4875 38.3122 37.6458 39.0298 39.1134 39.1227C39.3458 39.139 39.5773 39.0808 39.7743 38.9565C39.9713 38.8323 40.1235 38.6484 40.2089 38.4317L42.3956 32.8536C42.5494 32.4744 42.5315 32.0211 42.3459 31.5739ZM32.6095 27.2286L32.5561 27.2098C32.194 27.0959 31.8058 27.0959 31.4437 27.2098L31.4165 27.2183L25.507 29.5728C25.4786 29.5841 25.4477 29.5883 25.4173 29.585C25.3868 29.5817 25.3577 29.571 25.3323 29.5538C25.307 29.5365 25.2862 29.5134 25.2719 29.4863C25.2576 29.4592 25.2501 29.4291 25.2501 29.3984V26.375C25.2501 25.9772 25.4082 25.5956 25.6895 25.3143C25.9708 25.033 26.3523 24.875 26.7501 24.875H37.2501C37.648 24.875 38.0295 25.033 38.3108 25.3143C38.5921 25.5956 38.7501 25.9772 38.7501 26.375V29.3956C38.7502 29.4263 38.7427 29.4564 38.7284 29.4835C38.714 29.5106 38.6933 29.5337 38.6679 29.5509C38.6426 29.5681 38.6134 29.5789 38.583 29.5822C38.5525 29.5855 38.5217 29.5813 38.4933 29.57L32.6095 27.2286Z" fill="black"/>
<path d="M85.653 32.2367C85.5592 32.0136 85.3384 31.8697 85.1059 31.7919L76.3319 28.3006C76.1156 28.2331 75.8839 28.2331 75.6677 28.3006L66.902 31.7937C66.6677 31.8669 66.4413 32.0173 66.3484 32.2405C66.2556 32.4636 66.2106 32.6797 66.3016 32.9473L68.4827 38.5325C68.5105 38.6012 68.5594 38.6592 68.6223 38.6983C68.6852 38.7374 68.7589 38.7555 68.8328 38.75C70.0839 38.6712 71.1911 38.0361 72.0381 37.2266C72.1047 37.164 72.1926 37.1292 72.284 37.1292C72.3753 37.1292 72.4633 37.164 72.5299 37.2266C73.4355 38.0937 74.6406 38.75 76 38.75C77.3594 38.75 78.5575 38.0937 79.4631 37.2247C79.5298 37.1621 79.6178 37.1273 79.7092 37.1273C79.8007 37.1273 79.8887 37.1621 79.9553 37.2247C80.8024 38.0347 81.9095 38.6712 83.1606 38.75C83.2343 38.7556 83.3078 38.7377 83.3706 38.6989C83.4335 38.66 83.4824 38.6023 83.5103 38.5339L85.6994 32.9483C85.7922 32.7242 85.7458 32.4603 85.653 32.2367V32.2367Z" stroke="black" stroke-width="1.5" stroke-miterlimit="10"/>
<path d="M83.5 42.1784C83.5 42.1209 83.4845 42.0644 83.4551 42.0149C83.4258 41.9655 83.3836 41.9248 83.3331 41.8972C82.0638 41.2152 80.9064 40.1713 80.3973 39.6472C80.3217 39.5679 80.2208 39.5174 80.112 39.5045C80.0031 39.4916 79.8932 39.517 79.8011 39.5764C77.4419 41.0961 74.5694 41.097 72.2097 39.5788C72.1168 39.5188 72.0058 39.4932 71.896 39.5066C71.7862 39.5199 71.6846 39.5714 71.6088 39.6519C71.1039 40.1806 69.9592 41.2128 68.6823 41.8902C68.6317 41.9158 68.5884 41.9539 68.5565 42.0009C68.5246 42.0479 68.5052 42.1022 68.5 42.1588C68.4962 42.2069 68.5035 42.2554 68.5214 42.3003C68.5393 42.3452 68.5672 42.3854 68.6031 42.4178C68.639 42.4501 68.6818 42.4739 68.7283 42.4871C68.7748 42.5003 68.8237 42.5026 68.8713 42.4939C69.8486 42.298 70.7931 41.8527 71.6931 41.3769C71.7509 41.3465 71.815 41.3304 71.8803 41.3299C71.9455 41.3294 72.0099 41.3445 72.0681 41.3741C73.287 41.9943 74.6351 42.3176 76.0027 42.3178C77.3703 42.3179 78.7185 41.9949 79.9375 41.375C79.9964 41.3452 80.0615 41.3299 80.1275 41.3304C80.1934 41.3309 80.2583 41.3471 80.3167 41.3778C81.212 41.8466 82.1552 42.2961 83.1292 42.4934C83.1751 42.502 83.2223 42.5002 83.2674 42.4883C83.3125 42.4764 83.3544 42.4546 83.3901 42.4245C83.4257 42.3944 83.4543 42.3568 83.4736 42.3143C83.4929 42.2718 83.5026 42.2256 83.5019 42.1789L83.5 42.1784Z" fill="black"/>
<path d="M79 24.5V23.375C78.9991 23.0769 78.8803 22.7913 78.6695 22.5805C78.4587 22.3697 78.1731 22.2509 77.875 22.25H74.125C73.8269 22.2509 73.5413 22.3697 73.3305 22.5805C73.1197 22.7913 73.0009 23.0769 73 23.375V24.5M83.5 30.9219V26.75C83.4983 26.1538 83.2607 25.5825 82.8391 25.1609C82.4175 24.7393 81.8462 24.5017 81.25 24.5H70.75C70.1538 24.5017 69.5825 24.7393 69.1609 25.1609C68.7393 25.5825 68.5017 26.1538 68.5 26.75V31.0625M76 28.6063V38.5836" stroke="black" stroke-width="1.5" stroke-linecap="round" stroke-linejoin="round"/>
<rect x="0.5" y="0.5" width="107" height="63" rx="4.5" stroke="#9747FF" stroke-dasharray="10 5"/>
</svg>
