<svg width="108" height="64" viewBox="0 0 108 64" fill="none" xmlns="http://www.w3.org/2000/svg">
<path d="M40.2027 35.0281C40.1559 34.8594 40.259 34.625 40.3574 34.4562C40.3875 34.406 40.4204 34.3575 40.4559 34.3109C41.2979 33.0598 41.7482 31.5862 41.7496 30.0781C41.7637 25.7563 38.1168 22.25 33.6074 22.25C29.6746 22.25 26.3934 24.9266 25.6246 28.4797C25.5096 29.0063 25.4515 29.5438 25.4512 30.0828C25.4512 34.4094 28.9574 38.0094 33.4668 38.0094C34.184 38.0094 35.1496 37.7937 35.6793 37.6484C36.209 37.5031 36.734 37.3109 36.8699 37.2594C37.0093 37.2068 37.1569 37.1798 37.3059 37.1797C37.4683 37.1791 37.6293 37.2109 37.7793 37.2734L40.4371 38.2156C40.4954 38.2403 40.557 38.2561 40.6199 38.2625C40.7194 38.2625 40.8148 38.223 40.8851 38.1527C40.9554 38.0823 40.9949 37.987 40.9949 37.8875C40.9916 37.8446 40.9838 37.8022 40.9715 37.7609L40.2027 35.0281Z" stroke="black" stroke-width="1.5" stroke-miterlimit="10" stroke-linecap="round"/>
<path d="M23.1153 30.875C22.5005 31.9795 22.2031 33.2325 22.256 34.4954C22.3089 35.7584 22.7099 36.9822 23.4149 38.0314C23.5232 38.195 23.5841 38.3216 23.5653 38.4064C23.5466 38.4913 23.0061 41.3066 23.0061 41.3066C22.9931 41.3724 22.9981 41.4406 23.0204 41.5039C23.0427 41.5673 23.0817 41.6234 23.1332 41.6666C23.2018 41.7213 23.2872 41.7507 23.375 41.75C23.4219 41.7501 23.4684 41.7406 23.5114 41.7219L26.1463 40.6906C26.3276 40.6191 26.5299 40.6225 26.7088 40.7C27.5966 41.0459 28.5782 41.2625 29.5602 41.2625C30.878 41.2639 32.1726 40.9163 33.3125 40.2552" stroke="black" stroke-width="1.5" stroke-miterlimit="10" stroke-linecap="round"/>
<path d="M66.8329 38.2423C66.8329 38.2456 66.8329 38.2517 66.8291 38.2602C66.8305 38.2545 66.8314 38.2484 66.8329 38.2423ZM84.62 39.0125C84.4657 39.0092 84.3133 38.9774 84.1705 38.9188L81.5089 37.9752L81.4893 37.9672C81.4312 37.943 81.3689 37.9309 81.306 37.9316C81.248 37.9316 81.1905 37.9421 81.1363 37.9625C81.0716 37.9869 80.4889 38.2058 79.8777 38.3736C79.5463 38.4645 78.3927 38.7613 77.4669 38.7613C75.1007 38.7613 72.8882 37.8519 71.2377 36.2005C70.4314 35.3991 69.7921 34.4458 69.3567 33.3957C68.9213 32.3456 68.6985 31.2196 68.7013 30.0828C68.7013 29.4905 68.7651 28.8999 68.8916 28.3213C69.3036 26.4172 70.3949 24.6852 71.9643 23.4463C73.5741 22.1835 75.5615 21.498 77.6075 21.5C80.0549 21.5 82.3354 22.4375 84.0294 24.1334C85.6307 25.7398 86.5082 27.852 86.5011 30.0805C86.4997 31.7364 86.0053 33.3543 85.0808 34.7281L85.0719 34.7413L85.0372 34.7881C85.0293 34.7989 85.0213 34.8092 85.0138 34.82L85.0068 34.8327C84.9881 34.8644 84.9712 34.8971 84.9561 34.9306L85.6939 37.5528C85.7266 37.661 85.7442 37.7731 85.7464 37.8861C85.7466 38.0341 85.7176 38.1806 85.6611 38.3174C85.6045 38.4541 85.5216 38.5784 85.4169 38.683C85.3123 38.7876 85.1881 38.8706 85.0513 38.9271C84.9146 38.9837 84.768 39.0127 84.62 39.0125Z" fill="black"/>
<path d="M78.0564 39.9401C78.008 39.8459 77.9398 39.7633 77.8566 39.6977C77.7734 39.6322 77.677 39.5854 77.5741 39.5605C77.3031 39.4887 76.9872 39.5009 76.7458 39.4831C74.4664 39.3246 72.3215 38.3464 70.7074 36.7292C69.2724 35.3023 68.3398 33.4478 68.05 31.445C67.9844 30.9884 67.9844 30.875 67.9844 30.875C67.9844 30.7227 67.938 30.5739 67.8513 30.4486C67.7647 30.3233 67.642 30.2274 67.4995 30.1735C67.357 30.1197 67.2015 30.1105 67.0536 30.1472C66.9058 30.1839 66.7727 30.2648 66.6719 30.379C66.6719 30.379 66.3025 30.7812 66.1281 31.1848C65.6391 32.3116 65.4305 33.5402 65.5203 34.7653C65.6101 35.9904 65.9956 37.1754 66.6438 38.2189C66.7656 38.4219 66.7656 38.5156 66.7385 38.7265C66.6105 39.3879 66.3864 40.5547 66.2697 41.1598C66.2311 41.3561 66.2454 41.5591 66.3114 41.7479C66.3773 41.9368 66.4923 42.1046 66.6447 42.2342L66.6663 42.2525C66.8678 42.4126 67.1176 42.4998 67.375 42.5C67.5198 42.5001 67.6632 42.4716 67.7969 42.4161L70.3052 41.4481C70.3915 41.4153 70.4869 41.4153 70.5733 41.4481C71.561 41.8156 72.5889 42.0106 73.563 42.0106C74.7767 42.0117 75.9756 41.7451 77.0744 41.2297C77.3303 41.1097 77.7306 40.9794 77.965 40.7084C78.0537 40.6033 78.1097 40.4745 78.1259 40.338C78.1421 40.2014 78.118 40.0631 78.0564 39.9401Z" fill="black"/>
<rect x="0.5" y="0.5" width="107" height="63" rx="4.5" stroke="#9747FF" stroke-dasharray="10 5"/>
</svg>
