<svg width="108" height="64" viewBox="0 0 108 64" fill="none" xmlns="http://www.w3.org/2000/svg">
<path d="M33.5 29H39.5848C39.6033 28.9999 39.6214 28.9944 39.6367 28.9841C39.6521 28.9737 39.664 28.9591 39.6711 28.9421C39.6781 28.925 39.68 28.9062 39.6764 28.888C39.6728 28.8699 39.664 28.8532 39.6509 28.8401L32.9098 22.099C32.8967 22.086 32.8801 22.0771 32.8619 22.0736C32.8438 22.07 32.825 22.0718 32.8079 22.0789C32.7908 22.086 32.7762 22.0979 32.7659 22.1133C32.7556 22.1286 32.7501 22.1466 32.75 22.1651V28.25C32.75 28.4489 32.829 28.6397 32.9697 28.7803C33.1103 28.921 33.3011 29 33.5 29ZM32 32.75C31.5866 32.75 31.25 33.0444 31.25 33.4062V34.25H32.75V33.4062C32.75 33.0444 32.4134 32.75 32 32.75Z" fill="black"/>
<path d="M40.0625 30.5H33.5C32.9033 30.5 32.331 30.2629 31.909 29.841C31.4871 29.419 31.25 28.8467 31.25 28.25V21.6875C31.25 21.6378 31.2302 21.5901 31.1951 21.5549C31.1599 21.5198 31.1122 21.5 31.0625 21.5H26.75C25.9544 21.5 25.1913 21.8161 24.6287 22.3787C24.0661 22.9413 23.75 23.7044 23.75 24.5V39.5C23.75 40.2956 24.0661 41.0587 24.6287 41.6213C25.1913 42.1839 25.9544 42.5 26.75 42.5H37.25C38.0456 42.5 38.8087 42.1839 39.3713 41.6213C39.9339 41.0587 40.25 40.2956 40.25 39.5V30.6875C40.25 30.6378 40.2302 30.5901 40.1951 30.5549C40.1599 30.5198 40.1122 30.5 40.0625 30.5ZM35.75 38C35.75 38.3978 35.592 38.7794 35.3107 39.0607C35.0294 39.342 34.6478 39.5 34.25 39.5H29.75C29.3522 39.5 28.9706 39.342 28.6893 39.0607C28.408 38.7794 28.25 38.3978 28.25 38V35.75C28.25 35.3522 28.408 34.9706 28.6893 34.6893C28.9706 34.408 29.3522 34.25 29.75 34.25V33.4062C29.75 32.2175 30.7592 31.25 32 31.25C33.2408 31.25 34.25 32.2175 34.25 33.4062V34.25C34.6478 34.25 35.0294 34.408 35.3107 34.6893C35.592 34.9706 35.75 35.3522 35.75 35.75V38Z" fill="black"/>
<path d="M77.5 34.25V33.4062C77.5 32.6267 76.8316 32 76 32C75.1684 32 74.5 32.6267 74.5 33.4062V34.25" stroke="black" stroke-width="1.5" stroke-linecap="round" stroke-linejoin="round"/>
<path d="M78.25 39.5H73.75C73.3522 39.5 72.9706 39.342 72.6893 39.0607C72.408 38.7794 72.25 38.3978 72.25 38V35.75C72.25 35.3522 72.408 34.9706 72.6893 34.6893C72.9706 34.408 73.3522 34.25 73.75 34.25H78.25C78.6478 34.25 79.0294 34.408 79.3107 34.6893C79.592 34.9706 79.75 35.3522 79.75 35.75V38C79.75 38.3978 79.592 38.7794 79.3107 39.0607C79.0294 39.342 78.6478 39.5 78.25 39.5Z" fill="black"/>
<path d="M83.5 30.3711V39.5C83.5 40.0967 83.2629 40.669 82.841 41.091C82.419 41.5129 81.8467 41.75 81.25 41.75H70.75C70.1533 41.75 69.581 41.5129 69.159 41.091C68.7371 40.669 68.5 40.0967 68.5 39.5V24.5C68.5 23.9033 68.7371 23.331 69.159 22.909C69.581 22.4871 70.1533 22.25 70.75 22.25H75.3789C75.7766 22.2501 76.158 22.408 76.4392 22.6892L83.0608 29.3108C83.342 29.592 83.4999 29.9734 83.5 30.3711Z" stroke="black" stroke-width="1.5" stroke-linejoin="round"/>
<path d="M76 22.385V28.25C76 28.6478 76.158 29.0294 76.4393 29.3107C76.7206 29.592 77.1022 29.75 77.5 29.75H83.365" stroke="black" stroke-width="1.5" stroke-linecap="round" stroke-linejoin="round"/>
<rect x="0.5" y="0.5" width="107" height="63" rx="4.5" stroke="#9747FF" stroke-dasharray="10 5"/>
</svg>
