<svg width="108" height="64" viewBox="0 0 108 64" fill="none" xmlns="http://www.w3.org/2000/svg">
<path d="M41.5625 31.25H35C34.4033 31.25 33.831 31.0129 33.409 30.591C32.9871 30.169 32.75 29.5967 32.75 29V22.4375C32.75 22.3878 32.7302 22.3401 32.6951 22.3049C32.6599 22.2698 32.6122 22.25 32.5625 22.25H30.0664C29.9789 22.0879 29.8769 21.934 29.7617 21.7902C29.2213 21.1194 28.4183 20.75 27.5 20.75C25.7337 20.75 24.5 22.138 24.5 24.125V30.875C24.5 32.0469 25.4534 32.75 26.375 32.75C26.622 32.7527 26.867 32.706 27.0957 32.6128C27.3244 32.5195 27.5322 32.3815 27.7068 32.2068C27.8815 32.0322 28.0195 31.8244 28.1128 31.5957C28.206 31.367 28.2527 31.122 28.25 30.875V23.75C28.25 23.5511 28.171 23.3603 28.0303 23.2197C27.8897 23.079 27.6989 23 27.5 23C27.3011 23 27.1103 23.079 26.9697 23.2197C26.829 23.3603 26.75 23.5511 26.75 23.75V30.875C26.7516 30.9247 26.743 30.9742 26.7248 31.0204C26.7065 31.0666 26.6789 31.1086 26.6438 31.1438C26.6086 31.1789 26.5666 31.2065 26.5204 31.2248C26.4742 31.243 26.4247 31.2516 26.375 31.25C26.2705 31.25 26 31.1825 26 30.875V24.125C26 23.2184 26.3942 22.25 27.5 22.25C28.8917 22.25 29 23.6633 29 24.0959V30.5998C29 31.4178 28.7436 32.1575 28.2777 32.6839C27.8047 33.2188 27.147 33.5 26.375 33.5C25.603 33.5 24.9453 33.2188 24.4723 32.6839C24.0064 32.1575 23.75 31.4178 23.75 30.5998V26.75C23.75 26.5511 23.671 26.3603 23.5303 26.2197C23.3897 26.079 23.1989 26 23 26C22.8011 26 22.6103 26.079 22.4697 26.2197C22.329 26.3603 22.25 26.5511 22.25 26.75V30.5998C22.25 33.0144 23.8058 34.8013 26 34.9841V40.25C26 41.0456 26.3161 41.8087 26.8787 42.3713C27.4413 42.9339 28.2044 43.25 29 43.25H38.75C39.5456 43.25 40.3087 42.9339 40.8713 42.3713C41.4339 41.8087 41.75 41.0456 41.75 40.25V31.4375C41.75 31.3878 41.7302 31.3401 41.6951 31.3049C41.6599 31.2698 41.6122 31.25 41.5625 31.25Z" fill="black"/>
<path d="M35 29.75H41.0848C41.1033 29.7499 41.1214 29.7444 41.1367 29.7341C41.1521 29.7237 41.164 29.7091 41.1711 29.6921C41.1781 29.675 41.18 29.6562 41.1764 29.638C41.1728 29.6199 41.164 29.6032 41.1509 29.5901L34.4098 22.849C34.3967 22.836 34.3801 22.8271 34.3619 22.8236C34.3438 22.82 34.325 22.8218 34.3079 22.8289C34.2908 22.836 34.2762 22.8479 34.2659 22.8633C34.2556 22.8786 34.2501 22.8966 34.25 22.9151V29C34.25 29.1989 34.329 29.3897 34.4697 29.5303C34.6103 29.671 34.8011 29.75 35 29.75Z" fill="black"/>
<path d="M73.75 23H76.8789C77.2766 23.0001 77.658 23.158 77.9392 23.4392L84.5608 30.0608C84.842 30.342 84.9999 30.7234 85 31.1211V40.25C85 40.8467 84.7629 41.419 84.341 41.841C83.919 42.2629 83.3467 42.5 82.75 42.5H73C72.4033 42.5 71.831 42.2629 71.409 41.841C70.9871 41.419 70.75 40.8467 70.75 40.25V34.25" stroke="black" stroke-width="1.5" stroke-linecap="round" stroke-linejoin="round"/>
<path d="M77.5 23.375V29C77.5 29.3978 77.658 29.7794 77.9393 30.0607C78.2206 30.342 78.6022 30.5 79 30.5H84.625" stroke="black" stroke-width="1.5" stroke-linecap="round" stroke-linejoin="round"/>
<path d="M71.5 23.75V30.875C71.502 31.0233 71.4742 31.1704 71.4183 31.3078C71.3625 31.4452 71.2797 31.57 71.1748 31.6748C71.07 31.7797 70.9452 31.8625 70.8078 31.9183C70.6704 31.9742 70.5233 32.002 70.375 32C69.8125 32 69.25 31.5734 69.25 30.875V24.125C69.25 22.6911 70.0267 21.5 71.5 21.5C72.9733 21.5 73.75 22.6625 73.75 24.0959V30.5998C73.75 32.6155 72.4459 34.25 70.375 34.25C68.3041 34.25 67 32.6159 67 30.5998V26.75" stroke="black" stroke-width="1.5" stroke-miterlimit="10" stroke-linecap="round"/>
<rect x="0.5" y="0.5" width="107" height="63" rx="4.5" stroke="#9747FF" stroke-dasharray="10 5"/>
</svg>
