<svg width="108" height="64" viewBox="0 0 108 64" fill="none" xmlns="http://www.w3.org/2000/svg">
<path d="M39.5 30.3711V39.5C39.5 40.0967 39.2629 40.669 38.841 41.091C38.419 41.5129 37.8467 41.75 37.25 41.75H26.75C26.1533 41.75 25.581 41.5129 25.159 41.091C24.7371 40.669 24.5 40.0967 24.5 39.5V24.5C24.5 23.9033 24.7371 23.331 25.159 22.909C25.581 22.4871 26.1533 22.25 26.75 22.25H31.3789C31.7766 22.2501 32.158 22.408 32.4392 22.6892L39.0608 29.3108C39.342 29.592 39.4999 29.9734 39.5 30.3711Z" stroke="black" stroke-width="1.5" stroke-linejoin="round"/>
<path d="M32 22.625V28.25C32 28.6478 32.158 29.0294 32.4393 29.3107C32.7206 29.592 33.1022 29.75 33.5 29.75H39.125M28.25 33.5H35.75M28.25 37.25H35.75" stroke="black" stroke-width="1.5" stroke-linecap="round" stroke-linejoin="round"/>
<path d="M84.0625 30.5H77.5C76.9033 30.5 76.331 30.2629 75.909 29.841C75.4871 29.419 75.25 28.8467 75.25 28.25V21.6875C75.25 21.6378 75.2302 21.5901 75.1951 21.5549C75.1599 21.5198 75.1122 21.5 75.0625 21.5H70.75C69.9544 21.5 69.1913 21.8161 68.6287 22.3787C68.0661 22.9413 67.75 23.7044 67.75 24.5V39.5C67.75 40.2956 68.0661 41.0587 68.6287 41.6213C69.1913 42.1839 69.9544 42.5 70.75 42.5H81.25C82.0456 42.5 82.8087 42.1839 83.3713 41.6213C83.9339 41.0587 84.25 40.2956 84.25 39.5V30.6875C84.25 30.6378 84.2302 30.5901 84.1951 30.5549C84.1599 30.5198 84.1122 30.5 84.0625 30.5ZM79.75 38H72.25C72.0511 38 71.8603 37.921 71.7197 37.7803C71.579 37.6397 71.5 37.4489 71.5 37.25C71.5 37.0511 71.579 36.8603 71.7197 36.7197C71.8603 36.579 72.0511 36.5 72.25 36.5H79.75C79.9489 36.5 80.1397 36.579 80.2803 36.7197C80.421 36.8603 80.5 37.0511 80.5 37.25C80.5 37.4489 80.421 37.6397 80.2803 37.7803C80.1397 37.921 79.9489 38 79.75 38ZM79.75 34.25H72.25C72.0511 34.25 71.8603 34.171 71.7197 34.0303C71.579 33.8897 71.5 33.6989 71.5 33.5C71.5 33.3011 71.579 33.1103 71.7197 32.9697C71.8603 32.829 72.0511 32.75 72.25 32.75H79.75C79.9489 32.75 80.1397 32.829 80.2803 32.9697C80.421 33.1103 80.5 33.3011 80.5 33.5C80.5 33.6989 80.421 33.8897 80.2803 34.0303C80.1397 34.171 79.9489 34.25 79.75 34.25Z" fill="black"/>
<path d="M83.6509 28.8401L76.9098 22.099C76.8967 22.086 76.8801 22.0771 76.8619 22.0736C76.8438 22.07 76.825 22.0718 76.8079 22.0789C76.7908 22.086 76.7762 22.0979 76.7659 22.1133C76.7556 22.1286 76.7501 22.1466 76.75 22.1651V28.25C76.75 28.4489 76.829 28.6397 76.9697 28.7803C77.1103 28.921 77.3011 29 77.5 29H83.5848C83.6033 28.9999 83.6214 28.9944 83.6367 28.9841C83.6521 28.9737 83.664 28.9591 83.6711 28.9421C83.6781 28.925 83.68 28.9062 83.6764 28.888C83.6728 28.8699 83.664 28.8532 83.6509 28.8401Z" fill="black"/>
<rect x="0.5" y="0.5" width="107" height="63" rx="4.5" stroke="#9747FF" stroke-dasharray="10 5"/>
</svg>
