<svg width="108" height="64" viewBox="0 0 108 64" fill="none" xmlns="http://www.w3.org/2000/svg">
<path d="M38 30.5V39.125C38 39.3712 37.9515 39.615 37.8573 39.8425C37.763 40.07 37.6249 40.2767 37.4508 40.4508C37.2767 40.6249 37.07 40.763 36.8425 40.8573C36.615 40.9515 36.3712 41 36.125 41H24.875C24.3777 41 23.9008 40.8025 23.5492 40.4508C23.1975 40.0992 23 39.6223 23 39.125V27.875C23 27.3777 23.1975 26.9008 23.5492 26.5492C23.9008 26.1975 24.3777 26 24.875 26H32.7256" stroke="black" stroke-width="1.5" stroke-linecap="round" stroke-linejoin="round"/>
<path d="M41.5597 22.4961C41.4912 22.4208 41.4082 22.3603 41.3156 22.318C41.2231 22.2757 41.1229 22.2527 41.0211 22.2502C40.9194 22.2478 40.8182 22.266 40.7237 22.3037C40.6292 22.3415 40.5434 22.398 40.4713 22.4699L39.8915 23.0469C39.8212 23.1172 39.7817 23.2126 39.7817 23.312C39.7817 23.4114 39.8212 23.5067 39.8915 23.577L40.423 24.1077C40.4579 24.1427 40.4993 24.1705 40.5449 24.1894C40.5905 24.2084 40.6394 24.2181 40.6888 24.2181C40.7382 24.2181 40.7871 24.2084 40.8327 24.1894C40.8783 24.1705 40.9197 24.1427 40.9546 24.1077L41.5199 23.5452C41.8058 23.2597 41.8326 22.7947 41.5597 22.4961ZM38.7191 24.2188L30.2572 32.6656C30.2059 32.7167 30.1686 32.7802 30.149 32.8499L29.7576 34.0156C29.7482 34.0473 29.7475 34.0808 29.7556 34.1128C29.7638 34.1448 29.7804 34.174 29.8037 34.1973C29.827 34.2207 29.8562 34.2373 29.8882 34.2454C29.9202 34.2535 29.9537 34.2528 29.9854 34.2435L31.1502 33.852C31.2199 33.8324 31.2833 33.7951 31.3344 33.7438L39.7813 25.281C39.8595 25.202 39.9033 25.0953 39.9033 24.9842C39.9033 24.8731 39.8595 24.7665 39.7813 24.6875L39.3149 24.2188C39.2358 24.1399 39.1287 24.0956 39.017 24.0956C38.9053 24.0956 38.7982 24.1399 38.7191 24.2188Z" fill="black"/>
<path d="M85.5597 22.4961C85.4912 22.4208 85.4082 22.3603 85.3156 22.318C85.2231 22.2757 85.1229 22.2527 85.0211 22.2502C84.9194 22.2478 84.8182 22.266 84.7237 22.3037C84.6292 22.3415 84.5434 22.398 84.4713 22.4699L83.8915 23.0469C83.8212 23.1172 83.7817 23.2126 83.7817 23.312C83.7817 23.4114 83.8212 23.5067 83.8915 23.577L84.423 24.1077C84.4579 24.1427 84.4993 24.1705 84.5449 24.1894C84.5905 24.2084 84.6394 24.2181 84.6888 24.2181C84.7382 24.2181 84.7871 24.2084 84.8327 24.1894C84.8783 24.1705 84.9197 24.1427 84.9546 24.1077L85.5199 23.5452C85.8058 23.2597 85.8326 22.7947 85.5597 22.4961ZM82.7191 24.2188L74.2572 32.6656C74.2059 32.7167 74.1686 32.7802 74.149 32.8499L73.7576 34.0156C73.7482 34.0473 73.7475 34.0808 73.7556 34.1128C73.7638 34.1448 73.7804 34.174 73.8037 34.1973C73.827 34.2207 73.8562 34.2373 73.8882 34.2454C73.9202 34.2535 73.9537 34.2528 73.9854 34.2435L75.1502 33.852C75.2199 33.8324 75.2833 33.7951 75.3344 33.7438L83.7813 25.281C83.8595 25.202 83.9033 25.0953 83.9033 24.9842C83.9033 24.8731 83.8595 24.7665 83.7813 24.6875L83.3149 24.2188C83.2358 24.1399 83.1287 24.0956 83.017 24.0956C82.9053 24.0956 82.7982 24.1399 82.7191 24.2188Z" fill="black"/>
<path d="M82.1097 29.0778L76.3961 34.8027C76.1753 35.024 75.9039 35.1883 75.6053 35.2812L74.3912 35.6877C74.1031 35.769 73.7985 35.7721 73.5088 35.6965C73.2191 35.621 72.9548 35.4696 72.7431 35.2579C72.5314 35.0462 72.3799 34.7818 72.3044 34.4921C72.2288 34.2024 72.2319 33.8978 72.3133 33.6097L72.7197 32.3956C72.8124 32.0972 72.9763 31.8258 73.1973 31.6048L78.9222 25.8903C78.9747 25.8379 79.0104 25.7711 79.0249 25.6984C79.0394 25.6256 79.032 25.5502 79.0037 25.4817C78.9753 25.4131 78.9273 25.3545 78.8657 25.3133C78.804 25.2721 78.7315 25.25 78.6573 25.25H68.875C68.1788 25.25 67.5111 25.5266 67.0188 26.0188C66.5266 26.5111 66.25 27.1788 66.25 27.875V39.125C66.25 39.8212 66.5266 40.4889 67.0188 40.9812C67.5111 41.4734 68.1788 41.75 68.875 41.75H80.125C80.8212 41.75 81.4889 41.4734 81.9812 40.9812C82.4734 40.4889 82.75 39.8212 82.75 39.125V29.3427C82.75 29.2685 82.7279 29.196 82.6867 29.1343C82.6455 29.0727 82.5869 29.0247 82.5183 28.9963C82.4498 28.968 82.3744 28.9606 82.3016 28.9751C82.2289 28.9896 82.1621 29.0253 82.1097 29.0778Z" fill="black"/>
<rect x="0.5" y="0.5" width="107" height="63" rx="4.5" stroke="#9747FF" stroke-dasharray="10 5"/>
</svg>
