<svg width="108" height="64" viewBox="0 0 108 64" fill="none" xmlns="http://www.w3.org/2000/svg">
<path d="M41 32C41 27.0312 36.9688 23 32 23C27.0312 23 23 27.0312 23 32C23 36.9688 27.0312 41 32 41C36.9688 41 41 36.9688 41 32Z" stroke="black" stroke-width="1.5" stroke-miterlimit="10"/>
<path d="M35 35L29 29M29 35L35 29" stroke="black" stroke-width="1.5" stroke-linecap="round" stroke-linejoin="round"/>
<path d="M76 22.25C70.6239 22.25 66.25 26.6239 66.25 32C66.25 37.3761 70.6239 41.75 76 41.75C81.3761 41.75 85.75 37.3761 85.75 32C85.75 26.6239 81.3761 22.25 76 22.25ZM79.5302 34.4698C79.6027 34.5388 79.6608 34.6216 79.7008 34.7133C79.7409 34.805 79.7622 34.9039 79.7635 35.004C79.7648 35.1041 79.746 35.2034 79.7083 35.2961C79.6706 35.3889 79.6147 35.4731 79.5439 35.5439C79.4731 35.6147 79.3889 35.6706 79.2961 35.7083C79.2034 35.746 79.1041 35.7648 79.004 35.7635C78.9039 35.7622 78.805 35.7409 78.7133 35.7008C78.6216 35.6608 78.5388 35.6027 78.4698 35.5302L76 33.0608L73.5302 35.5302C73.3884 35.6649 73.1995 35.7389 73.004 35.7364C72.8084 35.7339 72.6215 35.6551 72.4832 35.5168C72.3449 35.3785 72.2661 35.1916 72.2636 34.996C72.2611 34.8005 72.3351 34.6116 72.4698 34.4698L74.9392 32L72.4698 29.5302C72.3351 29.3884 72.2611 29.1995 72.2636 29.004C72.2661 28.8084 72.3449 28.6215 72.4832 28.4832C72.6215 28.3449 72.8084 28.2661 73.004 28.2636C73.1995 28.2611 73.3884 28.3351 73.5302 28.4698L76 30.9392L78.4698 28.4698C78.6116 28.3351 78.8005 28.2611 78.996 28.2636C79.1916 28.2661 79.3785 28.3449 79.5168 28.4832C79.6551 28.6215 79.7339 28.8084 79.7364 29.004C79.7389 29.1995 79.6649 29.3884 79.5302 29.5302L77.0608 32L79.5302 34.4698Z" fill="black"/>
<rect x="0.5" y="0.5" width="107" height="63" rx="4.5" stroke="#9747FF" stroke-dasharray="10 5"/>
</svg>
