<svg width="108" height="64" viewBox="0 0 108 64" fill="none" xmlns="http://www.w3.org/2000/svg">
<path d="M41 32C41 27.0312 36.9688 23 32 23C27.0312 23 23 27.0312 23 32C23 36.9688 27.0312 41 32 41C36.9688 41 41 36.9688 41 32Z" stroke="black" stroke-width="1.5" stroke-miterlimit="10"/>
<path d="M36.4375 27.0748L30.9438 29.2723C30.5665 29.4232 30.2237 29.6492 29.9364 29.9365C29.6491 30.2239 29.4231 30.5666 29.2722 30.9439L27.0747 36.4376C27.0474 36.5058 27.0408 36.5804 27.0555 36.6524C27.0703 36.7243 27.1058 36.7903 27.1577 36.8422C27.2096 36.8941 27.2756 36.9296 27.3475 36.9443C27.4194 36.9591 27.4941 36.9524 27.5622 36.9251L33.056 34.7276C33.4333 34.5768 33.776 34.3508 34.0633 34.0634C34.3507 33.7761 34.5766 33.4334 34.7275 33.0561L36.925 27.5623C36.9523 27.4942 36.959 27.4195 36.9442 27.3476C36.9295 27.2757 36.8939 27.2097 36.842 27.1578C36.7901 27.1059 36.7241 27.0704 36.6522 27.0556C36.5803 27.0409 36.5057 27.0475 36.4375 27.0748ZM31.9999 33.125C31.7774 33.125 31.5599 33.059 31.3748 32.9354C31.1898 32.8118 31.0456 32.6361 30.9605 32.4305C30.8753 32.2249 30.8531 31.9987 30.8965 31.7805C30.9399 31.5623 31.047 31.3618 31.2044 31.2045C31.3617 31.0472 31.5622 30.94 31.7804 30.8966C31.9986 30.8532 32.2248 30.8755 32.4304 30.9606C32.6359 31.0458 32.8116 31.19 32.9353 31.375C33.0589 31.56 33.1249 31.7775 33.1249 32C33.1249 32.2984 33.0063 32.5845 32.7954 32.7955C32.5844 33.0065 32.2982 33.125 31.9999 33.125Z" fill="black"/>
<path d="M76 33.125C76.6213 33.125 77.125 32.6213 77.125 32C77.125 31.3787 76.6213 30.875 76 30.875C75.3787 30.875 74.875 31.3787 74.875 32C74.875 32.6213 75.3787 33.125 76 33.125Z" fill="black"/>
<path d="M76 22.25C70.6239 22.25 66.25 26.6239 66.25 32C66.25 37.3761 70.6239 41.75 76 41.75C81.3761 41.75 85.75 37.3761 85.75 32C85.75 26.6239 81.3761 22.25 76 22.25ZM80.9252 27.5623L78.7277 33.0561C78.5768 33.4334 78.3508 33.7761 78.0635 34.0635C77.7761 34.3508 77.4334 34.5768 77.0561 34.7277L71.5623 36.9252C71.4942 36.9524 71.4195 36.9591 71.3476 36.9444C71.2757 36.9296 71.2097 36.8941 71.1578 36.8422C71.1059 36.7903 71.0704 36.7243 71.0556 36.6524C71.0409 36.5805 71.0476 36.5058 71.0748 36.4377L73.2723 30.9439C73.4232 30.5666 73.6492 30.2239 73.9365 29.9365C74.2239 29.6492 74.5666 29.4232 74.9439 29.2723L80.4377 27.0748C80.5058 27.0476 80.5805 27.0409 80.6524 27.0556C80.7243 27.0704 80.7903 27.1059 80.8422 27.1578C80.8941 27.2097 80.9296 27.2757 80.9444 27.3476C80.9591 27.4195 80.9524 27.4942 80.9252 27.5623Z" fill="black"/>
<rect x="0.5" y="0.5" width="107" height="63" rx="4.5" stroke="#9747FF" stroke-dasharray="10 5"/>
</svg>
