<svg width="108" height="64" viewBox="0 0 108 64" fill="none" xmlns="http://www.w3.org/2000/svg">
<path d="M40.25 41C40.1515 41.0001 40.0539 40.9808 39.9629 40.9431C39.8719 40.9053 39.7893 40.85 39.7198 40.7801L23.2198 24.2801C23.0851 24.1383 23.0111 23.9495 23.0136 23.7539C23.0161 23.5584 23.0949 23.3715 23.2332 23.2332C23.3715 23.0949 23.5584 23.0161 23.7539 23.0136C23.9495 23.0111 24.1383 23.0851 24.2801 23.2198L40.7801 39.7198C40.8849 39.8247 40.9563 39.9583 40.9852 40.1038C41.0141 40.2492 40.9993 40.3999 40.9425 40.5369C40.8858 40.6739 40.7897 40.791 40.6665 40.8735C40.5432 40.9559 40.3982 40.9999 40.25 41ZM31.984 38C30.0392 38 28.1637 37.4243 26.4096 36.289C24.8126 35.2578 23.375 33.7808 22.2518 32.0234V32.0197C23.1865 30.6804 24.2103 29.5479 25.31 28.6348C25.3199 28.6265 25.328 28.6162 25.3338 28.6046C25.3396 28.593 25.3429 28.5803 25.3435 28.5673C25.3441 28.5544 25.342 28.5415 25.3374 28.5294C25.3327 28.5172 25.3256 28.5062 25.3165 28.497L24.3828 27.5647C24.3662 27.5479 24.3439 27.5381 24.3204 27.537C24.2968 27.536 24.2737 27.5438 24.2557 27.559C23.0876 28.5434 22.0034 29.7509 21.0176 31.1647C20.848 31.4081 20.7546 31.6964 20.7493 31.9931C20.7439 32.2897 20.8269 32.5812 20.9876 32.8306C22.2256 34.7679 23.8189 36.3997 25.5945 37.5486C27.5937 38.8437 29.7453 39.5 31.984 39.5C33.1924 39.4962 34.3923 39.2971 35.5371 38.9103C35.5522 38.9052 35.5658 38.8963 35.5765 38.8845C35.5872 38.8726 35.5947 38.8583 35.5983 38.8427C35.602 38.8272 35.6015 38.811 35.5972 38.7957C35.5928 38.7803 35.5845 38.7664 35.5732 38.7551L34.5617 37.7436C34.5384 37.7208 34.5096 37.7046 34.4781 37.6964C34.4466 37.6881 34.4136 37.6883 34.3821 37.6967C33.5987 37.8984 32.793 38.0003 31.984 38ZM43.0081 31.1843C41.7678 29.2662 40.1586 27.6368 38.3548 26.472C36.3593 25.182 34.1562 24.5 31.984 24.5C30.7884 24.5021 29.6017 24.7054 28.4736 25.1014C28.4585 25.1066 28.4451 25.1156 28.4345 25.1274C28.4239 25.1393 28.4164 25.1537 28.4129 25.1692C28.4094 25.1847 28.4099 25.2009 28.4144 25.2162C28.4188 25.2314 28.4271 25.2453 28.4384 25.2565L29.4486 26.2667C29.4721 26.2898 29.5013 26.3063 29.5332 26.3145C29.5651 26.3228 29.5987 26.3224 29.6304 26.3136C30.3978 26.106 31.1891 26.0006 31.984 26C33.8914 26 35.7612 26.5826 37.5411 27.7343C39.1681 28.7843 40.6226 30.26 41.7486 32C41.7494 32.001 41.7498 32.0024 41.7498 32.0037C41.7498 32.0051 41.7494 32.0064 41.7486 32.0075C40.9312 33.2942 39.917 34.4446 38.7429 35.4167C38.7329 35.425 38.7247 35.4353 38.7188 35.4469C38.7129 35.4585 38.7096 35.4713 38.7089 35.4843C38.7083 35.4973 38.7103 35.5103 38.715 35.5225C38.7196 35.5346 38.7267 35.5457 38.7359 35.555L39.6687 36.4873C39.6852 36.504 39.7074 36.5139 39.7308 36.515C39.7542 36.5161 39.7772 36.5084 39.7953 36.4934C41.0487 35.438 42.1337 34.1975 43.0128 32.8147C43.1682 32.571 43.2503 32.2878 43.2495 31.9988C43.2486 31.7098 43.1649 31.4271 43.0081 31.1843Z" fill="black"/>
<path d="M32 27.5C31.6629 27.4998 31.3269 27.5376 30.9983 27.6125C30.9817 27.6159 30.9663 27.6238 30.9538 27.6353C30.9414 27.6468 30.9322 27.6614 30.9274 27.6777C30.9226 27.694 30.9223 27.7112 30.9265 27.7276C30.9307 27.744 30.9393 27.759 30.9514 27.7709L36.229 33.0472C36.241 33.0592 36.2559 33.0678 36.2723 33.0721C36.2888 33.0763 36.306 33.076 36.3223 33.0712C36.3385 33.0663 36.3532 33.0572 36.3647 33.0447C36.3761 33.0323 36.384 33.0169 36.3875 33.0003C36.5377 32.3413 36.5376 31.6568 36.3871 30.9979C36.2365 30.3389 35.9395 29.7223 35.5179 29.1938C35.0964 28.6654 34.5613 28.2387 33.9522 27.9455C33.3432 27.6523 32.6759 27.5 32 27.5ZM27.7709 30.9528C27.759 30.9408 27.744 30.9322 27.7276 30.9279C27.7112 30.9237 27.6939 30.924 27.6777 30.9289C27.6614 30.9337 27.6468 30.9428 27.6353 30.9553C27.6238 30.9677 27.6159 30.9831 27.6125 30.9997C27.4425 31.7424 27.4638 32.516 27.6745 33.2482C27.8852 33.9803 28.2783 34.647 28.817 35.1857C29.3558 35.7245 30.0224 36.1176 30.7546 36.3283C31.4868 36.539 32.2604 36.5603 33.0031 36.3903C33.0197 36.3869 33.0351 36.379 33.0475 36.3675C33.06 36.356 33.0691 36.3414 33.0739 36.3251C33.0787 36.3089 33.0791 36.2916 33.0748 36.2752C33.0706 36.2588 33.062 36.2438 33.05 36.2319L27.7709 30.9528Z" fill="black"/>
<path d="M84.2501 41C84.1516 41.0001 84.054 40.9808 83.963 40.9431C83.872 40.9053 83.7894 40.85 83.7199 40.7801L67.2199 24.2801C67.0852 24.1383 67.0112 23.9495 67.0137 23.7539C67.0162 23.5584 67.095 23.3715 67.2333 23.2332C67.3716 23.0949 67.5585 23.0161 67.7541 23.0136C67.9496 23.0111 68.1385 23.0851 68.2803 23.2198L84.7803 39.7198C84.8851 39.8247 84.9564 39.9583 84.9854 40.1038C85.0143 40.2492 84.9994 40.3999 84.9427 40.5369C84.8859 40.6739 84.7899 40.791 84.6666 40.8735C84.5433 40.9559 84.3984 40.9999 84.2501 41ZM75.6251 34.8054L73.1974 32.3778C73.1835 32.364 73.1656 32.3549 73.1463 32.3518C73.127 32.3487 73.1071 32.3517 73.0896 32.3604C73.0721 32.3692 73.0577 32.3832 73.0486 32.4005C73.0394 32.4178 73.0359 32.4376 73.0385 32.457C73.1365 33.0868 73.4323 33.6692 73.883 34.1199C74.3337 34.5706 74.916 34.8663 75.5459 34.9643C75.5653 34.967 75.585 34.9635 75.6024 34.9543C75.6197 34.9452 75.6337 34.9308 75.6424 34.9133C75.6512 34.8957 75.6542 34.8759 75.6511 34.8566C75.648 34.8372 75.6389 34.8194 75.6251 34.8054ZM76.3751 29.1945L78.8065 31.625C78.8204 31.639 78.8383 31.6482 78.8577 31.6514C78.8772 31.6547 78.8971 31.6517 78.9148 31.6429C78.9324 31.6341 78.9469 31.62 78.956 31.6026C78.9652 31.5851 78.9686 31.5653 78.9659 31.5458C78.8681 30.9151 78.5722 30.3319 78.1209 29.8806C77.6696 29.4293 77.0864 29.1334 76.4557 29.0356C76.4362 29.0326 76.4162 29.0358 76.3986 29.0448C76.381 29.0539 76.3668 29.0682 76.3578 29.0858C76.3489 29.1035 76.3457 29.1235 76.3488 29.143C76.3519 29.1625 76.3611 29.1805 76.3751 29.1945Z" fill="black"/>
<path d="M87.0156 32.8137C87.1708 32.5702 87.2529 32.2872 87.252 31.9984C87.2512 31.7096 87.1675 31.4271 87.0109 31.1844C85.7706 29.2663 84.1614 27.6369 82.3577 26.472C80.3594 25.182 78.1562 24.5 75.985 24.5C74.8404 24.5016 73.7035 24.6882 72.6184 25.0527C72.5881 25.0628 72.5608 25.0805 72.5392 25.1041C72.5176 25.1277 72.5024 25.1565 72.4951 25.1876C72.4878 25.2188 72.4885 25.2513 72.4973 25.2821C72.5061 25.3128 72.5226 25.3409 72.5453 25.3634L74.7597 27.5778C74.7827 27.6009 74.8113 27.6175 74.8427 27.6261C74.8741 27.6348 74.9072 27.6351 74.9387 27.627C75.6893 27.4441 76.4744 27.4575 77.2183 27.666C77.9622 27.8744 78.6399 28.2708 79.1862 28.8171C79.7325 29.3634 80.1289 30.0411 80.3373 30.785C80.5458 31.5289 80.5592 32.3139 80.3762 33.0645C80.3683 33.096 80.3686 33.129 80.3773 33.1603C80.3859 33.1916 80.4025 33.2202 80.4255 33.2431L83.6106 36.4306C83.6438 36.4638 83.6881 36.4834 83.735 36.4855C83.7819 36.4876 83.8278 36.472 83.8637 36.4419C85.0898 35.3968 86.1522 34.1739 87.0156 32.8137ZM76 36.5C75.3188 36.5 74.6465 36.3454 74.0337 36.0478C73.4209 35.7502 72.8837 35.3173 72.4626 34.7819C72.0415 34.2464 71.7474 33.6223 71.6026 32.9567C71.4578 32.2911 71.466 31.6012 71.6266 30.9392C71.6345 30.9077 71.6342 30.8747 71.6255 30.8434C71.6169 30.8121 71.6003 30.7836 71.5773 30.7606L68.4442 27.6261C68.411 27.5928 68.3665 27.5733 68.3195 27.5713C68.2726 27.5693 68.2265 27.585 68.1906 27.6153C67.0473 28.5908 65.9875 29.7777 65.0186 31.1647C64.849 31.4081 64.7556 31.6965 64.7502 31.9931C64.7449 32.2897 64.8279 32.5813 64.9886 32.8306C66.2266 34.768 67.8194 36.3997 69.5955 37.5486C71.5966 38.8438 73.7462 39.5 75.985 39.5C77.1412 39.4969 78.2899 39.3143 79.39 38.9586C79.4206 38.9488 79.4482 38.9313 79.4702 38.9078C79.4921 38.8842 79.5076 38.8554 79.5152 38.8242C79.5227 38.7929 79.5222 38.7602 79.5134 38.7293C79.5047 38.6983 79.4882 38.6701 79.4655 38.6473L77.2403 36.4227C77.2174 36.3997 77.1888 36.3831 77.1575 36.3744C77.1262 36.3658 77.0932 36.3655 77.0617 36.3734C76.7141 36.4577 76.3577 36.5002 76 36.5Z" fill="black"/>
<rect x="0.5" y="0.5" width="107" height="63" rx="4.5" stroke="#9747FF" stroke-dasharray="10 5"/>
</svg>
