<svg width="108" height="64" viewBox="0 0 108 64" fill="none" xmlns="http://www.w3.org/2000/svg">
<path d="M31.9841 25.25C28.3307 25.25 24.583 27.3645 21.6327 31.5936C21.5485 31.7156 21.5023 31.8599 21.5001 32.0082C21.4978 32.1564 21.5396 32.302 21.62 32.4266C23.8869 35.975 27.5844 38.75 31.9841 38.75C36.336 38.75 40.1094 35.9666 42.3805 32.4102C42.4591 32.2881 42.5009 32.1459 42.5009 32.0007C42.5009 31.8555 42.4591 31.7134 42.3805 31.5912C40.1043 28.0756 36.3032 25.25 31.9841 25.25Z" stroke="black" stroke-width="1.5" stroke-linecap="round" stroke-linejoin="round"/>
<path d="M32 35.75C34.0711 35.75 35.75 34.0711 35.75 32C35.75 29.9289 34.0711 28.25 32 28.25C29.9289 28.25 28.25 29.9289 28.25 32C28.25 34.0711 29.9289 35.75 32 35.75Z" stroke="black" stroke-width="1.5" stroke-miterlimit="10"/>
<path d="M76 35C77.6569 35 79 33.6569 79 32C79 30.3431 77.6569 29 76 29C74.3431 29 73 30.3431 73 32C73 33.6569 74.3431 35 76 35Z" fill="black"/>
<path d="M87.0081 31.1844C85.7678 29.2663 84.1586 27.6369 82.3548 26.472C80.3593 25.182 78.1562 24.5 75.984 24.5C73.9909 24.5 72.0311 25.0695 70.1589 26.1927C68.2496 27.3378 66.52 29.0108 65.0176 31.1647C64.848 31.4081 64.7546 31.6965 64.7493 31.9931C64.7439 32.2897 64.8269 32.5813 64.9876 32.8306C66.2256 34.768 67.8189 36.3997 69.5945 37.5486C71.5937 38.8438 73.7453 39.5 75.984 39.5C78.1736 39.5 80.3814 38.8236 82.3684 37.5444C84.1712 36.3833 85.7771 34.7478 87.0128 32.8137C87.168 32.5702 87.25 32.2872 87.2492 31.9984C87.2483 31.7096 87.1647 31.4271 87.0081 31.1844ZM76 36.5C75.1099 36.5 74.2399 36.2361 73.4999 35.7416C72.7599 35.2471 72.1831 34.5443 71.8425 33.7221C71.5019 32.8998 71.4128 31.995 71.5864 31.1221C71.7601 30.2492 72.1886 29.4474 72.818 28.818C73.4473 28.1887 74.2491 27.7601 75.1221 27.5865C75.995 27.4128 76.8998 27.5019 77.722 27.8425C78.5443 28.1831 79.2471 28.7599 79.7416 29.4999C80.236 30.24 80.5 31.11 80.5 32C80.4986 33.1931 80.024 34.3369 79.1804 35.1805C78.3368 36.0241 77.193 36.4986 76 36.5Z" fill="black"/>
<rect x="0.5" y="0.5" width="107" height="63" rx="4.5" stroke="#9747FF" stroke-dasharray="10 5"/>
</svg>
