<svg width="108" height="64" viewBox="0 0 108 64" fill="none" xmlns="http://www.w3.org/2000/svg">
<path d="M32.3052 29.5728L23.2812 38.5948C22.6981 39.1788 22.25 41.7499 22.25 41.7499C22.25 41.7499 24.7991 41.3238 25.4052 40.7187L34.4281 31.6957" stroke="black" stroke-width="1.5" stroke-linecap="round" stroke-linejoin="round"/>
<path d="M37.612 30.6339L33.3663 26.3883C32.78 25.802 31.8294 25.8019 31.2432 26.3881C30.657 26.9744 30.657 27.925 31.2434 28.5113L35.489 32.7569C36.0753 33.3433 37.0259 33.3433 37.6121 32.7571C38.1984 32.1708 38.1983 31.2203 37.612 30.6339Z" stroke="black" stroke-width="1.5" stroke-linecap="round" stroke-linejoin="round"/>
<path d="M33.5898 26.6093C33.5898 26.6093 34.554 27.011 35.3345 26.2306L37.8971 22.9198C38.7643 22.0099 40.2062 22.0437 41.0818 22.9198C41.9574 23.7954 41.9884 25.2078 41.0818 26.104L37.7687 28.6667C37.0351 29.4003 37.3899 30.4113 37.3899 30.4113M25.4054 40.7187C25.4054 40.7187 24.1642 41.5315 23.3167 40.6845C22.4692 39.8374 23.2815 38.5948 23.2815 38.5948" stroke="black" stroke-width="1.5" stroke-linecap="round" stroke-linejoin="round"/>
<path d="M85.6117 22.3906C85.0429 21.8228 84.2728 21.5026 83.4691 21.5H83.4334C83.044 21.5029 82.6591 21.5843 82.3018 21.7394C81.9446 21.8944 81.6222 22.1199 81.3541 22.4023C81.3361 22.4208 81.3193 22.4404 81.3039 22.4609L78.7726 25.7309C78.5092 26.0638 78.1755 26.1378 77.9861 25.9484L77.897 25.8594C77.4748 25.4372 76.9022 25.2 76.3051 25.2C75.7081 25.2 75.1355 25.4372 74.7133 25.8594C74.2911 26.2816 74.0539 26.8542 74.0539 27.4513C74.0539 28.0483 74.2911 28.6209 74.7133 29.0431L75.1778 29.5077C75.1865 29.5164 75.1934 29.5267 75.1982 29.5381C75.2029 29.5495 75.2053 29.5617 75.2053 29.574C75.2053 29.5863 75.2029 29.5985 75.1982 29.6099C75.1934 29.6213 75.1865 29.6316 75.1778 29.6403L66.7516 38.0647C66.5312 38.2836 66.1984 38.743 65.8211 40.2031C65.6308 40.9395 65.5159 41.5934 65.5112 41.6206C65.4924 41.7284 65.4973 41.8391 65.5257 41.9447C65.5541 42.0504 65.6053 42.1486 65.6757 42.2324C65.7461 42.3162 65.834 42.3836 65.9332 42.4298C66.0324 42.476 66.1405 42.5 66.25 42.5C66.2915 42.5001 66.3329 42.4966 66.3737 42.4897C66.4009 42.485 67.0506 42.3758 67.7861 42.1878C69.2425 41.8156 69.7103 41.4734 69.9353 41.2503L78.362 32.8227C78.3796 32.8052 78.4033 32.7954 78.4281 32.7954C78.4529 32.7954 78.4766 32.8052 78.4942 32.8227L78.9592 33.2877C79.3815 33.7098 79.9541 33.947 80.5513 33.947C81.1484 33.9469 81.721 33.7097 82.1432 33.2874C82.5654 32.8652 82.8025 32.2925 82.8025 31.6954C82.8025 31.0983 82.5652 30.5256 82.143 30.1034L82.0684 30.0312C81.8341 29.7969 81.9503 29.4636 82.2709 29.2278L85.5405 26.6994C85.5646 26.68 85.5876 26.6594 85.6094 26.6375C85.8903 26.3626 86.1138 26.0345 86.2667 25.6723C86.4196 25.3102 86.4989 24.9212 86.5 24.5281C86.5012 24.1307 86.4233 23.7371 86.2707 23.3701C86.1182 23.0031 85.8942 22.6701 85.6117 22.3906ZM75.7553 33.3078C75.6184 33.4447 74.9969 33.6791 74.6589 33.3411C74.3209 33.0031 74.5539 32.3839 74.6912 32.2466L76.2381 30.6997C76.2468 30.691 76.2572 30.6841 76.2685 30.6793C76.2799 30.6746 76.2921 30.6722 76.3044 30.6722C76.3168 30.6722 76.329 30.6746 76.3403 30.6793C76.3517 30.6841 76.3621 30.691 76.3708 30.6997L77.3008 31.6292C77.3095 31.6379 77.3164 31.6483 77.3211 31.6596C77.3258 31.671 77.3283 31.6832 77.3283 31.6955C77.3283 31.7079 77.3258 31.7201 77.3211 31.7314C77.3164 31.7428 77.3095 31.7532 77.3008 31.7619L75.7553 33.3078Z" fill="black"/>
<rect x="0.5" y="0.5" width="107" height="63" rx="4.5" stroke="#9747FF" stroke-dasharray="10 5"/>
</svg>
