<svg width="108" height="64" viewBox="0 0 108 64" fill="none" xmlns="http://www.w3.org/2000/svg">
<path d="M42.4841 32.5953L40.9841 25.4792C40.6944 23.9267 39.5788 23 38 23H26C25.2125 23 24.5469 23.2198 24.0266 23.6534C23.5063 24.087 23.1655 24.6992 23.015 25.4764L21.515 32.5953C21.5049 32.6462 21.4998 32.6981 21.5 32.75V38C21.5 38.7956 21.8161 39.5587 22.3787 40.1213C22.9413 40.6839 23.7044 41 24.5 41H39.5C40.2957 41 41.0587 40.6839 41.6213 40.1213C42.1839 39.5587 42.5 38.7956 42.5 38V32.75C42.4999 32.698 42.4945 32.6462 42.4841 32.5953ZM24.4841 25.7797V25.7666C24.6505 24.9027 25.1314 24.5009 25.9977 24.5009H38C38.8723 24.5009 39.3533 24.9017 39.5127 25.7623C39.5127 25.7684 39.515 25.7745 39.5159 25.7806L40.7783 31.775C40.784 31.8023 40.7836 31.8306 40.777 31.8577C40.7704 31.8848 40.7578 31.9101 40.7402 31.9317C40.7226 31.9534 40.7004 31.9708 40.6752 31.9828C40.65 31.9948 40.6224 32.001 40.5945 32.0009H35C34.8022 31.9999 34.6122 32.0775 34.4716 32.2165C34.3309 32.3556 34.2512 32.5447 34.25 32.7425C34.25 33.3392 34.013 33.9115 33.591 34.3335C33.169 34.7554 32.5967 34.9925 32 34.9925C31.4033 34.9925 30.831 34.7554 30.409 34.3335C29.9871 33.9115 29.75 33.3392 29.75 32.7425C29.7495 32.6445 29.7297 32.5476 29.6918 32.4572C29.6538 32.3669 29.5984 32.2849 29.5288 32.2159C29.4591 32.147 29.3766 32.0924 29.2859 32.0554C29.1951 32.0183 29.098 31.9995 29 32H23.4055C23.3776 32 23.35 31.9938 23.3248 31.9819C23.2996 31.9699 23.2774 31.9525 23.2598 31.9308C23.2422 31.9092 23.2296 31.8839 23.223 31.8567C23.2164 31.8296 23.216 31.8014 23.2217 31.7741L24.4841 25.7797Z" fill="black"/>
<path d="M37.25 27.5H26.75C26.5511 27.5 26.3603 27.421 26.2197 27.2803C26.079 27.1397 26 26.9489 26 26.75C26 26.5511 26.079 26.3603 26.2197 26.2197C26.3603 26.079 26.5511 26 26.75 26H37.25C37.4489 26 37.6397 26.079 37.7803 26.2197C37.921 26.3603 38 26.5511 38 26.75C38 26.9489 37.921 27.1397 37.7803 27.2803C37.6397 27.421 37.4489 27.5 37.25 27.5ZM38 30.5H26C25.8011 30.5 25.6103 30.421 25.4697 30.2803C25.329 30.1397 25.25 29.9489 25.25 29.75C25.25 29.5511 25.329 29.3603 25.4697 29.2197C25.6103 29.079 25.8011 29 26 29H38C38.1989 29 38.3897 29.079 38.5303 29.2197C38.671 29.3603 38.75 29.5511 38.75 29.75C38.75 29.9489 38.671 30.1397 38.5303 30.2803C38.3897 30.421 38.1989 30.5 38 30.5Z" fill="black"/>
<path d="M82 23.75H70C68.7812 23.75 67.9844 24.4062 67.75 25.625L66.25 32.75V38C66.2517 38.5962 66.4893 39.1675 66.9109 39.5891C67.3325 40.0107 67.9038 40.2483 68.5 40.25H83.5C84.0962 40.2483 84.6675 40.0107 85.0891 39.5891C85.5107 39.1675 85.7483 38.5962 85.75 38V32.75L84.25 25.625C84.0156 24.3594 83.1719 23.75 82 23.75Z" stroke="black" stroke-width="1.5" stroke-linejoin="round"/>
<path d="M66.25 32.75H73M79 32.75H85.75M73 32.75C73 33.5456 73.3161 34.3087 73.8787 34.8713C74.4413 35.4339 75.2044 35.75 76 35.75C76.7956 35.75 77.5587 35.4339 78.1213 34.8713C78.6839 34.3087 79 33.5456 79 32.75M70.75 26.75H81.25M70 29.75H82" stroke="black" stroke-width="1.5" stroke-linecap="round" stroke-linejoin="round"/>
<rect x="0.5" y="0.5" width="107" height="63" rx="4.5" stroke="#9747FF" stroke-dasharray="10 5"/>
</svg>
