<svg width="108" height="64" viewBox="0 0 108 64" fill="none" xmlns="http://www.w3.org/2000/svg">
<path d="M41.75 36.5H35C34.8011 36.5 34.6103 36.579 34.4697 36.7197C34.329 36.8603 34.25 37.0511 34.25 37.25C34.25 37.8467 34.0129 38.419 33.591 38.841C33.169 39.2629 32.5967 39.5 32 39.5C31.4033 39.5 30.831 39.2629 30.409 38.841C29.9871 38.419 29.75 37.8467 29.75 37.25C29.75 37.0511 29.671 36.8603 29.5303 36.7197C29.3897 36.579 29.1989 36.5 29 36.5H22.25C22.0511 36.5 21.8603 36.579 21.7197 36.7197C21.579 36.8603 21.5 37.0511 21.5 37.25V40.25C21.5009 41.0454 21.8172 41.8079 22.3796 42.3704C22.9421 42.9328 23.7046 43.2491 24.5 43.25H39.5C40.2954 43.2491 41.0579 42.9328 41.6204 42.3704C42.1828 41.8079 42.4991 41.0454 42.5 40.25V37.25C42.5 37.0511 42.421 36.8603 42.2803 36.7197C42.1397 36.579 41.9489 36.5 41.75 36.5ZM42.4747 28.8069L40.9817 23.2086C40.6845 21.6683 39.5722 20.75 38 20.75H26C25.2125 20.75 24.5469 20.9698 24.0266 21.4034C23.5063 21.837 23.1716 22.4375 23.0188 23.2063L21.5253 28.8069C21.5085 28.8699 21.5 28.9348 21.5 29V31.25C21.5 32.9042 22.8458 35 24.5 35H39.5C41.1542 35 42.5 32.9042 42.5 31.25V29C42.5 28.9348 42.4915 28.8699 42.4747 28.8069ZM40.6517 28.25H35C34.8022 28.249 34.6122 28.3265 34.4715 28.4656C34.3309 28.6046 34.2512 28.7938 34.25 28.9916C34.25 29.5883 34.0129 30.1606 33.591 30.5826C33.169 31.0045 32.5967 31.2416 32 31.2416C31.4033 31.2416 30.831 31.0045 30.409 30.5826C29.9871 30.1606 29.75 29.5883 29.75 28.9916C29.7488 28.7938 29.6691 28.6046 29.5285 28.4656C29.3878 28.3265 29.1978 28.249 29 28.25H23.3483C23.3339 28.25 23.3197 28.2467 23.3068 28.2403C23.2939 28.2339 23.2827 28.2247 23.2739 28.2133C23.2652 28.2018 23.2592 28.1886 23.2564 28.1744C23.2536 28.1603 23.2541 28.1458 23.2578 28.1319L24.4864 23.5156C24.6528 22.6527 25.1338 22.25 26 22.25H38C38.8714 22.25 39.3519 22.6498 39.5117 23.5086L40.7422 28.1319C40.7459 28.1458 40.7464 28.1603 40.7436 28.1744C40.7408 28.1886 40.7348 28.2018 40.7261 28.2133C40.7173 28.2247 40.7061 28.2339 40.6932 28.2403C40.6803 28.2467 40.6661 28.25 40.6517 28.25Z" fill="black"/>
<path d="M66.25 35.75V40.25C66.2517 40.8462 66.4893 41.4175 66.9109 41.8391C67.3325 42.2607 67.9038 42.4983 68.5 42.5H83.5C84.0962 42.4983 84.6675 42.2607 85.0891 41.8391C85.5107 41.4175 85.7483 40.8462 85.75 40.25V35.75" stroke="black" stroke-width="1.5" stroke-linejoin="round"/>
<path d="M66.25 35.75H73M79 35.75H85.75M73 35.75C73 36.5456 73.3161 37.3087 73.8787 37.8713C74.4413 38.4339 75.2044 38.75 76 38.75C76.7956 38.75 77.5587 38.4339 78.1213 37.8713C78.6839 37.3087 79 36.5456 79 35.75" stroke="black" stroke-width="1.5" stroke-linecap="round" stroke-linejoin="round"/>
<path d="M82 21.5H70C68.7812 21.5 67.9844 22.1562 67.75 23.375L66.25 29V33.5C66.2517 34.0962 66.4893 34.6675 66.9109 35.0891C67.3325 35.5107 67.9038 35.7483 68.5 35.75H83.5C84.0962 35.7483 84.6675 35.5107 85.0891 35.0891C85.5107 34.6675 85.7483 34.0962 85.75 33.5V29L84.25 23.375C84.0156 22.1094 83.1719 21.5 82 21.5Z" stroke="black" stroke-width="1.5" stroke-linejoin="round"/>
<path d="M66.25 29H73M79 29H85.75M73 29C73 29.7956 73.3161 30.5587 73.8787 31.1213C74.4413 31.6839 75.2044 32 76 32C76.7956 32 77.5587 31.6839 78.1213 31.1213C78.6839 30.5587 79 29.7956 79 29" stroke="black" stroke-width="1.5" stroke-linecap="round" stroke-linejoin="round"/>
<rect x="0.5" y="0.5" width="107" height="63" rx="4.5" stroke="#9747FF" stroke-dasharray="10 5"/>
</svg>
