<svg width="108" height="64" viewBox="0 0 108 64" fill="none" xmlns="http://www.w3.org/2000/svg">
<path d="M40.4375 24.5H23.5625C22.8376 24.5 22.25 25.0876 22.25 25.8125V38.1875C22.25 38.9124 22.8376 39.5 23.5625 39.5H40.4375C41.1624 39.5 41.75 38.9124 41.75 38.1875V25.8125C41.75 25.0876 41.1624 24.5 40.4375 24.5Z" stroke="black" stroke-width="1.5" stroke-linejoin="round"/>
<path d="M40.4375 35.75H39.3125C38.5876 35.75 38 36.3376 38 37.0625V38.1875C38 38.9124 38.5876 39.5 39.3125 39.5H40.4375C41.1624 39.5 41.75 38.9124 41.75 38.1875V37.0625C41.75 36.3376 41.1624 35.75 40.4375 35.75Z" stroke="black" stroke-width="1.5" stroke-linejoin="round"/>
<path d="M40.4375 32H39.3125C38.5876 32 38 32.5876 38 33.3125V34.4375C38 35.1624 38.5876 35.75 39.3125 35.75H40.4375C41.1624 35.75 41.75 35.1624 41.75 34.4375V33.3125C41.75 32.5876 41.1624 32 40.4375 32Z" stroke="black" stroke-width="1.5" stroke-linejoin="round"/>
<path d="M40.4375 28.25H39.3125C38.5876 28.25 38 28.8376 38 29.5625V30.6875C38 31.4124 38.5876 32 39.3125 32H40.4375C41.1624 32 41.75 31.4124 41.75 30.6875V29.5625C41.75 28.8376 41.1624 28.25 40.4375 28.25Z" stroke="black" stroke-width="1.5" stroke-linejoin="round"/>
<path d="M40.4375 24.5H39.3125C38.5876 24.5 38 25.0876 38 25.8125V26.9375C38 27.6624 38.5876 28.25 39.3125 28.25H40.4375C41.1624 28.25 41.75 27.6624 41.75 26.9375V25.8125C41.75 25.0876 41.1624 24.5 40.4375 24.5Z" stroke="black" stroke-width="1.5" stroke-linejoin="round"/>
<path d="M24.6875 35.75H23.5625C22.8376 35.75 22.25 36.3376 22.25 37.0625V38.1875C22.25 38.9124 22.8376 39.5 23.5625 39.5H24.6875C25.4124 39.5 26 38.9124 26 38.1875V37.0625C26 36.3376 25.4124 35.75 24.6875 35.75Z" stroke="black" stroke-width="1.5" stroke-linejoin="round"/>
<path d="M24.6875 32H23.5625C22.8376 32 22.25 32.5876 22.25 33.3125V34.4375C22.25 35.1624 22.8376 35.75 23.5625 35.75H24.6875C25.4124 35.75 26 35.1624 26 34.4375V33.3125C26 32.5876 25.4124 32 24.6875 32Z" stroke="black" stroke-width="1.5" stroke-linejoin="round"/>
<path d="M24.6875 28.25H23.5625C22.8376 28.25 22.25 28.8376 22.25 29.5625V30.6875C22.25 31.4124 22.8376 32 23.5625 32H24.6875C25.4124 32 26 31.4124 26 30.6875V29.5625C26 28.8376 25.4124 28.25 24.6875 28.25Z" stroke="black" stroke-width="1.5" stroke-linejoin="round"/>
<path d="M24.6875 24.5H23.5625C22.8376 24.5 22.25 25.0876 22.25 25.8125V26.9375C22.25 27.6624 22.8376 28.25 23.5625 28.25H24.6875C25.4124 28.25 26 27.6624 26 26.9375V25.8125C26 25.0876 25.4124 24.5 24.6875 24.5Z" stroke="black" stroke-width="1.5" stroke-linejoin="round"/>
<path d="M36.6875 24.5H27.3125C26.5876 24.5 26 25.0876 26 25.8125V30.6875C26 31.4124 26.5876 32 27.3125 32H36.6875C37.4124 32 38 31.4124 38 30.6875V25.8125C38 25.0876 37.4124 24.5 36.6875 24.5Z" stroke="black" stroke-width="1.5" stroke-linejoin="round"/>
<path d="M36.6875 32H27.3125C26.5876 32 26 32.5876 26 33.3125V38.1875C26 38.9124 26.5876 39.5 27.3125 39.5H36.6875C37.4124 39.5 38 38.9124 38 38.1875V33.3125C38 32.5876 37.4124 32 36.6875 32Z" stroke="black" stroke-width="1.5" stroke-linejoin="round"/>
<path d="M84.4375 23.75H67.5625C67.0157 23.7506 66.4914 23.9681 66.1048 24.3548C65.7181 24.7414 65.5006 25.2657 65.5 25.8125V38.1875C65.5006 38.7343 65.7181 39.2586 66.1048 39.6452C66.4914 40.0319 67.0157 40.2494 67.5625 40.25H84.4375C84.9843 40.2494 85.5086 40.0319 85.8952 39.6452C86.2819 39.2586 86.4994 38.7343 86.5 38.1875V25.8125C86.4994 25.2657 86.2819 24.7414 85.8952 24.3548C85.5086 23.9681 84.9843 23.7506 84.4375 23.75ZM69.25 38.1875C69.25 38.3367 69.1907 38.4798 69.0852 38.5852C68.9798 38.6907 68.8367 38.75 68.6875 38.75H67.5625C67.4133 38.75 67.2702 38.6907 67.1648 38.5852C67.0593 38.4798 67 38.3367 67 38.1875V37.0625C67 36.9133 67.0593 36.7702 67.1648 36.6648C67.2702 36.5593 67.4133 36.5 67.5625 36.5H68.6875C68.8367 36.5 68.9798 36.5593 69.0852 36.6648C69.1907 36.7702 69.25 36.9133 69.25 37.0625V38.1875ZM69.25 34.4375C69.25 34.5867 69.1907 34.7298 69.0852 34.8352C68.9798 34.9407 68.8367 35 68.6875 35H67.5625C67.4133 35 67.2702 34.9407 67.1648 34.8352C67.0593 34.7298 67 34.5867 67 34.4375V33.3125C67 33.1633 67.0593 33.0202 67.1648 32.9148C67.2702 32.8093 67.4133 32.75 67.5625 32.75H68.6875C68.8367 32.75 68.9798 32.8093 69.0852 32.9148C69.1907 33.0202 69.25 33.1633 69.25 33.3125V34.4375ZM69.25 30.6875C69.25 30.8367 69.1907 30.9798 69.0852 31.0852C68.9798 31.1907 68.8367 31.25 68.6875 31.25H67.5625C67.4133 31.25 67.2702 31.1907 67.1648 31.0852C67.0593 30.9798 67 30.8367 67 30.6875V29.5625C67 29.4133 67.0593 29.2702 67.1648 29.1648C67.2702 29.0593 67.4133 29 67.5625 29H68.6875C68.8367 29 68.9798 29.0593 69.0852 29.1648C69.1907 29.2702 69.25 29.4133 69.25 29.5625V30.6875ZM69.25 26.9375C69.25 27.0867 69.1907 27.2298 69.0852 27.3352C68.9798 27.4407 68.8367 27.5 68.6875 27.5H67.5625C67.4133 27.5 67.2702 27.4407 67.1648 27.3352C67.0593 27.2298 67 27.0867 67 26.9375V25.8125C67 25.6633 67.0593 25.5202 67.1648 25.4148C67.2702 25.3093 67.4133 25.25 67.5625 25.25H68.6875C68.8367 25.25 68.9798 25.3093 69.0852 25.4148C69.1907 25.5202 69.25 25.6633 69.25 25.8125V26.9375ZM80.5787 32.75H71.4213C71.2223 32.75 71.0316 32.671 70.8909 32.5303C70.7503 32.3897 70.6713 32.1989 70.6713 32C70.6713 31.8011 70.7503 31.6103 70.8909 31.4697C71.0316 31.329 71.2223 31.25 71.4213 31.25H80.5787C80.7777 31.25 80.9684 31.329 81.1091 31.4697C81.2497 31.6103 81.3287 31.8011 81.3287 32C81.3287 32.1989 81.2497 32.3897 81.1091 32.5303C80.9684 32.671 80.7777 32.75 80.5787 32.75ZM85 38.1875C85 38.3367 84.9407 38.4798 84.8352 38.5852C84.7298 38.6907 84.5867 38.75 84.4375 38.75H83.3125C83.1633 38.75 83.0202 38.6907 82.9148 38.5852C82.8093 38.4798 82.75 38.3367 82.75 38.1875V37.0625C82.75 36.9133 82.8093 36.7702 82.9148 36.6648C83.0202 36.5593 83.1633 36.5 83.3125 36.5H84.4375C84.5867 36.5 84.7298 36.5593 84.8352 36.6648C84.9407 36.7702 85 36.9133 85 37.0625V38.1875ZM85 34.4375C85 34.5867 84.9407 34.7298 84.8352 34.8352C84.7298 34.9407 84.5867 35 84.4375 35H83.3125C83.1633 35 83.0202 34.9407 82.9148 34.8352C82.8093 34.7298 82.75 34.5867 82.75 34.4375V33.3125C82.75 33.1633 82.8093 33.0202 82.9148 32.9148C83.0202 32.8093 83.1633 32.75 83.3125 32.75H84.4375C84.5867 32.75 84.7298 32.8093 84.8352 32.9148C84.9407 33.0202 85 33.1633 85 33.3125V34.4375ZM85 30.6875C85 30.8367 84.9407 30.9798 84.8352 31.0852C84.7298 31.1907 84.5867 31.25 84.4375 31.25H83.3125C83.1633 31.25 83.0202 31.1907 82.9148 31.0852C82.8093 30.9798 82.75 30.8367 82.75 30.6875V29.5625C82.75 29.4133 82.8093 29.2702 82.9148 29.1648C83.0202 29.0593 83.1633 29 83.3125 29H84.4375C84.5867 29 84.7298 29.0593 84.8352 29.1648C84.9407 29.2702 85 29.4133 85 29.5625V30.6875ZM85 26.9375C85 27.0867 84.9407 27.2298 84.8352 27.3352C84.7298 27.4407 84.5867 27.5 84.4375 27.5H83.3125C83.1633 27.5 83.0202 27.4407 82.9148 27.3352C82.8093 27.2298 82.75 27.0867 82.75 26.9375V25.8125C82.75 25.6633 82.8093 25.5202 82.9148 25.4148C83.0202 25.3093 83.1633 25.25 83.3125 25.25H84.4375C84.5867 25.25 84.7298 25.3093 84.8352 25.4148C84.9407 25.5202 85 25.6633 85 25.8125V26.9375Z" fill="black"/>
<rect x="0.5" y="0.5" width="107" height="63" rx="4.5" stroke="#9747FF" stroke-dasharray="10 5"/>
</svg>
