<svg width="108" height="64" viewBox="0 0 108 64" fill="none" xmlns="http://www.w3.org/2000/svg">
<path d="M41.2029 37.1094L35.3473 27.8337C35.1205 27.4739 35.0003 27.0572 35.0004 26.6319V23H35.7298C36.1334 23 36.4798 22.6897 36.4999 22.2861C36.5048 22.1846 36.489 22.0833 36.4536 21.9881C36.4181 21.8929 36.3637 21.8059 36.2936 21.7324C36.2235 21.6589 36.1392 21.6004 36.0459 21.5605C35.9525 21.5205 35.852 21.4999 35.7504 21.5H28.2715C27.8679 21.5 27.5215 21.8103 27.5013 22.2139C27.4964 22.3153 27.5122 22.4167 27.5476 22.5118C27.5831 22.6069 27.6375 22.6939 27.7075 22.7674C27.7775 22.8409 27.8618 22.8994 27.9551 22.9394C28.0484 22.9794 28.1489 23 28.2504 23H29.0004V26.6319C29.0007 27.0571 28.8802 27.4738 28.6531 27.8333L22.7979 37.1094C22.4593 37.6362 22.2696 38.2448 22.249 38.8707C22.2283 39.4966 22.3775 40.1164 22.6807 40.6644C23.3023 41.8058 24.5173 42.5 25.819 42.5H38.1818C39.4835 42.5 40.6985 41.8058 41.3201 40.662C41.6228 40.1144 41.7718 39.495 41.7511 38.8696C41.7305 38.2441 41.5411 37.6359 41.2029 37.1094ZM29.922 28.6344C30.3003 28.035 30.5008 27.3406 30.5004 26.6319V23.1875C30.5004 23.1378 30.5202 23.0901 30.5553 23.0549C30.5905 23.0198 30.6382 23 30.6879 23H33.3129C33.3626 23 33.4103 23.0198 33.4455 23.0549C33.4806 23.0901 33.5004 23.1378 33.5004 23.1875V26.6319C33.5001 27.3407 33.7008 28.0351 34.0793 28.6344L36.7887 32.9248C36.8245 32.9816 36.8444 33.047 36.8464 33.1141C36.8484 33.1812 36.8323 33.2476 36.7998 33.3064C36.7673 33.3651 36.7197 33.4141 36.6618 33.4482C36.6039 33.4822 36.538 33.5001 36.4709 33.5H27.5299C27.4628 33.5 27.3969 33.4821 27.3392 33.448C27.2814 33.4139 27.2338 33.3649 27.2014 33.3062C27.1689 33.2474 27.1529 33.181 27.1549 33.114C27.1568 33.0469 27.1768 32.9816 27.2126 32.9248L29.922 28.6344Z" fill="black"/>
<path d="M72.25 22.25H79.75M69.5313 34.25H82.4688M73.75 22.25V26.6319C73.7499 27.1989 73.5894 27.7544 73.2869 28.2341L67.4317 37.5073C66.2688 39.3491 67.592 41.75 69.7694 41.75H82.2306C84.408 41.75 85.7313 39.3491 84.5683 37.5073L78.7127 28.2341C78.4103 27.7544 78.2499 27.1989 78.25 26.6319V22.25" stroke="black" stroke-width="1.5" stroke-miterlimit="10" stroke-linecap="round"/>
<rect x="0.5" y="0.5" width="107" height="63" rx="4.5" stroke="#9747FF" stroke-dasharray="10 5"/>
</svg>
