<svg width="108" height="64" viewBox="0 0 108 64" fill="none" xmlns="http://www.w3.org/2000/svg">
<path d="M29.5625 22.25H23.1875C22.6697 22.25 22.25 22.6697 22.25 23.1875V29.5625C22.25 30.0803 22.6697 30.5 23.1875 30.5H29.5625C30.0803 30.5 30.5 30.0803 30.5 29.5625V23.1875C30.5 22.6697 30.0803 22.25 29.5625 22.25Z" stroke="black" stroke-width="1.5" stroke-linecap="round" stroke-linejoin="round"/>
<path d="M40.8125 22.25H34.4375C33.9197 22.25 33.5 22.6697 33.5 23.1875V29.5625C33.5 30.0803 33.9197 30.5 34.4375 30.5H40.8125C41.3303 30.5 41.75 30.0803 41.75 29.5625V23.1875C41.75 22.6697 41.3303 22.25 40.8125 22.25Z" stroke="black" stroke-width="1.5" stroke-linecap="round" stroke-linejoin="round"/>
<path d="M29.5625 33.5H23.1875C22.6697 33.5 22.25 33.9197 22.25 34.4375V40.8125C22.25 41.3303 22.6697 41.75 23.1875 41.75H29.5625C30.0803 41.75 30.5 41.3303 30.5 40.8125V34.4375C30.5 33.9197 30.0803 33.5 29.5625 33.5Z" stroke="black" stroke-width="1.5" stroke-linecap="round" stroke-linejoin="round"/>
<path d="M40.8125 33.5H34.4375C33.9197 33.5 33.5 33.9197 33.5 34.4375V40.8125C33.5 41.3303 33.9197 41.75 34.4375 41.75H40.8125C41.3303 41.75 41.75 41.3303 41.75 40.8125V34.4375C41.75 33.9197 41.3303 33.5 40.8125 33.5Z" stroke="black" stroke-width="1.5" stroke-linecap="round" stroke-linejoin="round"/>
<path d="M73.5625 31.25H67.1875C66.7399 31.25 66.3107 31.0722 65.9943 30.7557C65.6778 30.4393 65.5 30.0101 65.5 29.5625V23.1875C65.5 22.7399 65.6778 22.3107 65.9943 21.9943C66.3107 21.6778 66.7399 21.5 67.1875 21.5H73.5625C74.0101 21.5 74.4393 21.6778 74.7557 21.9943C75.0722 22.3107 75.25 22.7399 75.25 23.1875V29.5625C75.25 30.0101 75.0722 30.4393 74.7557 30.7557C74.4393 31.0722 74.0101 31.25 73.5625 31.25ZM84.8125 31.25H78.4375C77.9899 31.25 77.5607 31.0722 77.2443 30.7557C76.9278 30.4393 76.75 30.0101 76.75 29.5625V23.1875C76.75 22.7399 76.9278 22.3107 77.2443 21.9943C77.5607 21.6778 77.9899 21.5 78.4375 21.5H84.8125C85.2601 21.5 85.6893 21.6778 86.0057 21.9943C86.3222 22.3107 86.5 22.7399 86.5 23.1875V29.5625C86.5 30.0101 86.3222 30.4393 86.0057 30.7557C85.6893 31.0722 85.2601 31.25 84.8125 31.25ZM73.5625 42.5H67.1875C66.7399 42.5 66.3107 42.3222 65.9943 42.0057C65.6778 41.6893 65.5 41.2601 65.5 40.8125V34.4375C65.5 33.9899 65.6778 33.5607 65.9943 33.2443C66.3107 32.9278 66.7399 32.75 67.1875 32.75H73.5625C74.0101 32.75 74.4393 32.9278 74.7557 33.2443C75.0722 33.5607 75.25 33.9899 75.25 34.4375V40.8125C75.25 41.2601 75.0722 41.6893 74.7557 42.0057C74.4393 42.3222 74.0101 42.5 73.5625 42.5ZM84.8125 42.5H78.4375C77.9899 42.5 77.5607 42.3222 77.2443 42.0057C76.9278 41.6893 76.75 41.2601 76.75 40.8125V34.4375C76.75 33.9899 76.9278 33.5607 77.2443 33.2443C77.5607 32.9278 77.9899 32.75 78.4375 32.75H84.8125C85.2601 32.75 85.6893 32.9278 86.0057 33.2443C86.3222 33.5607 86.5 33.9899 86.5 34.4375V40.8125C86.5 41.2601 86.3222 41.6893 86.0057 42.0057C85.6893 42.3222 85.2601 42.5 84.8125 42.5Z" fill="black"/>
<rect x="0.5" y="0.5" width="107" height="63" rx="4.5" stroke="#9747FF" stroke-dasharray="10 5"/>
</svg>
