<svg width="108" height="64" viewBox="0 0 108 64" fill="none" xmlns="http://www.w3.org/2000/svg">
<path d="M23.8906 38C23.2812 36.4531 22.25 33.6233 22.25 32C22.25 26.615 26.9998 22.25 32 22.25C37.0002 22.25 41.75 26.615 41.75 32C41.75 33.6233 40.6719 36.5469 40.1094 38" stroke="black" stroke-width="1.5" stroke-linecap="round" stroke-linejoin="round"/>
<path d="M25.081 32.6623L24.4393 33.0373C23.0223 33.867 22.9533 36.4315 24.2808 38.7654C25.6083 41.0993 27.8373 42.319 29.2543 41.4898L29.896 41.1148C30.0663 41.0134 30.1901 40.8492 30.2408 40.6575C30.2914 40.4659 30.2649 40.262 30.1669 40.0896L26.094 32.9375C26.046 32.8524 25.9815 32.7778 25.9045 32.7179C25.8274 32.6579 25.7392 32.6139 25.645 32.5883C25.5507 32.5627 25.4524 32.5561 25.3556 32.5688C25.2588 32.5815 25.1654 32.6133 25.081 32.6623V32.6623ZM38.9194 32.6623L39.5612 33.0373C40.9782 33.8665 41.049 36.4311 39.7196 38.765C38.3902 41.0989 36.1632 42.3186 34.7462 41.4893L34.1044 41.1143C33.9341 41.0129 33.8103 40.8487 33.7597 40.6571C33.709 40.4654 33.7355 40.2615 33.8335 40.0892L37.9065 32.9375C37.9545 32.8524 38.0189 32.7778 38.096 32.7179C38.1731 32.6579 38.2613 32.6139 38.3555 32.5883C38.4497 32.5627 38.5481 32.5561 38.6449 32.5688C38.7417 32.5815 38.835 32.6133 38.9194 32.6623V32.6623Z" stroke="black" stroke-width="1.5" stroke-miterlimit="10"/>
<path d="M83.2731 24.5684C81.2702 22.6184 78.6194 21.5 76 21.5C73.3806 21.5 70.7298 22.6184 68.7269 24.5684C66.6461 26.5939 65.5 29.2344 65.5 32C65.5 33.2502 65.9102 34.8636 67.0412 37.8852C68.1723 40.9067 70.4219 42.1719 71.372 42.3786C71.6444 42.4381 71.9636 42.5 72.25 42.5C72.7435 42.5004 73.2285 42.3711 73.6562 42.125L74.3125 41.75C75.0189 41.3366 75.2252 40.4314 74.8188 39.718L70.7444 32.5662C70.6473 32.3951 70.5172 32.2449 70.3617 32.1244C70.2061 32.0039 70.0283 31.9155 69.8383 31.8642C69.6483 31.8129 69.4501 31.7999 69.2551 31.8258C69.06 31.8516 68.872 31.916 68.702 32.015L68.0603 32.39C67.8137 32.5345 67.5921 32.718 67.4041 32.9333C67.3807 32.9607 67.35 32.9808 67.3156 32.9912C67.2811 33.0016 67.2444 33.0018 67.2098 32.9919C67.1753 32.9821 67.1442 32.9624 67.1205 32.9354C67.0968 32.9084 67.0813 32.8751 67.0759 32.8395C67.0287 32.5621 67.0033 32.2814 67 32C67 29.6417 67.9844 27.3837 69.7731 25.6433C71.5 23.9633 73.7683 23 76 23C78.2317 23 80.5 23.9633 82.2269 25.6433C84.0156 27.3837 85 29.6417 85 32C84.9958 32.2815 84.9694 32.5622 84.9212 32.8395C84.9159 32.8751 84.9004 32.9084 84.8767 32.9354C84.8529 32.9624 84.8219 32.9821 84.7873 32.9919C84.7528 33.0018 84.7161 33.0016 84.6816 32.9912C84.6472 32.9808 84.6165 32.9607 84.5931 32.9333C84.4051 32.718 84.1835 32.5345 83.9369 32.39L83.2952 32.015C83.1251 31.916 82.9372 31.8516 82.7421 31.8258C82.5471 31.7999 82.3488 31.8129 82.1589 31.8642C81.9689 31.9155 81.791 32.0039 81.6355 32.1244C81.48 32.2449 81.3499 32.3951 81.2528 32.5662L77.1813 39.718C76.7748 40.4314 76.9811 41.3366 77.6875 41.75L78.3438 42.125C78.7715 42.3711 79.2565 42.5004 79.75 42.5C80.0364 42.5 80.3556 42.4381 80.628 42.3786C81.5781 42.1719 83.8281 40.9062 84.9587 37.8852C86.0894 34.8641 86.5 33.2502 86.5 32C86.5 29.2344 85.3539 26.5939 83.2731 24.5684Z" fill="black"/>
<rect x="0.5" y="0.5" width="107" height="63" rx="4.5" stroke="#9747FF" stroke-dasharray="10 5"/>
</svg>
