<svg width="108" height="64" viewBox="0 0 108 64" fill="none" xmlns="http://www.w3.org/2000/svg">
<!-- <path d="M36.5436 23.75C33.5005 23.75 32.0005 26.75 32.0005 26.75C32.0005 26.75 30.5005 23.75 27.4574 23.75C24.9842 23.75 23.0258 25.8191 23.0005 28.288C22.9489 33.4128 27.0659 37.0573 31.5786 40.1202C31.703 40.2048 31.85 40.2501 32.0005 40.2501C32.151 40.2501 32.2979 40.2048 32.4224 40.1202C36.9345 37.0573 41.0516 33.4128 41.0005 28.288C40.9752 25.8191 39.0167 23.75 36.5436 23.75V23.75Z" stroke="black" stroke-width="1.5" stroke-linecap="round" stroke-linejoin="round"/> -->
<path d="M75.9995 41C75.6985 40.9996 75.4045 40.9086 75.1558 40.7389C71.4719 38.2381 69.8767 36.5234 68.9969 35.4514C67.1219 33.1663 66.2242 30.8202 66.2495 28.2795C66.2791 25.3681 68.6149 23 71.4564 23C73.5227 23 74.9538 24.1639 75.7872 25.1333C75.8136 25.1637 75.8462 25.1881 75.8829 25.2048C75.9195 25.2215 75.9593 25.2301 75.9995 25.2301C76.0398 25.2301 76.0796 25.2215 76.1162 25.2048C76.1529 25.1881 76.1855 25.1637 76.2119 25.1333C77.0453 24.163 78.4764 23 80.5427 23C83.3842 23 85.72 25.3681 85.7495 28.28C85.7749 30.8211 84.8763 33.1672 83.0022 35.4519C82.1224 36.5239 80.5272 38.2386 76.8433 40.7394C76.5946 40.9089 76.3006 40.9998 75.9995 41Z" fill="black"/>
<!-- <rect x="0.5" y="0.5" width="107" height="63" rx="4.5" stroke="#9747FF" stroke-dasharray="10 5"/> -->
</svg>
