<svg width="108" height="64" viewBox="0 0 108 64" fill="none" xmlns="http://www.w3.org/2000/svg">
<path d="M32 23.75C30.3683 23.75 28.7733 24.2339 27.4165 25.1404C26.0598 26.0469 25.0024 27.3354 24.378 28.8429C23.7536 30.3504 23.5902 32.0092 23.9085 33.6095C24.2269 35.2098 25.0126 36.6798 26.1664 37.8336C27.3202 38.9874 28.7902 39.7732 30.3905 40.0915C31.9909 40.4098 33.6497 40.2464 35.1571 39.622C36.6646 38.9976 37.9531 37.9402 38.8596 36.5835C39.7662 35.2268 40.25 33.6317 40.25 32C40.25 29.812 39.3808 27.7135 37.8336 26.1664C36.2865 24.6192 34.188 23.75 32 23.75Z" stroke="black" stroke-width="1.5" stroke-miterlimit="10"/>
<path d="M29.375 29.4823C29.375 29.4823 29.4144 28.662 30.2923 27.9556C30.8131 27.5361 31.4375 27.4147 32 27.4062C32.5123 27.3997 32.9698 27.4845 33.2436 27.6148C33.7123 27.838 34.625 28.3826 34.625 29.5409C34.625 30.7597 33.8281 31.3133 32.9202 31.9222C32.0122 32.5311 31.7656 33.192 31.7656 33.875" stroke="black" stroke-width="1.3125" stroke-miterlimit="10" stroke-linecap="round"/>
<path d="M31.7188 37.25C32.2365 37.25 32.6562 36.8303 32.6562 36.3125C32.6562 35.7947 32.2365 35.375 31.7188 35.375C31.201 35.375 30.7812 35.7947 30.7812 36.3125C30.7812 36.8303 31.201 37.25 31.7188 37.25Z" fill="black"/>
<path d="M76 23C71.0312 23 67 27.0312 67 32C67 36.9688 71.0312 41 76 41C80.9688 41 85 36.9688 85 32C85 27.0312 80.9688 23 76 23ZM75.7188 37.25C75.5333 37.25 75.3521 37.195 75.1979 37.092C75.0437 36.989 74.9236 36.8426 74.8526 36.6713C74.7817 36.5 74.7631 36.3115 74.7993 36.1296C74.8354 35.9477 74.9247 35.7807 75.0558 35.6496C75.1869 35.5185 75.354 35.4292 75.5359 35.393C75.7177 35.3568 75.9062 35.3754 76.0775 35.4464C76.2488 35.5173 76.3952 35.6375 76.4983 35.7917C76.6013 35.9458 76.6562 36.1271 76.6562 36.3125C76.6562 36.5611 76.5575 36.7996 76.3817 36.9754C76.2058 37.1512 75.9674 37.25 75.7188 37.25ZM77.2863 32.4688C76.5264 32.9788 76.4219 33.4461 76.4219 33.875C76.4219 34.049 76.3527 34.216 76.2297 34.339C76.1066 34.4621 75.9397 34.5312 75.7656 34.5312C75.5916 34.5312 75.4247 34.4621 75.3016 34.339C75.1785 34.216 75.1094 34.049 75.1094 33.875C75.1094 32.848 75.5819 32.0314 76.5541 31.3784C77.4578 30.7719 77.9688 30.3875 77.9688 29.5423C77.9688 28.9677 77.6406 28.5312 76.9614 28.2083C76.8016 28.1323 76.4458 28.0583 76.008 28.0634C75.4586 28.0705 75.032 28.2017 74.7034 28.4661C74.0837 28.9648 74.0312 29.5077 74.0312 29.5156C74.0271 29.6018 74.006 29.6863 73.9692 29.7644C73.9324 29.8424 73.8805 29.9124 73.8167 29.9704C73.7528 30.0284 73.6781 30.0732 73.5969 30.1024C73.5157 30.1315 73.4295 30.1444 73.3434 30.1402C73.2572 30.1361 73.1727 30.115 73.0946 30.0782C73.0166 30.0414 72.9466 29.9895 72.8886 29.9256C72.8306 29.8618 72.7857 29.7871 72.7566 29.7059C72.7275 29.6247 72.7146 29.5385 72.7188 29.4523C72.7239 29.3384 72.8031 28.3123 73.8798 27.4461C74.4381 26.997 75.1483 26.7636 75.9892 26.7533C76.5845 26.7463 77.1437 26.847 77.523 27.0261C78.6578 27.5628 79.2812 28.4577 79.2812 29.5423C79.2812 31.1281 78.2214 31.8402 77.2863 32.4688Z" fill="black"/>
<rect x="0.5" y="0.5" width="107" height="63" rx="4.5" stroke="#9747FF" stroke-dasharray="10 5"/>
</svg>
