<svg width="108" height="64" viewBox="0 0 108 64" fill="none" xmlns="http://www.w3.org/2000/svg">
<path d="M37.25 21.5H26.75C25.5074 21.5 24.5 22.5074 24.5 23.75V40.25C24.5 41.4926 25.5074 42.5 26.75 42.5H37.25C38.4926 42.5 39.5 41.4926 39.5 40.25V23.75C39.5 22.5074 38.4926 21.5 37.25 21.5Z" stroke="black" stroke-width="1.5" stroke-linejoin="round"/>
<path d="M29.75 23.75H34.25" stroke="black" stroke-width="1.5" stroke-linecap="round" stroke-linejoin="round"/>
<path d="M35.6319 33.3364C35.455 33.1479 35.2407 32.9984 35.0028 32.8974C34.7648 32.7965 34.5084 32.7462 34.25 32.7499C33.7062 32.7499 33.2145 32.9567 32.8653 33.3326C32.5161 33.7085 32.3403 34.2289 32.3806 34.7857C32.4608 35.8864 33.2994 36.7812 34.25 36.7812C35.2006 36.7812 36.0378 35.8864 36.1189 34.7867C36.1601 34.2345 35.9867 33.7193 35.6319 33.3364ZM37.4229 40.9999H31.077C30.9944 41.0013 30.9125 40.9844 30.8371 40.9507C30.7617 40.9169 30.6946 40.867 30.6406 40.8045C30.582 40.7343 30.54 40.6519 30.5176 40.5633C30.4952 40.4747 30.493 40.3822 30.5112 40.2926C30.6636 39.4695 31.1384 38.7781 31.8847 38.2929C32.5475 37.8621 33.3875 37.6249 34.25 37.6249C35.1125 37.6249 35.9525 37.8621 36.6153 38.2929C37.3615 38.7781 37.8364 39.4695 37.9887 40.2926C38.0069 40.3822 38.0048 40.4747 37.9824 40.5633C37.96 40.6519 37.9179 40.7343 37.8594 40.8045C37.8053 40.867 37.7383 40.9169 37.6629 40.9507C37.5875 40.9844 37.5056 41.0013 37.4229 40.9999Z" fill="black"/>
<path d="M81.25 20.75H70.75C69.9546 20.7509 69.1921 21.0672 68.6296 21.6296C68.0672 22.1921 67.7509 22.9546 67.75 23.75V40.25C67.7509 41.0454 68.0672 41.8079 68.6296 42.3704C69.1921 42.9328 69.9546 43.2491 70.75 43.25H81.25C82.0454 43.2491 82.8079 42.9328 83.3704 42.3704C83.9328 41.8079 84.2491 41.0454 84.25 40.25V23.75C84.2491 22.9546 83.9328 22.1921 83.3704 21.6296C82.8079 21.0672 82.0454 20.7509 81.25 20.75ZM79.6319 33.3364C79.9867 33.7194 80.1602 34.2345 80.1189 34.7867C80.0378 35.8864 79.1992 36.7812 78.25 36.7812C77.3008 36.7812 76.4608 35.8864 76.3806 34.7867C76.3403 34.2289 76.5123 33.7128 76.8653 33.3336C77.2183 32.9544 77.7063 32.75 78.25 32.75C78.5085 32.7463 78.7648 32.7965 79.0028 32.8975C79.2407 32.9985 79.455 33.1479 79.6319 33.3364ZM73 23.75C73 23.5511 73.079 23.3603 73.2197 23.2197C73.3603 23.079 73.5511 23 73.75 23H78.25C78.4489 23 78.6397 23.079 78.7803 23.2197C78.921 23.3603 79 23.5511 79 23.75C79 23.9489 78.921 24.1397 78.7803 24.2803C78.6397 24.421 78.4489 24.5 78.25 24.5H73.75C73.5511 24.5 73.3603 24.421 73.2197 24.2803C73.079 24.1397 73 23.9489 73 23.75ZM81.8594 40.8045C81.8054 40.867 81.7383 40.917 81.6629 40.9507C81.5875 40.9845 81.5056 41.0013 81.423 41H75.077C74.9944 41.0013 74.9125 40.9845 74.8371 40.9507C74.7617 40.917 74.6946 40.867 74.6406 40.8045C74.5821 40.7344 74.54 40.6519 74.5176 40.5633C74.4952 40.4747 74.4931 40.3822 74.5113 40.2927C74.6636 39.4695 75.1384 38.7781 75.8847 38.293C76.5475 37.8622 77.3875 37.625 78.25 37.625C79.1125 37.625 79.9525 37.8622 80.6153 38.293C81.3616 38.7781 81.8364 39.4695 81.9888 40.2927C82.007 40.3822 82.0048 40.4747 81.9824 40.5633C81.96 40.6519 81.9179 40.7344 81.8594 40.8045Z" fill="black"/>
<rect x="0.5" y="0.5" width="107" height="63" rx="4.5" stroke="#9747FF" stroke-dasharray="10 5"/>
</svg>
