<svg width="108" height="64" viewBox="0 0 108 64" fill="none" xmlns="http://www.w3.org/2000/svg">
<path d="M31.625 23C26.862 23 23 26.862 23 31.625C23 36.388 26.862 40.25 31.625 40.25C36.388 40.25 40.25 36.388 40.25 31.625C40.25 26.862 36.388 23 31.625 23Z" stroke="black" stroke-width="1.5" stroke-miterlimit="10"/>
<path d="M30.3125 30.3125H31.8125V35.75" stroke="black" stroke-width="1.5" stroke-linecap="round" stroke-linejoin="round"/>
<path d="M29.75 35.9375H33.875" stroke="black" stroke-width="1.5" stroke-miterlimit="10" stroke-linecap="round"/>
<path d="M31.625 26.0938C31.384 26.0938 31.1483 26.1652 30.9479 26.2991C30.7475 26.4331 30.5913 26.6234 30.499 26.8461C30.4068 27.0688 30.3826 27.3139 30.4297 27.5503C30.4767 27.7867 30.5928 28.0038 30.7632 28.1743C30.9337 28.3447 31.1508 28.4608 31.3872 28.5078C31.6236 28.5549 31.8687 28.5307 32.0914 28.4385C32.3141 28.3462 32.5044 28.19 32.6384 27.9896C32.7723 27.7892 32.8438 27.5535 32.8438 27.3125C32.8438 26.9893 32.7153 26.6793 32.4868 26.4507C32.2582 26.2222 31.9482 26.0938 31.625 26.0938Z" fill="black"/>
<path d="M76 22.625C70.8306 22.625 66.625 26.8306 66.625 32C66.625 37.1694 70.8306 41.375 76 41.375C81.1694 41.375 85.375 37.1694 85.375 32C85.375 26.8306 81.1694 22.625 76 22.625ZM76 26.4688C76.241 26.4688 76.4767 26.5402 76.6771 26.6741C76.8775 26.8081 77.0337 26.9984 77.126 27.2211C77.2182 27.4438 77.2424 27.6889 77.1953 27.9253C77.1483 28.1617 77.0322 28.3788 76.8618 28.5493C76.6913 28.7197 76.4742 28.8358 76.2378 28.8828C76.0014 28.9299 75.7563 28.9057 75.5336 28.8135C75.3109 28.7212 75.1206 28.565 74.9866 28.3646C74.8527 28.1642 74.7812 27.9285 74.7812 27.6875C74.7812 27.3643 74.9097 27.0543 75.1382 26.8257C75.3668 26.5972 75.6768 26.4688 76 26.4688ZM78.25 37.0625H74.125C73.9261 37.0625 73.7353 36.9835 73.5947 36.8428C73.454 36.7022 73.375 36.5114 73.375 36.3125C73.375 36.1136 73.454 35.9228 73.5947 35.7822C73.7353 35.6415 73.9261 35.5625 74.125 35.5625H75.4375V31.4375H74.6875C74.4886 31.4375 74.2978 31.3585 74.1572 31.2178C74.0165 31.0772 73.9375 30.8864 73.9375 30.6875C73.9375 30.4886 74.0165 30.2978 74.1572 30.1572C74.2978 30.0165 74.4886 29.9375 74.6875 29.9375H76.1875C76.3864 29.9375 76.5772 30.0165 76.7178 30.1572C76.8585 30.2978 76.9375 30.4886 76.9375 30.6875V35.5625H78.25C78.4489 35.5625 78.6397 35.6415 78.7803 35.7822C78.921 35.9228 79 36.1136 79 36.3125C79 36.5114 78.921 36.7022 78.7803 36.8428C78.6397 36.9835 78.4489 37.0625 78.25 37.0625Z" fill="black"/>
<rect x="0.5" y="0.5" width="107" height="63" rx="4.5" stroke="#9747FF" stroke-dasharray="10 5"/>
</svg>
