<svg width="108" height="64" viewBox="0 0 108 64" fill="none" xmlns="http://www.w3.org/2000/svg">
<path d="M35.75 29.75V25.2969C35.75 24.3023 35.3549 23.3485 34.6517 22.6452C33.9484 21.942 32.9946 21.5469 32 21.5469C31.0054 21.5469 30.0516 21.942 29.3483 22.6452C28.6451 23.3485 28.25 24.3023 28.25 25.2969V29.75" stroke="black" stroke-width="1.5" stroke-linecap="round" stroke-linejoin="round"/>
<path d="M37.25 29.75H26.75C25.5074 29.75 24.5 30.7574 24.5 32V40.25C24.5 41.4926 25.5074 42.5 26.75 42.5H37.25C38.4926 42.5 39.5 41.4926 39.5 40.25V32C39.5 30.7574 38.4926 29.75 37.25 29.75Z" stroke="black" stroke-width="1.5" stroke-linecap="round" stroke-linejoin="round"/>
<path d="M81.25 29H80.5V25.25C80.5 24.0565 80.0259 22.9119 79.182 22.068C78.3381 21.2241 77.1935 20.75 76 20.75C74.8065 20.75 73.6619 21.2241 72.818 22.068C71.9741 22.9119 71.5 24.0565 71.5 25.25V29H70.75C69.9546 29.0009 69.1921 29.3172 68.6296 29.8796C68.0672 30.4421 67.7509 31.2046 67.75 32V40.25C67.7509 41.0454 68.0672 41.8079 68.6296 42.3704C69.1921 42.9328 69.9546 43.2491 70.75 43.25H81.25C82.0454 43.2491 82.8079 42.9328 83.3704 42.3704C83.9328 41.8079 84.2491 41.0454 84.25 40.25V32C84.2491 31.2046 83.9328 30.4421 83.3704 29.8796C82.8079 29.3172 82.0454 29.0009 81.25 29ZM79 29H73V25.25C73 24.4544 73.3161 23.6913 73.8787 23.1287C74.4413 22.5661 75.2044 22.25 76 22.25C76.7956 22.25 77.5587 22.5661 78.1213 23.1287C78.6839 23.6913 79 24.4544 79 25.25V29Z" fill="black"/>
<rect x="0.5" y="0.5" width="107" height="63" rx="4.5" stroke="#9747FF" stroke-dasharray="10 5"/>
</svg>
