<svg width="108" height="64" viewBox="0 0 108 64" fill="none" xmlns="http://www.w3.org/2000/svg">
<path d="M34.25 35.75V37.625C34.25 38.1223 34.0525 38.5992 33.7008 38.9508C33.3492 39.3025 32.8723 39.5 32.375 39.5H24.875C24.3777 39.5 23.9008 39.3025 23.5492 38.9508C23.1975 38.5992 23 38.1223 23 37.625V26.375C23 25.8777 23.1975 25.4008 23.5492 25.0492C23.9008 24.6975 24.3777 24.5 24.875 24.5H32C33.0355 24.5 34.25 25.3395 34.25 26.375V28.25M37.25 35.75L41 32L37.25 28.25M28.25 32H40.25" stroke="black" stroke-width="1.5" stroke-linecap="round" stroke-linejoin="round"/>
<path d="M71.5 32C71.5 31.8011 71.579 31.6103 71.7197 31.4697C71.8603 31.329 72.0511 31.25 72.25 31.25H79V26.375C79 24.875 77.4161 23.75 76 23.75H68.875C68.179 23.7507 67.5118 24.0275 67.0197 24.5197C66.5275 25.0118 66.2507 25.679 66.25 26.375V37.625C66.2507 38.321 66.5275 38.9882 67.0197 39.4803C67.5118 39.9725 68.179 40.2493 68.875 40.25H76.375C77.071 40.2493 77.7382 39.9725 78.2303 39.4803C78.7225 38.9882 78.9993 38.321 79 37.625V32.75H72.25C72.0511 32.75 71.8603 32.671 71.7197 32.5303C71.579 32.3897 71.5 32.1989 71.5 32ZM85.5302 31.4698L81.7802 27.7198C81.6384 27.5851 81.4495 27.5111 81.254 27.5136C81.0584 27.5161 80.8715 27.5949 80.7332 27.7332C80.5949 27.8715 80.5161 28.0584 80.5136 28.254C80.5111 28.4495 80.5851 28.6384 80.7198 28.7802L83.1892 31.25H79V32.75H83.1892L80.7198 35.2198C80.6473 35.2888 80.5892 35.3716 80.5492 35.4633C80.5091 35.555 80.4878 35.6539 80.4865 35.754C80.4852 35.8541 80.504 35.9534 80.5417 36.0461C80.5794 36.1389 80.6353 36.2231 80.7061 36.2939C80.7769 36.3647 80.8611 36.4206 80.9539 36.4583C81.0466 36.496 81.1459 36.5148 81.246 36.5135C81.3461 36.5122 81.445 36.4909 81.5367 36.4508C81.6284 36.4108 81.7112 36.3527 81.7802 36.2802L85.5302 32.5302C85.6707 32.3895 85.7497 32.1988 85.7497 32C85.7497 31.8012 85.6707 31.6105 85.5302 31.4698Z" fill="black"/>
<rect x="0.5" y="0.5" width="107" height="63" rx="4.5" stroke="#9747FF" stroke-dasharray="10 5"/>
</svg>
