<svg width="108" height="64" viewBox="0 0 108 64" fill="none" xmlns="http://www.w3.org/2000/svg">
<path d="M39.875 24.5H24.125C23.0895 24.5 22.25 25.3395 22.25 26.375V37.625C22.25 38.6605 23.0895 39.5 24.125 39.5H39.875C40.9105 39.5 41.75 38.6605 41.75 37.625V26.375C41.75 25.3395 40.9105 24.5 39.875 24.5Z" stroke="black" stroke-width="1.5" stroke-linecap="round" stroke-linejoin="round"/>
<path d="M25.25 27.5L32 32.75L38.75 27.5" stroke="black" stroke-width="1.5" stroke-linecap="round" stroke-linejoin="round"/>
<path d="M83.875 23.75H68.125C67.429 23.7507 66.7618 24.0275 66.2697 24.5197C65.7775 25.0118 65.5007 25.679 65.5 26.375V37.625C65.5007 38.321 65.7775 38.9882 66.2697 39.4803C66.7618 39.9725 67.429 40.2493 68.125 40.25H83.875C84.571 40.2493 85.2382 39.9725 85.7303 39.4803C86.2225 38.9882 86.4993 38.321 86.5 37.625V26.375C86.4993 25.679 86.2225 25.0118 85.7303 24.5197C85.2382 24.0275 84.571 23.7507 83.875 23.75ZM83.2103 28.092L76.4603 33.342C76.3287 33.4444 76.1667 33.4999 76 33.4999C75.8333 33.4999 75.6713 33.4444 75.5397 33.342L68.7897 28.092C68.7104 28.0321 68.6438 27.9571 68.5937 27.8712C68.5437 27.7854 68.5112 27.6904 68.4981 27.5919C68.4851 27.4934 68.4918 27.3933 68.5178 27.2973C68.5438 27.2014 68.5886 27.1116 68.6496 27.0332C68.7106 26.9547 68.7866 26.8892 68.8731 26.8403C68.9597 26.7915 69.0551 26.7603 69.1538 26.7487C69.2525 26.737 69.3525 26.7451 69.448 26.7725C69.5436 26.7998 69.6327 26.8459 69.7103 26.908L76 31.7998L82.2897 26.908C82.447 26.7892 82.6447 26.7371 82.84 26.763C83.0354 26.7888 83.2128 26.8905 83.3338 27.0461C83.4547 27.2017 83.5096 27.3987 83.4865 27.5944C83.4634 27.7901 83.3642 27.9689 83.2103 28.092Z" fill="black"/>
<rect x="0.5" y="0.5" width="107" height="63" rx="4.5" stroke="#9747FF" stroke-dasharray="10 5"/>
</svg>
