<svg width="108" height="64" viewBox="0 0 108 64" fill="none" xmlns="http://www.w3.org/2000/svg">
<path d="M35.2501 25.204C34.1126 25.2033 32.9938 25.4935 32.0001 26.047C31.0064 25.4935 29.8876 25.2033 28.7501 25.204C26.9477 25.204 25.2191 25.92 23.9446 27.1945C22.6701 28.469 21.9541 30.1976 21.9541 32C21.9541 33.8024 22.6701 35.531 23.9446 36.8055C25.2191 38.08 26.9477 38.796 28.7501 38.796C29.8876 38.7967 31.0064 38.5065 32.0001 37.953C32.9938 38.5065 34.1126 38.7967 35.2501 38.796C37.0525 38.796 38.7811 38.08 40.0556 36.8055C41.3301 35.531 42.0461 33.8024 42.0461 32C42.0461 30.1976 41.3301 28.469 40.0556 27.1945C38.7811 25.92 37.0525 25.204 35.2501 25.204ZM28.7501 37.796C27.2129 37.796 25.7387 37.1853 24.6517 36.0984C23.5647 35.0114 22.9541 33.5372 22.9541 32C22.9541 30.4628 23.5647 28.9886 24.6517 27.9016C25.7387 26.8146 27.2129 26.204 28.7501 26.204C29.5421 26.204 30.3251 26.37 31.0481 26.691C30.2529 27.3286 29.6111 28.1367 29.1701 29.0556C28.7291 29.9745 28.5002 30.9807 28.5002 32C28.5002 33.0192 28.7291 34.0255 29.1701 34.9444C29.6111 35.8633 30.2529 36.6714 31.0481 37.309C30.3244 37.6298 29.5417 37.7957 28.7501 37.796ZM32.0001 36.776C31.2282 36.2414 30.5975 35.5276 30.1621 34.6958C29.7267 33.8639 29.4995 32.9389 29.5001 32C29.4993 31.0609 29.7264 30.1357 30.1619 29.3036C30.5973 28.4716 31.2281 27.7576 32.0001 27.223C32.7718 27.758 33.4023 28.4721 33.8378 29.304C34.2733 30.1359 34.5008 31.061 34.5008 32C34.5008 32.939 34.2733 33.864 33.8378 34.696C33.4023 35.5279 32.7718 36.2419 32.0001 36.777V36.776ZM35.2501 37.796C34.4585 37.7957 33.6758 37.6298 32.9521 37.309C33.7473 36.6714 34.3891 35.8633 34.8301 34.9444C35.2711 34.0255 35.5 33.0192 35.5 32C35.5 30.9807 35.2711 29.9745 34.8301 29.0556C34.3891 28.1367 33.7473 27.3286 32.9521 26.691C33.6758 26.3702 34.4585 26.2043 35.2501 26.204C36.7873 26.204 38.2615 26.8146 39.3485 27.9016C40.4355 28.9886 41.0461 30.4628 41.0461 32C41.0461 33.5372 40.4355 35.0114 39.3485 36.0984C38.2615 37.1853 36.7873 37.796 35.2501 37.796Z" fill="black"/>
<path opacity="0.5" d="M79.2729 38.728C77.9423 38.7282 76.6414 38.3338 75.5349 37.5947C74.4284 36.8555 73.5659 35.8049 73.0565 34.5756C72.5471 33.3463 72.4136 31.9935 72.673 30.6884C72.9324 29.3832 73.573 28.1843 74.5138 27.2433C75.4546 26.3022 76.6533 25.6612 77.9584 25.4014C79.2635 25.1417 80.6163 25.2747 81.8457 25.7837C83.0752 26.2928 84.1261 27.155 84.8655 28.2613C85.605 29.3676 85.9998 30.6683 85.9999 31.999V32C85.9981 33.7836 85.2888 35.4937 84.0277 36.755C82.7665 38.0163 81.0566 38.7259 79.2729 38.728Z" fill="black"/>
<path d="M72.727 38.728C71.3964 38.728 70.0956 38.3334 68.9891 37.5941C67.8827 36.8548 67.0204 35.8041 66.5112 34.5747C66.0019 33.3453 65.8687 31.9925 66.1283 30.6874C66.3879 29.3823 67.0287 28.1835 67.9696 27.2426C68.9105 26.3016 70.1094 25.6609 71.4145 25.4013C72.7196 25.1417 74.0723 25.2749 75.3017 25.7841C76.5311 26.2933 77.5819 27.1557 78.3212 28.2621C79.0604 29.3685 79.455 30.6693 79.455 32C79.4532 33.7838 78.7437 35.494 77.4824 36.7553C76.2211 38.0167 74.5108 38.7261 72.727 38.728Z" fill="black"/>
<rect x="0.5" y="0.5" width="107" height="63" rx="4.5" stroke="#9747FF" stroke-dasharray="10 5"/>
</svg>
