<svg width="108" height="64" viewBox="0 0 108 64" fill="none" xmlns="http://www.w3.org/2000/svg">
<path d="M23 31.9999C23 31.9999 22.25 31.7187 22.25 30.4999C22.25 29.2812 23 28.9999 23 28.9999M41 31.5312C41 31.5312 41.75 31.3282 41.75 30.4999C41.75 29.6717 41 29.4687 41 29.4687M32 27.4999V33.4999M25.25 27.4999V33.4999M39.1222 22.4478C39.1222 22.4478 35.0609 27.4999 31.25 27.4999H23.75C23.5511 27.4999 23.3603 27.579 23.2197 27.7196C23.079 27.8603 23 28.051 23 28.2499V32.7499C23 32.9489 23.079 33.1396 23.2197 33.2803C23.3603 33.4209 23.5511 33.4999 23.75 33.4999H31.25C35.0609 33.4999 39.1222 38.5732 39.1222 38.5732C39.4063 38.9482 40.25 38.6913 40.25 38.1124V22.9062C40.25 22.3292 39.4531 22.024 39.1222 22.4478Z" stroke="black" stroke-width="1.5" stroke-linecap="round" stroke-linejoin="round"/>
<path d="M26.75 33.5V41.375C26.75 41.4745 26.7895 41.5698 26.8598 41.6402C26.9302 41.7105 27.0255 41.75 27.125 41.75H29.6094C29.7269 41.75 29.8427 41.7225 29.9476 41.6695C30.0525 41.6166 30.1435 41.5397 30.2132 41.4452C30.2829 41.3506 30.3295 41.241 30.3491 41.1252C30.3687 41.0093 30.3608 40.8905 30.3261 40.7783C29.9333 39.5183 29 38.0975 29 35.75H29.75C29.9489 35.75 30.1397 35.671 30.2803 35.5303C30.421 35.3897 30.5 35.1989 30.5 35V34.25C30.5 34.0511 30.421 33.8603 30.2803 33.7197C30.1397 33.579 29.9489 33.5 29.75 33.5H29" stroke="black" stroke-width="1.5" stroke-linecap="round" stroke-linejoin="round"/>
<path d="M66.25 28.25V28.2809C66.2489 28.4742 66.1791 28.6608 66.0531 28.8073V28.8097C65.8 29.1087 65.5 29.644 65.5 30.5C65.5 31.2758 65.7484 31.8233 66.0475 32.1833C66.1787 32.3429 66.2503 32.5433 66.25 32.75C66.25 33.1478 66.408 33.5293 66.6893 33.8106C66.9706 34.0919 67.3522 34.25 67.75 34.25H68.125C68.2245 34.25 68.3198 34.2105 68.3902 34.1401C68.4605 34.0698 68.5 33.9744 68.5 33.875V27.125C68.5 27.0255 68.4605 26.9301 68.3902 26.8598C68.3198 26.7895 68.2245 26.75 68.125 26.75H67.75C67.3522 26.75 66.9706 26.908 66.6893 27.1893C66.408 27.4706 66.25 27.8521 66.25 28.25ZM85.1959 28.7445L85.1523 28.7365C85.1095 28.7284 85.0708 28.7055 85.043 28.6718C85.0152 28.6382 85 28.5959 85 28.5523V22.9062C85 22.3137 84.6067 21.7812 84.0208 21.5787C83.462 21.3861 82.8798 21.5431 82.5358 21.9786C81.8038 22.8526 80.9992 23.6632 80.1306 24.4015C79.023 25.339 77.9631 26.007 76.99 26.3848C76.919 26.4119 76.858 26.4598 76.8149 26.5224C76.7717 26.5849 76.7486 26.659 76.7486 26.735V34.0156C76.7487 34.1622 76.7918 34.3056 76.8725 34.4279C76.9533 34.5503 77.0681 34.6464 77.2028 34.7042C78.1094 35.0928 79.0891 35.7275 80.1091 36.5923C80.9842 37.3374 81.7946 38.1553 82.5316 39.0373C82.6496 39.1854 82.8003 39.3043 82.9719 39.3845C83.1435 39.4648 83.3313 39.5043 83.5206 39.5C83.6871 39.4992 83.8523 39.4717 84.01 39.4184C84.6114 39.2187 85 38.7054 85 38.1125V32.4467C85 32.4024 85.0157 32.3596 85.0443 32.3258C85.0729 32.292 85.1125 32.2694 85.1561 32.262L85.1959 32.2554C85.6469 32.1331 86.5 31.6095 86.5 30.5C86.5 29.3904 85.6469 28.8668 85.1959 28.7445ZM75.25 35V27.125C75.25 27.0255 75.2105 26.9301 75.1402 26.8598C75.0698 26.7895 74.9745 26.75 74.875 26.75H70.375C70.2755 26.75 70.1802 26.7895 70.1098 26.8598C70.0395 26.9301 70 27.0255 70 27.125V41.375C70 41.6733 70.1185 41.9595 70.3295 42.1705C70.5405 42.3814 70.8266 42.5 71.125 42.5H73.5836C73.8173 42.5019 74.0483 42.4503 74.259 42.3492C74.4697 42.248 74.6544 42.1 74.7991 41.9164C74.9473 41.7263 75.0471 41.503 75.0896 41.2657C75.1322 41.0285 75.1163 40.7844 75.0433 40.5547C74.9673 40.3118 74.8731 40.039 74.7728 39.7489C74.402 38.6754 73.9131 38.0112 73.7828 36.4995C74.1748 36.4909 74.5479 36.3292 74.8222 36.0489C75.0964 35.7686 75.25 35.3921 75.25 35Z" fill="black"/>
<rect x="0.5" y="0.5" width="107" height="63" rx="4.5" stroke="#9747FF" stroke-dasharray="10 5"/>
</svg>
