<svg width="108" height="64" viewBox="0 0 108 64" fill="none" xmlns="http://www.w3.org/2000/svg">
<path d="M26 23.75V23C26.0017 22.4038 26.2393 21.8325 26.6609 21.4109C27.0825 20.9893 27.6538 20.7517 28.25 20.75H38.75C39.3462 20.7517 39.9175 20.9893 40.3391 21.4109C40.7607 21.8325 40.9983 22.4038 41 23V40.25L37.25 37.25" stroke="black" stroke-width="1.5" stroke-linejoin="round"/>
<path d="M35 24.5H25.25C24.6538 24.5017 24.0825 24.7393 23.6609 25.1609C23.2393 25.5825 23.0017 26.1538 23 26.75V43.25L30.125 37.25L37.25 43.25V26.75C37.2483 26.1538 37.0107 25.5825 36.5891 25.1609C36.1675 24.7393 35.5962 24.5017 35 24.5V24.5Z" stroke="black" stroke-width="1.5" stroke-linejoin="round"/>
<g clip-path="url(#clip0_29_603)">
<path d="M82.75 20H72.25C71.5849 20.0005 70.9387 20.2217 70.4128 20.6289C69.8869 21.0361 69.5109 21.6062 69.3438 22.25H80.0312C80.9512 22.25 81.8335 22.6155 82.484 23.266C83.1345 23.9165 83.5 24.7988 83.5 25.7188V40.0105L84.5312 40.8355C84.6591 40.9378 84.8169 40.9955 84.9806 40.9997C85.1443 41.004 85.3049 40.9545 85.4378 40.8589C85.536 40.7864 85.6156 40.6915 85.6699 40.5821C85.7242 40.4727 85.7516 40.352 85.75 40.2298V23C85.75 22.2044 85.4339 21.4413 84.8713 20.8787C84.3087 20.3161 83.5456 20 82.75 20V20Z" fill="black"/>
<path d="M79.0001 23.75H69.2501C68.4544 23.75 67.6914 24.0661 67.1288 24.6287C66.5662 25.1913 66.2501 25.9544 66.2501 26.75V43.2322C66.2482 43.3538 66.2753 43.474 66.3291 43.5831C66.3829 43.6922 66.4619 43.7868 66.5595 43.8594C66.695 43.9578 66.8597 44.0081 67.0272 44.002C67.1946 43.996 67.3552 43.9341 67.4834 43.8261L74.1251 38.2306L80.7668 43.8237C80.8941 43.931 81.0535 43.9929 81.2198 43.9996C81.3862 44.0063 81.55 43.9575 81.6856 43.8608C81.7844 43.7884 81.8645 43.6935 81.9192 43.5839C81.9739 43.4743 82.0016 43.3533 82.0001 43.2308V26.75C82.0001 25.9544 81.684 25.1913 81.1214 24.6287C80.5588 24.0661 79.7957 23.75 79.0001 23.75Z" fill="black"/>
</g>
<rect x="0.5" y="0.5" width="107" height="63" rx="4.5" stroke="#9747FF" stroke-dasharray="10 5"/>
<defs>
<clipPath id="clip0_29_603">
<rect width="24" height="24" fill="white" transform="translate(64 20)"/>
</clipPath>
</defs>
</svg>
