<svg width="108" height="64" viewBox="0 0 108 64" fill="none" xmlns="http://www.w3.org/2000/svg">
<path d="M37.25 39.4934V23.375C37.2491 23.0769 37.1303 22.7913 36.9195 22.5805C36.7087 22.3697 36.4231 22.2509 36.125 22.25H23.375C23.0769 22.2509 22.7913 22.3697 22.5805 22.5805C22.3697 22.7913 22.2509 23.0769 22.25 23.375V39.875C22.2515 40.3718 22.4495 40.8479 22.8008 41.1992C23.1521 41.5505 23.6282 41.7485 24.125 41.75H39.5" stroke="black" stroke-width="1.5" stroke-linejoin="round"/>
<path d="M39.5 41.75C38.9033 41.75 38.331 41.5129 37.909 41.091C37.4871 40.669 37.25 40.0967 37.25 39.5V26H40.625C40.9234 26 41.2095 26.1185 41.4205 26.3295C41.6315 26.5405 41.75 26.8266 41.75 27.125V39.5C41.75 40.0967 41.5129 40.669 41.091 41.091C40.669 41.5129 40.0967 41.75 39.5 41.75Z" stroke="black" stroke-width="1.5" stroke-linejoin="round"/>
<path d="M31.25 26H34.25M31.25 29H34.25M25.25 32H34.25M25.25 35H34.25M25.25 38H34.25" stroke="black" stroke-width="1.5" stroke-linecap="round" stroke-linejoin="round"/>
<path d="M28.25 29.75H25.25C25.0511 29.75 24.8603 29.671 24.7197 29.5303C24.579 29.3897 24.5 29.1989 24.5 29V26C24.5 25.8011 24.579 25.6103 24.7197 25.4697C24.8603 25.329 25.0511 25.25 25.25 25.25H28.25C28.4489 25.25 28.6397 25.329 28.7803 25.4697C28.921 25.6103 29 25.8011 29 26V29C29 29.1989 28.921 29.3897 28.7803 29.5303C28.6397 29.671 28.4489 29.75 28.25 29.75Z" fill="black"/>
<path d="M84.6208 25.25H83.5042C83.5031 25.25 83.502 25.2504 83.5012 25.2512C83.5004 25.252 83.5 25.2531 83.5 25.2542V39.5C83.5 39.8978 83.658 40.2794 83.9393 40.5607C84.2206 40.842 84.6022 41 85 41C85.3978 41 85.7794 40.842 86.0607 40.5607C86.342 40.2794 86.5 39.8978 86.5 39.5V27.1292C86.5 26.6308 86.302 26.1528 85.9496 25.8004C85.5972 25.448 85.1192 25.25 84.6208 25.25Z" fill="black"/>
<path d="M82 39.5V23.375C82 23.1288 81.9515 22.885 81.8573 22.6575C81.763 22.43 81.6249 22.2233 81.4508 22.0492C81.2767 21.8751 81.07 21.737 80.8425 21.6427C80.615 21.5485 80.3712 21.5 80.125 21.5H67.375C66.8777 21.5 66.4008 21.6975 66.0492 22.0492C65.6975 22.4008 65.5 22.8777 65.5 23.375V39.875C65.5 40.5712 65.7766 41.2389 66.2688 41.7312C66.7611 42.2234 67.4288 42.5 68.125 42.5H84.1961C84.2032 42.5001 84.2102 42.4987 84.2168 42.496C84.2234 42.4933 84.2293 42.4894 84.2344 42.4844C84.2394 42.4793 84.2433 42.4734 84.246 42.4668C84.2487 42.4602 84.2501 42.4532 84.25 42.4461C84.25 42.4343 84.2461 42.4229 84.2388 42.4135C84.2316 42.4042 84.2216 42.3975 84.2102 42.3945C83.5757 42.2205 83.0159 41.8431 82.6167 41.3202C82.2174 40.7973 82.0008 40.1579 82 39.5ZM68.5 26C68.5 25.8011 68.579 25.6103 68.7197 25.4697C68.8603 25.329 69.0511 25.25 69.25 25.25H72.25C72.4489 25.25 72.6397 25.329 72.7803 25.4697C72.921 25.6103 73 25.8011 73 26V29C73 29.1989 72.921 29.3897 72.7803 29.5303C72.6397 29.671 72.4489 29.75 72.25 29.75H69.25C69.0511 29.75 68.8603 29.671 68.7197 29.5303C68.579 29.3897 68.5 29.1989 68.5 29V26ZM78.25 38.75H69.2711C68.8675 38.75 68.5211 38.4397 68.5009 38.0361C68.4961 37.9347 68.5118 37.8333 68.5472 37.7382C68.5827 37.6431 68.6371 37.5561 68.7071 37.4826C68.7771 37.4091 68.8614 37.3506 68.9547 37.3106C69.048 37.2706 69.1485 37.25 69.25 37.25H78.2289C78.6325 37.25 78.9789 37.5603 78.9991 37.9639C79.0039 38.0653 78.9882 38.1667 78.9528 38.2618C78.9173 38.3569 78.8629 38.4439 78.7929 38.5174C78.7229 38.5909 78.6386 38.6494 78.5453 38.6894C78.452 38.7294 78.3515 38.75 78.25 38.75ZM78.25 35.75H69.2711C68.8675 35.75 68.5211 35.4397 68.5009 35.0361C68.4961 34.9347 68.5118 34.8333 68.5472 34.7382C68.5827 34.6431 68.6371 34.5561 68.7071 34.4826C68.7771 34.4091 68.8614 34.3506 68.9547 34.3106C69.048 34.2706 69.1485 34.25 69.25 34.25H78.2289C78.6325 34.25 78.9789 34.5603 78.9991 34.9639C79.0039 35.0653 78.9882 35.1667 78.9528 35.2618C78.9173 35.3569 78.8629 35.4439 78.7929 35.5174C78.7229 35.5909 78.6386 35.6494 78.5453 35.6894C78.452 35.7294 78.3515 35.75 78.25 35.75ZM78.25 32.75H69.2711C68.8675 32.75 68.5211 32.4397 68.5009 32.0361C68.4961 31.9347 68.5118 31.8333 68.5472 31.7382C68.5827 31.6431 68.6371 31.5561 68.7071 31.4826C68.7771 31.4091 68.8614 31.3506 68.9547 31.3106C69.048 31.2706 69.1485 31.25 69.25 31.25H78.2289C78.6325 31.25 78.9789 31.5603 78.9991 31.9639C79.0039 32.0653 78.9882 32.1667 78.9528 32.2618C78.9173 32.3569 78.8629 32.4439 78.7929 32.5174C78.7229 32.5909 78.6386 32.6494 78.5453 32.6894C78.452 32.7294 78.3515 32.75 78.25 32.75ZM78.25 29.75H75.2711C74.8675 29.75 74.5211 29.4397 74.5009 29.0361C74.4961 28.9347 74.5118 28.8333 74.5472 28.7382C74.5827 28.6431 74.6371 28.5561 74.7071 28.4826C74.7771 28.4091 74.8614 28.3506 74.9547 28.3106C75.048 28.2706 75.1485 28.25 75.25 28.25H78.2289C78.6325 28.25 78.9789 28.5603 78.9991 28.9639C79.0039 29.0653 78.9882 29.1667 78.9528 29.2618C78.9173 29.3569 78.8629 29.4439 78.7929 29.5174C78.7229 29.5909 78.6386 29.6494 78.5453 29.6894C78.452 29.7294 78.3515 29.75 78.25 29.75ZM78.25 26.75H75.2711C74.8675 26.75 74.5211 26.4397 74.5009 26.0361C74.4961 25.9347 74.5118 25.8333 74.5472 25.7382C74.5827 25.6431 74.6371 25.5561 74.7071 25.4826C74.7771 25.4091 74.8614 25.3506 74.9547 25.3106C75.048 25.2706 75.1485 25.25 75.25 25.25H78.2289C78.6325 25.25 78.9789 25.5603 78.9991 25.9639C79.0039 26.0653 78.9882 26.1667 78.9528 26.2618C78.9173 26.3569 78.8629 26.4439 78.7929 26.5174C78.7229 26.5909 78.6386 26.6494 78.5453 26.6894C78.452 26.7294 78.3515 26.75 78.25 26.75Z" fill="black"/>
<rect x="0.5" y="0.5" width="107" height="63" rx="4.5" stroke="#9747FF" stroke-dasharray="10 5"/>
</svg>
