<svg width="108" height="64" viewBox="0 0 108 64" fill="none" xmlns="http://www.w3.org/2000/svg">
<path d="M34.9997 38V38.75C34.9997 39.5456 34.6837 40.3087 34.1211 40.8713C33.5585 41.4339 32.7954 41.75 31.9997 41.75C31.2041 41.75 30.441 41.4339 29.8784 40.8713C29.3158 40.3087 28.9997 39.5456 28.9997 38.75V38M40.0472 36.4733C38.8435 35 37.9936 34.25 37.9936 30.1883C37.9936 26.4688 36.0943 25.1436 34.531 24.5C34.3233 24.4147 34.1279 24.2187 34.0646 24.0055C33.7904 23.0722 33.0216 22.25 31.9997 22.25C30.9779 22.25 30.2086 23.0727 29.9372 24.0064C29.874 24.222 29.6785 24.4147 29.4708 24.5C27.9057 25.1445 26.0082 26.465 26.0082 30.1883C26.0058 34.25 25.156 35 23.9522 36.4733C23.4535 37.0836 23.8904 38 24.7627 38H39.2415C40.1091 38 40.5432 37.0808 40.0472 36.4733Z" stroke="black" stroke-width="1.5" stroke-linecap="round" stroke-linejoin="round"/>
<path d="M84.6286 35.9989C84.5508 35.9052 84.4744 35.8114 84.3994 35.7209C83.3682 34.4736 82.7443 33.7208 82.7443 30.1897C82.7443 28.3616 82.3069 26.8616 81.4449 25.7366C80.8093 24.9055 79.95 24.275 78.8175 23.8091C78.803 23.801 78.79 23.7903 78.7791 23.7777C78.3718 22.4136 77.2571 21.5 75.9999 21.5C74.7427 21.5 73.6285 22.4136 73.2211 23.7762C73.2103 23.7884 73.1974 23.7987 73.1832 23.8067C70.5404 24.8947 69.256 26.982 69.256 30.1883C69.256 33.7208 68.633 34.4736 67.6008 35.7195C67.5258 35.81 67.4494 35.9019 67.3716 35.9975C67.1706 36.2399 67.0433 36.5348 67.0046 36.8473C66.966 37.1598 67.0177 37.4769 67.1536 37.7609C67.4429 38.3703 68.0593 38.7486 68.7629 38.7486H83.2421C83.9424 38.7486 84.5546 38.3708 84.8447 37.7642C84.9813 37.4801 85.0335 37.1628 84.9952 36.8499C84.9569 36.537 84.8297 36.2417 84.6286 35.9989ZM75.9999 42.5C76.6773 42.4995 77.3418 42.3156 77.9232 41.9679C78.5045 41.6202 78.9809 41.1217 79.3018 40.5252C79.3169 40.4966 79.3244 40.4646 79.3234 40.4322C79.3225 40.3999 79.3133 40.3684 79.2966 40.3407C79.2799 40.313 79.2563 40.2901 79.2281 40.2742C79.2 40.2583 79.1682 40.25 79.1358 40.25H72.8649C72.8325 40.2499 72.8007 40.2582 72.7724 40.274C72.7442 40.2899 72.7206 40.3128 72.7038 40.3405C72.687 40.3682 72.6777 40.3997 72.6768 40.4321C72.6759 40.4645 72.6834 40.4965 72.6985 40.5252C73.0194 41.1216 73.4957 41.6201 74.0769 41.9678C74.6581 42.3155 75.3226 42.4994 75.9999 42.5Z" fill="black"/>
<rect x="0.5" y="0.5" width="107" height="63" rx="4.5" stroke="#9747FF" stroke-dasharray="10 5"/>
</svg>
