<svg width="108" height="64" viewBox="0 0 108 64" fill="none" xmlns="http://www.w3.org/2000/svg">
<path d="M30.1287 29V35.743C30.1365 36.2361 30.3378 36.7063 30.6893 37.0523C31.0407 37.3982 31.5141 37.5921 32.0072 37.5921C32.5004 37.5921 32.9737 37.3982 33.3252 37.0523C33.6766 36.7063 33.878 36.2361 33.8857 35.743L33.8918 26.9047C33.8969 26.4833 33.8184 26.065 33.6606 25.6742C33.5029 25.2833 33.2691 24.9277 32.9729 24.6279C32.6767 24.328 32.3239 24.09 31.935 23.9275C31.5461 23.7651 31.1289 23.6814 30.7074 23.6814C30.2859 23.6814 29.8686 23.7651 29.4797 23.9275C29.0908 24.09 28.7381 24.328 28.4418 24.6279C28.1456 24.9277 27.9119 25.2833 27.7541 25.6742C27.5964 26.065 27.5178 26.4833 27.5229 26.9047V35.8025C27.5143 36.3959 27.6238 36.985 27.8449 37.5356C28.066 38.0863 28.3944 38.5875 28.8109 39.0101C29.2275 39.4327 29.7239 39.7683 30.2713 39.9973C30.8186 40.2264 31.4061 40.3443 31.9995 40.3443C32.5929 40.3443 33.1803 40.2264 33.7277 39.9973C34.2751 39.7683 34.7715 39.4327 35.1881 39.0101C35.6046 38.5875 35.933 38.0863 36.1541 37.5356C36.3752 36.985 36.4846 36.3959 36.4761 35.8025V27.4878" stroke="black" stroke-width="1.5" stroke-miterlimit="10" stroke-linecap="round"/>
<path d="M74.1287 29V35.743C74.1365 36.2361 74.3378 36.7063 74.6893 37.0523C75.0407 37.3982 75.5141 37.5921 76.0072 37.5921C76.5004 37.5921 76.9737 37.3982 77.3252 37.0523C77.6766 36.7063 77.878 36.2361 77.8857 35.743L77.8918 26.9047C77.8969 26.4833 77.8184 26.065 77.6606 25.6742C77.5029 25.2833 77.2691 24.9277 76.9729 24.6279C76.6767 24.328 76.3239 24.09 75.935 23.9275C75.5461 23.7651 75.1289 23.6814 74.7074 23.6814C74.2859 23.6814 73.8686 23.7651 73.4797 23.9275C73.0908 24.09 72.7381 24.328 72.4418 24.6279C72.1456 24.9277 71.9119 25.2833 71.7541 25.6742C71.5964 26.065 71.5178 26.4833 71.5229 26.9047V35.8025C71.5143 36.3959 71.6238 36.985 71.8449 37.5356C72.066 38.0863 72.3944 38.5875 72.8109 39.0101C73.2275 39.4327 73.7239 39.7683 74.2713 39.9973C74.8186 40.2264 75.4061 40.3443 75.9995 40.3443C76.5929 40.3443 77.1803 40.2264 77.7277 39.9973C78.2751 39.7683 78.7715 39.4327 79.1881 39.0101C79.6046 38.5875 79.933 38.0863 80.1541 37.5356C80.3752 36.985 80.4846 36.3959 80.4761 35.8025V27.4878" stroke="black" stroke-width="1.5" stroke-miterlimit="10" stroke-linecap="round"/>
<rect x="0.5" y="0.5" width="107" height="63" rx="4.5" stroke="#9747FF" stroke-dasharray="10 5"/>
</svg>
