<svg width="108" height="64" viewBox="0 0 108 64" fill="none" xmlns="http://www.w3.org/2000/svg">
<path d="M41.5622 22.4374L30.6403 33.3593M22.4897 29.3721L41.2397 22.2757C41.3073 22.2499 41.381 22.2441 41.4519 22.2592C41.5227 22.2743 41.5876 22.3096 41.6388 22.3608C41.69 22.412 41.7253 22.477 41.7404 22.5478C41.7555 22.6186 41.7498 22.6923 41.7239 22.7599L34.6275 41.5099C34.5993 41.5811 34.5499 41.642 34.4861 41.6843C34.4222 41.7266 34.347 41.7484 34.2704 41.7467C34.1938 41.7449 34.1196 41.7198 34.0578 41.6746C33.9959 41.6294 33.9494 41.5664 33.9244 41.494L30.765 33.7085C30.7282 33.5982 30.6662 33.498 30.5839 33.4157C30.5017 33.3335 30.4014 33.2715 30.2911 33.2346L22.5056 30.0781C22.4323 30.0537 22.3683 30.0072 22.3224 29.945C22.2764 29.8828 22.2509 29.808 22.2491 29.7307C22.2474 29.6534 22.2696 29.5775 22.3126 29.5133C22.3557 29.4491 22.4175 29.3998 22.4897 29.3721V29.3721Z" stroke="black" stroke-width="1.5" stroke-linecap="round" stroke-linejoin="round"/>
<path d="M86.1716 21.8304C86.0182 21.6771 85.8238 21.5713 85.6118 21.5259C85.3997 21.4805 85.179 21.4974 84.9763 21.5745L66.2249 28.6718H66.2211C66.0049 28.755 65.8197 28.9028 65.6907 29.0952C65.5616 29.2876 65.4951 29.5151 65.5003 29.7467C65.5054 29.9783 65.5819 30.2027 65.7193 30.3892C65.8567 30.5756 66.0483 30.7152 66.268 30.7887L66.2872 30.7948L72.7232 33.543C72.8487 33.5812 72.982 33.5857 73.1099 33.5561C73.2377 33.5266 73.3555 33.4641 73.4516 33.3748L83.781 23.7499C83.8118 23.7191 83.8483 23.6947 83.8885 23.6781C83.9287 23.6614 83.9718 23.6528 84.0154 23.6528C84.0589 23.6528 84.102 23.6614 84.1422 23.6781C84.1824 23.6947 84.219 23.7191 84.2497 23.7499C84.2805 23.7807 84.3049 23.8172 84.3216 23.8575C84.3382 23.8977 84.3468 23.9408 84.3468 23.9843C84.3468 24.0278 84.3382 24.0709 84.3216 24.1111C84.3049 24.1514 84.2805 24.1879 84.2497 24.2187L74.6244 34.5434C74.5351 34.6395 74.4726 34.7573 74.4431 34.8851C74.4135 35.0129 74.418 35.1463 74.4561 35.2718L77.2054 41.7115C77.2082 41.7209 77.211 41.7293 77.2143 41.7382C77.3643 42.1727 77.744 42.4793 78.2029 42.4999H78.2497C78.4814 42.5012 78.7081 42.4328 78.9004 42.3036C79.0927 42.1744 79.2416 41.9903 79.3279 41.7752L86.4243 23.029C86.5025 22.8261 86.5202 22.605 86.4754 22.3923C86.4305 22.1796 86.325 21.9844 86.1716 21.8304Z" fill="black"/>
<rect x="0.5" y="0.5" width="107" height="63" rx="4.5" stroke="#9747FF" stroke-dasharray="10 5"/>
</svg>
