<svg width="108" height="64" viewBox="0 0 108 64" fill="none" xmlns="http://www.w3.org/2000/svg">
<path d="M38.202 32.75C40.4403 32.75 42.41 31.4483 43.25 29.5194C42.5839 29.8091 41.8016 29.923 41.0291 29.923C39.5831 29.923 38.1964 29.3486 37.1739 28.3261C36.1514 27.3037 35.577 25.9169 35.577 24.4709C35.577 23.6984 35.6909 22.9161 35.9806 22.25C34.0517 23.09 32.75 25.0597 32.75 27.298C32.7496 27.7432 32.8038 28.1868 32.9113 28.6189" stroke="black" stroke-width="1.5" stroke-linecap="round" stroke-linejoin="round"/>
<path d="M24.2473 34.3836C24.404 34.3593 24.549 34.2862 24.6617 34.1747C24.7744 34.0631 24.8491 33.9189 24.875 33.7625C25.4417 30.3205 27.9514 28.25 30.875 28.25C33.5905 28.25 35.4041 30.0195 36.1344 31.8941C36.1813 32.0142 36.2587 32.1201 36.359 32.2012C36.4593 32.2823 36.579 32.3359 36.7062 32.3567C39.05 32.7387 41 34.3039 41 37.025C41 39.8094 38.7219 41.75 35.9375 41.75H24.9688C22.6484 41.75 20.75 40.5922 20.75 38.0375C20.75 35.7655 22.5627 34.6522 24.2473 34.3836V34.3836Z" stroke="black" stroke-width="1.5" stroke-linejoin="round"/>
<path d="M79.9375 42.5H68.9688C67.5859 42.5 66.3944 42.133 65.522 41.4388C64.5264 40.6456 64 39.4695 64 38.0375C64 36.6575 64.5667 35.4945 65.6406 34.6747C66.2078 34.2406 66.9156 33.9167 67.6717 33.7349C67.8084 33.701 67.9328 33.6294 68.0307 33.5282C68.1286 33.427 68.1961 33.3003 68.2253 33.1625C68.5605 31.6372 69.2683 30.327 70.3033 29.3305C71.5313 28.1492 73.1711 27.4927 74.875 27.5C76.3905 27.5 77.7883 27.9992 78.9175 28.9433C79.67 29.5776 80.2727 30.3706 80.6823 31.2655C80.7307 31.3713 80.803 31.4645 80.8934 31.5377C80.9838 31.6109 81.09 31.6621 81.2036 31.6874C82.3286 31.932 83.3327 32.427 84.092 33.1199C85.1767 34.1094 85.75 35.4603 85.75 37.025C85.75 38.5649 85.1345 39.972 84.0156 40.9869C82.9427 41.9628 81.4937 42.5 79.9375 42.5ZM87.9311 29.8339C87.9843 29.7152 88.0064 29.585 87.9953 29.4554C87.9842 29.3258 87.9404 29.2012 87.8678 29.0933C87.769 28.95 87.6234 28.8456 87.4561 28.7979C87.2887 28.7502 87.11 28.7621 86.9505 28.8317C86.4489 29.0497 85.803 29.1678 85.0792 29.173C82.487 29.1917 80.327 27.0636 80.327 24.4709C80.327 23.7327 80.4433 23.0722 80.6636 22.5603C80.7182 22.4365 80.739 22.3004 80.7238 22.1659C80.7085 22.0314 80.6578 21.9033 80.5769 21.7949C80.4754 21.6613 80.332 21.5656 80.1697 21.5231C80.0074 21.4806 79.8355 21.4938 79.6816 21.5605C77.8708 22.3489 76.5794 23.975 76.1533 25.8983C76.1479 25.9229 76.1475 25.9483 76.1522 25.9731C76.1568 25.9978 76.1664 26.0213 76.1804 26.0423C76.1943 26.0633 76.2124 26.0812 76.2334 26.095C76.2544 26.1089 76.278 26.1183 76.3028 26.1228C77.621 26.3551 78.8547 26.9305 79.8798 27.7911C80.6298 28.42 81.2594 29.1799 81.738 30.0336C81.8351 30.2063 81.9954 30.3347 82.1852 30.3917C83.305 30.7278 84.2992 31.2777 85.1031 32.0108C85.2419 32.138 85.3744 32.2695 85.5006 32.4055C85.5312 32.438 85.5723 32.4585 85.6166 32.4634C85.661 32.4683 85.7056 32.4572 85.7425 32.4322C86.7051 31.7928 87.4646 30.8912 87.9311 29.8339Z" fill="black"/>
<rect x="0.5" y="0.5" width="107" height="63" rx="4.5" stroke="#9747FF" stroke-dasharray="10 5"/>
</svg>
