<svg width="108" height="64" viewBox="0 0 108 64" fill="none" xmlns="http://www.w3.org/2000/svg">
<path d="M37.0686 25.8711L24.0781 38.8906L23 41L25.1089 39.9219L38.1289 26.9314L37.0686 25.8711ZM39.7198 23.2199L38.6595 24.2802L39.7198 25.341L40.7802 24.2802C40.9207 24.1395 40.9997 23.9488 40.9997 23.75C40.9997 23.5512 40.9207 23.3605 40.7802 23.2199V23.2199C40.6395 23.0793 40.4488 23.0004 40.25 23.0004C40.0512 23.0004 39.8605 23.0793 39.7198 23.2199V23.2199Z" stroke="black" stroke-width="1.5" stroke-linecap="round" stroke-linejoin="round"/>
<path d="M80.8103 26.06L68.0542 38.8474L67.2812 40.7187L69.1525 39.9457L81.94 27.1896L80.8103 26.06ZM83.3627 23.5081L82.81 24.0603L83.9397 25.19L84.4923 24.6373C84.6374 24.4922 84.7188 24.2954 84.7188 24.0903C84.7188 23.8851 84.6374 23.6884 84.4923 23.5432L84.4572 23.5081C84.3853 23.4362 84.3 23.3792 84.2061 23.3403C84.1122 23.3014 84.0116 23.2814 83.9099 23.2814C83.8083 23.2814 83.7076 23.3014 83.6137 23.3403C83.5198 23.3792 83.4345 23.4362 83.3627 23.5081Z" stroke="black" stroke-width="2.0625" stroke-linecap="round" stroke-linejoin="round"/>
<rect x="0.5" y="0.5" width="107" height="63" rx="4.5" stroke="#9747FF" stroke-dasharray="10 5"/>
</svg>
