<svg width="108" height="64" viewBox="0 0 108 64" fill="none" xmlns="http://www.w3.org/2000/svg">
<path d="M30.3636 23C28.9072 23 27.4835 23.4319 26.2726 24.241C25.0617 25.0501 24.1179 26.2001 23.5605 27.5457C23.0032 28.8912 22.8574 30.3718 23.1415 31.8002C23.4256 33.2286 24.1269 34.5406 25.1568 35.5704C26.1866 36.6003 27.4986 37.3016 28.927 37.5857C30.3554 37.8698 31.836 37.724 33.1815 37.1667C34.527 36.6093 35.6771 35.6655 36.4862 34.4546C37.2953 33.2437 37.7272 31.82 37.7272 30.3636C37.7271 28.4107 36.9512 26.5378 35.5703 25.1569C34.1894 23.776 32.3165 23.0001 30.3636 23V23Z" stroke="black" stroke-width="1.5" stroke-miterlimit="10"/>
<path d="M35.8574 35.8573L41.0001 41" stroke="black" stroke-width="1.5" stroke-miterlimit="10" stroke-linecap="round"/>
<path d="M85.4073 39.7527L80.9969 35.3422C82.0587 33.9286 82.6319 32.208 82.63 30.44C82.63 25.9241 78.9559 22.25 74.44 22.25C69.9241 22.25 66.25 25.9241 66.25 30.44C66.25 34.9559 69.9241 38.63 74.44 38.63C76.208 38.6319 77.9286 38.0587 79.3422 36.9969L83.7527 41.4073C83.9759 41.6069 84.2671 41.7135 84.5664 41.7051C84.8658 41.6967 85.1506 41.574 85.3623 41.3623C85.574 41.1506 85.6967 40.8658 85.7051 40.5664C85.7135 40.2671 85.6069 39.9759 85.4073 39.7527ZM68.59 30.44C68.59 29.283 68.9331 28.1519 69.5759 27.1899C70.2187 26.2279 71.1324 25.4781 72.2013 25.0353C73.2703 24.5925 74.4465 24.4767 75.5813 24.7024C76.7161 24.9281 77.7584 25.4853 78.5766 26.3034C79.3947 27.1216 79.9519 28.1639 80.1776 29.2987C80.4033 30.4335 80.2875 31.6098 79.8447 32.6787C79.4019 33.7476 78.6521 34.6613 77.6901 35.3041C76.7281 35.9469 75.597 36.29 74.44 36.29C72.8891 36.2881 71.4022 35.6712 70.3055 34.5745C69.2088 33.4778 68.5919 31.9909 68.59 30.44Z" fill="black"/>
<rect x="0.5" y="0.5" width="107" height="63" rx="4.5" stroke="#9747FF" stroke-dasharray="10 5"/>
</svg>
