<svg width="108" height="64" viewBox="0 0 108 64" fill="none" xmlns="http://www.w3.org/2000/svg">
<path d="M32.2945 29.0145C31.679 28.9537 31.0597 29.0847 30.5215 29.3894C29.9833 29.6942 29.5524 30.1579 29.2879 30.717C29.0234 31.2761 28.9381 31.9033 29.0438 32.5127C29.1495 33.1221 29.441 33.684 29.8784 34.1213C30.3157 34.5587 30.8776 34.8502 31.487 34.9559C32.0964 35.0616 32.7236 34.9763 33.2827 34.7118C33.8418 34.4473 34.3055 34.0164 34.6102 33.4782C34.915 32.94 35.0459 32.3207 34.9852 31.7052C34.9159 31.0151 34.6101 30.3703 34.1197 29.8799C33.6294 29.3896 32.9845 29.0838 32.2945 29.0145V29.0145ZM39.518 32C39.5161 32.3261 39.4921 32.6517 39.4463 32.9745L41.5655 34.6367C41.6578 34.7132 41.7199 34.8199 41.741 34.9379C41.762 35.056 41.7405 35.1776 41.6803 35.2812L39.6755 38.75C39.6146 38.8527 39.5194 38.9305 39.4067 38.9699C39.2941 39.0093 39.1711 39.0076 39.0595 38.9652L36.9548 38.1177C36.8388 38.0714 36.7131 38.0547 36.589 38.0691C36.4649 38.0834 36.3462 38.1283 36.2438 38.1997C35.9225 38.4209 35.585 38.6174 35.2341 38.7875C35.1237 38.8411 35.0283 38.9211 34.9562 39.0203C34.8841 39.1196 34.8375 39.2351 34.8206 39.3566L34.5052 41.6014C34.4844 41.72 34.4232 41.8276 34.3319 41.906C34.2406 41.9844 34.1249 42.0287 34.0045 42.0312H29.9948C29.8765 42.0292 29.7624 41.9869 29.6713 41.9113C29.5802 41.8357 29.5176 41.7314 29.4938 41.6155L29.1788 39.3739C29.1611 39.2511 29.1133 39.1345 29.0397 39.0346C28.9661 38.9346 28.8689 38.8544 28.7569 38.8011C28.4064 38.6319 28.07 38.4349 27.7509 38.2119C27.6488 38.1408 27.5306 38.0963 27.4069 38.0823C27.2833 38.0683 27.1581 38.0853 27.0427 38.1317L24.9384 38.9788C24.8269 39.0212 24.704 39.023 24.5913 38.9837C24.4787 38.9444 24.3835 38.8666 24.3225 38.7641L22.3177 35.2953C22.2574 35.1917 22.2358 35.07 22.2569 34.952C22.2779 34.834 22.3401 34.7272 22.4325 34.6508L24.2236 33.2445C24.3217 33.1666 24.3988 33.0655 24.448 32.9502C24.4971 32.835 24.5166 32.7093 24.5048 32.5845C24.488 32.3891 24.4777 32.1941 24.4777 31.9986C24.4777 31.8031 24.4875 31.6109 24.5048 31.4197C24.5153 31.2957 24.4948 31.1711 24.4452 31.057C24.3955 30.9429 24.3182 30.843 24.2203 30.7662L22.4302 29.36C22.3393 29.2832 22.2784 29.1768 22.2581 29.0596C22.2377 28.9423 22.2593 28.8217 22.3191 28.7188L24.3239 25.25C24.3848 25.1473 24.48 25.0695 24.5926 25.0301C24.7053 24.9907 24.8283 24.9924 24.9398 25.0348L27.0445 25.8823C27.1606 25.9286 27.2863 25.9453 27.4104 25.9309C27.5345 25.9166 27.6531 25.8717 27.7556 25.8003C28.0768 25.5791 28.4144 25.3826 28.7653 25.2125C28.8756 25.1589 28.9711 25.0789 29.0432 24.9797C29.1153 24.8804 29.1618 24.7649 29.1788 24.6434L29.4942 22.3986C29.5149 22.28 29.5762 22.1724 29.6675 22.094C29.7588 22.0156 29.8745 21.9713 29.9948 21.9688H34.0045C34.1229 21.9708 34.237 22.0131 34.3281 22.0887C34.4192 22.1643 34.4818 22.2686 34.5056 22.3845L34.8206 24.6261C34.8383 24.7489 34.8861 24.8655 34.9597 24.9654C35.0333 25.0654 35.1304 25.1456 35.2425 25.1989C35.593 25.3681 35.9294 25.5651 36.2484 25.7881C36.3506 25.8592 36.4688 25.9037 36.5925 25.9177C36.7161 25.9317 36.8413 25.9147 36.9567 25.8683L39.0609 25.0213C39.1725 24.9788 39.2954 24.977 39.408 25.0163C39.5207 25.0556 39.6159 25.1334 39.6769 25.2359L41.6817 28.7047C41.742 28.8083 41.7635 28.93 41.7425 29.048C41.7215 29.166 41.6592 29.2728 41.5669 29.3492L39.7758 30.7555C39.6772 30.8331 39.5997 30.9342 39.5501 31.0494C39.5006 31.1647 39.4807 31.2905 39.4922 31.4155C39.5077 31.6095 39.518 31.8045 39.518 32Z" stroke="black" stroke-width="1.5" stroke-linecap="round" stroke-linejoin="round"/>
<path d="M76 34.25C77.2426 34.25 78.25 33.2426 78.25 32C78.25 30.7574 77.2426 29.75 76 29.75C74.7574 29.75 73.75 30.7574 73.75 32C73.75 33.2426 74.7574 34.25 76 34.25Z" fill="black"/>
<path d="M86.0496 34.0625L86.0275 34.0447L84.5481 32.8845C84.4545 32.8104 84.3797 32.7151 84.33 32.6065C84.2803 32.4979 84.2571 32.379 84.2622 32.2597V31.7178C84.2575 31.5992 84.281 31.4812 84.3308 31.3735C84.3806 31.2658 84.4553 31.1714 84.5486 31.0981L86.0275 29.9375L86.0496 29.9197C86.2776 29.7297 86.4307 29.4647 86.4814 29.1723C86.532 28.8798 86.477 28.5788 86.3261 28.3231L84.3241 24.8591C84.3218 24.8558 84.3197 24.8523 84.318 24.8488C84.1663 24.5966 83.9311 24.4056 83.6532 24.3089C83.3754 24.2121 83.0724 24.2157 82.7969 24.3191L82.7805 24.3252L81.0414 25.025C80.9317 25.0694 80.8129 25.087 80.695 25.0765C80.5771 25.066 80.4633 25.0276 80.3631 24.9645C80.2094 24.8677 80.0531 24.7761 79.8944 24.6898C79.7915 24.634 79.7031 24.5548 79.6364 24.4586C79.5697 24.3623 79.5266 24.2518 79.5105 24.1358L79.2485 22.28L79.2428 22.2462C79.1858 21.9588 79.0315 21.6998 78.806 21.5127C78.5805 21.3255 78.2974 21.2218 78.0044 21.2188H73.9956C73.6985 21.2197 73.4112 21.3255 73.1844 21.5175C72.9576 21.7095 72.8058 21.9754 72.7558 22.2683L72.7516 22.2945L72.4905 24.1541C72.4745 24.2697 72.4317 24.38 72.3655 24.4762C72.2994 24.5724 72.2117 24.6518 72.1094 24.7081C71.9502 24.7939 71.7939 24.8849 71.6406 24.9809C71.5406 25.0436 71.4272 25.0817 71.3096 25.0921C71.192 25.1024 71.0737 25.0847 70.9642 25.0405L69.2238 24.3373L69.2074 24.3308C68.9315 24.2273 68.6281 24.2238 68.3499 24.321C68.0717 24.4181 67.8364 24.6097 67.6849 24.8623L67.6788 24.8727L65.6739 28.3391C65.5228 28.595 65.4677 28.8963 65.5183 29.1891C65.569 29.482 65.7222 29.7472 65.9505 29.9375L65.9725 29.9553L67.4519 31.1155C67.5456 31.1896 67.6203 31.2849 67.6701 31.3935C67.7198 31.5021 67.743 31.621 67.7378 31.7403V32.2822C67.7425 32.4008 67.719 32.5188 67.6692 32.6265C67.6194 32.7342 67.5448 32.8286 67.4514 32.9019L65.9725 34.0625L65.9505 34.0803C65.7224 34.2703 65.5694 34.5353 65.5187 34.8277C65.468 35.1202 65.523 35.4212 65.6739 35.6769L67.676 39.1409C67.6783 39.1442 67.6803 39.1477 67.6821 39.1512C67.8338 39.4034 68.069 39.5944 68.3468 39.6911C68.6247 39.7879 68.9277 39.7843 69.2031 39.6809L69.2196 39.6748L70.9572 38.975C71.067 38.9306 71.1857 38.913 71.3036 38.9235C71.4216 38.934 71.5353 38.9724 71.6355 39.0355C71.7892 39.1327 71.9455 39.2242 72.1042 39.3102C72.2072 39.366 72.2955 39.4452 72.3622 39.5414C72.4289 39.6377 72.472 39.7482 72.4881 39.8642L72.7488 41.72L72.7544 41.7537C72.8115 42.0417 72.9662 42.3011 73.1923 42.4882C73.4184 42.6754 73.7021 42.7789 73.9956 42.7812H78.0044C78.3016 42.7803 78.5888 42.6745 78.8157 42.4825C79.0425 42.2905 79.1942 42.0246 79.2442 41.7317L79.2485 41.7055L79.5096 39.8459C79.5258 39.7301 79.569 39.6196 79.6355 39.5234C79.7021 39.4272 79.7903 39.3479 79.893 39.2919C80.0533 39.2056 80.2099 39.1142 80.3617 39.0191C80.4617 38.9564 80.5752 38.9183 80.6928 38.9079C80.8104 38.8976 80.9287 38.9153 81.0381 38.9595L82.7786 39.6603L82.795 39.6669C83.0709 39.7705 83.3744 39.7741 83.6526 39.677C83.9308 39.5798 84.1661 39.3881 84.3175 39.1353C84.3194 39.1318 84.3214 39.1283 84.3236 39.125L86.3256 35.6614C86.477 35.4055 86.5324 35.1041 86.4818 34.8112C86.4312 34.5182 86.278 34.2528 86.0496 34.0625ZM79.7458 32.1763C79.7117 32.9021 79.4674 33.6025 79.0426 34.1921C78.6178 34.7817 78.0308 35.2352 77.3531 35.4974C76.6754 35.7597 75.936 35.8193 75.225 35.6692C74.514 35.519 73.862 35.1655 73.3481 34.6516C72.8343 34.1377 72.4809 33.4856 72.3308 32.7746C72.1807 32.0635 72.2405 31.3242 72.5028 30.6465C72.7651 29.9688 73.2186 29.3819 73.8083 28.9572C74.398 28.5325 75.0983 28.2883 75.8242 28.2542C76.3454 28.2313 76.8656 28.317 77.3518 28.506C77.838 28.695 78.2796 28.9831 78.6484 29.352C79.0172 29.7208 79.3053 30.1624 79.4942 30.6487C79.6831 31.1349 79.7688 31.6551 79.7458 32.1763Z" fill="black"/>
<rect x="0.5" y="0.5" width="107" height="63" rx="4.5" stroke="#9747FF" stroke-dasharray="10 5"/>
</svg>
