<svg width="108" height="64" viewBox="0 0 108 64" fill="none" xmlns="http://www.w3.org/2000/svg">
<path d="M35.75 28.25L30.5562 34.25L28.25 31.9906" stroke="black" stroke-width="1.5" stroke-linecap="round" stroke-linejoin="round"/>
<path d="M41.7078 25.2673C37.5162 24.5155 35.7832 23.9586 32 22.25C28.2167 23.9586 26.4837 24.5155 22.2921 25.2673C21.5328 37.303 31.2771 41.4589 32 41.75C32.7228 41.4589 42.4671 37.303 41.7078 25.2673Z" stroke="black" stroke-width="1.5" stroke-linecap="round" stroke-linejoin="round"/>
<path d="M86.4561 25.22C86.4455 25.0525 86.379 24.8933 86.2672 24.7681C86.1555 24.6428 86.0049 24.5586 85.8397 24.5291C81.785 23.8016 80.0923 23.2756 76.3086 21.5666C76.2115 21.5227 76.1062 21.5 75.9997 21.5C75.8931 21.5 75.7878 21.5227 75.6907 21.5666C71.907 23.2756 70.2143 23.8016 66.1597 24.5291C65.9944 24.5586 65.8439 24.6428 65.7321 24.7681C65.6203 24.8933 65.5538 25.0525 65.5432 25.22C65.3628 28.0845 65.7476 30.7536 66.6884 33.1531C67.4588 35.1104 68.5989 36.901 70.0465 38.427C72.5529 41.0863 75.214 42.2413 75.7217 42.4456C75.9021 42.5186 76.1038 42.5186 76.2842 42.4456C76.7918 42.2413 79.4529 41.0863 81.9593 38.427C83.4046 36.9004 84.5425 35.1099 85.3109 33.1531C86.2517 30.7536 86.6365 28.0845 86.4561 25.22ZM80.3154 28.7408L75.1217 34.7408C75.0549 34.8182 74.973 34.8811 74.881 34.9256C74.7891 34.9702 74.6889 34.9955 74.5868 35H74.5559C74.3596 35.0001 74.1711 34.9231 74.0309 34.7858L71.7247 32.5264C71.6543 32.4575 71.5982 32.3753 71.5596 32.2847C71.521 32.1941 71.5006 32.0968 71.4996 31.9983C71.4975 31.7993 71.5746 31.6077 71.7139 31.4656C71.8531 31.3235 72.0431 31.2426 72.242 31.2405C72.441 31.2385 72.6326 31.3156 72.7747 31.4549L74.509 33.1559L79.1825 27.7592C79.2469 27.6847 79.3254 27.6237 79.4135 27.5795C79.5015 27.5354 79.5974 27.509 79.6956 27.5019C79.7939 27.4948 79.8925 27.5071 79.986 27.5382C80.0795 27.5692 80.166 27.6184 80.2404 27.6828C80.3149 27.7473 80.376 27.8258 80.4201 27.9138C80.4643 28.0019 80.4907 28.0977 80.4978 28.196C80.5048 28.2942 80.4925 28.3929 80.4615 28.4864C80.4304 28.5799 80.3813 28.6663 80.3168 28.7408H80.3154Z" fill="black"/>
<rect x="0.5" y="0.5" width="107" height="63" rx="4.5" stroke="#9747FF" stroke-dasharray="10 5"/>
</svg>
