<svg width="108" height="64" viewBox="0 0 108 64" fill="none" xmlns="http://www.w3.org/2000/svg">
<path d="M32 41.75C37.3848 41.75 41.75 37.3848 41.75 32C41.75 26.6152 37.3848 22.25 32 22.25C26.6152 22.25 22.25 26.6152 22.25 32C22.25 37.3848 26.6152 41.75 32 41.75Z" stroke="black" stroke-width="1.5" stroke-linecap="round" stroke-linejoin="round"/>
<path d="M32 35.75C34.0711 35.75 35.75 34.0711 35.75 32C35.75 29.9289 34.0711 28.25 32 28.25C29.9289 28.25 28.25 29.9289 28.25 32C28.25 34.0711 29.9289 35.75 32 35.75Z" stroke="black" stroke-width="1.5" stroke-linecap="round" stroke-linejoin="round"/>
<path d="M29.75 22.5312L30.125 28.7188M33.875 28.7188L34.25 22.5312M29.75 41.4688L30.125 35.2812M33.875 35.2812L34.25 41.4688M41.4688 29.75L35.2812 30.125M35.2812 33.875L41.4688 34.25M22.5312 29.75L28.7188 30.125M28.7188 33.875L22.5312 34.25" stroke="black" stroke-width="1.5" stroke-linecap="round" stroke-linejoin="round"/>
<path d="M83.4249 24.5754C82.4517 23.5925 81.2938 22.8116 80.0178 22.2775C78.7419 21.7435 77.3729 21.4668 75.9897 21.4634C74.6065 21.46 73.2362 21.7299 71.9576 22.2577C70.679 22.7855 69.5173 23.5607 68.5392 24.5388C67.5612 25.5168 66.786 26.6786 66.2582 27.9571C65.7304 29.2357 65.4605 30.606 65.4639 31.9892C65.4673 33.3724 65.744 34.7414 66.278 36.0173C66.8121 37.2933 67.593 38.4512 68.5759 39.4245C69.5491 40.4074 70.707 41.1883 71.983 41.7223C73.259 42.2564 74.6279 42.533 76.0111 42.5364C77.3943 42.5398 78.7646 42.2699 80.0432 41.7421C81.3218 41.2144 82.4835 40.4392 83.4616 39.4611C84.4397 38.483 85.2149 37.3213 85.7426 36.0427C86.2704 34.7641 86.5403 33.3939 86.5369 32.0106C86.5335 30.6274 86.2569 29.2585 85.7228 27.9825C85.1887 26.7065 84.4078 25.5487 83.4249 24.5754ZM73.0065 32.1959C72.9667 31.5871 73.1135 30.9807 73.4272 30.4575C73.7408 29.9344 74.2066 29.5192 74.7623 29.2675C75.3179 29.0158 75.9371 28.9395 76.5373 29.0487C77.1375 29.1579 77.6901 29.4475 78.1214 29.8789C78.5528 30.3103 78.8424 30.8629 78.9516 31.463C79.0609 32.0632 78.9845 32.6824 78.7328 33.2381C78.4811 33.7938 78.066 34.2595 77.5428 34.5732C77.0196 34.8869 76.4132 35.0336 75.8045 34.9938C75.0782 34.9457 74.3942 34.6354 73.8796 34.1208C73.3649 33.6061 73.0547 32.9221 73.0065 32.1959ZM84.2565 29.0721L79.7392 29.3459C79.7083 29.3475 79.6774 29.3416 79.6493 29.3286C79.6212 29.3156 79.5967 29.2959 79.5779 29.2713C79.3346 28.9525 79.0497 28.6676 78.7309 28.4243C78.7063 28.4055 78.6866 28.381 78.6737 28.3529C78.6607 28.3248 78.6547 28.294 78.6564 28.2631L78.9301 23.7457C78.9318 23.7163 78.9404 23.6876 78.9552 23.6621C78.97 23.6366 78.9906 23.615 79.0154 23.599C79.0401 23.5829 79.0683 23.573 79.0976 23.5699C79.127 23.5668 79.1566 23.5707 79.1842 23.5812C80.3768 24.0355 81.4597 24.7369 82.362 25.6395C83.2642 26.5421 83.9653 27.6253 84.4192 28.8181C84.4297 28.8456 84.4336 28.8752 84.4305 28.9046C84.4274 28.9339 84.4174 28.9621 84.4014 28.9868C84.3853 29.0116 84.3637 29.0322 84.3382 29.047C84.3127 29.0618 84.2841 29.0704 84.2546 29.0721H84.2565ZM73.0726 23.7457L73.3464 28.2631C73.348 28.294 73.342 28.3248 73.3291 28.3529C73.3161 28.381 73.2964 28.4055 73.2718 28.4243C72.953 28.6676 72.6681 28.9525 72.4248 29.2713C72.406 29.2959 72.3815 29.3156 72.3534 29.3286C72.3253 29.3416 72.2945 29.3475 72.2635 29.3459L67.7462 29.0721C67.7168 29.0704 67.6881 29.0618 67.6626 29.047C67.6371 29.0322 67.6155 29.0116 67.5995 28.9868C67.5834 28.9621 67.5735 28.9339 67.5704 28.9046C67.5673 28.8752 67.5711 28.8456 67.5817 28.8181C68.0357 27.6251 68.7371 26.5418 69.6397 25.6392C70.5422 24.7366 71.6256 24.0352 72.8185 23.5812C72.8461 23.5707 72.8757 23.5668 72.9051 23.5699C72.9344 23.573 72.9626 23.5829 72.9873 23.599C73.0121 23.615 73.0327 23.6366 73.0475 23.6621C73.0623 23.6876 73.0709 23.7163 73.0726 23.7457ZM67.7462 34.9277L72.2635 34.654C72.2945 34.6524 72.3253 34.6583 72.3534 34.6713C72.3815 34.6843 72.406 34.7039 72.4248 34.7285C72.6681 35.0473 72.953 35.3322 73.2718 35.5756C73.2964 35.5943 73.3161 35.6188 73.3291 35.6469C73.342 35.675 73.348 35.7059 73.3464 35.7368L73.0726 40.2541C73.0709 40.2836 73.0623 40.3122 73.0475 40.3377C73.0327 40.3632 73.0121 40.3849 72.9873 40.4009C72.9626 40.4169 72.9344 40.4269 72.9051 40.43C72.8757 40.4331 72.8461 40.4292 72.8185 40.4187C71.6256 39.9646 70.5422 39.2632 69.6397 38.3607C68.7371 37.4581 68.0357 36.3747 67.5817 35.1818C67.5711 35.1543 67.5673 35.1246 67.5704 35.0953C67.5735 35.066 67.5834 35.0378 67.5995 35.013C67.6155 34.9883 67.6371 34.9676 67.6626 34.9528C67.6881 34.938 67.7168 34.9294 67.7462 34.9277ZM78.9282 40.2541L78.6545 35.7368C78.6529 35.7059 78.6588 35.675 78.6718 35.6469C78.6848 35.6188 78.7044 35.5943 78.729 35.5756C79.0478 35.3322 79.3327 35.0473 79.576 34.7285C79.5948 34.7039 79.6193 34.6843 79.6474 34.6713C79.6755 34.6583 79.7064 34.6524 79.7373 34.654L84.2546 34.9277C84.2841 34.9294 84.3127 34.938 84.3382 34.9528C84.3637 34.9676 84.3853 34.9883 84.4014 35.013C84.4174 35.0378 84.4274 35.066 84.4305 35.0953C84.4336 35.1246 84.4297 35.1543 84.4192 35.1818C83.9651 36.3747 83.2637 37.4581 82.3612 38.3607C81.4586 39.2632 80.3752 39.9646 79.1823 40.4187C79.1547 40.4292 79.1251 40.4331 79.0958 40.43C79.0664 40.4269 79.0383 40.4169 79.0135 40.4009C78.9888 40.3849 78.9681 40.3632 78.9533 40.3377C78.9385 40.3122 78.9299 40.2836 78.9282 40.2541Z" fill="black"/>
<rect x="0.5" y="0.5" width="107" height="63" rx="4.5" stroke="#9747FF" stroke-dasharray="10 5"/>
</svg>
