<svg width="108" height="64" viewBox="0 0 108 64" fill="none" xmlns="http://www.w3.org/2000/svg">
<path d="M32 23C27.0312 23 23 27.0312 23 32C23 36.9688 27.0312 41 32 41C36.9688 41 41 36.9688 41 32C41 27.0312 36.9688 23 32 23Z" stroke="black" stroke-width="1.5" stroke-miterlimit="10"/>
<path d="M32 26V32.75H36.5" stroke="black" stroke-width="1.5" stroke-linecap="round" stroke-linejoin="round"/>
<path d="M76 23C71.0297 23 67 27.0297 67 32C67 36.9703 71.0297 41 76 41C80.9703 41 85 36.9703 85 32C85 27.0297 80.9703 23 76 23ZM80.1538 33.3846H76C75.8164 33.3846 75.6403 33.3117 75.5105 33.1818C75.3806 33.052 75.3077 32.8759 75.3077 32.6923V26.4615C75.3077 26.2779 75.3806 26.1018 75.5105 25.972C75.6403 25.8422 75.8164 25.7692 76 25.7692C76.1836 25.7692 76.3597 25.8422 76.4895 25.972C76.6194 26.1018 76.6923 26.2779 76.6923 26.4615V32H80.1538C80.3375 32 80.5135 32.0729 80.6434 32.2028C80.7732 32.3326 80.8462 32.5087 80.8462 32.6923C80.8462 32.8759 80.7732 33.052 80.6434 33.1818C80.5135 33.3117 80.3375 33.3846 80.1538 33.3846Z" fill="black"/>
<rect x="0.5" y="0.5" width="107" height="63" rx="4.5" stroke="#9747FF" stroke-dasharray="10 5"/>
</svg>
