<svg width="108" height="64" viewBox="0 0 108 64" fill="none" xmlns="http://www.w3.org/2000/svg">
<path d="M35 37.2401H38.5625C41.1406 37.2401 43.25 35.8709 43.25 33.3214C43.25 30.7718 40.7656 29.5025 38.75 29.4026C38.3333 25.4154 35.4219 22.9901 32 22.9901C28.7656 22.9901 26.6825 25.1365 26 27.2651C23.1875 27.5323 20.75 29.322 20.75 32.2526C20.75 35.1832 23.2812 37.2401 26.375 37.2401H29" stroke="black" stroke-width="1.5" stroke-linecap="round" stroke-linejoin="round"/>
<path d="M35 31.9901L32 28.9901L29 31.9901M32 41.0098V29.7401" stroke="black" stroke-width="1.5" stroke-linecap="round" stroke-linejoin="round"/>
<path d="M86.2028 29.8437C85.5466 29.3571 84.7403 29 83.8891 28.8073C83.7493 28.7759 83.6214 28.7053 83.5202 28.6039C83.419 28.5024 83.3488 28.3743 83.3177 28.2345C82.952 26.6056 82.165 25.2087 81.0081 24.1503C79.6633 22.9179 77.8848 22.2401 76 22.2401C74.343 22.2401 72.8125 22.7595 71.5764 23.7425C70.7387 24.4097 70.0643 25.2594 69.6048 26.2268C69.555 26.3327 69.4811 26.4254 69.3891 26.4976C69.297 26.5698 69.1894 26.6195 69.0747 26.6426C67.8208 26.8957 66.6888 27.4334 65.8244 28.1951C64.6309 29.2498 64 30.6518 64 32.2526C64 33.8707 64.6792 35.3464 65.912 36.4132C67.0895 37.43 68.6748 37.9901 70.375 37.9901H75.25V30.8009L73.5302 32.5207C73.4584 32.5925 73.3727 32.649 73.2785 32.6867C73.1842 32.7244 73.0832 32.7426 72.9817 32.7402C72.8802 32.7377 72.7803 32.7147 72.6879 32.6724C72.5956 32.6302 72.5128 32.5697 72.4445 32.4945C72.1727 32.1959 72.1989 31.7304 72.4844 31.445L75.4698 28.46C75.6105 28.3194 75.8012 28.2405 76 28.2405C76.1988 28.2405 76.3895 28.3194 76.5302 28.46L79.5156 31.444C79.81 31.7389 79.8269 32.2221 79.5339 32.5179C79.4644 32.5881 79.3817 32.6439 79.2906 32.6821C79.1995 32.7202 79.1017 32.74 79.0029 32.7402C78.9041 32.7405 78.8063 32.7212 78.715 32.6836C78.6236 32.6459 78.5407 32.5906 78.4708 32.5207L76.75 30.8009V37.9901H82.5625C84.0316 37.9901 85.3708 37.5776 86.3336 36.829C87.4239 35.9806 88 34.7665 88 33.3214C88 31.9179 87.3784 30.7146 86.2028 29.8437ZM75.25 41.0098C75.25 41.2087 75.329 41.3995 75.4697 41.5401C75.6103 41.6808 75.8011 41.7598 76 41.7598C76.1989 41.7598 76.3897 41.6808 76.5303 41.5401C76.671 41.3995 76.75 41.2087 76.75 41.0098V37.9901H75.25V41.0098Z" fill="black"/>
<rect x="0.5" y="0.5" width="107" height="63" rx="4.5" stroke="#9747FF" stroke-dasharray="10 5"/>
</svg>
