<svg width="108" height="64" viewBox="0 0 108 64" fill="none" xmlns="http://www.w3.org/2000/svg">
<path d="M36.1246 26.75C35.9408 29.2283 34.0621 31.25 31.9995 31.25C29.937 31.25 28.055 29.2288 27.8745 26.75C27.687 24.1719 29.5152 22.25 31.9995 22.25C34.4839 22.25 36.3121 24.2188 36.1246 26.75Z" stroke="black" stroke-width="1.5" stroke-linecap="round" stroke-linejoin="round"/>
<!-- <path d="M32.0001 34.25C27.922 34.25 23.7829 36.5 23.017 40.7469C22.9246 41.2588 23.2143 41.75 23.7501 41.75H40.2501C40.7864 41.75 41.0761 41.2588 40.9837 40.7469C40.2173 36.5 36.0782 34.25 32.0001 34.25Z" stroke="black" stroke-width="1.5" stroke-miterlimit="10"/> -->
<path d="M79.5928 23.0272C78.6806 22.0423 77.4065 21.5 76.0003 21.5C74.5865 21.5 73.3082 22.0391 72.4003 23.0178C71.4825 24.0073 71.0353 25.3522 71.1403 26.8044C71.3484 29.6694 73.5285 32 76.0003 32C78.472 32 80.6484 29.6698 80.8598 26.8053C80.9662 25.3662 80.5162 24.0242 79.5928 23.0272ZM84.2503 42.5H67.7503C67.5343 42.5028 67.3204 42.4574 67.1242 42.3672C66.928 42.2769 66.7543 42.1441 66.6159 41.9783C66.3112 41.6141 66.1884 41.1167 66.2793 40.6137C66.675 38.4191 67.9096 36.5755 69.8503 35.2812C71.5743 34.1323 73.7582 33.5 76.0003 33.5C78.2423 33.5 80.4262 34.1328 82.1503 35.2812C84.0909 36.575 85.3256 38.4186 85.7212 40.6133C85.8121 41.1162 85.6893 41.6136 85.3846 41.9778C85.2463 42.1437 85.0726 42.2766 84.8764 42.367C84.6802 42.4573 84.4663 42.5028 84.2503 42.5Z" fill="black"/>
<!-- <rect x="0.5" y="0.5" width="107" height="63" rx="4.5" stroke="#9747FF" stroke-dasharray="10 5"/> -->
</svg>
