<svg width="108" height="64" viewBox="0 0 108 64" fill="none" xmlns="http://www.w3.org/2000/svg">
<path d="M36.539 29.186C36.0742 29.0166 35.5828 28.9316 35.088 28.935C33.488 28.935 32.358 29.741 32.35 30.898C32.34 31.748 33.153 32.227 33.768 32.511C34.399 32.803 34.61 32.987 34.608 33.248C34.604 33.645 34.104 33.825 33.639 33.825C33 33.825 32.651 33.736 32.114 33.513L31.915 33.42L31.688 34.752C32.077 34.914 32.778 35.053 33.502 35.065C35.203 35.065 36.315 34.264 36.328 33.033C36.342 32.354 35.902 31.841 34.976 31.417C34.413 31.142 34.064 30.958 34.064 30.679C34.064 30.432 34.363 30.168 34.988 30.168C35.404 30.158 35.8174 30.236 36.201 30.397L36.351 30.464L36.578 29.177L36.539 29.186ZM40.691 29.043H39.441C39.052 29.043 38.759 29.15 38.589 29.536L36.185 34.982H37.886L38.226 34.089L40.302 34.091C40.351 34.3 40.501 34.982 40.501 34.982H42.001L40.691 29.043ZM30.049 28.993H31.67L30.656 34.935H29.037L30.049 28.991V28.993ZM25.934 32.268L26.102 33.093L27.686 29.043H29.403L26.852 34.974H25.139L23.739 29.952C23.7164 29.8692 23.6631 29.7981 23.59 29.753C23.0854 29.4924 22.5508 29.2946 21.998 29.164L22.02 29.039H24.629C24.983 29.053 25.268 29.164 25.363 29.542L25.933 32.271V32.268H25.934ZM38.691 32.874L39.337 31.212C39.329 31.23 39.47 30.869 39.552 30.646L39.663 31.159L40.038 32.873H38.69V32.874H38.691Z" fill="black"/>
<g clip-path="url(#clip0_79_5669)">
<path d="M64.96 24.464C64.4299 24.464 64 24.8938 64 25.424V38.576C64 39.1062 64.4301 39.536 64.96 39.536H87.04C87.5701 39.536 88 39.1062 88 38.576V25.424C88 24.8938 87.5699 24.464 87.04 24.464H64.96ZM78.334 28.9557C78.9181 28.9557 79.3862 29.0848 79.6847 29.2047L79.4807 30.488L79.3457 30.4197C79.0677 30.2998 78.7105 30.1843 78.2177 30.1925C77.6279 30.1925 77.3553 30.4556 77.3553 30.7018C77.3518 30.9791 77.6739 31.1621 78.2005 31.436C79.0697 31.8586 79.4714 32.3711 79.4658 33.0447C79.4541 34.2739 78.426 35.0682 76.8423 35.0682C76.1666 35.0608 75.5156 34.9178 75.1637 34.7525L75.3753 33.4265L75.5695 33.521C76.0643 33.7421 76.3847 33.8315 76.9877 33.8315C77.4208 33.8315 77.8856 33.6502 77.8893 33.2532C77.8921 32.994 77.695 32.8092 77.1085 32.519C76.537 32.2357 75.7794 31.7611 75.7878 30.9102C75.7967 29.7592 76.8453 28.9557 78.334 28.9557ZM66.1225 29.144H68.5547C68.8823 29.1564 69.1467 29.2618 69.238 29.6172L69.7623 32.3232C69.7623 32.3235 69.7622 32.3245 69.7623 32.3247L69.9197 33.1355L71.3965 29.144H72.994L70.6195 34.9865L69.0235 34.988L67.753 30.2735C68.509 30.674 69.1525 31.1373 69.5253 31.775C69.4292 31.5732 69.3025 31.3455 69.1405 31.121C68.9518 30.8596 68.5443 30.5221 68.374 30.3785C67.7805 29.8781 66.9744 29.4741 66.1037 29.2602L66.1225 29.144ZM73.6293 29.1507H75.1915L74.2142 34.9842H72.652L73.6293 29.1507ZM82.453 29.1507H83.6365L84.8755 34.9842H83.455C83.455 34.9842 83.3141 34.3141 83.2683 34.1097C83.045 34.1097 81.4834 34.1075 81.3077 34.1075C81.2483 34.2654 80.9853 34.9842 80.9853 34.9842H79.378L81.6513 29.6352C81.8122 29.2551 82.0865 29.1507 82.453 29.1507ZM82.5693 30.7197C82.4924 30.9367 82.3585 31.2871 82.3675 31.2717C82.3675 31.2717 81.8866 32.5543 81.7608 32.8872L83.0245 32.8865C82.9071 32.3302 82.7896 31.774 82.672 31.2178L82.5693 30.7198V30.7197Z" fill="black"/>
</g>
<rect x="0.5" y="0.5" width="107" height="63" rx="4.5" stroke="#9747FF" stroke-dasharray="10 5"/>
<defs>
<clipPath id="clip0_79_5669">
<rect width="24" height="24" fill="white" transform="translate(64 20)"/>
</clipPath>
</defs>
</svg>
