<svg width="108" height="64" viewBox="0 0 108 64" fill="none" xmlns="http://www.w3.org/2000/svg">
<path d="M39.5 26.75H24.5C23.2574 26.75 22.25 27.7574 22.25 29V38C22.25 39.2426 23.2574 40.25 24.5 40.25H39.5C40.7426 40.25 41.75 39.2426 41.75 38V29C41.75 27.7574 40.7426 26.75 39.5 26.75Z" stroke="black" stroke-width="1.5" stroke-linejoin="round"/>
<path d="M39.2825 26.75V25.3437C39.2824 24.9988 39.2062 24.6582 39.0592 24.3461C38.9123 24.0341 38.6984 23.7583 38.4326 23.5385C38.1668 23.3187 37.8558 23.1602 37.5217 23.0744C37.1877 22.9886 36.8388 22.9776 36.5 23.0422L24.155 25.1492C23.6189 25.2514 23.1353 25.5374 22.7875 25.958C22.4397 26.3786 22.2496 26.9074 22.25 27.4531V29.75" stroke="black" stroke-width="1.5" stroke-linejoin="round"/>
<path d="M37.25 35C36.9533 35 36.6633 34.912 36.4166 34.7472C36.17 34.5824 35.9777 34.3481 35.8642 34.074C35.7506 33.7999 35.7209 33.4983 35.7788 33.2074C35.8367 32.9164 35.9796 32.6491 36.1893 32.4393C36.3991 32.2296 36.6664 32.0867 36.9574 32.0288C37.2483 31.9709 37.5499 32.0006 37.824 32.1142C38.0981 32.2277 38.3324 32.42 38.4972 32.6666C38.662 32.9133 38.75 33.2033 38.75 33.5C38.75 33.8978 38.592 34.2794 38.3107 34.5607C38.0294 34.842 37.6478 35 37.25 35Z" fill="black"/>
<path d="M68.4766 24.875H83.4766C83.6518 24.8749 83.8268 24.886 84.0006 24.9083C83.9417 24.4947 83.7997 24.0974 83.583 23.7402C83.3664 23.3831 83.0797 23.0735 82.7402 22.8301C82.4007 22.5868 82.0154 22.4147 81.6076 22.3242C81.1998 22.2338 80.7779 22.2269 80.3673 22.3039L68.0312 24.41H68.0172C67.2428 24.5581 66.5542 24.9962 66.092 25.6348C66.7884 25.1395 67.622 24.8739 68.4766 24.875ZM83.4766 26H68.4766C67.6812 26.0009 66.9186 26.3172 66.3562 26.8796C65.7938 27.4421 65.4774 28.2046 65.4766 29V38C65.4774 38.7954 65.7938 39.5579 66.3562 40.1204C66.9186 40.6828 67.6812 40.9991 68.4766 41H83.4766C84.2719 40.9991 85.0345 40.6828 85.5969 40.1204C86.1593 39.5579 86.4757 38.7954 86.4766 38V29C86.4757 28.2046 86.1593 27.4421 85.5969 26.8796C85.0345 26.3172 84.2719 26.0009 83.4766 26ZM81.25 35C80.9533 35 80.6633 34.912 80.4166 34.7472C80.17 34.5824 79.9777 34.3481 79.8642 34.074C79.7506 33.7999 79.7209 33.4983 79.7788 33.2074C79.8367 32.9164 79.9796 32.6491 80.1893 32.4393C80.3991 32.2296 80.6664 32.0867 80.9574 32.0288C81.2483 31.9709 81.5499 32.0006 81.824 32.1142C82.0981 32.2277 82.3324 32.42 82.4972 32.6666C82.662 32.9133 82.75 33.2033 82.75 33.5C82.75 33.8978 82.592 34.2794 82.3107 34.5607C82.0294 34.842 81.6478 35 81.25 35Z" fill="black"/>
<path d="M65.5 32.1641V27.5C65.5 26.4842 66.0625 24.7812 68.0148 24.4123C69.6719 24.1016 71.3125 24.1016 71.3125 24.1016C71.3125 24.1016 72.3906 24.8516 71.5 24.8516C70.6094 24.8516 70.6328 26 71.5 26C72.3672 26 71.5 27.1016 71.5 27.1016L68.0078 31.0625L65.5 32.1641Z" fill="black"/>
<rect x="0.5" y="0.5" width="107" height="63" rx="4.5" stroke="#9747FF" stroke-dasharray="10 5"/>
</svg>
