<svg width="108" height="64" viewBox="0 0 108 64" fill="none" xmlns="http://www.w3.org/2000/svg">
<path d="M35.5818 34.5589C34.595 33.6818 33.3207 33.1973 32.0005 33.1973C30.6803 33.1973 29.406 33.6818 28.4193 34.5589M38.4435 31.6972C36.6959 30.063 34.3927 29.1539 32.0001 29.1539C29.6075 29.1539 27.3042 30.063 25.5566 31.6972" stroke="black" stroke-width="1.5" stroke-linecap="round" stroke-linejoin="round"/> 
<path d="M40.9864 28.5363C38.513 26.3298 35.3142 25.1104 31.9996 25.1104C28.6849 25.1104 25.4862 26.3298 23.0127 28.5363" stroke="black" stroke-width="1.5" stroke-linecap="round" stroke-linejoin="round"/> 
<path d="M32 39.5C31.7033 39.5 31.4133 39.412 31.1666 39.2472C30.92 39.0824 30.7277 38.8481 30.6142 38.574C30.5006 38.2999 30.4709 37.9983 30.5288 37.7074C30.5867 37.4164 30.7296 37.1491 30.9393 36.9393C31.1491 36.7296 31.4164 36.5867 31.7074 36.5288C31.9983 36.4709 32.2999 36.5006 32.574 36.6142C32.8481 36.7277 33.0824 36.92 33.2472 37.1666C33.412 37.4133 33.5 37.7033 33.5 38C33.5 38.3978 33.342 38.7794 33.0607 39.0607C32.7794 39.342 32.3978 39.5 32 39.5Z" fill="black"/>
<path d="M80.2495 34.2641C79.0826 33.2268 77.5755 32.6538 76.0141 32.6538C74.4528 32.6538 72.9457 33.2268 71.7787 34.2641C71.6801 34.3495 71.5995 34.4535 71.5414 34.5703C71.4834 34.6871 71.4491 34.8142 71.4406 34.9443C71.4321 35.0744 71.4495 35.2049 71.4919 35.3283C71.5342 35.4516 71.6007 35.5653 71.6873 35.6627C71.774 35.7602 71.8791 35.8394 71.9967 35.8959C72.1142 35.9523 72.2418 35.9849 72.372 35.9916C72.5023 35.9983 72.6325 35.9791 72.7553 35.9351C72.878 35.891 72.9908 35.8231 73.087 35.7351C73.8936 35.0183 74.9351 34.6223 76.0141 34.6223C77.0932 34.6223 78.1347 35.0183 78.9412 35.7351C79.1364 35.9086 79.3925 35.9974 79.6532 35.9821C79.9139 35.9667 80.1578 35.8485 80.3313 35.6533C80.5048 35.4581 80.5936 35.202 80.5783 34.9413C80.563 34.6806 80.4447 34.4367 80.2495 34.2632V34.2641Z" fill="black"/> -->
<path d="M76.0135 28.6108C73.3706 28.6072 70.8258 29.6117 68.8979 31.4196C68.8003 31.507 68.7211 31.6131 68.665 31.7315C68.6089 31.8499 68.5771 31.9784 68.5713 32.1093C68.5655 32.2402 68.5859 32.371 68.6313 32.4939C68.6767 32.6168 68.7462 32.7295 68.8357 32.8252C68.9252 32.9209 69.0329 32.9978 69.1525 33.0513C69.2721 33.1048 69.4012 33.134 69.5322 33.1369C69.6632 33.1399 69.7935 33.1167 69.9155 33.0687C70.0374 33.0207 70.1485 32.9488 70.2423 32.8573C71.8076 31.3938 73.8706 30.5796 76.0135 30.5796C78.1565 30.5796 80.2194 31.3938 81.7848 32.8573C81.8785 32.9488 81.9897 33.0207 82.1116 33.0687C82.2335 33.1167 82.3638 33.1399 82.4948 33.1369C82.6258 33.134 82.7549 33.1048 82.8745 33.0513C82.9941 32.9978 83.1018 32.9209 83.1913 32.8252C83.2808 32.7295 83.3503 32.6168 83.3957 32.4939C83.4412 32.371 83.4616 32.2402 83.4558 32.1093C83.45 31.9784 83.4181 31.8499 83.362 31.7315C83.3059 31.6131 83.2268 31.507 83.1291 31.4196C81.2013 29.6117 78.6565 28.6072 76.0135 28.6108Z" fill="black"/>
<path d="M85.6567 28.2435C83.0027 25.8756 79.5703 24.5669 76.0135 24.5669C72.4568 24.5669 69.0243 25.8756 66.3704 28.2435C66.2707 28.3287 66.189 28.433 66.1301 28.5502C66.0712 28.6675 66.0364 28.7953 66.0276 28.9262C66.0188 29.057 66.0363 29.1884 66.079 29.3124C66.1217 29.4364 66.1887 29.5507 66.2762 29.6484C66.3637 29.7462 66.4698 29.8255 66.5884 29.8816C66.7069 29.9378 66.8355 29.9697 66.9666 29.9754C67.0976 29.9812 67.2285 29.9607 67.3515 29.9152C67.4745 29.8696 67.5872 29.8 67.6829 29.7102C69.9759 27.6653 72.9409 26.5352 76.0133 26.5352C79.0857 26.5352 82.0507 27.6653 84.3437 29.7102C84.5383 29.8843 84.7941 29.9739 85.0548 29.9594C85.3155 29.9448 85.5597 29.8273 85.7338 29.6327C85.9078 29.438 85.9974 29.1823 85.9829 28.9216C85.9683 28.6609 85.8508 28.4166 85.6562 28.2426L85.6567 28.2435Z" fill="black"/>
<path d="M76.0127 39.9412C76.8411 39.9412 77.5127 39.2696 77.5127 38.4412C77.5127 37.6127 76.8411 36.9412 76.0127 36.9412C75.1843 36.9412 74.5127 37.6127 74.5127 38.4412C74.5127 39.2696 75.1843 39.9412 76.0127 39.9412Z" fill="black"/> 
<rect x="0.5" y="0.5" width="107" height="63" rx="4.5" stroke="#9747FF" stroke-dasharray="10 5"/> 
</svg>
